<svg width="96" height="96" viewBox="0 0 96 96" fill="none" xmlns="http://www.w3.org/2000/svg">
<path d="M38.6221 21.0586C38.5744 18.9436 38.9375 16.8396 39.6912 14.8631C41.2454 10.703 44.5105 6.47136 48.5905 4.45498C49.7458 3.88396 49.7584 4.50936 50.3436 4.41163C51.8502 4.15963 51.6487 3.68796 53.2672 4.3018C54.2388 4.17968 54.2957 4.42175 55.2506 4.65641C62.4907 6.43542 64.0115 18.1323 61.4214 24.0801C61.2158 24.5525 60.3993 26.4135 60.3455 26.7053C60.3989 27.2745 60.2584 27.3379 59.9946 27.9187C58.3077 31.2885 54.9377 34.4642 51.3359 35.6511C49.272 36.331 47.6406 35.4845 46.4143 37.933C45.6936 39.3719 45.2098 41.91 45.0769 43.4801L45.1543 43.6359C45.499 43.4729 45.5281 43.4507 45.8343 43.2193L46.5468 42.8463L46.7485 42.9254C46.6217 43.58 45.1819 44.7799 44.5821 45.0612C44.3568 45.7812 44.1497 46.5907 44.1515 47.3509C44.9777 46.1835 45.3871 44.7326 46.8472 44.3286C46.6046 44.9398 46.2935 44.8753 45.9069 45.3074C44.9638 46.362 44.4059 47.4556 44.4339 48.8775L44.4353 48.9832C44.4476 51.0624 44.1343 53.5216 44.1461 55.8828C44.2255 63.0036 45.7955 70.0287 48.755 76.5048C51.4103 69.7896 57.8525 66.7742 64.7991 68.0703C65.807 68.2584 66.1898 67.6863 67.6422 68.279C67.8406 68.3606 68.0378 68.4457 68.2334 68.5342L67.9764 68.9851C68.1954 69.2395 68.2009 69.145 68.2155 69.3829L67.5976 69.6013C67.0558 69.7081 66.65 69.782 66.1233 69.9561C62.4934 72.2608 61.5359 74.5928 60.2265 78.2836C60.7774 78.8006 60.6643 78.4707 61.3438 78.696C61.9598 78.9673 62.0584 79.0213 62.7462 79.0204L62.9742 79.206L62.8863 79.2159C62.6178 79.2484 62.5427 79.241 62.3033 79.3785L62.3598 79.4923L62.6247 79.8436L63.0721 79.7801L63.127 80.0418C62.5402 80.3177 62.5909 80.1842 62.3264 80.6652L60.0006 80.7427L59.4037 80.8159L59.2749 80.89C58.4639 81.1562 57.5916 82.1131 56.9993 82.0885C56.9777 81.8835 56.9755 81.7997 56.9807 81.5932L56.4795 81.6548C54.6236 81.6261 53.652 81.9068 51.9944 81.9999L52.1046 82.3113C51.8877 82.7203 52.0464 82.5812 51.612 82.7423L51.4795 82.7215C50.8818 82.8437 50.7166 82.8549 50.1148 82.87C49.1288 81.6093 49.3937 81.2597 47.6684 81.3078L47.5512 80.931C47.1546 79.8384 46.8881 78.4742 45.7003 78.0937L45.6857 78.1734C45.455 78.0632 45.2202 78.0778 44.9604 78.0648L44.504 77.7228C44.5047 77.5633 44.5587 77.3646 44.5926 77.2024C43.6781 77.0693 43.0607 76.8588 42.2809 76.3741L42.1471 76.2667C41.5496 76.1706 41.4357 76.196 40.8567 76.2873C40.5067 76.4872 39.9125 76.9472 39.5433 76.7726C38.483 76.2713 38.4792 75.9812 37.3148 76.6115C36.8392 76.7808 36.6144 76.6758 36.1878 76.4739C36.3309 76.0329 36.3503 75.3181 36.3716 74.8408C36.3651 74.7443 36.3586 74.6479 36.3521 74.5514L36.3398 74.428C36.2492 73.4504 35.5916 73.0123 35.667 72.3622L36.5548 72.0361C38.6461 71.4734 41.1434 71.5406 43.1211 72.491C42.822 70.6903 42.2479 68.7472 41.9317 66.9312C41.3463 63.569 40.9468 59.8444 40.9686 56.4327C40.9908 54.754 41.0645 53.0763 41.1891 51.4021C41.3393 49.4755 41.9313 45.9976 41.4698 44.2434C40.6857 41.5181 37.2648 42.5171 35.2066 42.1359C28.2699 40.8515 24.0858 36.3012 22.0428 29.7492C26.7391 29.1001 30.3819 28.4518 35.0762 30.3159C38.1772 31.5923 41.0118 33.7091 42.2952 36.899C42.6881 37.8756 42.808 39.0951 43.1945 39.9346C43.7239 38.5234 43.9628 37.0195 43.8969 35.5136C43.4242 35.0504 42.8217 34.5891 42.2545 34.1205C38.5867 31.0897 37.6557 26.1845 37.9912 21.6641C38.0183 21.2994 38.3476 21.1957 38.6221 21.0586Z" fill="#4B602D"/>
<path d="M38.6216 21.0586C38.5739 18.9436 38.937 16.8396 39.6907 14.8631C41.2449 10.703 44.51 6.47137 48.5901 4.45498C49.7453 3.88396 49.7579 4.50936 50.3431 4.41163C51.8497 4.15963 51.6482 3.68796 53.2667 4.3018C54.2383 4.17968 54.2952 4.42175 55.2502 4.65641C62.4902 6.43542 64.0111 18.1323 61.4209 24.0801C61.2153 24.5525 60.3988 26.4135 60.345 26.7053C60.3984 27.2745 60.258 27.3379 59.9942 27.9187C59.8093 27.7035 59.5912 27.6083 59.3427 27.4678C58.415 27.7854 57.3846 28.5406 56.5545 28.7831C54.2067 29.4688 49.2812 29.9838 47.679 32.0526C46.8316 32.6675 46.5192 32.9463 46.0157 33.8688L45.5374 32.855L46.0651 32.6863C45.5112 31.4794 45.2315 30.9812 44.5412 29.855C44.1243 29.4119 44.0586 29.2143 43.8137 28.6772C43.5196 28.4265 43.488 28.41 43.2912 28.0843L42.9873 28.0489L42.5303 28.2191C41.0275 26.5015 39.4496 25.2583 38.7552 23.0495C38.8917 22.3094 38.7693 21.7799 38.6216 21.0586Z" fill="url(#paint0_linear_138_4065)"/>
<path d="M38.6216 21.0586C38.5739 18.9436 38.937 16.8396 39.6907 14.8631C41.2449 10.703 44.51 6.47136 48.5901 4.45498C49.7453 3.88396 49.7579 4.50936 50.3431 4.41163C51.8497 4.15963 51.6482 3.68796 53.2667 4.3018L53.1485 4.82748C54.2219 4.87697 54.6969 5.02493 55.465 5.8774C55.6618 6.09833 55.8543 6.32324 56.0423 6.55157C54.6397 7.13217 53.9205 7.67213 52.7418 8.60679C52.4712 8.99392 52.3376 9.1733 52.014 9.51563C51.3981 10.4454 48.8461 12.2707 47.7748 13.2953C47.5596 13.4741 47.5762 13.4853 47.3063 13.5386L47.1998 13.0935C46.8668 15.2299 45.3597 16.4566 44.532 18.4461C44.0082 19.7054 43.7518 20.8503 43.4777 22.1793C43.4291 22.4147 43.3033 23.3617 43.2697 23.4549C43.1152 25.2297 42.9738 26.306 43.2912 28.0843L42.9873 28.0489L42.5303 28.2191C41.0275 26.5015 39.4496 25.2583 38.7552 23.0495C38.8917 22.3094 38.7693 21.7799 38.6216 21.0586Z" fill="#F8B1B0"/>
<path d="M38.6216 21.0586C38.5739 18.9436 38.937 16.8396 39.6907 14.8631C41.2449 10.703 44.51 6.47136 48.5901 4.45498C49.7453 3.88396 49.7579 4.50936 50.3431 4.41163C51.8497 4.15963 51.6482 3.68796 53.2667 4.3018L53.1485 4.82748C54.2219 4.87697 54.6969 5.02493 55.465 5.8774C55.6618 6.09833 55.8543 6.32324 56.0423 6.55157C54.6397 7.13217 53.9205 7.67213 52.7418 8.60679C52.4712 8.99392 52.3376 9.1733 52.014 9.51563C51.3981 10.4454 48.8461 12.2707 47.7748 13.2953C47.5596 13.4741 47.5762 13.4853 47.3063 13.5386L47.1998 13.0935C47.5157 11.7417 47.7844 10.0946 48.035 8.70759L47.9619 8.65593C47.8353 8.38351 47.9635 7.98428 48.0164 7.63058C47.7312 8.27458 47.8382 8.40736 47.3742 9.04775C47.4419 7.96712 48.2781 7.26495 47.5742 6.44788C47.6228 6.30463 48.1569 5.45595 48.2752 5.26591C42.7537 8.59035 37.0524 17.527 40.048 24.4031C40.5516 25.5592 42.3268 26.8541 42.9873 28.0489L42.5303 28.2191C41.0275 26.5015 39.4496 25.2583 38.7552 23.0495C38.8917 22.3094 38.7693 21.7799 38.6216 21.0586Z" fill="#4E3F3B"/>
<path d="M53.1487 4.82812C54.2222 4.87762 54.6972 5.02557 55.4653 5.87805C55.6621 6.09898 55.8546 6.32388 56.0426 6.55222C54.64 7.13282 53.9208 7.67277 52.7421 8.60744C52.4715 8.99457 52.3378 9.17395 52.0143 9.51628L51.4015 8.84824L50.6971 9.20069C50.2948 9.57535 50.0041 9.8474 49.4673 9.83999L49.2871 9.6411C48.9737 8.55849 49.7732 7.10157 50.2697 6.19038C50.8596 5.64935 52.0423 5.21019 52.8051 4.99577L53.1487 4.82812Z" fill="url(#paint1_linear_138_4065)"/>
<path d="M50.2697 6.18973C50.8596 5.6487 52.0423 5.20955 52.8051 4.99512C51.5537 6.06653 51.4118 5.60625 50.2495 7.16162C50.184 7.7283 50.0429 8.37936 50.2585 8.89005C50.4104 9.00548 50.5301 9.10718 50.6971 9.20004C50.2948 9.5747 50.0041 9.84675 49.4673 9.83934L49.2871 9.64045C48.9737 8.55784 49.7732 7.10092 50.2697 6.18973Z" fill="#F2A09E"/>
<path d="M51.4014 8.8473C52.2272 8.05931 52.7536 7.13928 53.2974 6.15674L53.3548 6.20913C53.1497 6.91961 52.8157 7.88896 52.742 8.60649C52.4714 8.99362 52.3377 9.173 52.0142 9.51533L51.4014 8.8473Z" fill="#F2A09E"/>
<path d="M50.27 6.18945C49.7735 7.10064 48.9739 8.55755 49.2874 9.64017L49.4676 9.83906C50.0044 9.84647 50.2951 9.57442 50.6974 9.19975L51.4017 8.84731L52.0145 9.51535C51.3987 10.4451 48.8466 12.2704 47.7754 13.295C48.1896 11.3785 48.279 9.11702 49.1 7.32464C49.3082 6.87031 49.8657 6.48264 50.27 6.18945Z" fill="#D97B78"/>
<path d="M48.2754 5.26614C48.7434 5.06328 49.0372 4.89907 49.5546 4.88281L49.705 5.00367C49.2365 5.85018 48.7595 6.52634 48.415 7.45757C48.2927 7.7878 48.1511 8.45998 48.0352 8.70783L47.9621 8.65617C47.8355 8.38375 47.9637 7.98452 48.0166 7.63082C47.7314 8.27482 47.8384 8.40759 47.3744 9.04799C47.4421 7.96736 48.2783 7.26518 47.5744 6.44812C47.623 6.30486 48.1571 5.45618 48.2754 5.26614Z" fill="#F8B1B0"/>
<path d="M51.5174 4.65723L51.7106 4.75477C51.4127 5.08987 50.652 5.35868 50.2069 5.55052L50.0657 5.55757L50.1758 5.33357C50.7374 4.90327 50.8448 4.8722 51.5174 4.65723Z" fill="#D97B78"/>
<path d="M47.3736 9.04754C47.8376 8.40715 47.7305 8.27438 48.0158 7.63037C47.9629 7.98408 47.8347 8.38331 47.9613 8.65572L48.0344 8.70739C47.7838 10.0944 47.5151 11.7415 47.1991 13.0933C46.8662 15.2296 45.3591 16.4564 44.5314 18.4459C44.0076 19.7052 43.7512 20.8501 43.4771 22.1791C43.4285 22.4145 43.3027 23.3615 43.2691 23.4547L43.0797 23.1617C43.1431 22.4996 43.1709 21.9255 43.3392 21.2782C43.5277 20.5533 44.7652 17.5387 44.6827 17.0003C43.3117 19.0433 42.6975 22.5271 42.3475 24.927L42.2388 24.9725C41.9689 21.1462 44.312 17.207 46.1449 14.0101C46.6517 13.126 46.5396 11.5753 46.8673 10.5491C46.8864 10.2821 47.2584 9.35699 47.3736 9.04754Z" fill="#F2A09E"/>
<path d="M47.5748 6.44824C48.2786 7.26531 47.4424 7.96748 47.3747 9.04811C47.2595 9.35756 46.8876 10.2827 46.8684 10.5497C46.1888 10.2046 45.2909 10.4149 45.0948 9.75192C45.3512 8.7206 46.8345 7.2691 47.5748 6.44824Z" fill="#FCD1CE"/>
<path d="M53.2673 4.30178C54.2389 4.17966 54.2957 4.42173 55.2507 4.65639C62.4908 6.4354 64.0116 18.1323 61.4215 24.0801C61.2158 24.5525 60.3993 26.4135 60.3455 26.7052L59.7192 26.4756C61.848 21.8867 62.4758 18.3781 61.4664 13.2944C61.0147 11.4579 59.9487 8.29588 58.304 7.2736C56.1844 5.95632 52.9397 9.06634 52.0122 10.763C50.703 11.9639 49.6371 12.2418 48.0363 13.8155L47.7754 13.2953C48.8466 12.2707 51.3987 10.4454 52.0145 9.51561C52.3381 9.17328 52.4717 8.9939 52.7424 8.60677C53.9211 7.67211 54.6402 7.13215 56.0428 6.55155C55.8549 6.32322 55.6624 6.09831 55.4656 5.87738C54.6975 5.02491 54.2224 4.87696 53.149 4.82746L53.2673 4.30178Z" fill="#4E3F3B"/>
<path d="M55.6403 5.28369C56.5796 5.45784 56.7907 5.58736 57.4179 6.2973L56.7798 6.3197C56.2459 6.12316 56.0126 5.73513 55.6403 5.28369Z" fill="#F8B1B0"/>
<path d="M48.0354 13.8158C49.6362 12.242 50.702 11.9641 52.0113 10.7632C52.0102 12.4696 51.0068 12.2019 50.1338 13.1092C49.3338 13.6459 48.5964 14.291 47.8759 14.9323C47.3202 15.5586 46.1561 18.0393 45.7694 18.8453C45.8988 18.4559 46.7249 16.3771 46.7103 16.164C45.7695 17.4328 44.4103 20.611 44.2523 22.1553L44.4282 22.2182C45.0025 21.5525 44.972 20.032 45.3324 19.6219C45.6838 20.2903 44.823 21.7566 44.6831 22.4902C44.4126 23.9071 45.6013 25.3394 45.6558 26.5812L45.5243 26.5568C45.1239 25.8407 44.6578 24.9055 44.3825 24.1162C44.2321 23.6854 44.4179 22.8376 44.1924 22.5544C43.7753 23.323 43.8861 27.7406 44.1487 28.7152C44.2088 28.9388 44.4686 29.5472 44.5408 29.8552C44.1239 29.4121 44.0582 29.2145 43.8134 28.6774C43.5192 28.4267 43.4876 28.4102 43.2908 28.0845C42.9734 26.3062 43.1148 25.2299 43.2693 23.4551C43.3029 23.3619 43.4288 22.4149 43.4773 22.1795C43.7514 20.8505 44.0078 19.7056 44.5316 18.4463C45.3593 16.4568 46.8664 15.23 47.1994 13.0937L47.3059 13.5388C47.5758 13.4855 47.5592 13.4743 47.7745 13.2955L48.0354 13.8158Z" fill="#F2A09E"/>
<path d="M47.1994 13.0938L47.3059 13.5389C47.5758 13.4856 47.5592 13.4744 47.7745 13.2955L48.0354 13.8158C44.1442 18.4523 43.3537 22.8189 43.8134 28.6774C43.5192 28.4267 43.4876 28.4103 43.2908 28.0846C42.9734 26.3063 43.1148 25.23 43.2693 23.4551C43.3029 23.3619 43.4288 22.415 43.4773 22.1796C43.7514 20.8506 44.0078 19.7056 44.5316 18.4463C45.3593 16.4569 46.8664 15.2301 47.1994 13.0938Z" fill="#64403D"/>
<path d="M46.0648 32.6862C50.2877 27.993 54.7363 29.9624 59.7183 26.4756L60.3446 26.7052C60.3981 27.2744 60.2576 27.3378 59.9938 27.9186C59.8089 27.7034 59.5908 27.6082 59.3424 27.4677C58.4146 27.7853 57.3842 28.5406 56.5542 28.783C54.2063 29.4687 49.2809 29.9838 47.6786 32.0525C46.8312 32.6674 46.5189 32.9462 46.0153 33.8687L45.537 32.855L46.0648 32.6862Z" fill="#4E522B"/>
<path d="M50.1339 13.1094L50.3278 13.3583C49.9985 14.0809 48.7949 15.4076 47.9062 15.2723L47.876 14.9325C48.5965 14.2912 49.3339 13.6461 50.1339 13.1094Z" fill="#FCD1CE"/>
<path d="M56.407 7.7627L56.5244 7.81165L56.6019 8.038C56.1517 8.81352 54.3429 9.87482 53.4226 10.6857L53.2881 10.6543L53.222 10.4749C54.4254 8.86934 54.6551 8.54977 56.407 7.7627Z" fill="#FCD1CE"/>
<path d="M43.7138 45.6411C43.993 45.095 43.9339 43.9578 44.1497 43.1606C44.3008 43.4864 44.2741 43.8935 44.2847 44.2619C44.366 44.485 44.49 44.8582 44.5823 45.0616C44.357 45.7816 44.1499 46.5911 44.1517 47.3513C44.9779 46.184 45.3872 44.733 46.8474 44.3291C46.6047 44.9402 46.2936 44.8757 45.9071 45.3078C44.964 46.3624 44.4061 47.4561 44.4341 48.8779L44.4355 48.9836C44.4478 51.0629 44.1345 53.522 44.1463 55.8832C44.2257 63.004 45.7957 70.0292 48.7552 76.5052C51.4105 69.79 57.8527 66.7746 64.7993 68.0708C65.8072 68.2588 66.19 67.6867 67.6424 68.2794C67.8408 68.3611 68.038 68.4462 68.2335 68.5347L67.9766 68.9856C68.1956 69.2399 68.201 69.1454 68.2157 69.3833L67.5978 69.6017C67.0559 69.7085 66.6502 69.7824 66.1235 69.9565C62.4936 72.2612 61.5361 74.5932 60.2267 78.284C60.7775 78.801 60.6645 78.4712 61.344 78.6964C61.96 78.9678 62.0586 79.0218 62.7464 79.0209L62.9744 79.2064L62.8865 79.2163C62.618 79.2488 62.5429 79.2414 62.3034 79.3789L62.36 79.4927L62.6248 79.8441L63.0723 79.7805L63.1272 80.0422C62.5403 80.3181 62.5911 80.1846 62.3266 80.6657L60.0008 80.7432L59.4038 80.8163L59.2751 80.8904C58.464 81.1567 57.5918 82.1135 56.9995 82.089C56.9779 81.8839 56.9757 81.8001 56.9809 81.5936L56.4797 81.6552C54.6237 81.6265 53.6521 81.9072 51.9946 82.0003L52.1048 82.3117C51.8879 82.7207 52.0466 82.5816 51.6122 82.7427L51.4797 82.722C50.882 82.8441 50.7168 82.8553 50.115 82.8705C49.129 81.6097 49.3938 81.2602 47.6686 81.3082L47.5514 80.9314C47.1547 79.8388 46.8882 78.4746 45.7005 78.0941L45.412 77.4465C42.0852 68.1609 41.3063 60.7927 41.8409 51.0806C42.1737 50.6132 42.2296 50.5186 42.4329 49.9833C42.2553 49.1081 43.0412 44.4113 43.5132 43.4558L43.658 43.4605C43.8693 44.1486 43.7422 44.8837 43.7138 45.6411Z" fill="#ACCC4F"/>
<path d="M57.0451 69.218C60.0335 68.0423 62.364 68.1028 65.3418 69.2602C66.2303 69.6654 65.5171 69.6457 66.1225 69.9566C62.4926 72.2613 61.5351 74.5933 60.2257 78.2841C60.7765 78.8011 60.6635 78.4712 61.3429 78.6965C61.959 78.9678 62.0576 79.0219 62.7454 79.0209L62.9734 79.2065L62.8855 79.2164C62.617 79.2489 62.5419 79.2415 62.3024 79.379L62.359 79.4928L62.6238 79.8441L63.0713 79.7806L63.1262 80.0423C62.5393 80.3182 62.5901 80.1847 62.3256 80.6657L59.9998 80.7432L59.4028 80.8164C59.0302 80.7326 58.9375 80.7102 58.5892 80.5591C58.7366 80.279 58.8344 80.327 59.2273 80.1717L59.3496 80.2008C59.5022 79.6879 59.7629 79.2254 59.6056 78.8246C59.8423 78.3596 59.8049 78.561 59.7715 78.0608C55.3859 75.9371 54.9407 79.1232 51.2414 77.8471C50.6712 77.6504 50.0093 77.9181 49.4864 77.4482C49.3017 76.8037 49.6194 76.2023 49.8845 75.6206C51.1569 72.8287 54.0998 70.087 57.0451 69.218Z" fill="url(#paint2_linear_138_4065)"/>
<path d="M65.3422 69.2603C66.2307 69.6654 65.5175 69.6458 66.1229 69.9567C62.493 72.2613 61.5355 74.5933 60.2261 78.2841C60.7769 78.8011 60.6639 78.4713 61.3433 78.6965C61.9594 78.9679 62.058 79.0219 62.7458 79.021L62.9738 79.2065L62.8859 79.2164C62.6174 79.2489 62.5423 79.2415 62.3028 79.379L62.3594 79.4928L62.6242 79.8442L63.0717 79.7806L63.1266 80.0424C62.5397 80.3182 62.5905 80.1847 62.326 80.6658L60.0002 80.7433L59.4032 80.8164C59.0306 80.7326 58.9379 80.7102 58.5896 80.5592C58.737 80.279 58.8348 80.3271 59.2277 80.1717L59.35 80.2008C59.5026 79.6879 59.7633 79.2255 59.606 78.8246C59.8427 78.3596 59.8053 78.5611 59.7719 78.0608C60.4341 74.3941 62.879 71.7304 65.7889 69.6519C63.5538 69.968 61.9499 70.1527 59.8131 71.0217C58.8952 71.3951 57.959 72.5249 57.3557 72.4653C57.5319 72.1683 58.3717 71.6168 58.6944 71.3849C61.497 69.364 64.3276 69.9736 65.3422 69.2603Z" fill="#50682F"/>
<path d="M62.3588 79.4922L62.6237 79.8435L63.0711 79.78L63.126 80.0417C62.5392 80.3176 62.5899 80.1841 62.3254 80.6651L59.9997 80.7426C59.9029 80.674 59.7055 80.4489 59.6134 80.3508C59.5542 79.9239 59.5073 80.1091 59.7223 79.7689C60.1871 79.8564 60.3223 79.888 60.7605 80.0713L60.8613 80.1143C61.3454 80.0218 61.272 79.9718 61.6615 79.5887C61.9277 79.7025 61.9565 79.7082 62.2415 79.7644L62.3588 79.4922Z" fill="#4B602D"/>
<path d="M61.3434 78.6963C61.9594 78.9676 62.058 79.0216 62.7458 79.0207L62.9738 79.2063L62.8859 79.2162C62.6174 79.2487 62.5423 79.2413 62.3029 79.3788L62.3594 79.4926L62.242 79.7648C61.9571 79.7086 61.9282 79.7029 61.6621 79.589C61.1578 79.4283 60.9176 79.3643 60.4465 79.0943L60.5399 78.9105L61.3434 78.6963Z" fill="#5A7430"/>
<path d="M57.0464 69.218C60.0348 68.0423 62.3653 68.1028 65.3431 69.2602C64.3285 69.9736 61.4979 69.3639 58.6952 71.3848C57.936 71.3969 57.196 71.7244 56.5904 71.4321C56.3283 69.9138 59.188 69.6334 59.4417 69.2073L58.9034 69.2351L58.8371 69.0711C58.6719 69.0082 57.4734 69.2275 57.0464 69.218Z" fill="#ACCC4F"/>
<path d="M46.8469 44.3286C46.6042 44.9397 46.2931 44.8753 45.9066 45.3074C44.9635 46.362 44.4056 47.4556 44.4336 48.8775L44.435 48.9832C44.4473 51.0624 44.134 53.5216 44.1457 55.8828C44.2252 63.0035 45.7951 70.0287 48.7547 76.5047C51.41 69.7895 57.8522 66.7742 64.7988 68.0703C65.8067 68.2584 66.1895 67.6863 67.6419 68.279C67.8403 68.3606 68.0375 68.4457 68.233 68.5342L67.9761 68.9851C68.1951 69.2395 68.2005 69.145 68.2152 69.3829L67.5973 69.6013C67.0554 69.7081 66.6497 69.782 66.123 69.9561C65.5176 69.6452 66.2308 69.6649 65.3423 69.2597C62.3645 68.1023 60.034 68.0418 57.0456 69.2174C54.1003 70.0865 51.1574 72.8282 49.885 75.6201C49.6199 76.2018 49.3022 76.8032 49.4869 77.4477C50.0098 77.9176 50.6717 77.6498 51.2419 77.8466C54.9412 79.1227 55.3864 75.9366 59.772 78.0603C59.8054 78.5605 59.8428 78.3591 59.6061 78.8241C59.7634 79.2249 59.5026 79.6874 59.3501 80.2002L59.2278 80.1711C58.8349 80.3265 58.7371 80.2784 58.5897 80.5586C58.938 80.7096 59.0307 80.732 59.4033 80.8159L59.2746 80.8899C58.4635 81.1562 57.5912 82.1131 56.999 82.0885C56.9773 81.8835 56.9752 81.7997 56.9804 81.5932L56.4792 81.6548C54.6232 81.6261 53.6516 81.9068 51.9941 81.9998L52.1042 82.3113C51.8874 82.7202 52.0461 82.5811 51.6117 82.7423L51.4792 82.7215C51.2903 82.3129 51.0622 81.9194 50.8178 81.5419C49.6241 79.6987 48.6682 77.7897 47.6762 75.8372C47.5159 75.0854 46.1045 71.6276 45.7159 70.3627C43.7496 63.9619 42.6648 53.8883 44.1512 47.3508C44.9774 46.1835 45.3867 44.7325 46.8469 44.3286Z" fill="#4B602D"/>
<path d="M50.7676 79.9819C50.3561 79.4945 49.8791 79.1343 50.1402 78.4962C50.9137 78.0757 52.5543 78.6868 53.3821 78.9247L54.9109 78.3091C55.133 78.5275 55.7122 79.051 55.8233 79.2952C56.3608 80.1045 57.1822 80.4297 56.4787 81.6552C54.6227 81.6265 53.6512 81.9072 51.9936 82.0002C51.8329 81.6478 51.5072 81.1151 51.3066 80.7619L50.7676 79.9819Z" fill="url(#paint3_linear_138_4065)"/>
<path d="M50.7686 79.9814C51.8936 79.8611 51.9332 79.948 52.8134 80.7556C52.4931 80.8698 51.7577 80.7477 51.3075 80.7614L50.7686 79.9814Z" fill="#AE8851"/>
<path d="M55.2784 78.1031C56.7413 77.6204 56.7054 78.5333 58.1063 78.1938L58.2349 78.8808C58.529 79.2159 59.0266 80.0017 59.2279 80.1708C58.835 80.3262 58.7372 80.2781 58.5898 80.5583C58.9381 80.7093 59.0308 80.7317 59.4034 80.8156L59.2747 80.8896C58.4636 81.1559 57.5914 82.1128 56.9991 82.0882C56.9775 81.8832 56.9753 81.7994 56.9805 81.5929L56.4793 81.6545C57.1827 80.429 56.3614 80.1038 55.8239 79.2945C55.7128 79.0503 55.1336 78.5268 54.9115 78.3084C55.1435 78.3185 55.0252 78.3318 55.2784 78.1031Z" fill="#AE8851"/>
<path d="M58.2343 78.8809C58.5285 79.216 59.0261 80.0018 59.2274 80.1709C58.8345 80.3262 58.7367 80.2782 58.5893 80.5583C58.9376 80.7094 59.0302 80.7318 59.4029 80.8156L59.2742 80.8897C58.4631 81.1559 57.5908 82.1128 56.9986 82.0882C56.9769 81.8832 56.9748 81.7994 56.98 81.5929C57.1454 81.0819 57.322 80.7963 57.7405 80.4686C58.0314 80.4055 58.0903 80.4082 58.3587 80.2661L58.4693 79.7633C58.3194 79.3803 58.3046 79.2898 58.2343 78.8809Z" fill="#4F452E"/>
<path d="M55.2784 78.1035C56.062 78.9625 56.6821 78.5667 57.52 79.1666C57.0154 79.3825 56.3536 79.4446 55.8239 79.2949C55.7128 79.0507 55.1336 78.5271 54.9115 78.3087C55.1435 78.3189 55.0252 78.3322 55.2784 78.1035Z" fill="#4E522B"/>
<path d="M58.106 78.1947C58.778 78.1624 59.0692 78.4109 59.6059 78.8246C59.7631 79.2255 59.5024 79.6879 59.3498 80.2008L59.2276 80.1717C59.0263 80.0026 58.5286 79.2168 58.2345 78.8817L58.106 78.1947Z" fill="#AE8851"/>
<path d="M65.3381 68.6805C65.632 68.6219 65.9321 68.6017 66.2311 68.6207C66.7027 68.6458 66.9449 68.7789 67.2493 69.1191C66.526 69.1424 65.7765 69.3078 65.3381 68.6805Z" fill="#8CB23C"/>
<path d="M43.7142 45.6411C43.9933 45.095 43.9343 43.9578 44.1501 43.1606C44.3012 43.4864 44.2745 43.8935 44.2851 44.2619C44.3664 44.485 44.4904 44.8582 44.5827 45.0616C44.3573 45.7816 44.1502 46.5911 44.152 47.3513C42.6657 53.8887 43.7505 63.9623 45.7168 70.3632C46.1053 71.6281 47.5168 75.0858 47.6771 75.8377C48.6691 77.7901 49.625 79.6992 50.8186 81.5423C51.0631 81.9199 51.2912 82.3133 51.48 82.722C50.8824 82.8441 50.7172 82.8553 50.1154 82.8705C49.1293 81.6097 49.3942 81.2602 47.669 81.3082L47.5518 80.9314C47.1551 79.8388 46.8886 78.4746 45.7009 78.0941L45.4123 77.4465L46.0093 77.6447C46.4531 77.7887 47.0977 79.2086 47.9626 79.3632C48.1966 79.7772 48.213 79.8601 48.5831 80.1331L48.6759 79.9911C48.2818 78.6471 47.4826 77.464 47.0818 76.1224C43.9787 68.319 42.2659 59.1869 42.9838 50.8226C43.1115 49.3352 43.3121 47.0619 43.7142 45.6411Z" fill="#8CB23C"/>
<path d="M47.0814 76.1217C47.1998 74.9992 45.6972 72.4279 45.738 71.2676C46.4016 72.8656 46.7092 74.3566 47.6014 76.045L47.6767 75.837C48.6687 77.7895 49.6245 79.6985 50.8182 81.5417C51.0627 81.9192 51.2908 82.3127 51.4796 82.7213C50.882 82.8434 50.7167 82.8546 50.1149 82.8698C49.1289 81.6091 49.3938 81.2595 47.6686 81.3076L47.5514 80.9307C47.1547 79.8382 46.8882 78.4739 45.7005 78.0935L45.4119 77.4459L46.0089 77.644C46.4527 77.788 47.0973 79.2079 47.9621 79.3625C48.1961 79.7766 48.2126 79.8595 48.5827 80.1325L48.6755 79.9905C48.2814 78.6465 47.4822 77.4634 47.0814 76.1217Z" fill="#91B640"/>
<path d="M41.8409 51.0802C42.1737 50.6128 42.2296 50.5182 42.4329 49.9829C41.9483 58.6007 42.2332 66.7643 45.1601 75.0123C45.4791 75.9119 47.9432 79.266 47.9622 79.3628C47.0973 79.2082 46.4527 77.7883 46.0089 77.6443L45.412 77.4461C42.0852 68.1605 41.3063 60.7923 41.8409 51.0802Z" fill="#8CB23C"/>
<path d="M23.0537 31.1545L23.1801 30.5907C23.5094 30.4848 23.3673 30.4617 23.6261 30.5875L23.3973 30.696C24.362 30.7845 27.0323 32.2711 27.9355 32.0599C33.3445 34.0526 38.0836 36.3308 41.089 41.6004C41.2342 41.8549 41.2463 41.9377 41.1871 42.1956L40.7465 42.0596L40.6571 42.146C38.9765 41.4819 37.7149 41.7959 36.0025 41.5811C29.5676 40.774 25.5313 36.8373 23.0537 31.1545Z" fill="url(#paint4_linear_138_4065)"/>
<path d="M23.0551 31.1543C22.8966 30.7076 22.7915 30.6774 22.9173 30.343C29.8901 28.4777 40.0865 30.5121 42.1411 38.511C42.3906 39.4825 42.4146 40.3016 42.5549 41.2724C42.3115 41.4203 42.2335 41.5074 41.9654 41.5514C40.8015 37.977 31.6177 32.0594 27.9369 32.0597C27.0337 32.2709 24.3634 30.7844 23.3987 30.6958L23.6275 30.5873C23.3687 30.4615 23.5108 30.4847 23.1815 30.5905L23.0551 31.1543Z" fill="url(#paint5_linear_138_4065)"/>
<path d="M47.6791 32.0531C49.2813 29.9843 54.2068 29.4693 56.5546 28.7836C57.3846 28.5411 58.4151 27.7858 59.3428 27.4683C59.2646 27.7076 59.2272 27.8684 59.1068 28.0908C57.5419 31.0368 54.4072 34.0424 51.1873 35.0202C50.9896 35.0823 50.7895 35.1374 50.588 35.1855C49.8057 34.5455 49.4447 34.7288 48.5047 34.4629L48.4009 34.4327L48.4811 34.2443C48.3354 34.317 48.1882 34.3863 48.0394 34.4524C47.1478 34.845 46.3382 34.9107 46.0157 33.8693C46.5193 32.9467 46.8317 32.668 47.6791 32.0531Z" fill="#91B640"/>
<path d="M47.679 32.0531C49.2813 29.9843 54.2068 29.4693 56.5546 28.7836C57.3846 28.5411 58.4151 27.7858 59.3428 27.4683C59.2646 27.7076 59.2272 27.8684 59.1068 28.0908C58.1388 28.8495 57.1474 28.9109 56.1615 29.7065C55.8795 29.9339 55.4862 30.3337 55.1999 30.4986C53.6705 31.0214 52.9472 31.3953 51.5681 32.2926C50.4835 32.9487 48.4054 34.6233 47.2914 33.5683L47.1225 33.609L47.0906 33.8205L47.8126 34.2572C47.5992 34.7198 46.7849 34.4689 46.4287 34.2826C46.2918 33.4596 47.2394 32.8606 47.679 32.0531Z" fill="#8CB23C"/>
<path d="M51.5676 32.2921C52.9467 31.3948 53.67 31.0208 55.1993 30.498C54.1385 31.4889 53.1047 32.3123 51.5676 32.2921Z" fill="#8CB23C"/>
<path d="M27.9362 32.0601C31.617 32.0597 40.8008 37.9773 41.9647 41.5518C41.9784 41.1005 42.7561 44.625 42.6911 44.4188L42.8081 44.3179C42.8668 43.405 43.5829 40.6099 43.8557 39.6292C43.8362 40.1465 43.784 40.4168 43.9739 40.8993C44.1357 40.7253 44.8796 38.5789 45.0503 38.1379L45.5156 38.1278C45.1384 39.3571 44.8511 40.6123 44.6559 41.8833C44.5532 42.5403 44.4423 43.691 44.2841 44.2615C44.2735 43.8932 44.3002 43.486 44.1491 43.1603C43.9333 43.9575 43.9924 45.0946 43.7132 45.6407C43.7416 44.8833 43.8687 44.1482 43.6574 43.4601L43.5126 43.4554C43.0406 44.4109 42.2547 49.1077 42.4323 49.9829C42.229 50.5182 42.1731 50.6129 41.8403 51.0802C41.8074 48.8846 42.6002 46.7448 42.2902 44.6181C42.1185 43.4412 41.4925 42.8306 40.6578 42.1461L40.7472 42.0598L41.1877 42.1958C41.247 41.9378 41.2349 41.8551 41.0897 41.6006C38.0843 36.3309 33.3452 34.0528 27.9362 32.0601Z" fill="#6E9230"/>
<path d="M38.749 26.4509C38.6461 25.4647 38.4605 23.9739 38.7553 23.0493C39.4497 25.2581 41.0276 26.5013 42.5304 28.2189L42.9874 28.0487L43.2913 28.0841C43.4881 28.4098 43.5197 28.4263 43.8139 28.677C44.0587 29.2141 44.1244 29.4117 44.5413 29.8548C45.2316 30.981 45.5113 31.4792 46.0652 32.6861L45.5375 32.8548C45.3459 32.616 44.9877 32.0434 44.801 31.7653C44.7591 32.7896 45.196 33.5989 45.0203 34.0337C44.0451 33.5261 43.6407 32.9253 43.2019 31.9668C43.2032 31.5901 42.6792 30.249 42.3851 29.9453C42.2325 29.7878 41.9422 29.8933 41.7203 29.9222C40.7799 28.8604 39.9571 26.9388 38.9174 25.9072C38.8376 26.1138 38.8057 26.2392 38.749 26.4509Z" fill="#91B640"/>
<path d="M42.987 28.0493L43.2909 28.0847C43.4877 28.4104 43.5193 28.4269 43.8134 28.6776C44.0583 29.2147 44.124 29.4123 44.5409 29.8554C45.2312 30.9816 45.5109 31.4798 46.0648 32.6867L45.5371 32.8554C45.3455 32.6166 44.9873 32.044 44.8006 31.7659C44.0256 30.1952 43.5728 29.57 42.53 28.2195L42.987 28.0493Z" fill="#4E522B"/>
<path d="M38.7485 26.4515C38.8052 26.2397 38.8372 26.1144 38.917 25.9077C39.9567 26.9394 40.7795 28.8609 41.7198 29.9228C41.9417 29.8939 42.2321 29.7884 42.3846 29.9459C42.6788 30.2496 43.2027 31.5907 43.2015 31.9673L43.1361 32.6249L42.9424 32.715C42.4292 32.4489 42.5188 32.3843 42.0903 32.4831L41.8151 32.8661C40.3008 31.2755 39.2276 28.5815 38.7485 26.4515Z" fill="#8CB23C"/>
<path d="M44.8003 31.7661C44.987 32.0441 45.3452 32.6168 45.5368 32.8556L46.0151 33.8694C46.3376 34.9108 47.1472 34.8451 48.0388 34.4525C48.1876 34.3864 48.3347 34.317 48.4805 34.2444L48.4003 34.4328L48.5041 34.463C49.4441 34.7289 49.805 34.5456 50.5874 35.1856C49.6552 35.3236 48.938 35.4031 48.0007 35.4795C47.7145 35.529 46.5992 35.3899 46.2394 35.3541C45.4391 34.6662 45.3174 34.6436 44.3175 34.4782C43.3585 34.2029 42.5688 33.4965 41.8149 32.8663L42.0901 32.4833C42.5186 32.3845 42.429 32.4491 42.9422 32.7152L43.1359 32.6251L43.2013 31.9675C43.64 32.9261 44.0445 33.5269 45.0197 34.0345C45.1954 33.5997 44.7584 32.7904 44.8003 31.7661Z" fill="#6E9230"/>
<path d="M36.3707 74.8405L37.0779 74.3589L37.2244 74.4915C38.4392 75.4231 39.368 75.883 40.8558 76.2869C40.5059 76.4869 39.9116 76.9468 39.5424 76.7723C38.4822 76.271 38.4784 75.9809 37.3139 76.6112C36.8383 76.7805 36.6136 76.6755 36.1869 76.4735C36.3301 76.0326 36.3494 75.3178 36.3707 74.8405Z" fill="#FEFDFE"/>
<path d="M36.3707 74.8405L37.0779 74.3589L37.2244 74.4915L37.3139 76.6112C36.8383 76.7805 36.6136 76.6755 36.1869 76.4735C36.3301 76.0326 36.3494 75.3178 36.3707 74.8405Z" fill="#5A7430"/>
<path d="M44.8225 36.7276C44.7452 36.3233 44.6633 35.9199 44.577 35.5176C44.9816 35.8776 46.3349 36.0015 46.9231 36.055C46.0774 36.8426 45.758 37.0189 45.5151 38.1274L45.0498 38.1375C44.8792 38.5785 44.1353 40.7249 43.9735 40.8989C43.7836 40.4164 43.8358 40.1461 43.8553 39.6287C44.2366 38.7963 44.3442 37.7441 44.8225 36.7276Z" fill="#8CB23C"/>
<path d="M42.28 76.3747C42.8605 76.3875 43.9158 76.2739 44.2963 76.3998C44.5592 76.6848 44.5359 76.7954 44.5917 77.2029C43.6771 77.0698 43.0598 76.8593 42.28 76.3747Z" fill="#FEFDFE"/>
<path d="M36.2097 72.6344C39.0934 72.2408 40.2923 71.9104 42.981 73.1651C43.5856 73.5044 43.6509 73.9405 43.8351 74.6017L43.8764 74.7523C44.027 75.293 44.1027 75.216 43.9355 75.6243C42.8931 76.1453 40.7334 75.7018 39.6932 75.2383C38.2221 74.8005 37.1871 73.758 36.2097 72.6344Z" fill="#8CB23C"/>
<path d="M42.9817 73.1646C43.5862 73.5038 43.6516 73.9399 43.8358 74.6011L43.8771 74.7517C44.0277 75.2924 44.1033 75.2154 43.9361 75.6237C42.8938 76.1447 40.7341 75.7012 39.6939 75.2377C41.5078 75.4311 42.2616 75.4841 44.0737 75.4754C43.337 75.1847 41.318 74.4249 40.8126 73.9079C41.1163 73.7654 41.261 73.8855 41.6573 73.9914C42.1398 73.7508 42.5359 73.4651 42.9817 73.1646Z" fill="#6E9230"/>
<path d="M42.9822 73.1646C43.5867 73.5038 43.6521 73.9399 43.8363 74.6011L43.8776 74.7517C43.3522 74.6583 42.1704 74.1874 41.6578 73.9914C42.1403 73.7508 42.5364 73.4651 42.9822 73.1646Z" fill="#8CB23C"/>
<path d="M67.795 66.7327L67.8629 66.138L67.9598 66.1069C68.2501 66.4935 68.4166 66.7842 68.8294 67.0322L69.0184 67.8762L69.1463 67.8968C69.2474 67.5881 69.3413 67.2976 69.4296 66.9847C69.6609 68.1065 70.053 68.2779 70.5586 69.2569L70.8536 69.4037C76.2473 69.7359 81.414 75.7715 81.0204 81.2363C81.0135 81.331 81.0059 81.4256 80.9974 81.5203C81.2748 81.7732 81.7569 81.9768 81.8971 82.1262C82.7413 83.0261 82.9397 83.1235 83.9893 83.6407L84.0604 83.7722C84.9903 83.8853 85.788 84.2034 86.648 84.5721C88.5497 85.1518 89.2502 85.4186 90.2812 87.0972C88.593 87.962 87.0902 88.7852 85.2644 89.3509C78.0383 91.5902 70.5335 92.1788 63.0167 92.5347C58.6995 92.7392 53.6698 93.0595 49.3911 92.8794C48.5241 93.0884 47.7518 92.9888 46.8852 92.8593C43.3978 93.0358 39.1085 92.2149 35.5372 92.2054C34.1149 92.272 32.3191 91.5447 30.9414 91.641C27.2687 91.8977 6.37658 88.7031 5 85.8005C5.11104 83.8839 10.5348 82.8032 12.1431 82.5447L13.3772 82.2618C13.7622 82.143 14.3761 81.6462 14.7525 81.3953C16.5859 80.1734 17.7047 80.1414 19.8466 80.1795C20.1323 78.7669 20.9782 78.3998 22.2569 78.14C22.988 75.9775 24.6345 75.3945 26.7077 74.8768C27.4272 74.6972 29.5257 73.9271 30.0087 74.4696C29.5049 75.3853 29.6235 76.0855 29.6277 77.1461C30.0098 77.7285 30.6728 76.7908 31.3347 76.6143C32.3449 76.3451 33.2515 76.4918 34.2681 76.6054C34.5185 76.9864 34.5387 77.0005 34.5656 77.4425C34.8123 77.9077 35.0957 78.4045 35.2866 78.8908C35.9088 78.9292 35.8335 78.9152 36.2358 78.5929L36.256 78.456C36.2752 77.9491 36.3427 77.656 36.0684 77.203C35.9529 77.0133 35.834 76.8256 35.7122 76.6399L36.187 76.4743C36.6137 76.6762 36.8385 76.7812 37.3141 76.6119C38.4785 75.9816 38.4823 76.2717 39.5425 76.773C39.9118 76.9475 40.506 76.4876 40.8559 76.2877C41.435 76.1964 41.5489 76.171 42.1464 76.2671L42.2802 76.3745C43.06 76.8592 43.6773 77.0697 44.5919 77.2028C44.5579 77.365 44.5039 77.5637 44.5032 77.7232L44.9597 78.0652C45.2195 78.0782 45.4542 78.0636 45.685 78.1738L45.6996 78.0941C46.8873 78.4746 47.1538 79.8388 47.5505 80.9314L47.6677 81.3082C49.3929 81.2601 49.1281 81.6097 50.1141 82.8704C50.7159 82.8553 50.8811 82.844 51.4788 82.7219L51.6113 82.7427C52.0457 82.5816 51.887 82.7207 52.1038 82.3117L51.9937 82.0002C53.6512 81.9072 54.6228 81.6265 56.4788 81.6552L56.98 81.5936C56.9748 81.8001 56.977 81.8839 56.9986 82.0889C57.5909 82.1135 58.4631 81.1566 59.2742 80.8904L59.4029 80.8163L59.9999 80.7431L62.3256 80.6656C62.5902 80.1846 62.5394 80.3181 63.1263 80.0422L63.0714 79.7805L62.6239 79.844L62.3591 79.4927L62.3025 79.3789C62.542 79.2414 62.6171 79.2488 62.8856 79.2163L62.9735 79.2064L62.7455 79.0208C62.0577 79.0217 61.9591 78.9677 61.343 78.6964C60.6636 78.4711 60.7766 78.801 60.2257 78.284C61.5352 74.5932 62.4927 72.2612 66.1226 69.9565C66.6493 69.7824 67.055 69.7085 67.5969 69.6017L68.2148 69.3833C68.2001 69.1454 68.1947 69.2399 67.9757 68.9855L68.2326 68.5346C68.2113 68.1127 67.9215 67.1849 67.795 66.7327Z" fill="#E9C28C"/>
<path d="M80.9081 81.5142L80.9974 81.5196C81.2748 81.7725 81.7569 81.9761 81.8971 82.1255C82.7413 83.0255 82.9397 83.1228 83.9893 83.64L84.0604 83.7715C84.9903 83.8846 85.788 84.2027 86.648 84.5714C88.5497 85.1511 89.2502 85.4179 90.2812 87.0965C88.593 87.9613 87.0902 88.7845 85.2644 89.3503C78.0383 91.5896 70.5335 92.1781 63.0167 92.534C58.6995 92.7385 53.6698 93.0588 49.3911 92.8787C48.5241 93.0877 47.7518 92.9881 46.8852 92.8586C43.3978 93.0351 39.1085 92.2142 35.5372 92.2047C34.1149 92.2713 32.3191 91.544 30.9414 91.6403C27.2687 91.897 6.37658 88.7025 5 85.7998C5.11104 83.8832 10.5348 82.8025 12.1431 82.544C11.9015 82.8786 11.1271 83.8519 11.0769 84.1832C12.2969 84.3729 17.9966 83.6422 17.7263 85.2989C16.912 86.3 15.8669 86.3483 14.5873 86.7511C15.0394 86.747 15.8917 86.6957 16.2815 86.8384L16.4274 87.0537C17.9551 87.1158 22.5776 87.4536 23.835 88.1379C27.2022 89.9708 29.7178 89.706 33.4442 89.9914C34.2096 90.0499 35.4339 90.2139 36.2228 90.198C37.7639 89.7441 39.8397 88.6255 41.3657 88.2709C42.1045 88.0698 42.919 89.078 43.8184 89.244C45.2948 89.5166 46.8927 88.1665 48.1855 88.5384C49.3713 88.9597 49.8494 90.4359 51.2094 90.5631C54.6328 90.8836 58.0116 90.477 61.364 89.7779C62.1718 89.6093 64.0379 90.1007 64.689 89.6176L64.4398 89.2375L64.4933 89.0271C65.1942 88.7388 66.7019 88.6709 67.4904 88.515C68.1653 88.3815 68.7012 88.2241 69.3606 88.0297C70.5967 86.7809 74.2108 86.383 75.9804 86.2422C77.9167 85.5328 78.2443 86.1391 78.9504 85.8363C79.3235 85.4167 79.9007 84.966 80.3434 84.5969L80.907 84.4744C81.3278 84.1785 81.559 83.9572 81.4566 83.4433L81.1072 83.3345C81.4692 83.1985 81.5303 83.1375 81.848 82.9055C81.5198 82.6531 80.9196 82.4136 80.5253 82.2348C80.797 82.0178 80.8075 81.8496 80.9081 81.5142Z" fill="#F4DDBF"/>
<path d="M75.9804 86.2428C77.9167 85.5334 78.2442 86.1397 78.9504 85.8369L79.4406 86.3575C78.6151 86.3955 78.3963 86.4161 77.6061 86.6348L77.5415 86.8471C76.3861 86.2643 73.5688 87.2801 72.28 87.462C71.4045 87.5856 70.4415 87.673 69.6113 87.9456C69.5276 87.9731 69.444 88.0014 69.3605 88.0303C70.5966 86.7815 74.2107 86.3836 75.9804 86.2428Z" fill="#E9C28B"/>
<path d="M80.9079 81.5142L80.9973 81.5196C81.2746 81.7725 81.7567 81.9761 81.897 82.1255C82.7411 83.0255 82.9396 83.1228 83.9892 83.64L84.0603 83.7715C84.4758 84.4791 84.7367 84.4818 85.5575 84.7615C84.1407 84.8401 82.7063 84.31 80.9068 84.4744C81.3277 84.1785 81.5588 83.9572 81.4565 83.4433L81.1071 83.3345C81.4691 83.1985 81.5301 83.1375 81.8479 82.9055C81.5197 82.6531 80.9195 82.4136 80.5251 82.2348C80.7969 82.0178 80.8074 81.8496 80.9079 81.5142Z" fill="#E9C28C"/>
<path d="M80.9079 81.5142L80.9973 81.5196C81.2746 81.7725 81.7567 81.9761 81.897 82.1255C82.7411 83.0255 82.9396 83.1228 83.9892 83.64L83.8539 83.8476C83.034 84.1335 82.2618 83.5858 81.8479 82.9055C81.5197 82.6531 80.9195 82.4136 80.5251 82.2348C80.7969 82.0178 80.8074 81.8496 80.9079 81.5142Z" fill="#634F3A"/>
<path d="M84.0612 83.772C84.9911 83.8851 85.7888 84.2032 86.6488 84.5719L86.9133 85.1404L86.8032 85.3203C86.092 85.1297 86.0089 84.9317 85.5584 84.7619C84.7376 84.4823 84.4767 84.4796 84.0612 83.772Z" fill="#634F3A"/>
<path d="M79.4403 86.3569C79.9281 86.5909 79.9209 86.4845 80.0746 86.8577C79.6185 87.228 78.0738 87.0645 77.5411 86.8465L77.6058 86.6342C78.3959 86.4155 78.6147 86.3949 79.4403 86.3569Z" fill="#9E7754"/>
<path d="M14.5874 86.7516C15.0395 86.7474 15.8918 86.6961 16.2816 86.8389L16.4275 87.0542C15.8228 87.4052 14.9041 87.328 14.2767 87.0619L14.2754 86.8636L14.5874 86.7516Z" fill="#9E7754"/>
<path d="M46.8849 92.8592C47.6737 92.3807 48.6159 92.342 49.3909 92.8793C48.5238 93.0883 47.7516 92.9887 46.8849 92.8592Z" fill="#AE8851"/>
<path d="M67.7946 66.7327L67.8625 66.138L67.9595 66.1069C68.2498 66.4935 68.4163 66.7842 68.829 67.0322L69.0181 67.8762L69.1459 67.8968C69.247 67.5881 69.3409 67.2976 69.4292 66.9847C69.6605 68.1065 70.0527 68.2779 70.5582 69.2569L70.8533 69.4037C76.2469 69.7359 81.4136 75.7715 81.02 81.2363C81.0132 81.331 81.0056 81.4256 80.9971 81.5203L80.9077 81.5148C80.8071 81.8503 80.7967 82.0185 80.5249 82.2355L79.705 82.1498C78.9439 81.8196 78.0143 81.997 77.249 82.1589C76.904 82.0288 77.038 82.1365 76.8383 81.8196C76.2088 80.4539 75.2127 80.4111 73.898 80.2077L73.124 80.1542L72.9526 80.3408C73.0102 81.4117 73.2061 81.8844 72.2654 82.5655L72.0527 82.2477C72.3173 81.9699 72.3066 81.9784 72.4675 81.627C72.5103 81.1216 72.2757 80.8297 72.0206 80.395C71.3917 79.2526 70.6296 78.9498 69.4153 78.581C68.9009 78.344 68.3766 78.2576 67.823 78.1386C68.3453 77.6237 68.6355 77.7211 69.4032 77.6945C68.6974 77.6004 68.2236 77.5451 67.5406 77.3522L67.5283 77.3199C65.4674 77.5086 64.5399 77.6494 62.8141 78.849L62.7451 79.0208C62.0574 79.0217 61.9588 78.9677 61.3427 78.6964C60.6633 78.4711 60.7763 78.801 60.2254 78.284C61.5348 74.5932 62.4923 72.2612 66.1223 69.9565C66.649 69.7824 67.0547 69.7085 67.5965 69.6017L68.2144 69.3833C68.1998 69.1454 68.1944 69.2399 67.9754 68.9855L68.2323 68.5346C68.211 68.1127 67.9212 67.1849 67.7946 66.7327Z" fill="url(#paint6_linear_138_4065)"/>
<path d="M67.5965 69.6016C68.6795 69.816 68.9583 69.9806 69.8106 70.691C69.8602 70.9613 72.2765 74.8906 72.5352 75.0705C72.669 75.1635 72.8132 75.2387 72.9595 75.3098C73.113 76.0398 73.3259 76.9526 73.3011 77.6873C73.1151 78.1021 73.1466 78.2947 73.1908 78.743C73.0752 78.6019 72.9543 78.4791 72.8158 78.3604C71.7429 78.1395 70.4676 77.847 69.4032 77.6944C68.6974 77.6003 68.2236 77.545 67.5406 77.352L67.5283 77.3197C65.4674 77.5085 64.5399 77.6492 62.8141 78.8489L62.7451 79.0207C62.0574 79.0216 61.9588 78.9676 61.3427 78.6962C60.6633 78.471 60.7763 78.8008 60.2254 78.2838C61.5348 74.593 62.4923 72.2611 66.1223 69.9564C66.649 69.7822 67.0547 69.7083 67.5965 69.6016Z" fill="#ACCC4F"/>
<path d="M67.7944 66.7327L67.8623 66.138L67.9592 66.1069C68.2496 66.4935 68.416 66.7842 68.8288 67.0322L69.0179 67.8762L69.1457 67.8968C69.2468 67.5881 69.3407 67.2976 69.429 66.9847C69.6603 68.1065 70.0524 68.2779 70.558 69.2569L70.8531 69.4037C76.2467 69.7359 81.4134 75.7715 81.0198 81.2363C81.0129 81.331 81.0053 81.4256 80.9969 81.5203L80.9075 81.5148C80.6829 81.5759 80.5615 81.5271 80.317 81.4932C80.33 81.1536 80.3308 80.8136 80.3192 80.474C80.1968 77.1305 78.995 75.0542 76.5751 72.816C75.9936 72.3329 75.4555 72.0061 74.8221 71.6056L73.6078 71.5435C73.0996 71.5142 72.7253 71.423 72.3282 71.7003C72.2401 71.9005 72.1724 72.028 72.1251 72.2413C72.8787 73.4574 74.2019 76.9737 73.684 78.3362L73.5199 78.3656C73.4146 78.097 73.3661 77.9772 73.3009 77.6875C73.3256 76.9528 73.1127 76.04 72.9593 75.31C72.813 75.2388 72.6688 75.1637 72.535 75.0706C72.2762 74.8907 69.86 70.9615 69.8103 70.6912C68.9581 69.9807 68.6793 69.8161 67.5963 69.6017L68.2142 69.3833C68.1996 69.1454 68.1941 69.2399 67.9751 68.9855L68.2321 68.5346C68.2108 68.1127 67.921 67.1849 67.7944 66.7327Z" fill="#4B602D"/>
<path d="M69.6792 69.73C72.1664 70.1742 72.7187 70.2372 74.8237 71.6055L73.6094 71.5433C73.1011 71.5141 72.7269 71.4228 72.3298 71.7001C72.2417 71.9003 72.174 72.0278 72.1267 72.2412C71.2869 71.2835 70.6712 70.534 69.6792 69.73Z" fill="#91B640"/>
<path d="M69.8119 70.6914C71.3968 71.9787 72.4094 73.3099 72.9608 75.3102C72.8146 75.239 72.6703 75.1639 72.5365 75.0708C72.2778 74.8909 69.8615 70.9617 69.8119 70.6914Z" fill="#91B640"/>
<path d="M69.4038 77.6938C70.4682 77.8465 71.7435 78.139 72.8164 78.3599C72.822 79.0062 72.7021 79.0897 73.0471 79.4734C74.7066 80.0793 76.3577 79.3047 77.3771 81.3713C78.2304 81.3942 79.548 81.5015 80.3179 81.4925C80.5623 81.5265 80.6837 81.5752 80.9083 81.5142C80.8077 81.8496 80.7973 82.0178 80.5255 82.2348L79.7056 82.1491C78.9445 81.8189 78.0148 81.9963 77.2496 82.1582C76.9046 82.0281 77.0386 82.1358 76.8389 81.8189C76.2094 80.4532 75.2133 80.4104 73.8986 80.207L73.1246 80.1535L72.9532 80.3401C73.0108 81.411 73.2067 81.8838 72.266 82.5648L72.0533 82.2471C72.3178 81.9692 72.3072 81.9777 72.4681 81.6264C72.5109 81.1209 72.2763 80.829 72.0212 80.3943C71.3923 79.2519 70.6302 78.9492 69.4159 78.5803C68.9015 78.3433 68.3771 78.2569 67.8235 78.1379C68.3459 77.623 68.6361 77.7204 69.4038 77.6938Z" fill="#4E522B"/>
<path d="M73.6078 71.5435L74.8221 71.6056C75.4555 72.0061 75.9935 72.3329 76.5751 72.8159C76.5395 73.2448 76.5587 73.4831 76.3364 73.8536C75.8003 73.7914 73.483 72.4147 73.3357 71.8345L73.6078 71.5435Z" fill="#ACCC4F"/>
<path d="M22.2573 78.1402C22.9884 75.9777 24.6349 75.3947 26.708 74.877C27.4276 74.6974 29.526 73.9273 30.009 74.4698C29.5053 75.3855 29.6239 76.0857 29.628 77.1463C30.0101 77.7287 30.6731 76.7909 31.3351 76.6145C32.3453 76.3453 33.2519 76.492 34.2684 76.6056C34.5188 76.9866 34.5391 77.0007 34.566 77.4427C34.8126 77.9079 35.0961 78.4047 35.2869 78.891C35.9091 78.9294 35.8339 78.9154 36.2361 78.5931L36.2564 78.4561L36.4579 77.9176C36.6206 78.1366 36.641 78.3537 36.7014 78.6227C36.9333 78.523 36.958 78.542 37.0936 78.3376C37.1296 78.958 37.1574 79.5783 37.2299 80.1952C37.2393 80.4888 37.289 80.4005 37.1754 80.6102L35.4729 80.507C34.1001 80.5327 31.8711 80.7755 30.5978 81.2441C30.175 81.5201 29.8747 81.6567 29.6239 82.0899C29.5027 83.7343 32.6076 83.6682 33.713 83.6653C34.6071 83.6629 37.9422 82.6911 38.4426 82.9691C36.6819 83.9527 35.6591 83.771 33.8185 84.0806C31.6973 84.2293 29.9428 83.5739 28.3331 82.2501C27.6547 82.3632 27.0047 82.5984 26.3175 82.7333L26.2287 82.8321C24.7809 82.878 23.904 83.5699 22.8159 82.8928C22.3967 82.5872 20.8148 82.066 20.2068 81.8104L20.1149 81.54L20.0682 80.8775L19.7128 80.6915L19.847 80.1797C20.1326 78.767 20.9786 78.4 22.2573 78.1402Z" fill="#634F3A"/>
<path d="M22.2562 78.1402C22.9873 75.9777 24.6338 75.3947 26.707 74.877C27.4265 74.6974 29.525 73.9273 30.008 74.4698C29.5042 75.3855 29.6228 76.0857 29.627 77.1463L29.3648 77.4185C28.9904 77.7822 28.8992 77.8428 28.7896 78.3452L28.5622 78.0174C26.7774 78.8151 25.1195 78.8097 23.2388 78.444L22.8889 78.0685L22.2562 78.1402Z" fill="#8CB23C"/>
<path d="M23.2397 78.4434C25.4297 77.9235 26.17 76.6758 28.2066 76.2026L28.3248 76.5047L28.8107 76.3972C29.1233 76.6178 29.0283 76.4723 29.1048 76.8479C28.9174 77.4056 28.8586 77.5167 28.5632 78.0167C26.7783 78.8144 25.1204 78.809 23.2397 78.4434Z" fill="#6E9230"/>
<path d="M22.2562 78.1402C22.9873 75.9777 24.6338 75.3947 26.707 74.877C27.4265 74.6974 29.525 73.9273 30.008 74.4698C29.5042 75.3855 29.6228 76.0857 29.627 77.1463L29.3648 77.4185C28.9904 77.7822 28.8992 77.8428 28.7896 78.3452L28.5622 78.0174C28.8576 77.5173 28.9165 77.4062 29.1039 76.8486C29.0274 76.473 29.1223 76.6184 28.8098 76.3979L28.3239 76.5053L28.2056 76.2033C28.6005 75.9146 28.7932 75.8301 28.9866 75.3824L28.8916 75.1292C27.937 74.9187 25.1116 75.808 24.2335 76.3912C23.4541 76.9089 23.2576 77.2323 22.8889 78.0685L22.2562 78.1402Z" fill="#4B602D"/>
<path d="M29.3659 77.418C29.5714 77.8109 29.593 77.8271 29.526 78.2464C29.3372 78.5177 29.1882 78.7358 28.9751 78.9878C28.7839 79.4266 28.614 79.581 28.7364 79.9434C27.3694 80.6443 26.3177 80.9987 24.7495 81C24.4187 81.0004 23.9314 80.9106 23.6683 80.9216C22.999 81.8982 21.4377 80.9747 20.6059 80.6001L20.5125 80.4156L20.5223 80.8994L20.3338 80.985L20.0682 80.877L19.7128 80.6909L19.847 80.1792C20.1326 78.7665 20.9786 78.3994 22.2573 78.1397L22.8899 78.0679L23.2399 78.4435C25.1206 78.8091 26.7785 78.8146 28.5633 78.0168L28.7906 78.3447C28.9002 77.8423 28.9914 77.7816 29.3659 77.418Z" fill="#4E522B"/>
<path d="M20.5118 80.4161C20.557 78.9021 22.7777 78.2964 23.7525 79.2777C23.7763 80.0225 23.1977 80.0841 23.6677 80.9221C22.9983 81.8987 21.437 80.9752 20.6052 80.6006L20.5118 80.4161Z" fill="#E9C28B"/>
<path d="M29.3657 77.418C29.5712 77.8109 29.5929 77.8271 29.5259 78.2464C29.337 78.5177 29.1881 78.7358 28.975 78.9878C28.7504 79.1254 28.5171 79.2483 28.2766 79.3558C27.4014 79.748 24.8902 80.4611 23.9575 80.1092L23.8665 79.8603C24.5589 78.9827 27.7335 79.52 28.7905 78.3447C28.9001 77.8423 28.9913 77.7816 29.3657 77.418Z" fill="#6E9230"/>
<path d="M32.117 79.5793C31.2265 79.3885 30.2471 79.33 30.0678 78.2978C30.8307 76.7464 33.2196 77.0126 34.5654 77.4419C34.812 77.907 35.0955 78.4038 35.2863 78.8901C35.9085 78.9286 35.8332 78.9145 36.2355 78.5922L36.2557 78.4553L36.4573 77.9168C36.6199 78.1357 36.6403 78.3529 36.7008 78.6218C36.9327 78.5221 36.9574 78.5411 37.093 78.3368C37.1289 78.9571 37.1567 79.5775 37.2293 80.1944C37.2387 80.4879 37.2884 80.3996 37.1748 80.6093L35.4723 80.5062C34.7968 80.3508 32.5725 79.8985 32.117 79.5793Z" fill="#E9C28B"/>
<path d="M36.2559 78.456L36.4574 77.9175C36.6201 78.1364 36.6405 78.3536 36.701 78.6225C36.9328 78.5228 36.9576 78.5418 37.0932 78.3375C37.1291 78.9578 37.1569 79.5782 37.2295 80.1951C37.2389 80.4886 37.2885 80.4003 37.1749 80.61L35.4725 80.5069C34.797 80.3515 32.5727 79.8992 32.1171 79.58C32.8421 79.5975 33.9321 79.8759 34.522 79.4855C34.4351 79.2615 34.4118 79.2602 34.4386 79.0263C34.9344 78.9873 34.6896 79.1809 35.2693 79.5496L35.3627 79.1831L35.3092 79.5334L35.1882 79.4228L35.3666 79.1594L35.2865 78.8908C35.9087 78.9293 35.8334 78.9152 36.2357 78.5929L36.2559 78.456Z" fill="url(#paint7_linear_138_4065)"/>
<path d="M28.7369 79.9438C29.0941 81.5225 27.9053 81.7978 26.6047 81.9391C25.0981 82.1028 21.4776 82.0957 20.6064 80.6005C21.4382 80.9752 22.9995 81.8986 23.6688 80.9221C23.9319 80.911 24.4192 81.0008 24.75 81.0005C26.3182 80.9992 27.3699 80.6448 28.7369 79.9438Z" fill="#CA9B69"/>
<path d="M20.1154 81.5396C21.6953 81.5279 24.2231 83.0159 26.2158 82.328C26.4418 82.2499 28.0197 82.0783 28.292 82.1038L28.3335 82.2497C27.6552 82.3628 27.0052 82.598 26.318 82.733L26.2291 82.8318C24.7814 82.8777 23.9044 83.5696 22.8164 82.8925C22.3971 82.5868 20.8153 82.0657 20.2073 81.8101L20.1154 81.5396Z" fill="#CD9E68"/>
<path d="M29.2078 79.1279C29.9952 79.2513 30.2636 79.5886 30.3854 80.3567L30.0211 80.8242L29.7591 81.119L29.5753 81.1024C29.2548 80.6345 29.236 79.7056 29.2078 79.1279Z" fill="#9E7754"/>
<path d="M40.8564 76.2872C41.4355 76.1959 41.5494 76.1705 42.1469 76.2666L42.2807 76.374C43.0605 76.8587 43.6778 77.0692 44.5924 77.2023C44.5584 77.3645 44.5044 77.5632 44.5037 77.7228L44.9602 78.0647C45.22 78.0777 45.4547 78.0631 45.6855 78.1733L45.7001 78.0936C46.8878 78.4741 47.1543 79.8383 47.551 80.9309L47.6682 81.3077C49.3934 81.2596 49.1285 81.6092 50.1146 82.8699C50.7164 82.8548 50.8816 82.8436 51.4792 82.7214L51.6118 82.7422C52.0462 82.5811 51.8875 82.7202 52.1043 82.3112L51.9942 81.9998C53.6517 81.9067 54.6233 81.626 56.4793 81.6547L56.9805 81.5931C56.9753 81.7996 56.9774 81.8834 56.9991 82.0885C57.5913 82.113 58.4636 81.1561 59.2747 80.8899L59.4034 80.8158L60.0004 80.7426L62.3261 80.6651L62.5459 80.8113C61.9164 80.9775 61.1077 81.1256 60.6245 81.5297C60.4433 81.9044 60.3826 82.4452 60.6249 82.8087C61.544 83.2728 61.5165 83.4005 62.2295 84.1565C61.2583 83.9164 61.0039 83.9679 60.0244 84.1617L59.8926 84.0295C58.3146 82.3293 55.8762 81.7391 53.6579 82.3486C52.7506 82.6273 50.0355 83.5578 50.1913 84.6686C50.6848 85.1678 50.9753 85.1268 51.7194 85.3157C51.5271 85.4292 51.441 85.4467 51.2331 85.5202C50.4975 85.4306 49.7979 85.1822 49.2685 84.6421L49.1332 84.536C48.6242 83.7923 47.9146 83.4242 47.1317 83.0251L46.1524 83.2334C45.6826 83.4514 45.1674 83.4086 44.6471 83.4101C43.6979 83.3873 43.4501 83.3306 42.5219 83.0905C41.4891 82.4279 41.0093 82.8288 39.983 81.8623L39.4677 81.6262C38.5303 80.9074 38.3277 80.881 37.1755 80.6095C37.2891 80.3998 37.2395 80.4881 37.2301 80.1946C37.1575 79.5776 37.1297 78.9573 37.0938 78.337C36.9582 78.5413 36.9334 78.5223 36.7016 78.622C36.6411 78.353 36.6207 78.1359 36.458 77.917L36.2565 78.4555C36.2756 77.9486 36.3432 77.6556 36.0689 77.2025C35.9533 77.0128 35.8345 76.8251 35.7126 76.6394L36.1875 76.4738C36.6142 76.6757 36.839 76.7807 37.3146 76.6114C38.479 75.9811 38.4828 76.2713 39.543 76.7726C39.9123 76.9471 40.5065 76.4871 40.8564 76.2872Z" fill="#4E522B"/>
<path d="M40.2119 79.2676L41.028 79.3563C41.6441 80.7362 42.8408 80.2853 44.0892 81.1147L44.2221 81.1508C44.9118 81.3428 45.778 81.9215 46.0689 81.8138L46.1384 81.6499C46.3296 82.2237 46.4831 82.8153 47.1315 83.0257L46.1521 83.234C45.6823 83.4521 45.1671 83.4093 44.6468 83.4107C43.6976 83.388 43.4499 83.3312 42.5216 83.0912C41.4888 82.4285 41.0091 82.8294 39.9828 81.8629C40.226 81.8526 40.4224 81.7706 40.6543 81.6947L40.6868 81.4637L40.343 81.0744C39.8699 80.9209 39.8385 80.7249 39.6695 80.3105C39.813 79.8964 39.9889 79.6399 40.2119 79.2676Z" fill="#634F3A"/>
<path d="M40.2119 79.2676L41.028 79.3563C41.6441 80.7362 42.8408 80.2853 44.0892 81.1147C42.7547 80.9384 41.6791 81.0159 40.343 81.0744C39.8699 80.9209 39.8385 80.7249 39.6695 80.3105C39.813 79.8964 39.9889 79.6399 40.2119 79.2676Z" fill="#AE8851"/>
<path d="M41.1921 81.5675C42.5889 81.4392 44.5683 81.3572 45.4256 82.7309L45.2386 82.9601C44.3715 82.8638 41.323 82.5616 40.9489 81.7902L41.1921 81.5675Z" fill="#F4DDBF"/>
<path d="M42.1546 78.4336C42.6084 78.6977 42.7937 78.8635 43.1578 79.2257C43.7811 79.2241 44.3103 77.9137 45.3437 79.0064L45.6486 79.7702L46.0343 81.0317L46.1385 81.6495L46.069 81.8133C45.7781 81.921 44.912 81.3424 44.2222 81.1503L44.0893 81.1142C42.841 80.2849 41.6442 80.7358 41.0281 79.3558C41.8244 79.1426 41.8322 79.156 42.1546 78.4336Z" fill="#CA9B69"/>
<path d="M45.3432 79.0068L45.6481 79.7706L46.0338 81.0321C45.3563 81.0599 44.9098 81.1231 44.3869 80.6993C44.0552 80.1552 43.8357 79.9276 43.9386 79.3618C44.342 79.0428 44.8092 79.0628 45.3432 79.0068Z" fill="#CD9E68"/>
<path d="M62.3267 80.6655L62.5464 80.8117C61.917 80.9779 61.1083 81.126 60.6251 81.5301C60.4438 81.9048 60.3832 82.4456 60.6255 82.8091C60.0753 82.7722 58.9645 82.2162 58.5176 81.8977C58.8632 81.5104 58.9943 81.3153 59.2753 80.8903L59.404 80.8162L60.0009 80.743L62.3267 80.6655Z" fill="#CD9E68"/>
<path d="M37.2295 80.1944L37.5259 79.9946C38.1922 80.1518 38.4943 80.191 39.1784 80.2497L39.561 80.3863L39.6692 80.3097C39.8382 80.7241 39.8696 80.9201 40.3426 81.0736L40.6864 81.4629L40.6539 81.694C40.4221 81.7698 40.2256 81.8519 39.9824 81.8622L39.4671 81.6261C38.5297 80.9073 38.3271 80.8809 37.1749 80.6094C37.2885 80.3996 37.2388 80.488 37.2295 80.1944Z" fill="#4F452E"/>
<path d="M40.2113 79.2671C39.8738 78.8318 39.4878 78.5205 39.8469 78.0058C40.6398 77.7519 41.395 78.1384 42.1539 78.4336C41.8314 79.156 41.8237 79.1427 41.0274 79.3558L40.2113 79.2671Z" fill="#CD9E68"/>
<path d="M47.6686 81.308C49.3939 81.2599 49.129 81.6095 50.115 82.8702C49.2893 82.8939 48.776 83.049 48.193 82.4307C48.0798 82.1221 47.819 81.6214 47.6686 81.308Z" fill="#6E9230"/>
<path d="M37.5272 79.995C37.8534 79.4789 38.1219 78.9149 38.6535 78.6535L39.0003 78.625C39.46 79.1073 39.2932 79.6522 39.1796 80.2501C38.4955 80.1914 38.1934 80.1522 37.5272 79.995Z" fill="#CA9B69"/>
<path d="M45.6995 78.0942C46.8872 78.4747 47.1537 79.8389 47.5504 80.9315L46.7005 80.8047C46.56 80.1881 45.9534 78.7879 45.6849 78.1739L45.6995 78.0942Z" fill="#6E9230"/>
<path d="M46.7019 80.8047L47.5518 80.9315L47.669 81.3083C47.8194 81.6218 48.0801 82.1225 48.1933 82.4311C47.5966 82.6522 47.7203 82.7112 47.2053 82.5635C46.8579 82.142 46.7992 81.3754 46.7019 80.8047Z" fill="#5A7430"/>
<path d="M44.9599 78.0646C43.6611 78.1766 43.2671 78.4001 42.2022 77.8094C42.5173 77.6659 43.623 77.8679 44.3774 77.7443L44.5034 77.7227L44.9599 78.0646Z" fill="#F4DDBF"/>
<path d="M67.5283 77.3193L67.5406 77.3517C68.2236 77.5446 68.6974 77.5999 69.4032 77.694C68.6355 77.7205 68.3453 77.6232 67.823 78.138C68.3765 78.2571 68.9009 78.3434 69.4153 78.5804C70.6296 78.9493 71.3917 79.2521 72.0206 80.3945C72.2757 80.8291 72.5103 81.1211 72.4675 81.6265C72.3066 81.9779 72.3172 81.9694 72.0527 82.2472L72.2654 82.565C73.2061 81.8839 73.0102 81.4112 72.9526 80.3403L73.124 80.1537L73.898 80.2072L73.4763 80.3878C73.4214 81.1891 73.8979 81.7067 73.1893 82.5565C72.5915 83.2738 71.7703 83.3905 70.9038 83.4915C68.9031 83.1878 68.3206 83.2384 66.7929 81.8382C65.6127 81.8713 65.4185 81.4289 64.1591 81.006C63.5497 80.9005 63.162 80.8537 62.545 80.8112L62.3253 80.6651C62.5898 80.184 62.5391 80.3175 63.1259 80.0417L63.071 79.7799L62.6236 79.8435L62.3587 79.4922L62.3022 79.3784C62.5416 79.2409 62.6167 79.2483 62.8852 79.2158L62.9731 79.2058L62.7451 79.0203L62.8141 78.8485C64.5399 77.6488 65.4674 77.5081 67.5283 77.3193Z" fill="#4E522B"/>
<path d="M67.5432 78.1402C67.645 78.1028 67.6983 78.127 67.8237 78.1384C68.3773 78.2574 68.9017 78.3438 69.4161 78.5808C70.6304 78.9497 71.3925 79.2524 72.0214 80.3948C72.2765 80.8295 72.5111 81.1214 72.4683 81.6269C72.3074 81.9782 72.318 81.9697 72.0535 82.2476C71.6328 82.1807 70.9138 82.3791 70.5361 82.2985C68.6058 81.8866 66.46 80.311 67.5432 78.1402Z" fill="#8CB23C"/>
<path d="M67.543 78.1402C67.6448 78.1028 67.6981 78.127 67.8236 78.1384C68.3772 78.2574 68.9015 78.3438 69.4159 78.5808C70.6302 78.9497 71.3923 79.2524 72.0212 80.3948C72.1337 80.8522 72.2595 81.1176 72.0835 81.5403L71.8164 81.6101C71.4523 81.4467 70.0322 80.1446 69.3729 79.6889C68.5889 79.5664 67.9225 78.7847 67.543 78.1402Z" fill="#91B640"/>
<path d="M67.543 78.1402C67.6448 78.1028 67.6981 78.127 67.8236 78.1384C68.3772 78.2574 68.9015 78.3438 69.4159 78.5808C69.7862 78.8507 69.9094 78.9206 70.1995 79.266L70.0795 79.35L69.0221 79.0776L68.9586 79.1919L69.3729 79.6889C68.5889 79.5664 67.9225 78.7847 67.543 78.1402Z" fill="url(#paint8_linear_138_4065)"/>
<path d="M72.2653 82.5656C73.2061 81.8845 73.0102 81.4118 72.9526 80.3409L73.1239 80.1543L73.898 80.2078L73.4762 80.3884C73.4213 81.1898 73.8978 81.7073 73.1893 82.5571C72.5914 83.2744 71.7703 83.3911 70.9038 83.4921C68.903 83.1884 68.3205 83.239 66.7928 81.8388C69.1034 82.465 69.8191 83.0569 72.2653 82.5656Z" fill="#CD9E68"/>
<path d="M63.1637 79.8643C63.8155 79.0847 65.9327 77.4852 66.9 78.1843C66.9493 78.6585 66.8271 78.704 66.5855 79.1815C66.5244 79.2481 66.2664 79.5207 66.2328 79.576C66.0591 79.7554 65.8623 79.9402 65.6821 80.1156C64.9144 80.3432 63.9699 80.0416 63.1637 79.8643Z" fill="#CD9E68"/>
<path d="M66.2329 79.5757C66.2664 79.5204 66.5245 79.2478 66.5855 79.1812C66.8874 80.5635 67.2758 80.8576 68.2728 81.8513C67.2552 81.5988 66.6785 81.4544 65.6934 81.0628C66.009 80.5355 66.2892 80.1982 66.2329 79.5757Z" fill="#AE8851"/>
<path d="M13.8519 83.8626C14.9293 84.1218 19.2739 83.3897 20.1704 84.193C20.2881 84.8746 19.9245 84.9998 19.42 85.4013C21.9182 88.2731 22.2618 86.4283 23.7852 87.1061L23.7561 87.2168C22.7979 87.3232 22.2013 87.2952 21.2492 87.2629L21.1985 87.3265C21.9982 87.5426 22.596 87.3984 23.4705 87.721C25.9539 88.6375 26.9865 90.1504 29.6044 88.4929C31.031 88.4042 31.1688 89.667 32.9254 88.7813C33.884 88.2272 34.9385 88.7278 35.6504 88.5054C36.3255 88.2942 37.1501 87.8347 38.0327 87.5554C38.433 87.7655 38.8929 88.0607 39.2869 88.2982L41.3651 88.2715C39.8392 88.6261 37.7633 89.7446 36.2222 90.1986C35.4334 90.2145 34.209 90.0505 33.4436 89.9919C29.7173 89.7065 27.2017 89.9713 23.8345 88.1385C22.5771 87.4542 17.9546 87.1164 16.4269 87.0543L16.281 86.8389C15.8911 86.6962 15.0389 86.7475 14.5868 86.7517C15.8664 86.3488 16.9115 86.3006 17.7258 85.2995C17.9961 83.6427 12.2964 84.3735 11.0764 84.1838C11.7524 84.1551 13.2389 84.0322 13.8519 83.8626Z" fill="#E9C28B"/>
<path d="M35.4735 80.5063L37.176 80.6095C38.3282 80.881 38.5308 80.9074 39.4682 81.6262L39.2355 82.0339C38.848 82.1669 36.8201 81.5989 36.4507 81.4206C35.6227 81.8822 34.323 81.4631 33.2194 81.7884L33.0846 82.0301C32.1973 82.3061 31.3642 82.1067 30.6319 81.5599L30.5984 81.2434C31.8718 80.7748 34.1008 80.532 35.4735 80.5063Z" fill="#F4DDBF"/>
<path d="M33.2183 81.7885C32.9962 81.4258 33.0195 81.6079 33.085 81.2359C33.7974 80.8172 35.7362 81.0358 36.4496 81.4207C35.6215 81.8823 34.3219 81.4632 33.2183 81.7885Z" fill="#4F452E"/>
<path d="M27.4955 87.7494C28.2051 86.9931 31.3737 85.4019 32.3395 85.7119L32.3998 85.9014C31.8489 86.2847 30.8198 86.3846 30.056 86.682L30.2378 86.8523C31.7115 86.6114 31.9542 86.9932 33.3631 87.2658C32.6311 87.7782 31.8861 87.5289 31.1404 87.9669L31.1092 88.1488C31.8661 88.6892 31.9009 88.3533 32.7469 88.4258L32.9258 88.7811C31.1691 89.6668 31.0314 88.4041 29.6048 88.4928L29.0203 88.5181C28.9676 88.246 28.8762 88.0907 28.6684 87.944C28.1386 87.9783 27.99 87.9427 27.4955 87.7494Z" fill="#9E7754"/>
<path d="M53.6581 82.349C55.8764 81.7395 58.3149 82.3296 59.8928 84.0299C59.0942 84.8784 58.299 84.2402 57.3902 84.1435C57.0297 83.7571 56.8058 83.6547 56.3583 83.3866C55.1383 83.3635 54.2045 83.6025 53.6581 82.349Z" fill="#E9C28B"/>
<path d="M73.8978 80.2075C75.2125 80.4109 76.2086 80.4537 76.8381 81.8194C76.1232 81.8949 75.3658 81.8785 74.8924 82.4239L74.7156 82.2599C73.8159 82.4273 71.9998 84.2246 70.9036 83.4919C71.7701 83.3909 72.5913 83.2742 73.1891 82.5568C73.8977 81.7071 73.4212 81.1895 73.4761 80.3882L73.8978 80.2075Z" fill="#E9C28B"/>
<path d="M19.8475 80.1788L19.7134 80.6905C19.414 80.7511 18.7136 80.9133 18.4422 80.909C15.9124 80.5012 14.2794 82.9521 12.4639 84.1225C12.7644 83.2449 12.87 83.0382 13.3781 82.2611C13.763 82.1422 14.3769 81.6454 14.7534 81.3945C16.5868 80.1726 17.7056 80.1407 19.8475 80.1788Z" fill="#634F3A"/>
<path d="M49.2678 84.6426C49.7972 85.1827 50.4969 85.4311 51.2325 85.5207C51.4403 85.4472 51.5264 85.4297 51.7187 85.3162C52.5493 85.3791 53.3436 85.3039 54.0196 85.8688C52.2812 86.0121 49.0094 85.4347 47.7795 85.6721C47.8494 86.0531 47.9033 86.1501 47.7602 86.4881L47.4687 86.526C46.8729 86.2762 46.9926 86.2986 46.5387 85.9633C46.0728 85.6193 45.3027 85.7187 44.8234 85.2078L44.8911 85.0456C45.5073 84.9676 45.7809 85.2855 46.32 85.2889C47.1719 85.2944 48.2543 85.102 49.099 84.9659L49.2678 84.6426Z" fill="#E9C28B"/>
<path d="M62.5456 80.8115C63.1626 80.854 63.5503 80.9008 64.1597 81.0063C63.5627 81.1645 63.3728 81.3444 62.8746 81.7068C62.2011 82.0874 62.0641 82.116 61.2893 82.2101C61.5083 83.1798 62.3091 82.6868 62.8784 83.3191C62.7896 83.7073 62.5839 83.9239 62.2293 84.1567C61.5163 83.4007 61.5437 83.273 60.6247 82.8089C60.3824 82.4455 60.443 81.9046 60.6243 81.53C61.1075 81.1258 61.9162 80.9777 62.5456 80.8115Z" fill="#E9C28B"/>
<path d="M61.2898 82.2106L61.2455 82.1629L61.3062 81.9694C61.8613 81.6065 62.2366 81.4596 62.8751 81.7073C62.2016 82.0879 62.0646 82.1165 61.2898 82.2106Z" fill="#9E7754"/>
<path d="M26.2283 82.8311L26.3172 82.7323C27.0044 82.5973 27.6544 82.3621 28.3327 82.249C29.9424 83.5728 31.6969 84.2282 33.8181 84.0795C33.0863 84.5924 31.0303 84.6296 30.2192 84.5432C28.4528 84.3548 29.2977 83.8548 28.7336 82.8889C28.5267 82.5344 27.0383 82.8464 26.354 82.8343L26.2283 82.8311Z" fill="#E9C28B"/>
<path d="M79.7057 82.1494L80.5256 82.235C80.92 82.4139 81.5201 82.6534 81.8484 82.9058C81.5306 83.1377 81.4696 83.1988 81.1076 83.3348L80.7488 83.3892C79.9811 83.3209 78.4367 83.5296 77.9803 82.8382C78.5617 82.1012 78.8685 82.2751 79.7057 82.1494Z" fill="#E9C28B"/>
<path d="M19.7123 80.6909L20.0676 80.877L20.1144 81.5394L20.2063 81.8099C20.8142 82.0655 22.3961 82.5866 22.8154 82.8923C21.7037 82.8518 21.4303 82.1702 19.8194 82.5241L19.6659 82.559C19.1365 82.2266 18.9798 81.7542 18.4608 81.3644L18.4412 80.9093C18.7125 80.9137 19.4129 80.7514 19.7123 80.6909Z" fill="#CA9B69"/>
<path d="M33.3632 87.2656C33.9321 87.8778 34.9844 87.8041 35.8668 87.9832C35.3127 88.033 33.0248 88.1275 32.7469 88.4256C31.901 88.3531 31.8662 88.6889 31.1093 88.1486L31.1405 87.9667C31.8862 87.5286 32.6312 87.7779 33.3632 87.2656Z" fill="#E9C28B"/>
<path d="M81.1083 83.335L81.4576 83.4437C81.56 83.9576 81.3289 84.1789 80.908 84.4748L80.3445 84.5973L79.9429 84.6134L79.9908 84.4718C79.6262 84.2619 78.0866 84.3446 77.2087 84.0617C78.2489 83.9959 79.9307 83.977 80.7495 83.3893L81.1083 83.335Z" fill="#CD9E68"/>
<path d="M42.5214 83.0908C43.4497 83.3309 43.6974 83.3876 44.6466 83.4104C44.255 83.4913 44.2048 83.4902 43.8626 83.6832C43.5909 84.1196 43.7218 84.6733 43.768 85.2248C43.0994 84.846 42.447 84.5754 41.8454 84.2345L41.9456 84.0824L42.9062 83.9122L42.9734 83.7247C42.6799 83.4949 42.6789 83.4436 42.5214 83.0908Z" fill="#84634A"/>
<path d="M79.9423 84.6135C78.9869 84.6449 76.8576 84.767 76.1307 84.1778L76.1769 84.0376C76.7473 83.8589 76.5201 83.8943 77.2081 84.0618C78.0859 84.3447 79.6256 84.262 79.9901 84.4719L79.9423 84.6135Z" fill="#84634A"/>
<path d="M27.4957 87.749C27.9902 87.9423 28.1388 87.9779 28.6686 87.9436C28.8764 88.0903 28.9678 88.2456 29.0205 88.5177C28.4494 88.5525 27.281 88.6799 26.8215 88.3558C26.9517 87.9766 27.0826 88.0008 27.4957 87.749Z" fill="#84634A"/>
<path d="M74.8925 82.4238C75.3659 81.8784 76.1234 81.8948 76.8382 81.8193C77.0379 82.1362 76.9039 82.0285 77.249 82.1586C76.4007 82.3483 75.761 82.5562 74.8925 82.4238Z" fill="#84634A"/>
<path d="M23.5603 85.1803C23.1257 85.0961 23.0775 85.0999 22.703 84.8815L22.7824 84.7438C23.4471 84.6429 26.0489 84.2877 26.3012 84.9471C25.6095 85.7885 24.9845 86.0983 23.8972 85.7071C23.7921 85.5418 23.6703 85.3371 23.5603 85.1803Z" fill="#84634A"/>
<path d="M23.5599 85.18C24.4102 85.1883 25.4417 85.0423 26.3008 84.9468C25.6091 85.7882 24.9842 86.098 23.8969 85.7068C23.7918 85.5415 23.6699 85.3368 23.5599 85.18Z" fill="#CA9B69"/>
<path d="M67.6537 86.73C67.6956 86.7305 69.5485 87.0098 69.5516 87.0111C69.2583 87.3509 69.0352 87.3337 68.5509 87.4945C68.351 87.4986 68.151 87.5013 67.9509 87.5028C67.2287 87.508 66.6796 87.5971 66.1493 87.0741L66.3015 86.9336C66.8643 86.9171 66.993 86.9151 67.5378 86.7634L67.6537 86.73Z" fill="#84634A"/>
<path d="M54.5791 85.8447C55.21 85.4927 57.3992 85.1729 58.0335 85.5581C57.1661 85.6775 55.3725 85.9947 54.5791 85.8447Z" fill="#84634A"/>
<path d="M71.6264 84.7947C72.2845 84.707 73.0873 84.4758 73.2939 85.2504C72.5528 85.327 71.9397 85.5322 71.6264 84.7947Z" fill="#84634A"/>
<path d="M53.2784 83.5717C53.7457 83.4974 53.8213 83.4864 54.2866 83.561L54.4412 83.7984L54.272 84.2231C53.9083 84.2432 53.8786 84.2222 53.5243 84.1104C53.2278 83.7807 53.2865 83.9626 53.2784 83.5717Z" fill="#E9C28B"/>
<path d="M63.2444 88.9751C63.5001 88.972 63.7903 88.9847 64.049 88.9904L64.1559 89.1386L63.817 89.4119C63.4142 89.3895 63.1236 89.3487 62.7246 89.2871L62.7428 89.146L63.2444 88.9751Z" fill="#9E7754"/>
<path d="M45.8338 43.2197C46.5156 42.5603 46.9781 41.1744 47.5926 40.371C52.1488 34.4149 62.1693 35.2231 67.6424 39.1276C68.3097 39.5639 68.8417 39.9274 69.4747 40.4101C65.7597 44.1585 62.0747 46.2751 56.6216 46.2997C55.2616 46.314 53.9047 46.1667 52.5794 45.8609C50.5613 45.3833 48.0202 43.7759 46.1032 45.5722C45.3376 46.2896 44.7399 47.8887 44.4334 48.8779C44.4054 47.456 44.9633 46.3624 45.9063 45.3078C46.2929 44.8756 46.604 44.9401 46.8467 44.329C45.3865 44.7329 44.9772 46.1839 44.151 47.3512C44.1491 46.5911 44.3562 45.7816 44.5816 45.0615C45.1814 44.7803 46.6212 43.5804 46.7479 42.9257L46.5462 42.8466L45.8338 43.2197Z" fill="url(#paint9_linear_138_4065)"/>
<path d="M45.8338 43.2197C46.5156 42.5603 46.9781 41.1744 47.5926 40.371C52.1488 34.4149 62.1693 35.2231 67.6424 39.1276C67.9495 39.6288 68.2384 39.8278 68.6887 40.2018L68.4188 40.3481L68.4148 40.493C67.2332 40.5566 66.1488 40.254 65.0126 39.9523L65.133 40.0032C64.0327 39.6555 62.4508 39.3383 61.3163 39.5941C61.813 39.6584 62.8652 39.7478 63.2597 39.9519C57.4078 39.7877 52.6479 39.6098 47.6352 43.7929C47.5321 43.8788 47.4485 44.0098 47.3752 44.1202C47.0852 44.3536 47.2495 44.2719 46.8467 44.329C45.3865 44.7329 44.9772 46.1839 44.151 47.3512C44.1491 46.5911 44.3562 45.7816 44.5816 45.0615C45.1814 44.7803 46.6212 43.5804 46.7479 42.9257L46.5462 42.8466L45.8338 43.2197Z" fill="#ACCC4F"/>
<path d="M45.8338 43.2197C46.5156 42.5603 46.9781 41.1744 47.5926 40.371C52.1488 34.4149 62.1693 35.2231 67.6424 39.1276C67.9495 39.6288 68.2384 39.8278 68.6887 40.2018L68.4188 40.3481C65.1512 38.4497 63.1508 37.2103 59.1984 36.6893C56.1646 36.2895 52.4888 37.0278 50.0428 38.936C49.5926 39.2872 48.6752 40.1344 48.6131 40.7078C49.9045 41.0602 52.206 40.0838 53.351 39.9247C56.0715 39.5466 58.6161 39.5975 61.3163 39.5941C61.813 39.6584 62.8652 39.7478 63.2597 39.9519C57.4078 39.7877 52.6479 39.6098 47.6352 43.7929C47.5321 43.8788 47.4485 44.0098 47.3752 44.1202C47.0852 44.3536 47.2495 44.2719 46.8467 44.329C45.3865 44.7329 44.9772 46.1839 44.151 47.3512C44.1491 46.5911 44.3562 45.7816 44.5816 45.0615C45.1814 44.7803 46.6212 43.5804 46.7479 42.9257L46.5462 42.8466L45.8338 43.2197Z" fill="#5A7430"/>
<path d="M67.643 39.1279C68.3104 39.5642 68.8423 39.9277 69.4753 40.4103C65.7603 44.1588 62.0753 46.2754 56.6223 46.3C55.2623 46.3142 53.9054 46.167 52.5801 45.8612C50.562 45.3836 48.0208 43.7762 46.1038 45.5725C45.3382 46.2899 44.7406 47.8889 44.434 48.8782C44.406 47.4563 44.9639 46.3627 45.907 45.308C46.2936 44.8759 46.6047 44.9404 46.8473 44.3293C47.2502 44.2722 47.0859 44.3539 47.3758 44.1205C49.6471 43.9743 50.4955 44.5918 52.5554 45.1606C57.1159 46.4199 62.2154 45.3814 66.0462 42.6453C66.6572 42.2089 68.1092 41.1228 68.4155 40.4933L68.4194 40.3484L68.6894 40.2021C68.2391 39.8281 67.9502 39.629 67.643 39.1279Z" fill="#50682F"/>
<path d="M34.9955 70.2697C34.9112 70.1008 34.5187 69.3156 34.3571 69.3322C32.1154 69.5632 27.2932 66.328 29.3448 63.905C29.7093 63.4743 30.7248 63.5099 31.3322 63.5381C33.2044 63.6252 34.399 64.5765 35.5605 65.9017C39.3936 66.4986 38.569 69.2946 35.5367 69.4913C35.413 69.9095 35.322 69.9516 34.9955 70.2697Z" fill="#50682F"/>
<path d="M29.8889 64.1565C32.0547 64.0964 33.5474 64.3355 34.9305 66.1447C35.0457 66.915 35.232 67.8964 34.5349 68.4015L34.1391 68.1705L34.0635 68.1201C34.0645 68.3804 34.0866 68.375 34.1619 68.6333L33.9755 68.7466C32.234 68.6758 28.4685 66.4906 29.8889 64.1565Z" fill="#91B640"/>
<path d="M35.5464 66.4209C36.7254 66.4534 38.0818 67.2862 37.0277 68.4844C36.395 68.7689 36.0218 69.0975 35.4689 68.5881C35.2418 68.0014 35.4292 67.0526 35.5464 66.4209Z" fill="#8CB23C"/>
<path d="M28.0645 70.935C27.0914 70.6682 24.4674 71.9439 22.7923 71.4861C21.4563 71.1211 16.857 70.1672 17.2118 68.114C18.7642 66.0608 26.1348 66.2945 27.4511 69.8332L27.4838 70.3091C27.6625 70.464 28.011 70.7283 28.0645 70.935Z" fill="#50682F"/>
<path d="M17.5369 68.2709C20.2957 67.446 25.0379 66.5847 26.7673 69.7146L26.7433 69.9216C26.5611 69.9074 26.5066 69.9218 26.3412 69.8606C26.5089 70.034 26.5633 70.0923 26.7028 70.2882L26.4717 70.5644C24.3998 71.6277 20.0407 70.5107 18.3218 68.9682C18.0671 68.7442 17.7794 68.503 17.5369 68.2709Z" fill="url(#paint10_linear_138_4065)"/>
<path d="M17.5369 68.2709C20.2957 67.446 25.0379 66.5847 26.7673 69.7146L26.7433 69.9216C26.5611 69.9074 26.5066 69.9218 26.3412 69.8606C22.6897 67.8241 21.6374 69.6308 18.3218 68.9682C18.0671 68.7442 17.7794 68.503 17.5369 68.2709Z" fill="url(#paint11_linear_138_4065)"/>
<path d="M69.4291 66.9845C69.5351 66.2234 69.8316 64.101 70.9886 64.4681C72.7753 65.0349 70.9213 67.2432 71.0403 68.0926C72.3735 68.2123 72.0314 64.8229 75.2625 65.003C82.8272 65.4242 76.4821 70.2504 72.5591 68.1124C72.1785 68.3829 71.1132 69.0995 70.8532 69.4035L70.5582 69.2567C70.0526 68.2777 69.6604 68.1063 69.4291 66.9845Z" fill="#50682F"/>
<path d="M73.768 67.103C73.3231 67.2313 73.1064 67.3727 72.7029 67.2831C72.9307 65.2043 77.8495 64.9275 77.8763 66.7428C77.5944 67.1646 77.492 67.2237 77.0805 67.5285C76.1671 68.0073 73.7902 68.608 73.06 67.6739C73.3585 67.4869 73.5483 67.3792 73.768 67.103Z" fill="#91B640"/>
<path d="M73.7677 67.1029C75.2387 66.4318 75.4804 67.2088 77.0802 67.5284C76.1667 68.0073 73.7899 68.6079 73.0597 67.6738C73.3582 67.4868 73.5479 67.3791 73.7677 67.1029Z" fill="#8CB23C"/>
<path d="M70.611 65.0068C71.0346 65.1519 70.8903 65.0195 71.086 65.3839C71.012 66.4417 70.7686 67.2422 70.2858 68.1822L70.0832 68.1821C70.0486 67.0306 70.1186 66.0652 70.611 65.0068Z" fill="#ACCC4F"/>
<path d="M63.7438 63.6553C63.2792 62.9195 62.9263 61.6648 63.2486 60.8217C63.666 60.5236 63.6227 60.6241 64.2261 60.6707C66.4333 61.134 70.1172 62.8433 68.2213 65.6041C68.4687 66.2138 68.706 66.4089 68.8304 67.0321C68.4176 66.7841 68.2511 66.4935 67.9608 66.1069L67.8638 66.138L67.7959 66.7326C67.6363 66.3816 67.6305 66.3793 67.3848 66.0789L67.2725 66.0429C65.7683 65.5481 64.4845 65.1377 63.7438 63.6553Z" fill="#50682F"/>
<path d="M63.7438 63.6553C63.2792 62.9195 62.9263 61.6648 63.2486 60.8217C63.666 60.5236 63.6227 60.6241 64.2261 60.6707C64.0737 61.0793 64.2023 60.927 63.8332 61.1479C65.5037 61.5239 67.3918 62.0371 67.9983 63.8493L67.6838 63.9351C66.9188 63.744 66.2146 62.9828 65.8726 63.0328L66.1003 63.5343C65.9024 63.6382 65.5992 63.3768 65.1583 63.3049L64.5331 63.7689L64.1783 63.2411L63.7438 63.6553Z" fill="#91B640"/>
<path d="M63.7438 63.6553C63.2792 62.9195 62.9263 61.6648 63.2486 60.8217C63.666 60.5236 63.6227 60.6241 64.2261 60.6707C64.0737 61.0793 64.2023 60.927 63.8332 61.1479C63.8671 62.0125 63.934 62.3989 64.1783 63.2411L63.7438 63.6553Z" fill="#4B602D"/>
<path d="M64.5315 63.7693L65.1568 63.3052C65.5977 63.3771 65.9009 63.6385 66.0987 63.5346L65.8711 63.0331C66.213 62.9831 66.9172 63.7443 67.6822 63.9354L67.9968 63.8496C68.0515 64.2742 68.0455 64.3826 68.0042 64.81C67.6503 65.1362 67.7973 64.7749 67.0786 64.815L67.2639 65.1882C66.4369 65.5107 65.0139 64.4223 64.5315 63.7693Z" fill="#8CB23C"/>
<path d="M27.4512 69.8335C28.7948 70.5086 30.4108 70.6862 31.6631 71.7735C32.5027 72.5024 33.2203 73.1679 33.8656 74.0809C34.3053 74.6109 35.3391 76.4119 35.7123 76.6395C35.8342 76.8252 35.953 77.0129 36.0686 77.2026C36.3429 77.6557 36.2753 77.9487 36.2562 78.4556L36.236 78.5925C35.8337 78.9148 35.909 78.9289 35.2868 78.8904C35.0959 78.4041 34.8124 77.9073 34.5658 77.4422C34.5389 77.0001 34.5187 76.986 34.2682 76.605L34.3824 76.424C33.9714 75.9003 33.8916 75.5502 33.5559 75.0417C32.6968 73.7629 31.5082 72.644 30.169 71.8802C29.4982 71.4978 28.7399 71.3692 28.0646 70.9353C28.0112 70.7286 27.6627 70.4643 27.4839 70.3093L27.4512 69.8335Z" fill="#5A7430"/>
<path d="M34.3828 76.4236L34.4648 76.2925C35.009 77.1666 35.4051 78.0534 36.2364 78.5921C35.8341 78.9144 35.9094 78.9285 35.2872 78.89C35.0964 78.4037 34.8129 77.9069 34.5662 77.4418C34.5393 76.9997 34.5191 76.9856 34.2687 76.6046L34.3828 76.4236Z" fill="#50682F"/>
<path d="M34.9944 70.2696C35.3209 69.9515 35.4119 69.9094 35.5356 69.4912C35.927 70.341 36.3239 71.1255 36.5539 72.0358L35.6661 72.3619C35.7801 71.8711 35.2203 70.7924 34.9944 70.2696Z" fill="#5A7430"/>
<defs>
<linearGradient id="paint0_linear_138_4065" x1="58.5687" y1="26.9329" x2="47.4911" y2="14.47" gradientUnits="userSpaceOnUse">
<stop stop-color="#EE9794"/>
<stop offset="1" stop-color="#FFC5C5"/>
</linearGradient>
<linearGradient id="paint1_linear_138_4065" x1="53.208" y1="7.95246" x2="51.7455" y2="5.81551" gradientUnits="userSpaceOnUse">
<stop stop-color="#F19594"/>
<stop offset="1" stop-color="#FFB9B8"/>
</linearGradient>
<linearGradient id="paint2_linear_138_4065" x1="51.802" y1="79.2771" x2="62.2672" y2="68.3634" gradientUnits="userSpaceOnUse">
<stop stop-color="#88B543"/>
<stop offset="1" stop-color="#BDD655"/>
</linearGradient>
<linearGradient id="paint3_linear_138_4065" x1="53.0535" y1="80.9478" x2="53.4954" y2="78.3123" gradientUnits="userSpaceOnUse">
<stop stop-color="#AB8051"/>
<stop offset="1" stop-color="#C49A63"/>
</linearGradient>
<linearGradient id="paint4_linear_138_4065" x1="32.0797" y1="42.0791" x2="32.0665" y2="30.4042" gradientUnits="userSpaceOnUse">
<stop stop-color="#8FBC47"/>
<stop offset="1" stop-color="#C2D95C"/>
</linearGradient>
<linearGradient id="paint5_linear_138_4065" x1="32.7109" y1="40.0563" x2="33.6803" y2="30.3228" gradientUnits="userSpaceOnUse">
<stop stop-color="#81A93D"/>
<stop offset="1" stop-color="#BFD957"/>
</linearGradient>
<linearGradient id="paint6_linear_138_4065" x1="78.9532" y1="81.7242" x2="72.4733" y2="71.4557" gradientUnits="userSpaceOnUse">
<stop stop-color="#8BB742"/>
<stop offset="1" stop-color="#B7D253"/>
</linearGradient>
<linearGradient id="paint7_linear_138_4065" x1="36.579" y1="78.7943" x2="34.8956" y2="80.8527" gradientUnits="userSpaceOnUse">
<stop stop-color="#3D6118"/>
<stop offset="1" stop-color="#5B4A35"/>
</linearGradient>
<linearGradient id="paint8_linear_138_4065" x1="68.7872" y1="79.0767" x2="69.1641" y2="78.5129" gradientUnits="userSpaceOnUse">
<stop stop-color="#739530"/>
<stop offset="1" stop-color="#9DBD38"/>
</linearGradient>
<linearGradient id="paint9_linear_138_4065" x1="57.3612" y1="45.7447" x2="58.4898" y2="38.8349" gradientUnits="userSpaceOnUse">
<stop stop-color="#87B444"/>
<stop offset="1" stop-color="#B6CF53"/>
</linearGradient>
<linearGradient id="paint10_linear_138_4065" x1="24.1819" y1="71.658" x2="21.7745" y2="67.9841" gradientUnits="userSpaceOnUse">
<stop stop-color="#7DA73A"/>
<stop offset="1" stop-color="#97C347"/>
</linearGradient>
<linearGradient id="paint11_linear_138_4065" x1="23.715" y1="71.1916" x2="20.7731" y2="66.5785" gradientUnits="userSpaceOnUse">
<stop stop-color="#88B540"/>
<stop offset="1" stop-color="#B2D04C"/>
</linearGradient>
</defs>
</svg>
