<svg width="96" height="96" viewBox="0 0 96 96" fill="none" xmlns="http://www.w3.org/2000/svg">
<path d="M43.1897 16.8147C43.2561 14.1886 44.1292 11.3493 45.9613 9.76296C47.9999 7.99767 48.9404 7.9635 51.1193 8.7503C51.6362 8.93697 53.5725 7.83424 54.6289 9.44429C56.3951 11.4951 56.8969 14.4598 56.8024 17.0969C58.8284 14.9103 63.3002 11.3686 66.5452 13.8818C67.3853 14.5325 67.5558 15.7157 67.68 16.7292C70.3813 16.9368 71.0376 19.0724 70.799 21.5081C70.3587 26.0035 67.4966 28.4364 63.8797 30.5674C66.8306 30.4169 69.8531 30.7441 72.2012 32.7364C74.5402 34.7215 72.8005 36.9081 70.7568 38.1243C71.4357 40.8347 69.6259 42.1724 67.1418 42.6598C62.5717 43.5567 57.006 43.5336 53.4184 40.098C52.9085 42.3344 52.5959 43.3772 50.9075 45.0046C50.8413 45.0683 49.7315 46.1978 49.7194 46.2168C49.5929 46.263 49.3889 46.3262 49.2834 46.3944C48.79 46.7165 48.0719 47.1423 47.5223 47.3543C47.2517 47.5718 47.2352 47.577 47.1452 47.8992C47.0494 47.5781 47.1833 47.5825 46.6961 47.6895C44.8088 48.1042 43.9786 48.2628 42.2617 47.3156L41.6447 46.2311C40.4734 46.6255 39.1432 47.1095 37.9455 46.5719C35.365 45.4137 35.5733 41.8975 36.4759 39.7335L36.0579 39.7412C32.6105 40.2192 28.3756 39.4771 25.506 37.4444C23.7988 36.2351 23.8343 34.6174 25.0029 33.0571C21.4004 27.6769 28.5431 26.8863 32.1814 26.9492C29.0447 23.8299 25.6227 16.6541 32.1395 15.2871C32.7342 12.1337 36.0289 11.1722 38.6325 12.6124C40.5138 13.6532 41.9946 15.0403 43.1897 16.8147Z" fill="#D37F7E"/>
<path d="M52.4785 33.1289C54.0389 32.8507 56.3848 32.187 58.001 31.7911C59.5224 31.4184 61.9622 30.876 63.3526 30.4077L63.4623 30.7419C63.5774 30.79 63.7435 30.8666 63.8575 30.9012C66.2364 30.6916 69.95 31.2873 71.768 32.8559C74.2479 34.9956 72.2594 36.725 70.3142 37.9203C72.2066 43.2861 62.8326 42.9801 59.6845 42.6285C58.0517 42.446 53.9076 40.9233 53.3513 39.2136C53.3294 39.1462 53.3085 39.0783 53.2886 39.0102C53.0355 39.283 53.0376 39.7579 53.01 40.1241C52.7052 44.1592 47.6562 48.3136 43.6254 47.5747C42.8203 47.427 42.1467 46.5081 41.6903 45.9037C40.4919 46.2708 39.0244 46.8977 37.8676 46.197C35.7143 44.893 36.0672 41.7733 36.8095 39.8218L37.1388 39.086C38.0063 37.6902 38.7127 36.9558 39.9866 35.9193C41.7886 34.4527 45.6409 33.3175 47.9773 33.6632L48.8194 33.691C49.4131 33.7173 49.6459 33.6974 50.2389 33.6263C50.7605 33.6558 51.0623 33.5589 51.5685 33.4389C51.9871 33.3439 52.0989 33.3228 52.4785 33.1289Z" fill="#FEBBBA"/>
<path d="M52.4785 33.1289C54.0389 32.8507 56.3848 32.187 58.001 31.7911C59.5224 31.4184 61.9623 30.876 63.3526 30.4077L63.4624 30.7419C63.5774 30.79 63.7435 30.8666 63.8576 30.9012C62.7654 31.1131 61.3374 31.4334 60.2413 31.6973L60.1459 31.9025C60.9038 31.8786 63.0669 31.7606 63.7211 32.0126C63.5504 32.4754 62.4388 32.4147 61.9743 32.5009C60.3492 32.8024 58.1815 33.042 56.9713 34.2606C56.0878 34.1784 51.6693 34.2014 51.3484 33.8699L51.5685 33.4389C51.9871 33.3439 52.099 33.3228 52.4785 33.1289Z" fill="url(#paint0_linear_138_4357)"/>
<path d="M51.5681 33.439L51.348 33.87C51.6689 34.2015 56.0874 34.1785 56.9708 34.2607C59.1819 34.6661 64.4702 35.1309 66.3237 36.3811L66.3433 36.4826C61.6198 34.4091 54.4785 35.3709 49.4768 34.1226C49.1504 34.0412 48.7947 34.0888 48.4999 33.9232C48.3301 33.828 48.1518 33.7484 47.9769 33.6633L48.819 33.6911C49.4128 33.7174 49.6455 33.6975 50.2385 33.6264C50.7601 33.6559 51.062 33.559 51.5681 33.439Z" fill="#E2878A"/>
<path d="M52.7694 24.5566C54.6917 20.2804 57.3913 15.4568 62.0136 13.7448C65.097 12.6027 67.1064 13.6962 67.3446 16.9614L68.8197 17.123C71.8884 19.7544 70.321 24.2449 68.1019 26.8922C66.8055 28.4385 65.1014 29.4621 63.3521 30.4082C61.9618 30.8765 59.5219 31.4189 58.0006 31.7917C56.3843 32.1875 54.0384 32.8513 52.4781 33.1294C52.0985 33.3233 51.9866 33.3445 51.5681 33.4394C51.0619 33.5594 50.7601 33.6563 50.2384 33.6268C49.6454 33.6979 49.4127 33.7178 48.8189 33.6915C48.1197 33.4689 47.295 33.4951 46.8368 32.9432C46.4641 32.3215 45.0394 30.3309 44.425 30.0712C43.7538 29.7875 42.5389 30.1301 42.0204 29.2206C41.9372 28.6867 42.0836 28.481 42.3303 28.0323C42.8287 27.1262 43.7539 27.5416 44.4346 27.9772L44.597 27.8659L44.5709 27.7547L44.4056 27.551C43.7513 25.7032 46.0317 25.1666 46.6472 27.0068L46.7658 26.9677C46.8995 27.5209 47.0638 28.305 47.2595 28.8182C47.5188 27.9455 46.9747 26.47 46.7527 25.4942L46.8919 25.0788L46.9393 24.7685C47.2709 23.6463 48.1014 23.7431 49.0377 24.0022C49.3872 24.6192 49.3814 24.6458 49.5249 25.3354C49.2354 25.9604 49.1821 25.9384 48.682 26.3984C48.6843 26.9756 48.6538 27.9215 48.7742 28.4554C49.2727 28.9929 48.8812 29.1638 49.3832 29.7897C49.4317 30.2793 49.462 31.1397 49.6719 31.5412C50.1275 30.6794 51.0337 28.0588 51.351 27.0788C50.8779 25.7149 51.005 25.1851 52.3224 24.5874L52.7694 24.5566Z" fill="#FEBBBA"/>
<path d="M46.9393 24.7682C47.2709 23.6461 48.1015 23.7428 49.0377 24.0019C49.3872 24.6189 49.3814 24.6455 49.5249 25.3351C49.2354 25.9601 49.1821 25.9381 48.682 26.3982C48.6843 26.9754 48.6538 27.9212 48.7742 28.4551C49.2727 28.9927 48.8812 29.1635 49.3832 29.7895C49.4317 30.279 49.462 31.1395 49.6719 31.5409C50.1275 30.6791 51.0337 28.0585 51.351 27.0785C50.8779 25.7147 51.005 25.1849 52.3224 24.5872L52.7694 24.5564C55.4124 26.5452 52.1181 27.2227 52.0094 27.4651C51.3595 28.9152 49.8686 32.0366 49.7247 33.5492C50.5674 32.4005 51.5134 31.2971 52.3144 30.1268C52.6387 29.6529 52.3601 29.0698 52.6716 28.6055C54.0756 26.6555 56.083 29.2828 54.125 30.5943C53.654 30.505 53.2397 30.3592 52.8696 30.6349C51.7592 31.4618 51.265 32.635 50.2384 33.6266C49.6454 33.6976 49.4127 33.7175 48.8189 33.6913C48.1197 33.4686 47.295 33.4949 46.8368 32.9429C46.4641 32.3212 45.0394 30.3307 44.425 30.0709C43.7538 29.7872 42.5389 30.1299 42.0204 29.2203C41.9372 28.6864 42.0836 28.4808 42.3303 28.0321C42.8287 27.1259 43.7539 27.5413 44.4346 27.9769L44.597 27.8656L44.5709 27.7544L44.4056 27.5507C43.7513 25.703 46.0317 25.1663 46.6472 27.0065L46.7658 26.9675C46.8995 27.5207 47.0638 28.3047 47.2595 28.818C47.5188 27.9452 46.9747 26.4697 46.7527 25.494L46.8919 25.0786L46.9393 24.7682Z" fill="#FDD93D"/>
<path d="M46.7534 25.4935L46.8926 25.0781C47.1341 25.7515 47.2114 25.9623 47.9357 26.1971C48.1935 26.4918 48.2263 26.8387 48.2275 27.2196C48.2336 29.236 48.4598 31.3233 48.4502 33.3305C48.2679 32.8348 47.4878 30.8219 47.5379 30.3835C47.5674 29.8354 47.4013 29.3496 47.2601 28.8175C47.5194 27.9448 46.9753 26.4693 46.7534 25.4935Z" fill="#E2878A"/>
<path d="M44.5973 27.8647C44.9959 28.1041 45.1657 28.1544 45.6055 28.2595C46.5682 29.2204 47.3271 31.7316 47.8301 33.0883C46.8803 32.0583 45.37 30.2075 44.6212 28.9757C44.5189 28.8074 44.5122 28.2481 44.4348 27.9761L44.5973 27.8647Z" fill="#FEBBBA"/>
<path d="M47.4056 24.3064C47.9935 23.8998 48.1221 23.9638 48.7873 24.1084C49.6826 25.199 49.2909 26.0034 47.9355 26.1969C47.2111 25.9621 47.1339 25.7512 46.8923 25.0779L46.9397 24.7676C47.1053 24.6496 47.2622 24.4597 47.4056 24.3064Z" fill="#FDE892"/>
<path d="M44.4054 27.5499C44.3814 26.3433 44.9436 25.394 46.1677 26.5701C46.6268 27.0112 45.9204 28.5624 44.6626 27.6189L44.5707 27.7536L44.4054 27.5499Z" fill="#FDE892"/>
<path d="M48.7742 28.4551C49.2727 28.9926 48.8812 29.1635 49.3833 29.7894C49.4317 30.279 49.4621 31.1395 49.6719 31.5409C49.6237 31.8421 49.1461 33.2474 49.0272 33.6194C48.8546 32.3538 48.8255 29.8128 48.7742 28.4551Z" fill="url(#paint1_linear_138_4357)"/>
<path d="M46.6475 27.0063L46.7661 26.9673C46.8998 27.5205 47.0641 28.3045 47.2598 28.8178C47.401 29.3499 47.5671 29.8356 47.5376 30.3838C47.0882 29.1813 46.1729 28.2862 46.6475 27.0063Z" fill="#FEBBBA"/>
<path d="M52.1443 24.9598C52.5181 24.8761 52.9075 25.0041 53.1589 25.2933C53.4101 25.5825 53.483 25.9863 53.3484 26.345C53.2138 26.7038 52.8937 26.96 52.5143 27.0123C51.9603 27.0887 51.4447 26.7143 51.3454 26.1637C51.2463 25.6129 51.5987 25.0819 52.1443 24.9598Z" fill="#FDE892"/>
<path d="M53.5633 28.2577C54.1156 28.1856 54.6241 28.5687 54.7074 29.1199C54.7906 29.6709 54.4182 30.1874 53.8692 30.2819C53.5043 30.3447 53.1337 30.2052 52.9006 29.917C52.6677 29.6289 52.6085 29.2371 52.7459 28.893C52.8833 28.5488 53.1961 28.3059 53.5633 28.2577Z" fill="#FDE892"/>
<path d="M42.9727 27.7192C43.8833 27.7575 44.4769 28.3069 44.2874 29.2453C44.138 29.4499 44.1131 29.5231 43.871 29.5995C43.3064 29.7848 43.0765 29.8515 42.6029 29.4358C42.1814 28.7132 42.4521 28.2413 42.9727 27.7192Z" fill="#FDE892"/>
<path d="M50.239 33.6261C51.2656 32.6346 51.7598 31.4613 52.8702 30.6344C53.2403 30.3588 53.6546 30.5046 54.1256 30.5939C53.2687 31.4863 51.6746 32.3473 50.9706 33.3197L50.9993 33.1877L51.1299 33.4089L51.0795 33.0667L51.2737 33.3831C51.7048 33.2263 52.3373 33.1798 52.4786 33.1287C52.0991 33.3226 51.9872 33.3437 51.5686 33.4387C51.0625 33.5587 50.7607 33.6556 50.239 33.6261Z" fill="#FCA09E"/>
<path d="M32.3862 15.4933C32.405 15.0296 32.4672 14.3698 32.7464 14.0254C34.7128 11.6383 36.9553 11.7858 39.4044 13.4545C43.3732 16.1587 45.8909 22.3991 46.7654 26.9673L46.6468 27.0064C46.0314 25.1662 43.7509 25.7028 44.4052 27.5506L44.5706 27.7543L44.5967 27.8655L44.4343 27.9768C43.7535 27.5412 42.8283 27.1258 42.3299 28.032C42.0832 28.4806 41.9368 28.6863 42.02 29.2202C42.5385 30.1297 43.7535 29.7871 44.4247 30.0708C45.0391 30.3305 46.4637 32.3211 46.8365 32.9428C46.3353 32.93 42.8529 30.5499 42.0961 30.1208C41.1195 29.5665 40.1147 29.0633 39.0859 28.6134C36.9042 27.6711 35.0783 27.2354 32.7376 27.0167C30.3773 24.7104 26.5597 18.8601 30.3624 16.1338C30.9603 15.7052 31.672 15.6189 32.3862 15.4933Z" fill="#FEBBBA"/>
<path d="M25.3398 33.1045C24.7044 32.0733 23.9447 30.5046 24.6525 29.377C25.7467 27.6335 28.6512 27.3415 30.433 27.2459C34.5114 27.0272 38.2044 28.165 41.6855 30.2268C43.3959 31.2396 44.9654 32.442 46.7285 33.3547C44.6149 33.4952 41.044 32.8234 38.8963 32.5392C36.3009 32.1777 33.6738 32.0978 31.0612 32.3009C30.497 32.3402 29.3944 32.3597 28.9272 32.5759L28.9238 32.6528C29.1527 32.7155 29.3396 32.784 29.5471 32.6593C29.6652 32.5881 29.9215 32.4839 30.044 32.4579C32.1124 32.0171 42.1563 33.024 43.4944 33.8029L43.3971 33.9623C42.7464 33.9415 42.1685 34.3455 41.603 34.6206C39.4367 35.6741 38.021 37.1353 36.7679 39.1488C36.4486 39.2191 35.8916 39.3064 35.6045 39.3836C35.4903 39.4035 35.3754 39.42 35.2602 39.4334C32.164 39.8113 28.0473 38.86 25.5262 36.9984C23.9795 35.8565 24.1445 34.4257 25.3398 33.1045Z" fill="#FEBBBA"/>
<path d="M46.7528 25.4936C46.1364 24.0321 45.7423 22.0555 45.1296 20.5053C44.9503 19.7691 43.7659 18.1712 43.6786 17.5424C43.2054 14.1297 45.1159 9.71447 48.5837 8.62085C49.5484 8.31661 50.3172 8.69831 51.1232 9.18573C51.6459 8.9184 52.0368 8.81739 52.5969 8.64955C56.0529 9.81259 56.4562 14.3909 56.3708 17.4638C54.8878 19.2814 52.9581 22.3292 52.3225 24.5868C51.0051 25.1845 50.878 25.7143 51.3511 27.0781C51.0338 28.0581 50.1276 30.6787 49.672 31.5405C49.4621 31.1391 49.4318 30.2786 49.3833 29.7891C48.8813 29.1631 49.2728 28.9923 48.7743 28.4547C48.6539 27.9208 48.6844 26.975 48.6821 26.3978C49.1822 25.9377 49.2355 25.9597 49.525 25.3347C49.3815 24.6451 49.3873 24.6185 49.0378 24.0015C48.1016 23.7424 47.271 23.6457 46.9394 24.7678L46.892 25.0782L46.7528 25.4936Z" fill="#FCA09E"/>
<path d="M49.0378 24.0018C49.0727 20.3301 49.4794 16.6713 50.2514 13.0818L50.332 13.0083C49.673 15.689 49.6472 19.0896 49.5974 21.849C49.5887 22.3237 49.6561 25.0553 49.525 25.3349C49.3815 24.6453 49.3873 24.6187 49.0378 24.0018Z" fill="#D37F7E"/>
<path d="M48.683 26.3976C49.183 25.9375 49.2363 25.9595 49.5259 25.3345C49.4741 26.784 49.3888 28.3468 49.3842 29.7888C48.8821 29.1629 49.2737 28.992 48.7751 28.4545C48.6547 27.9206 48.6852 26.9747 48.683 26.3976Z" fill="#E2878A"/>
<path d="M36.7674 39.1492L37.1389 39.0864L36.8096 39.8222L36.4766 39.7342L36.0587 39.742L35.7045 39.6199L35.604 39.384C35.8911 39.3068 36.4481 39.2195 36.7674 39.1492Z" fill="#E2878A"/>
<path d="M18.9046 44.4857C22.2243 44.0022 25.381 44.133 28.6046 45.0978C35.5841 47.1918 41.2584 52.3061 44.067 59.0344C44.8117 60.805 45.518 63.8857 46.3467 65.3357C46.5547 59.4026 46.6775 53.8703 47.145 47.8991C47.235 47.577 47.2516 47.5718 47.5221 47.3543C48.0717 47.1422 48.7898 46.7165 49.2832 46.3943C49.3887 46.3261 49.5928 46.2629 49.7192 46.2168C49.4537 49.1507 49.2439 52.0895 49.0899 55.0316C49.0404 56.0347 49.0468 58.4165 48.9167 59.2618C48.9343 60.5251 48.8165 64.9781 48.9665 65.8913L49.4238 66.0729C49.2814 66.9038 48.977 68.8504 48.7704 69.5707L49.168 69.6933C49.7557 68.7036 49.9946 68.2966 50.8996 67.6019C51.5049 67.5015 52.2429 67.2329 52.6703 67.7105C52.1586 67.8044 51.7228 67.8765 51.2066 67.9383C50.0449 68.8755 49.0489 70.363 49.002 71.8353C48.9105 74.7106 49.0767 79.086 49.4853 81.8955C51.3959 79.1589 54.3123 77.2914 57.596 76.702C59.3487 76.3843 61.5104 76.4386 63.268 76.85C63.5222 76.9094 64.02 77.122 64.2533 77.0582C64.1334 76.8459 63.8017 76.7157 63.5538 76.5933C61.4529 75.5555 60.8077 74.2581 60.7161 71.9621C63.0992 72.0105 65.2118 72.2154 65.5177 75.0519L65.6057 75.1457L65.7302 75.099C66.0757 74.9709 66.2065 74.889 66.5638 74.9653C67.0928 75.4807 66.6771 75.5706 67.1174 75.8302C67.6196 75.6289 68.1352 75.4791 68.571 75.3131C69.5033 74.958 72.9898 75.2834 72.1916 76.9176C71.6107 78.1064 68.7347 78.2341 67.6758 78.0941C71.0189 79.528 73.9801 82.0533 73.8693 86.0095C75.8369 86.2647 76.3307 85.845 78.058 87.2977C79.2184 87.3466 83.2847 87.9616 83.5793 89.2502C83.5018 89.5587 83.3652 89.7598 83.0737 89.9213C81.7772 90.8093 79.6639 91.0094 78.3338 91.5672C74.6922 93.1289 71.0355 93.3506 67.1552 93.6843C65.0177 93.868 64.0962 94.4272 61.9419 93.8229C61.7373 93.7655 58.3919 94.8973 57.4284 94.9279C54.6536 95.0162 51.8381 95.0646 49.0608 94.814C47.9619 94.7209 46.7053 94.3711 45.6282 94.278C44.3189 94.1648 43.4013 94.1691 42.0983 93.9429C42.0239 93.9882 41.5595 94.2577 41.4786 94.2645C40.1574 94.3236 35.4033 94.4706 34.3326 93.8775C31.9262 92.316 29.929 93.188 27.2519 93.0469C24.2205 92.8873 21.6662 92.015 18.826 91.192C16.8697 90.6252 14.4966 90.7692 12.5335 89.5063C12.1609 89.2668 12.1484 89.3731 12.0004 88.9459C12.424 87.5996 16.5518 86.6941 17.8614 86.4703L19.2707 86.1571C20.4691 84.5512 23.8282 82.9076 25.8092 83.3836C27.1078 80.9687 28.8133 80.8399 31.3077 80.6428C32.0244 80.5862 32.5602 79.9189 33.2484 80.6248C33.2783 81.0487 33.0483 81.4814 32.8825 81.8935C33.2127 82.182 33.2833 82.2707 33.7047 82.3659C34.471 82.2938 34.6736 81.9254 35.4204 81.8366C35.8314 81.9266 35.9393 81.9559 36.3565 81.9388C36.8416 81.8838 37.2494 81.8393 37.7388 81.8205L38.2989 81.8651C39.1143 81.9225 39.4175 81.8917 40.1414 82.2537C40.3472 81.9324 40.7723 81.65 41.0864 81.4063C40.3339 80.7692 39.4014 80.0379 39.2786 79.0096C39.5471 78.1341 40.2775 78.14 41.1001 78.1372C43.2366 78.1304 44.7908 78.7731 46.2771 80.3087C46.1258 76.1999 46.7406 71.5079 45.6948 67.5405C44.7653 64.0139 40.8415 64.1149 37.9717 63.3911C36.4728 63.0037 35.0101 62.4878 33.5994 61.8494C25.6164 58.1983 21.8888 52.4603 18.9046 44.4857Z" fill="#557322"/>
<path d="M25.8092 83.3843C27.1078 80.9693 28.8133 80.8405 31.3077 80.6435C32.0244 80.5869 32.5602 79.9196 33.2484 80.6254C33.2783 81.0494 33.0483 81.4821 32.8825 81.8942C33.2127 82.1826 33.2833 82.2713 33.7047 82.3666C34.471 82.2944 34.6736 81.9261 35.4204 81.8372C35.8314 81.9273 35.9393 81.9566 36.3565 81.9395C36.8416 81.8845 37.2494 81.84 37.7388 81.8211L38.2989 81.8658C39.1143 81.9232 39.4175 81.8924 40.1414 82.2543L40.1354 82.354L39.6123 82.667L39.5543 83.2284C41.0346 83.3352 41.4013 83.4569 42.757 84.052C43.2471 84.3884 43.5285 84.5515 43.7478 85.1381L43.8065 85.5388C44.1118 85.4887 44.2567 85.4512 44.5626 85.4726C45.254 85.8777 45.4668 85.991 46.0367 86.5293L46.1114 86.5989C46.126 86.6133 46.1406 86.6276 46.1552 86.6419L46.1987 86.8378L45.9279 87.1934L45.9901 87.5371C46.491 87.5932 46.7381 87.5095 47.2288 87.4004L48.3822 87.191C49.1028 87.3415 49.3491 87.4247 50.0355 87.7025L50.2246 87.2159C50.1551 86.8361 50.1442 86.7341 50.1557 86.3487C50.4018 85.9746 50.8987 85.8668 51.3711 85.6757L51.9775 85.5492C53.9836 85.0543 55.3098 85.1104 57.0991 86.1136L57.4153 86.4452L57.5846 86.8161L57.8999 86.8968C58.7495 86.8934 60.0184 86.8442 60.7753 87.1747L60.9393 87.3542C60.8839 87.6299 60.8151 87.6892 60.6499 87.9109L60.6682 88.2413C61.4237 88.0015 61.4455 87.7959 61.7858 87.1114L62.8335 86.5896C64.4821 86.0035 65.1085 85.8013 66.8596 85.8903L67.7404 85.745C68.2847 85.6119 68.489 85.4846 68.9806 85.2221L69.7622 85.3739C70.1537 85.3133 70.6382 85.6319 71.6765 85.5867L71.5904 85.5595C72.2184 85.5315 73.0269 85.6391 73.3522 85.085C73.3612 85.4781 73.377 85.8879 73.3751 86.2796L73.8594 86.11L73.8693 86.0102C75.8369 86.2653 76.3307 85.8457 78.058 87.2984C79.2184 87.3473 83.2847 87.9623 83.5793 89.2509C83.5018 89.5594 83.3652 89.7605 83.0737 89.922C81.7772 90.8099 79.6639 91.0101 78.3338 91.5679C74.6922 93.1296 71.0355 93.3512 67.1552 93.6849C65.0177 93.8687 64.0962 94.4278 61.9419 93.8236C61.7373 93.7662 58.3919 94.8979 57.4284 94.9286C54.6536 95.0169 51.8381 95.0653 49.0608 94.8147C47.9619 94.7216 46.7053 94.3718 45.6282 94.2787C44.3189 94.1655 43.4013 94.1698 42.0983 93.9436C42.0239 93.9889 41.5595 94.2583 41.4786 94.2652C40.1574 94.3243 35.4033 94.4713 34.3326 93.8781C31.9262 92.3167 29.929 93.1887 27.2519 93.0476C24.2205 92.888 21.6662 92.0156 18.826 91.1927C16.8697 90.6258 14.4966 90.7698 12.5335 89.507C12.1609 89.2675 12.1484 89.3738 12.0004 88.9465C12.424 87.6003 16.5518 86.6947 17.8614 86.471L19.2707 86.1578C20.4691 84.5518 23.8282 82.9082 25.8092 83.3843Z" fill="#F4E0C1"/>
<path d="M32.9674 82.7706C32.8597 82.403 32.8801 82.2845 32.8834 81.8939C33.2136 82.1823 33.2842 82.271 33.7057 82.3662C34.4719 82.2941 34.6746 81.9258 35.4214 81.8369C35.8323 81.927 35.9403 81.9563 36.3575 81.9391C36.8425 81.8841 37.2503 81.8396 37.7398 81.8208L38.2998 81.8655C39.1152 81.9229 39.4184 81.892 40.1423 82.254L40.1364 82.3536L39.6132 82.6667L39.5552 83.2281C41.0356 83.3349 41.4022 83.4565 42.7579 84.0516C43.248 84.3881 43.5295 84.5512 43.7487 85.1378L43.8075 85.5385C44.1128 85.4884 44.2576 85.4509 44.5635 85.4723C45.2549 85.8774 45.4677 85.9907 46.0377 86.529L46.1124 86.5986C46.1269 86.613 46.1415 86.6273 46.1561 86.6415L46.1997 86.8375L45.9288 87.1931L45.9911 87.5368C46.4919 87.5928 46.7391 87.5091 47.2297 87.4001L48.3831 87.1906C49.1038 87.3412 49.35 87.4244 50.0364 87.7022L50.2256 87.2155C50.156 86.8358 50.1451 86.7337 50.1566 86.3484C50.4027 85.9743 50.8996 85.8664 51.3721 85.6754L51.9784 85.5488C53.9846 85.054 55.3107 85.11 57.1 86.1133L57.4162 86.4448L57.5855 86.8158L57.9008 86.8964C58.7504 86.8931 60.0193 86.8439 60.7763 87.1744L60.9402 87.3539C60.8848 87.6296 60.816 87.6888 60.6509 87.9106L60.6691 88.241C61.3711 88.6412 62.4065 89.2928 63.0072 89.623C63.2697 89.8229 63.519 90.0494 63.8261 90.1502C63.3939 90.3676 63.2925 90.3243 63.1041 90.6958L63.2398 91.0883C62.8824 91.2551 62.8044 91.2665 62.5495 91.5513C62.0133 91.9719 61.8873 92.0468 61.236 92.2634C60.379 92.4919 58.5549 92.3212 57.6248 92.2386C55.6838 92.2372 52.3231 93.4256 50.0535 93.1325C49.2472 93.0284 48.6564 92.5762 48.1305 92.5287C46.3076 92.3639 46.2327 92.7839 44.5913 91.9037C44.4415 91.8747 44.4053 91.7969 44.2717 91.6736C43.9474 90.2198 42.6011 90.6208 41.421 90.7554C41.294 90.728 38.9458 91.2417 38.6417 91.326C38.6848 91.5396 38.6883 91.5493 38.68 91.7661C38.5861 91.7849 38.4072 91.825 38.3155 91.8068C36.3591 91.4176 34.8759 91.6055 33.4691 90.127C32.4805 89.8964 32.254 90.1572 31.7575 89.2137L32.0141 89.1796L32.4693 89.198C32.8758 89.2717 33.05 89.3273 33.3909 89.1339C33.6108 88.816 33.5602 88.6637 33.5388 88.2612L33.4957 88.0452C33.2909 87.7598 32.9958 87.7159 32.6452 87.5983L32.7399 87.2506C32.8427 87.0609 32.8505 86.9856 32.91 86.7802C33.4687 86.5964 33.4568 86.5876 33.6712 86.0721L33.1228 85.4747L32.7125 85.2724C31.9069 85.4563 31.0227 85.6922 30.1987 85.6286C30.352 85.4799 30.3572 85.422 30.4393 85.2258C30.1106 84.8864 30.0965 84.7171 29.9834 84.2716C31.1573 84.2114 32.389 83.8763 32.9674 82.7706Z" fill="#E7C68E"/>
<path d="M32.9674 82.7706C32.8597 82.403 32.8801 82.2845 32.8834 81.8939C33.2136 82.1823 33.2842 82.271 33.7057 82.3662C34.4719 82.2941 34.6746 81.9258 35.4214 81.8369C35.8323 81.927 35.9403 81.9563 36.3575 81.9391C36.8425 81.8841 37.2503 81.8396 37.7398 81.8208L38.2998 81.8655C39.1152 81.9229 39.4184 81.892 40.1423 82.254L40.1364 82.3536L39.6132 82.6667L39.5552 83.2281C41.0356 83.3349 41.4022 83.4565 42.7579 84.0516C43.248 84.3881 43.5295 84.5512 43.7487 85.1378L43.8075 85.5385C44.1128 85.4884 44.2576 85.4509 44.5635 85.4723C45.2549 85.8774 45.4677 85.9907 46.0377 86.529L46.1124 86.5986C46.1269 86.613 46.1415 86.6273 46.1561 86.6415L46.1997 86.8375L45.9288 87.1931L45.9911 87.5368L45.7547 87.5465L44.9916 87.7195C44.5289 87.7308 44.4703 87.651 44.1629 87.8987L44.156 88.1264L44.2034 88.5976C43.6052 88.5059 42.5478 88.5292 41.9106 88.5245C41.2417 88.0301 40.7213 87.927 40.0441 87.4403C39.8476 87.0021 39.7866 86.877 39.3981 86.5644L39.666 86.4635C39.0862 86.4046 37.719 86.4224 37.0822 86.4126C36.8393 86.4719 36.4549 86.5518 36.2343 86.6444C35.3547 86.676 34.4672 86.4218 33.6712 86.0721L33.1228 85.4747L32.7125 85.2724C31.9069 85.4563 31.0227 85.6922 30.1987 85.6286C30.352 85.4799 30.3572 85.422 30.4393 85.2258C30.1106 84.8864 30.0965 84.7171 29.9834 84.2716C31.1573 84.2114 32.389 83.8763 32.9674 82.7706Z" fill="#D5A76D"/>
<path d="M32.9674 82.7706C32.8597 82.403 32.8801 82.2845 32.8834 81.8939C33.2136 82.1823 33.2842 82.271 33.7057 82.3662C34.4719 82.2941 34.6746 81.9258 35.4214 81.8369C35.8323 81.927 35.9403 81.9563 36.3575 81.9391C36.8425 81.8841 37.2503 81.8396 37.7398 81.8208L38.2998 81.8655C39.1152 81.9229 39.4184 81.892 40.1423 82.254L40.1364 82.3536L39.6132 82.6667L39.5552 83.2281C37.904 83.2972 35.5764 83.4143 34.2328 84.4459L34.0316 84.6683C33.9156 85.598 36.3553 85.8271 37.1084 85.951L36.9423 86.3964L37.0822 86.4126C36.8393 86.4719 36.4549 86.5518 36.2343 86.6444C35.3547 86.676 34.4672 86.4218 33.6712 86.0721L33.1228 85.4747L32.7125 85.2724C31.9069 85.4563 31.0227 85.6922 30.1987 85.6286C30.352 85.4799 30.3572 85.422 30.4393 85.2258C30.1106 84.8864 30.0965 84.7171 29.9834 84.2716C31.1573 84.2114 32.389 83.8763 32.9674 82.7706Z" fill="#795E35"/>
<path d="M32.9674 82.7705C33.3999 82.952 34.1355 83.2642 34.3544 83.6586C34.0684 83.8465 34.0488 83.9329 33.7734 83.9263C33.6777 83.4454 33.7712 83.5127 33.4752 83.2689L33.222 83.2491C32.9546 83.711 33.4669 83.8866 33.2428 84.6104C32.5399 85.2801 31.3625 84.8991 30.4393 85.2257C30.1106 84.8864 30.0965 84.717 29.9834 84.2715C31.1573 84.2114 32.389 83.8763 32.9674 82.7705Z" fill="#BE8E59"/>
<path d="M32.7124 85.272C32.8162 85.2414 33.0983 85.1887 33.1953 85.2313C34.4868 85.7963 35.5427 86.163 36.9422 86.396L37.0822 86.4122C36.8393 86.4715 36.4549 86.5514 36.2343 86.644C35.3546 86.6756 34.4671 86.4213 33.6711 86.0717L33.1228 85.4743L32.7124 85.272Z" fill="#D5A76D"/>
<path d="M38.3002 81.8657C39.1156 81.9231 39.4188 81.8923 40.1426 82.2543L40.1367 82.3539L39.6135 82.6669C39.2158 82.6873 38.9366 82.7105 38.535 82.6648C38.2399 82.3686 38.3295 82.3717 38.3002 81.8657Z" fill="#7C6C44"/>
<path d="M35.0157 82.3224C35.5727 82.3014 35.9561 82.3787 36.2805 82.8598L36.1934 83.0396L35.7425 83.1924C35.2603 83.3627 34.6119 83.6492 34.4487 82.9304C34.6374 82.506 34.5603 82.6502 35.0157 82.3224Z" fill="#D5A76D"/>
<path d="M39.5552 83.228C41.0356 83.3348 41.4022 83.4565 42.7579 84.0516C43.248 84.388 43.5295 84.5512 43.7487 85.1378C43.6916 85.1352 43.3889 85.0576 43.3329 85.0428C41.6737 84.6077 35.3544 85.212 34.0316 84.6683L34.2328 84.4459C35.5764 83.4142 37.904 83.2971 39.5552 83.228Z" fill="#EED2A0"/>
<path d="M40.1549 83.9912L40.142 84.261C40.6425 84.6088 42.374 84.5553 43.0505 84.5556C42.9606 84.4048 42.8316 84.2042 42.7579 84.0514C43.248 84.3878 43.5295 84.5509 43.7487 85.1375C43.6916 85.135 43.3889 85.0573 43.3329 85.0426C41.6737 84.6074 35.3544 85.2118 34.0316 84.668L34.2328 84.4457C34.7782 84.6977 36.8091 84.6352 37.4413 84.5356L37.5044 84.3471C38.2986 84.2617 39.6744 84.4723 40.1549 83.9912Z" fill="#E7C68E"/>
<path d="M37.5042 84.3473C37.531 84.1665 37.5881 84.0578 37.6576 83.8881C38.2733 83.4405 39.5031 83.7124 40.1546 83.9914C39.6741 84.4724 38.2983 84.2619 37.5042 84.3473Z" fill="#7C6C44"/>
<path d="M43.8069 85.5382C44.1122 85.4881 44.257 85.4506 44.5629 85.472C45.2543 85.8771 45.4672 85.9904 46.0371 86.5287L46.1118 86.5983C46.1264 86.6127 46.1409 86.627 46.1555 86.6412L46.1991 86.8372L45.9282 87.1928L45.9905 87.5365L45.7541 87.5462C45.333 87.3943 44.9203 87.2199 44.5178 87.0239C44.0959 86.822 43.8 86.7065 43.6493 86.2857C43.9258 85.9961 43.8468 86.0879 44.3446 86.0164C44.1014 85.9898 44.0788 85.9801 43.8454 85.9014L43.8069 85.5382Z" fill="#EED2A0"/>
<path d="M43.808 85.5382C44.1133 85.4881 44.2581 85.4506 44.564 85.472C45.2554 85.8771 45.4683 85.9904 46.0382 86.5287L46.1129 86.5983C46.1275 86.6127 46.142 86.627 46.1566 86.6412L46.2002 86.8372L45.9293 87.1928C45.4159 86.6008 45.0345 86.3516 44.3457 86.0164C44.1025 85.9898 44.0799 85.9801 43.8465 85.9014L43.808 85.5382Z" fill="#795E35"/>
<path d="M37.1077 85.9508C39.7707 86.0646 40.2969 85.8082 42.7372 85.6685L42.8323 85.7976C42.353 86.2614 40.3819 86.4158 39.6653 86.4633C39.0856 86.4044 37.7183 86.4221 37.0816 86.4124L36.9416 86.3962L37.1077 85.9508Z" fill="#795E35"/>
<path d="M51.9778 85.5492C53.9839 85.0544 55.31 85.1104 57.0993 86.1137L57.4156 86.4453L57.5848 86.8162L57.9002 86.8968C57.657 88.5452 55.7349 88.845 54.3706 88.7491C54.249 88.7406 54.2909 88.7402 54.1708 88.7991C53.0921 88.9571 51.79 88.7873 50.8347 88.2149L50.0357 87.7026L50.2249 87.216C50.1553 86.8362 50.1444 86.7341 50.1559 86.3488C50.402 85.9747 50.8989 85.8669 51.3714 85.6758L51.9778 85.5492Z" fill="#D5A76D"/>
<path d="M51.9779 85.5492C53.984 85.0544 55.3102 85.1104 57.0995 86.1137L57.4157 86.4453C56.7272 86.9198 52.6321 86.049 51.9779 85.5492Z" fill="#E7C68E"/>
<path d="M50.2249 87.2153C50.7796 87.483 51.2021 87.8893 51.7142 88.1249C52.4323 88.4551 53.766 87.9974 54.1708 88.7985C53.0921 88.9565 51.79 88.7866 50.8347 88.2143L50.0357 87.702L50.2249 87.2153Z" fill="#795E35"/>
<path d="M44.5909 91.9039C44.4895 91.4604 44.5012 91.4028 44.6114 90.9595L44.6841 91.0786C45.7756 92.8522 46.6602 92.1102 48.2828 92.3845C49.839 92.6478 50.9852 92.1324 52.2841 92.1009C53.6051 92.0692 56.3882 92.0005 57.6245 92.2389C55.6835 92.2375 52.3227 93.4259 50.0532 93.1327C49.2469 93.0287 48.656 92.5765 48.1301 92.529C46.3072 92.3642 46.2324 92.7841 44.5909 91.9039Z" fill="#EED2A0"/>
<path d="M58.783 91.7744C58.6093 91.5784 58.3098 91.5941 58.0679 91.328C58.4616 90.7085 59.3922 90.7321 60.0258 90.8209C60.6233 90.7499 61.5771 90.6179 62.1113 90.8922C62.3925 91.143 62.3946 91.1945 62.5488 91.5517C62.0126 91.9723 61.8866 92.0472 61.2353 92.2638C60.0788 92.2548 59.8547 92.142 58.783 91.7744Z" fill="#BE8E59"/>
<path d="M62.1122 90.8916C62.3934 91.1424 62.3955 91.1939 62.5498 91.5511C62.0136 91.9717 61.8875 92.0466 61.2362 92.2632C60.0797 92.2542 59.8556 92.1414 58.7839 91.7738C59.7027 91.6667 61.8174 92.2242 62.1059 91.018L62.1122 90.8916Z" fill="#E7C68E"/>
<path d="M60.0261 90.8209C60.6237 90.7499 61.5774 90.6179 62.1116 90.8922L62.1052 91.0186C61.4928 91.0951 60.2837 91.5933 59.7465 91.2528L60.0261 90.8209Z" fill="#D5A76D"/>
<path d="M45.9905 87.5371C46.4914 87.5931 46.7385 87.5094 47.2292 87.4004L47.1497 87.488C46.5867 88.1175 46.6869 88.8613 45.8647 88.9413C45.5075 88.976 44.5393 88.7328 44.2029 88.5979L44.1555 88.1267L44.1623 87.8991C44.4698 87.6513 44.5284 87.7311 44.9911 87.7198L45.7542 87.5468L45.9905 87.5371Z" fill="#D5A76D"/>
<path d="M44.9911 87.7195C45.4044 87.7397 45.6962 87.6951 45.9902 87.9565L45.9201 88.1143C45.279 88.34 44.8097 88.3026 44.1555 88.1264L44.1623 87.8988C44.4698 87.651 44.5284 87.7308 44.9911 87.7195Z" fill="#795E35"/>
<path d="M48.3826 87.1904C49.1032 87.341 49.3495 87.4242 50.0359 87.702L50.8349 88.2143L50.7775 88.4484C50.1277 88.7794 48.3923 88.115 47.6241 87.8726L47.6323 87.7192C48.0405 87.5799 48.1214 87.5349 48.3826 87.1904Z" fill="#EED2A0"/>
<path d="M37.0826 86.4126C37.7194 86.4223 39.0866 86.4045 39.6664 86.4635L39.3985 86.5643C37.4127 86.4615 37.8299 87.3479 36.2347 86.6444C36.4553 86.5517 36.8397 86.4718 37.0826 86.4126Z" fill="#D5A76D"/>
<path d="M37.0068 89.2329C37.8272 89.0937 39.4256 89.1417 39.925 89.8994C39.6015 90.9605 35.1112 91.3629 34.4487 90.1214C34.7115 89.6355 35.3197 89.5455 35.8334 89.5236C36.2233 89.4218 36.6145 89.3249 37.0068 89.2329Z" fill="#D5A76D"/>
<path d="M37.0068 89.2329C37.5745 89.2953 38.1535 89.328 38.6021 89.7108C37.3121 89.7237 36.9787 89.3948 35.7296 89.8789L35.6603 89.7712L35.8334 89.5236C36.2233 89.4219 36.6145 89.325 37.0068 89.2329Z" fill="#957044"/>
<path d="M48.4739 91.0993L48.5988 90.8043C49.228 90.254 50.3502 90.3267 51.0056 90.8008L50.9297 91.0991C50.2725 91.4741 49.0605 91.6865 48.4739 91.0993Z" fill="#D5A76D"/>
<path d="M48.4739 91.0993L48.5988 90.8043C49.228 90.254 50.3502 90.3267 51.0056 90.8008C49.9796 90.9448 49.6555 90.8575 48.4739 91.0993Z" fill="#957044"/>
<path d="M52.8644 89.9029C53.4808 89.8701 54.6367 89.6101 54.86 90.2372C54.3605 90.2486 53.2766 90.3334 52.8695 90.1424L52.8644 89.9029Z" fill="#957044"/>
<path d="M41.8212 89.7708C42.4107 89.7316 42.8471 89.557 43.0871 90.1468C42.6058 90.2106 42.3143 90.3063 41.9058 90.1159L41.8212 89.7708Z" fill="#BE8E59"/>
<path d="M73.3525 85.085C73.3614 85.4781 73.3772 85.8879 73.3754 86.2796L73.8597 86.1099L73.8695 86.0101C75.8371 86.2653 76.331 85.8456 78.0582 87.2983L78.3898 87.6928C78.358 87.852 78.3641 87.8907 78.2969 88.0358C77.856 88.7484 76.5491 90.096 75.6495 89.5611L75.576 89.4073C75.8224 89.358 76.1107 89.3274 76.3049 89.1832L76.2485 89.082C75.565 88.9313 73.1313 89.6768 72.1056 89.8106L71.4479 90.1364C70.7559 90.1823 70.4553 90.179 69.7655 90.1205C69.4418 90.1428 67.5359 89.9043 67.0681 89.8598C66.4252 90.4326 65.6623 90.4218 64.9821 89.8929C64.4622 89.8334 64.3031 89.9147 63.8254 90.1506C63.5183 90.0497 63.269 89.8232 63.0065 89.6233C62.4058 89.2931 61.3704 88.6415 60.6684 88.2413C61.424 88.0014 61.4457 87.7959 61.7861 87.1113L62.8338 86.5896C64.4824 86.0035 65.1088 85.8013 66.8598 85.8903L67.7407 85.7449C68.2849 85.6119 68.4893 85.4846 68.9809 85.2221L69.7624 85.3739C70.154 85.3133 70.6384 85.6319 71.6767 85.5867L71.5906 85.5595C72.2187 85.5315 73.0271 85.6391 73.3525 85.085Z" fill="#E7C68E"/>
<path d="M62.8338 86.5895C64.4824 86.0034 65.1088 85.8012 66.8598 85.8902C65.2141 86.3094 64.2848 86.4877 62.6567 87.1293C64.0501 87.4254 65.8751 87.7044 66.896 88.9652C66.9946 89.0871 67.0487 89.6781 67.0681 89.8597C66.4252 90.4325 65.6623 90.4217 64.9821 89.8929C64.4622 89.8333 64.3031 89.9146 63.8254 90.1505C63.5183 90.0496 63.269 89.8231 63.0065 89.6232C62.4058 89.293 61.3704 88.6414 60.6684 88.2412C61.424 88.0013 61.4457 87.7958 61.7861 87.1113L62.8338 86.5895Z" fill="#D5A76D"/>
<path d="M62.8466 89.291C63.6402 88.4746 63.6268 88.571 64.8562 88.48C65.1385 88.4592 65.4213 88.5704 65.6466 88.7433L65.7954 89.0821C65.5429 89.4259 65.3943 89.3434 65.3237 89.6335L64.8095 89.5477L64.9825 89.8928C64.4626 89.8332 64.3035 89.9145 63.8258 90.1504C63.5187 90.0495 63.2694 89.8231 63.0069 89.6232L63.3171 89.4435L62.8466 89.291Z" fill="#BE8E59"/>
<path d="M63.3168 89.4433C63.7748 89.4044 64.4599 89.275 64.8091 89.5475L64.9822 89.8926C64.4622 89.833 64.3031 89.9143 63.8255 90.1502C63.5184 90.0493 63.2691 89.8229 63.0066 89.623L63.3168 89.4433Z" fill="#E7C68E"/>
<path d="M62.8464 89.2905C62.0228 87.3322 66.9635 87.709 66.3295 89.5779C65.9984 89.7632 65.6858 89.7366 65.3234 89.6331C65.394 89.3429 65.5427 89.4254 65.7951 89.0817L65.6464 88.7428C65.4211 88.57 65.1382 88.4588 64.856 88.4796C63.6266 88.5706 63.6399 88.4741 62.8464 89.2905Z" fill="#795E35"/>
<path d="M73.3524 85.085C73.3614 85.4781 73.3772 85.8879 73.3754 86.2796L73.8597 86.1099C73.7894 86.3334 73.7508 86.524 73.6081 86.7078C73.1272 86.7822 71.5262 87.292 71.1683 87.0055C69.8354 85.9383 69.4553 85.7232 67.7407 85.7449C68.2849 85.6119 68.4893 85.4846 68.9809 85.2221L69.7624 85.3739C70.154 85.3133 70.6384 85.6319 71.6767 85.5867L71.5906 85.5595C72.2187 85.5315 73.0271 85.6391 73.3524 85.085Z" fill="#5D6327"/>
<path d="M73.3528 85.085C73.3618 85.4781 73.3776 85.8879 73.3758 86.2796C72.9598 86.318 72.0577 86.5325 71.6144 86.625C71.0241 86.036 70.4946 85.753 69.7628 85.3739C70.1544 85.3133 70.6388 85.6319 71.6771 85.5867L71.591 85.5595C72.2191 85.5315 73.0275 85.6391 73.3528 85.085Z" fill="#78AB2E"/>
<path d="M69.138 88.9353C69.7943 88.4957 70.958 88.3915 71.5854 88.9447L71.9086 89.0798C71.9293 89.4595 71.6727 89.7891 71.448 90.1365C70.756 90.1823 70.4554 90.179 69.7656 90.1205C69.3737 89.9776 69.0274 89.8748 68.8422 89.5186C68.8948 89.1398 68.865 89.2683 69.138 88.9353Z" fill="#D5A76D"/>
<path d="M69.1386 88.9353C69.7949 88.4957 70.9586 88.3915 71.5861 88.9447L71.4156 89.2198C70.6413 89.4852 69.7914 89.4914 69.1386 88.9353Z" fill="#BE8E59"/>
<path d="M73.8705 86.0103C75.8381 86.2654 76.3319 85.8458 78.0591 87.2984L78.3907 87.6929C78.359 87.8521 78.3651 87.8908 78.2978 88.0359C77.0392 87.9296 77.2572 86.0175 73.6091 86.7079C73.7518 86.5241 73.7903 86.3335 73.8606 86.1101L73.8705 86.0103Z" fill="#795E35"/>
<path d="M72.1063 89.81L72.4213 89.3268C73.8062 88.6263 74.8369 88.2265 76.2492 89.0813C75.5657 88.9307 73.1319 89.6761 72.1063 89.81Z" fill="#EED2A0"/>
<path d="M67.628 86.7473C68.2771 86.7382 69.8308 86.9603 70.4134 87.2342L70.4396 87.4047L70.1239 87.5411C69.3138 87.56 67.8482 87.8613 67.3197 87.4234C67.341 87.0068 67.3305 87.1407 67.628 86.7473Z" fill="url(#paint2_linear_138_4357)"/>
<path d="M75.6568 88.0609C76.3149 88.0256 77.0341 87.9318 77.6058 88.2798L77.6495 88.4966C77.1965 88.4841 75.9305 88.5345 75.6155 88.3501L75.6568 88.0609Z" fill="#795E35"/>
<path d="M25.8095 83.3843C27.1082 80.9693 28.8137 80.8405 31.308 80.6435C32.0248 80.5869 32.5605 79.9196 33.2487 80.6254C33.2786 81.0494 33.0486 81.4821 32.8828 81.8942C32.8795 82.2849 32.8592 82.4033 32.9668 82.7709C32.3884 83.8767 31.1567 84.2118 29.9828 84.2719C30.0959 84.7174 30.11 84.8868 30.4387 85.2261C30.3566 85.4223 30.3514 85.4802 30.1981 85.6289C31.0222 85.6925 31.9064 85.4567 32.7119 85.2727L33.1223 85.475C32.1851 85.967 31.1168 85.9805 30.6202 86.199C29.4463 87.261 27.8212 85.9216 26.9026 86.2381C24.9713 86.9034 21.3635 88.2252 19.3003 87.0161C19.2583 86.7865 19.2715 86.402 19.271 86.1578C20.4695 84.5518 23.8286 82.9082 25.8095 83.3843Z" fill="url(#paint3_linear_138_4357)"/>
<path d="M25.8106 83.3843C27.1093 80.9693 28.8148 80.8405 31.3091 80.6435C32.0259 80.5869 32.5616 79.9196 33.2498 80.6254C33.2797 81.0494 33.0497 81.4821 32.8839 81.8942C32.8806 82.2849 32.8603 82.4033 32.9679 82.7709C32.3895 83.8767 31.1578 84.2118 29.9839 84.2719C29.6129 84.2519 29.7685 84.1954 29.4975 84.4343L29.3876 84.4185C28.8321 84.3509 28.4384 84.2734 27.8847 84.3676C27.1874 84.3053 27.0634 84.2631 26.4038 84.0166C26.1911 83.6715 26.1566 83.5846 25.8106 83.3843Z" fill="#557322"/>
<path d="M26.4716 83.2962C27.7998 81.3138 29.3655 81.2851 31.5691 80.9543C31.9619 80.8954 32.2326 80.8418 32.6347 80.8858L32.7114 81.0172C32.5889 81.3881 32.3014 81.602 32.0114 81.8819C32.4805 81.9932 32.3527 81.889 32.5686 82.2249C32.3736 83.9315 27.4995 84.4926 26.4892 83.4936L26.4716 83.2962Z" fill="#90BD3C"/>
<path d="M26.4716 83.2961C27.92 84.0651 29.761 81.8897 32.0114 81.8818C32.4805 81.9932 32.3527 81.889 32.5686 82.2248C32.3736 83.9315 27.4995 84.4926 26.4892 83.4936L26.4716 83.2961Z" fill="#78AB2E"/>
<path d="M19.271 86.1574C20.4695 84.5514 23.8286 82.9078 25.8095 83.3838C26.1555 83.5842 26.19 83.671 26.4027 84.0161L26.0275 84.5955C25.7837 84.2092 25.7037 83.9417 25.1896 83.8523C23.6795 83.5893 21.9171 84.6351 20.7168 85.4287C19.6644 86.1244 19.8347 86.3764 19.3003 87.0157C19.2583 86.786 19.2715 86.4016 19.271 86.1574Z" fill="url(#paint4_linear_138_4357)"/>
<path d="M30.1989 85.6286C31.023 85.6923 31.9071 85.4564 32.7127 85.2725L33.1231 85.4748C32.1859 85.9668 31.1175 85.9803 30.6209 86.1987C30.0293 86.3068 29.0631 86.5727 28.5831 86.2506C28.5014 85.8846 28.5055 86.0296 28.6425 85.6493C29.2734 85.8375 29.5512 85.7517 30.1989 85.6286Z" fill="#D5A76D"/>
<path d="M26.4034 84.0161C27.063 84.2626 27.1871 84.3049 27.8844 84.3671L27.6888 84.5663C27.3737 84.7634 27.4942 84.973 26.7553 85.3165C26.3592 85.2704 26.491 85.2947 26.1354 85.008C26.0551 84.8117 26.0374 84.8041 26.0283 84.5954L26.4034 84.0161Z" fill="#BE8E59"/>
<path d="M29.4966 84.4338C29.7676 84.1949 29.612 84.2514 29.983 84.2714C30.0961 84.7169 30.1102 84.8863 30.4389 85.2256C30.3568 85.4218 30.3516 85.4797 30.1983 85.6284C29.5506 85.7514 29.2728 85.8373 28.6418 85.6491C29.2364 84.9745 29.4052 85.7027 29.4966 84.4338Z" fill="#795E35"/>
<path d="M27.884 84.3674C28.4377 84.2732 28.8314 84.3507 29.3869 84.4183C29.0723 84.9698 28.6133 85.1709 28.0091 85.0003C27.8037 84.8211 27.7934 84.8317 27.6885 84.5665L27.884 84.3674Z" fill="#E7C68E"/>
<path d="M23.4753 85.5986C23.7361 85.6191 23.7238 85.6234 23.9643 85.7329L23.8908 85.9147C23.4493 86.1849 23.2925 86.3105 22.9002 86.6465L22.7573 86.7687L22.5754 86.6951L22.6023 86.4261C22.8653 85.9442 23.0121 85.8869 23.4753 85.5986Z" fill="#957044"/>
<path d="M33.1226 85.4746L33.6709 86.072C33.4566 86.5875 33.4684 86.5963 32.9097 86.7801C32.8502 86.9855 32.8425 87.0608 32.7397 87.2505L32.6449 87.5982C32.9955 87.7158 33.2906 87.7597 33.4954 88.0451L33.5385 88.2611C33.56 88.6636 33.6105 88.8159 33.3907 89.1338C33.0497 89.3272 32.8756 89.2716 32.469 89.1979L32.0138 89.1796L31.7573 89.2136C32.2537 90.1571 32.4802 89.8963 33.4689 90.1269C34.8756 91.6054 36.3589 91.4175 38.3152 91.8067C38.4069 91.8249 38.5859 91.7848 38.6797 91.766C38.688 91.5492 38.6846 91.5395 38.6414 91.3259C38.9455 91.2416 41.2937 90.7279 41.4208 90.7553C41.0485 90.9666 38.9592 91.8852 38.6395 91.8831C36.8568 91.8714 34.13 91.5422 32.4555 91.0967L31.8544 90.5009L31.7173 90.4773C31.3172 90.4137 30.8571 90.2917 30.4562 90.3347C28.5888 90.5352 27.019 90.4925 25.1506 90.2586C24.3853 90.7563 23.8644 90.8633 22.9799 91.066C22.8521 91.02 22.7243 90.9739 22.5964 90.9278C21.7528 90.7053 21.6547 89.7036 20.7496 89.5764C21.2229 89.0561 21.908 89.4545 22.328 89.7716C23.054 89.6794 24.1421 89.4583 24.7896 89.11C24.9209 88.5577 24.6662 89.1235 24.5872 88.2178C23.9039 87.3938 19.7831 87.7012 18.8637 88.0258C18.433 87.6907 18.2865 87.6991 17.7495 87.628L17.9238 87.3846C18.4119 87.3341 18.4307 87.6334 18.9244 87.6377C19.0412 87.3593 19.1248 86.6709 18.9595 86.4311C18.5959 86.5186 18.3232 86.5614 17.9564 86.6165L17.862 86.4706L19.2713 86.1574C19.2718 86.4016 19.2586 86.7861 19.3006 87.0157C21.3638 88.2248 24.9716 86.903 26.9029 86.2377C27.8215 85.9212 29.4466 87.2606 30.6205 86.1985C31.1171 85.9801 32.1854 85.9666 33.1226 85.4746Z" fill="#EED2A0"/>
<path d="M27.8747 88.8039C28.1437 88.5518 28.4177 88.3052 28.6966 88.0642C30.1249 86.848 31.1228 86.6322 32.9099 86.7801C32.8504 86.9855 32.8426 87.0608 32.7398 87.2505L32.6451 87.5982C32.9957 87.7157 33.2908 87.7596 33.4956 88.045L33.5387 88.261C33.5601 88.6636 33.6107 88.8159 33.3908 89.1338C33.0499 89.3272 32.8757 89.2716 32.4692 89.1979L32.014 89.1795L31.7574 89.2136C30.6867 88.7204 30.1328 89.0539 29.0094 89.4652C28.7012 89.3989 28.3769 89.2506 28.081 89.1311L27.8747 88.8039Z" fill="#795E35"/>
<path d="M28.0806 89.131C29.284 88.8993 30.2874 88.0253 31.5728 87.9158C32.4254 87.8432 32.8168 88.3148 33.5383 88.2609C33.5597 88.6634 33.6102 88.8158 33.3904 89.1337C33.0494 89.327 32.8753 89.2714 32.4687 89.1978L32.0136 89.1794L31.757 89.2134C30.6862 88.7202 30.1324 89.0538 29.0089 89.4651C28.7007 89.3987 28.3765 89.2505 28.0806 89.131Z" fill="#D5A76D"/>
<path d="M32.0134 89.1796C32.231 88.6343 32.7986 88.4949 33.3376 88.6481L33.3435 88.7885C32.9989 89.0421 32.8802 89.0658 32.4686 89.198L32.0134 89.1796Z" fill="#795E35"/>
<path d="M32.6454 87.5983C31.8842 87.3732 31.1919 87.6208 30.3336 87.6568L30.3521 87.5753C31.3925 87.1519 31.5873 87.1881 32.7402 87.2507L32.6454 87.5983Z" fill="#D5A76D"/>
<path d="M29.0094 89.4654C28.2771 89.6104 26.4261 89.3765 26.6011 88.4122L26.8643 88.3721C27.23 88.6004 27.4314 88.7527 27.8748 88.804L28.0811 89.1312C28.377 89.2508 28.7012 89.399 29.0094 89.4654Z" fill="#E7C68E"/>
<path d="M24.0503 89.7876L24.3959 89.9074L24.4619 90.1002C24.0837 90.5487 23.1599 90.5575 22.6214 90.5574C22.3266 90.3981 22.4241 90.51 22.2817 90.2501C22.7802 89.9023 23.224 90.2402 24.0503 89.7876Z" fill="#BE8E59"/>
<path d="M63.8257 90.1506C64.3033 89.9147 64.4624 89.8334 64.9824 89.893C65.6625 90.4219 66.4254 90.4326 67.0684 89.8599C67.5361 89.9044 69.442 90.1428 69.7657 90.1205C70.4556 90.179 70.7562 90.1823 71.4481 90.1365C70.2324 91.0036 66.4594 90.6701 64.9467 90.6869C64.5366 90.6915 63.8108 91.0331 63.2394 91.0887L63.1036 90.6962C63.292 90.3246 63.3935 90.3679 63.8257 90.1506Z" fill="#EED2A0"/>
<path d="M17.7501 87.6279C18.287 87.699 18.4335 87.6907 18.8643 88.0257C18.5025 88.1744 17.9282 88.2347 17.555 88.0845L17.5161 87.8875L17.7501 87.6279Z" fill="#D5A76D"/>
<path d="M19.5225 44.8888C19.5807 44.8774 19.6388 44.8671 19.6971 44.8575C25.0535 43.9706 30.9397 45.7587 35.3632 48.8606C39.9464 52.0745 42.8566 56.6168 44.8029 61.827C45.1077 62.6428 45.2556 63.9158 45.5176 64.7382C45.846 65.7689 46.3338 65.9638 46.5394 67.1716C46.4169 67.5148 46.7372 69.1932 46.6959 70.0869C46.6457 69.1093 46.3832 68.1501 46.0567 67.2438C44.6734 63.402 42.0293 63.9947 38.6992 63.1535C36.9568 62.7133 34.8942 61.9297 33.2515 61.1684C26.155 57.8791 22.1273 52.1082 19.5225 44.8888Z" fill="url(#paint5_linear_138_4357)"/>
<path d="M24.3357 46.0435C24.8598 46.1533 26.9354 46.9999 27.5753 47.2296C27.8715 47.6019 28.7947 48.7038 28.3367 49.1475L28.022 48.9646C26.9945 48.3477 23.7134 46.7601 23.1118 46.2042L24.3357 46.0435Z" fill="#90BD3C"/>
<path d="M24.2806 47.2261C24.9492 47.438 25.7696 47.8674 26.2702 48.3533L26.1103 48.3806C25.0904 48.9961 23.8235 48.4613 24.2806 47.2261Z" fill="#90BD3C"/>
<path d="M49.481 82.7286C51.7355 79.4989 54.7899 77.2761 58.8723 76.9754C59.9633 76.8948 62.2061 76.8596 63.0482 77.5852C63.4148 77.8437 64.0365 77.86 64.4669 77.7981C64.2322 77.8838 63.8917 77.8873 63.7461 77.9552C68.1134 78.0538 70.0181 80.5753 72.0979 83.9782C71.4263 81.4387 70.7215 81.4727 69.4657 79.5925C71.2958 80.755 72.7878 82.3687 73.2575 84.5513C73.2948 84.7282 73.3267 84.9062 73.3531 85.085C73.0278 85.6391 72.2193 85.5316 71.5913 85.5595L71.6774 85.5867C70.6391 85.632 70.1546 85.3133 69.7631 85.3739L68.9815 85.2222C68.4899 85.4846 68.2856 85.6119 67.7413 85.745L66.8605 85.8903C65.1094 85.8013 64.483 86.0035 62.8344 86.5896L61.7867 87.1114C61.4464 87.796 61.4247 88.0015 60.6691 88.2413L60.6508 87.9109C60.816 87.6892 60.8848 87.6299 60.9402 87.3543L60.7762 87.1747C60.0193 86.8442 58.7504 86.8934 57.9008 86.8968L57.5855 86.8161L57.4162 86.4452L57.1 86.1136C55.3107 85.1104 53.9845 85.0543 51.9784 85.5492L51.3721 85.6757C51.56 85.0965 51.5334 85.1872 52.082 85.0142C51.3531 84.8906 50.7249 84.59 49.7801 84.454C49.6766 83.8796 49.5768 83.3044 49.481 82.7286Z" fill="url(#paint6_linear_138_4357)"/>
<path d="M61.7369 84.1716C61.3754 82.596 62.574 81.4313 63.8726 82.634C64.2161 82.9519 64.2607 83.4489 64.3638 83.8857C64.8333 83.7297 65.3624 83.1343 65.65 83.045C66.6908 82.7215 69.4448 82.5194 70.0027 83.7247C70.0323 84.8896 69.0867 84.779 68.9813 85.2222C68.4897 85.4847 68.2854 85.612 67.7411 85.745L66.8603 85.8904C65.1092 85.8014 64.4828 86.0035 62.8342 86.5897L62.5955 86.3499L62.2867 85.69L62.1487 85.5716C62.0191 84.9989 61.9405 84.7214 61.7369 84.1716Z" fill="#557322"/>
<path d="M62.1316 83.2665C62.3691 82.9032 62.4239 82.7734 62.8244 82.5948C64.1868 82.5802 63.74 84.5178 63.2953 85.3017L63.1268 85.4537L62.9189 85.3881C62.5997 85.4839 62.5373 85.4838 62.2871 85.6898L62.1491 85.5713C62.0194 84.9986 61.9408 84.7211 61.7372 84.1713L62.146 84.1234L62.1316 83.2665Z" fill="#90BD3C"/>
<path d="M62.146 84.1231L62.1316 83.2661C63.3571 83.8986 62.5918 84.5668 63.2953 85.3013L63.1268 85.4533L62.9189 85.3877C62.5997 85.4836 62.5373 85.4834 62.2871 85.6894L62.1491 85.5709C62.0194 84.9983 61.9408 84.7208 61.7372 84.1709L62.146 84.1231Z" fill="#78AB2E"/>
<path d="M62.146 84.123C62.3858 84.6977 62.5435 84.8851 62.9189 85.3877C62.5997 85.4835 62.5373 85.4834 62.2871 85.6894L62.1491 85.5709C62.0194 84.9982 61.9408 84.7207 61.7372 84.1709L62.146 84.123Z" fill="#5A7A26"/>
<path d="M66.5509 83.2612C68.0262 83.13 68.5206 83.2134 69.7346 84.0253C69.0127 84.5601 68.7077 84.7278 67.8913 85.1108C67.0273 85.333 64.7778 85.524 64.9979 84.1036C65.3969 83.5395 65.9046 83.4484 66.5509 83.2612Z" fill="#90BD3C"/>
<path d="M57.1001 86.1134C57.2935 86.033 57.3728 86.0124 57.4992 85.8345C57.967 85.7347 58.1205 85.8023 58.4472 86.2053L59.3077 85.9902C60.7372 85.6447 61.0258 85.6673 62.3575 86.2475L62.5959 86.3496L62.8345 86.5894L61.7869 87.1112C61.4465 87.7957 61.4248 88.0013 60.6692 88.2411L60.651 87.9107C60.8161 87.689 60.8849 87.6297 60.9403 87.354L60.7764 87.1745C60.0194 86.844 58.7505 86.8932 57.9009 86.8965L57.5856 86.8159L57.4163 86.445L57.1001 86.1134Z" fill="#795E35"/>
<path d="M59.3074 85.9902C60.7369 85.6447 61.0255 85.6673 62.3573 86.2475C61.4495 86.959 59.5767 86.4746 58.4703 86.309L58.4469 86.2053L59.3074 85.9902Z" fill="#BE8E59"/>
<path d="M52.0819 85.0139C54.0249 84.3279 56.8907 85.1687 58.9474 85.5211L59.0326 85.6497L59.613 85.5677L59.6663 85.7213C59.2249 85.8481 58.8852 85.851 58.4306 85.8813L58.4256 85.9722C58.7774 86.0009 58.9562 86.0126 59.3075 85.9901L58.447 86.2052C58.1203 85.8022 57.9668 85.7346 57.4991 85.8344C57.3726 86.0123 57.2934 86.0329 57.0999 86.1133C55.3106 85.11 53.9845 85.054 51.9784 85.5489L51.372 85.6754C51.56 85.0962 51.5334 85.1869 52.0819 85.0139Z" fill="url(#paint7_linear_138_4357)"/>
<path d="M58.9477 85.521C60.3182 84.6016 60.7455 84.8803 62.1492 85.5711L62.2872 85.6896L62.596 86.3494L62.3577 86.2473C61.0259 85.6671 60.7373 85.6445 59.3078 85.99C58.9565 86.0125 58.7777 86.0008 58.4259 85.9721L58.4309 85.8813C58.8854 85.8509 59.2252 85.848 59.6666 85.7212L59.6133 85.5676L59.0329 85.6496L58.9477 85.521Z" fill="#5D6327"/>
<path d="M63.0487 77.5854C63.4153 77.844 64.037 77.8602 64.4674 77.7984C64.2327 77.8841 63.8922 77.8876 63.7466 77.9555C61.9439 78.0419 60.1216 78.3466 58.4873 79.2013C57.8564 79.5313 57.1427 80.1681 56.4877 80.4422C58.2455 78.6081 60.7022 78.0993 63.0487 77.5854Z" fill="#5A7A26"/>
<path d="M49.2837 46.3948C49.3892 46.3266 49.5933 46.2635 49.7197 46.2173C49.4542 49.1512 49.2444 52.09 49.0904 55.0322C49.0409 56.0353 49.0473 58.4171 48.9172 59.2623C48.9348 60.5256 48.817 64.9786 48.967 65.8918L49.4243 66.0735C49.2819 66.9043 48.9775 68.851 48.7709 69.5712L49.1685 69.6938C47.6635 72.2623 49.17 83.392 49.517 86.7383C48.0623 86.8144 48.4879 86.5032 46.6967 87.0407C46.5165 81.5761 46.9284 75.7019 46.6954 70.0867C46.7367 69.193 46.4163 67.5146 46.5388 67.1715C46.6802 67.0228 46.7866 66.873 46.7898 66.6599C46.8182 64.7482 46.8035 62.8174 46.8665 60.9078C46.9635 57.9637 47.2115 55.0158 47.3313 52.0756C47.2408 50.4063 47.5764 49.0956 47.5226 47.3548C48.0722 47.1428 48.7903 46.717 49.2837 46.3948Z" fill="#90BD3C"/>
<path d="M48.5854 57.9502C48.9463 58.3854 48.7454 58.7244 48.918 59.2621C48.9356 60.5254 48.8178 64.9784 48.9678 65.8915L49.4251 66.0732C49.2827 66.9041 48.9783 68.8507 48.7717 69.571L48.5455 69.4551C48.2695 68.5402 48.4674 59.184 48.5854 57.9502Z" fill="#557322"/>
<path d="M49.2839 46.3948C49.3894 46.3266 49.5934 46.2635 49.7199 46.2173C49.4544 49.1512 49.2446 52.09 49.0906 55.0322C49.0411 56.0353 49.0475 58.4171 48.9174 59.2623C48.7448 58.7247 48.9456 58.3856 48.5848 57.9505C48.5441 57.5665 48.6402 56.1545 48.6613 55.707C48.7326 54.3449 48.778 52.9815 48.7976 51.6175C48.918 51.1529 49.2115 47.1926 49.2839 46.3948Z" fill="#5A7A26"/>
<path d="M49.2839 46.3945C49.2115 47.1923 48.918 51.1525 48.7976 51.6172C48.7174 50.671 48.9805 49.2273 48.5225 48.8041C47.2905 48.9522 47.6474 50.9795 47.3315 52.0753C47.241 50.406 47.5765 49.0953 47.5228 47.3545C48.0724 47.1424 48.7905 46.7167 49.2839 46.3945Z" fill="#78AB2E"/>
<path d="M40.1363 82.3535L40.4198 82.6224C40.5115 82.5804 40.5699 82.576 40.6041 82.5147C40.9577 82.6576 40.9886 82.6546 41.3749 82.6824L41.467 82.7506C41.704 82.8666 41.9679 83.0273 42.2212 83.0314C42.6281 83.0827 43.4299 83.4555 43.7763 83.6759C45.1188 84.1361 45.2184 83.097 46.1831 83.798L46.2773 84.021C46.1901 84.9399 46.1737 85.7203 46.1561 86.6414C46.1415 86.6271 46.1269 86.6129 46.1123 86.5984L46.0376 86.5289C45.4677 85.9906 45.2549 85.8772 44.5635 85.4722C44.2576 85.4507 44.1127 85.4883 43.8074 85.5384L43.7487 85.1377C43.5294 84.5511 43.248 84.388 42.7579 84.0515C41.4022 83.4564 41.0355 83.3347 39.5552 83.228L39.6132 82.6666L40.1363 82.3535Z" fill="#D5A76D"/>
<path d="M40.1363 82.3535L40.4198 82.6224C40.5115 82.5804 40.5699 82.576 40.6041 82.5147C40.9577 82.6576 40.9886 82.6546 41.3749 82.6824L41.467 82.7506C41.704 82.8666 41.9679 83.0273 42.2212 83.0314C43.8931 84.0857 43.6199 83.8144 44.5635 85.4722C44.2576 85.4507 44.1127 85.4883 43.8074 85.5384L43.7487 85.1377C43.5294 84.5511 43.248 84.388 42.7579 84.0515C41.4022 83.4564 41.0355 83.3347 39.5552 83.228L39.6132 82.6666L40.1363 82.3535Z" fill="#795E35"/>
<path d="M43.7765 83.6759C44.2087 83.3937 44.593 83.1609 44.9751 82.8115C45.84 82.8269 46.6768 82.9031 46.2775 84.021L46.1833 83.7981C45.2186 83.0971 45.119 84.1362 43.7765 83.6759Z" fill="#5D6327"/>
<path d="M40.6042 82.515C40.9269 82.2353 41.2455 81.95 41.5842 81.6904L42.9014 82.3291C42.3854 82.4209 41.8999 82.4619 41.4672 82.7509L41.375 82.6827C40.9888 82.6549 40.9578 82.658 40.6042 82.515Z" fill="#FFFEFE"/>
<path d="M40.0541 78.7223C41.1672 78.6482 42.0487 78.5978 43.1548 78.8762C44.5107 79.2175 46.6091 80.3401 46.1314 82.0659L45.8233 82.2079C45.7412 82.2108 45.659 82.2123 45.5769 82.2125C43.9024 82.2223 41.7959 81.5788 40.621 80.3475C40.343 80.0562 39.6752 79.2685 39.6771 78.8844L40.0541 78.7223Z" fill="#90BD3C"/>
<path d="M61.1353 72.3828C63.7304 72.5788 65.3969 73.0226 64.8627 76.1162C63.9208 76.1043 63.2766 76.1304 62.5221 75.4686C61.6252 74.682 61.232 73.5329 61.1353 72.3828Z" fill="#90BD3C"/>
<path d="M67.2657 76.4903C68.2616 75.4584 71.2548 75.2135 71.6871 76.49C71.5304 76.7965 71.4651 76.8202 71.1844 77.0393C70.1329 77.7679 67.6556 78.1233 67.0613 76.8461C67.1242 76.648 67.1339 76.6548 67.2657 76.4903Z" fill="#90BD3C"/>
<path d="M71.1844 77.0397C70.1329 77.7683 67.6556 78.1237 67.0613 76.8465C67.1242 76.6484 67.1339 76.6552 67.2657 76.4907L67.4287 76.6645C68.9422 76.6865 69.6893 76.7515 71.1844 77.0397Z" fill="#78AB2E"/>
<path d="M48.9677 65.8921C48.9757 65.8686 48.9839 65.8452 48.9921 65.8218C50.363 59.0956 54.6136 52.9774 60.7988 49.8619C64.1807 48.1586 68.003 47.2688 71.7909 47.3285C72.4694 47.3393 74.2859 47.1551 74.6306 47.7872C74.6288 48.5482 74.2321 49.6004 73.9787 50.3355C72.7101 54.0156 70.6409 57.6002 67.9086 60.3803C64.768 63.5759 59.357 66.4123 54.9523 67.2412C54.4647 67.3933 53.1872 67.6979 52.6714 67.7113C52.2441 67.2338 51.5061 67.5023 50.9008 67.6027C49.9958 68.2975 49.7568 68.7044 49.1692 69.6941L48.7715 69.5715C48.9782 68.8513 49.2826 66.9046 49.425 66.0738L48.9677 65.8921Z" fill="url(#paint8_linear_138_4357)"/>
<path d="M48.9669 65.8921C48.975 65.8686 48.9832 65.8452 48.9914 65.8218C50.3623 59.0956 54.6129 52.9774 60.7981 49.8619C64.18 48.1586 68.0023 47.2688 71.7901 47.3285C72.4686 47.3393 74.2851 47.1551 74.6299 47.7872C74.628 48.5482 74.2313 49.6004 73.978 50.3355C72.7094 54.0156 70.6401 57.6002 67.9078 60.3803C64.7672 63.5759 59.3563 66.4123 54.9516 67.2412C55.3604 66.5917 57.1602 66.241 57.9275 65.9728C66.6043 62.9398 71.9236 56.7285 74.2382 47.886C62.2238 46.5844 51.6875 54.1383 49.4242 66.0738L48.9669 65.8921Z" fill="#5A7A26"/>
<path d="M31.2296 78.3366C28.8587 79.3576 25.2677 78.7086 23.1684 77.2784C22.7307 76.9802 22.4003 76.6946 22.3053 76.1524C22.9785 74.0185 31.4212 74.2372 31.5399 77.7424L31.2296 78.3366Z" fill="#5A7A26"/>
<path d="M25.1179 75.3076C26.855 75.0872 30.1778 75.4637 31.0137 77.2708C30.9777 78.3778 29.4415 78.3088 28.5784 78.3863C26.1618 78.3615 24.2686 77.7003 22.5439 76.0266C23.4409 75.6089 24.1491 75.4545 25.1179 75.3076Z" fill="#90BD3C"/>
<path d="M31.7537 72.562C31.4518 72.2236 31.2179 72.0286 31.1151 71.5924C31.5279 69.7165 38.3043 70.6022 39.0385 72.5737C39.7505 74.4854 38.3603 74.6024 37.082 74.5933C38.4162 78.1068 37.9355 78.5706 38.2993 81.8657L37.7392 81.821C37.7424 80.4331 37.3635 74.9858 36.1303 74.3916C34.4554 74.2104 33.0298 73.6608 31.7537 72.562Z" fill="#90BD3C"/>
<path d="M31.7537 72.562C31.4518 72.2236 31.2179 72.0286 31.1151 71.5924C31.5279 69.7165 38.3043 70.6022 39.0385 72.5737C39.7505 74.4854 38.3603 74.6024 37.082 74.5933C38.4162 78.1068 37.9355 78.5706 38.2993 81.8657L37.7392 81.821C37.7424 80.4331 37.3635 74.9858 36.1303 74.3916C35.9406 74.2324 35.9561 74.1801 35.8962 73.9379C36.857 74.045 38.4004 74.4671 38.7751 73.3886C38.5736 70.9198 33.0824 70.5949 31.5545 71.4206C31.5687 71.6675 31.8405 71.9569 32.0107 72.1966L31.7537 72.562Z" fill="url(#paint9_linear_138_4357)"/>
<path d="M32.0108 72.1968C33.3835 73.2864 34.243 73.5298 35.8963 73.9381C35.9562 74.1803 35.9408 74.2326 36.1304 74.3918C34.4555 74.2106 33.03 73.661 31.7538 72.5622L32.0108 72.1968Z" fill="#5A7A26"/>
<path d="M62.7996 1C63.3502 2.10289 62.8793 3.75516 63.3888 4.46784C64.0326 5.36841 66.0283 5.54141 67.0538 5.67948C65.6671 5.89987 64.9877 5.91035 63.7653 6.60344C62.9608 7.84712 63.0976 8.67979 62.8465 10.1528L62.7808 10.264C61.9535 7.01886 62.9517 6.35509 58.8469 5.72657C60.0664 5.39392 60.7101 5.44906 61.8501 4.8023C62.7841 3.15458 62.3022 2.61309 62.7996 1Z" fill="#F4E0C1"/>
<path d="M62.7823 4.81738C63.112 5.16248 63.4091 5.3007 63.6349 5.6259C63.5855 6.00761 63.4071 6.03282 63.035 6.34967L62.8277 6.37427L62.0598 5.6376L62.7823 4.81738Z" fill="#EED2A0"/>
<path d="M70.2557 4.25293C70.2176 6.21476 70.6103 6.76658 72.4186 7.2253C70.5736 7.58923 70.5259 7.99949 70.2321 9.76979L70.1609 9.79546C70.0563 7.89757 69.8248 7.63951 68.0344 7.21618C70.1746 6.61485 69.836 6.22858 70.2557 4.25293Z" fill="#FDE892"/>
<path d="M76.0472 11.7705C76.4488 13.4743 76.4329 12.9995 77.4491 13.7577C77.3957 13.7986 77.3424 13.8399 77.2894 13.8813C76.4256 14.5582 76.189 14.7017 76.0648 15.7972L76.048 15.9513C75.4793 14.683 76.4814 14.7805 74.5297 13.88L74.5426 13.7351C75.7554 13.1889 75.7492 13.0431 76.0472 11.7705Z" fill="#F4E0C1"/>
<path d="M31.5395 77.7422C34.3135 79.7321 33.9894 79.4927 36.3571 81.9394C35.9399 81.9566 35.832 81.9273 35.421 81.8372C34.3258 80.46 32.8227 79.0879 31.2292 78.3364L31.5395 77.7422Z" fill="#557322"/>
<defs>
<linearGradient id="paint0_linear_138_4357" x1="57.1794" y1="31.7338" x2="57.5948" y2="33.8834" gradientUnits="userSpaceOnUse">
<stop stop-color="#D88788"/>
<stop offset="1" stop-color="#FFA9A9"/>
</linearGradient>
<linearGradient id="paint1_linear_138_4357" x1="48.4568" y1="31.4718" x2="49.7665" y2="30.898" gradientUnits="userSpaceOnUse">
<stop stop-color="#E98A7C"/>
<stop offset="1" stop-color="#D67884"/>
</linearGradient>
<linearGradient id="paint2_linear_138_4357" x1="67.6953" y1="87.7765" x2="69.797" y2="86.6752" gradientUnits="userSpaceOnUse">
<stop stop-color="#B98657"/>
<stop offset="1" stop-color="#D5A56B"/>
</linearGradient>
<linearGradient id="paint3_linear_138_4357" x1="19.6998" y1="85.7706" x2="28.5306" y2="85.3291" gradientUnits="userSpaceOnUse">
<stop stop-color="#CC9C5E"/>
<stop offset="1" stop-color="#E8C38F"/>
</linearGradient>
<linearGradient id="paint4_linear_138_4357" x1="23.2851" y1="85.8374" x2="22.0403" y2="84.0149" gradientUnits="userSpaceOnUse">
<stop stop-color="#695C2A"/>
<stop offset="1" stop-color="#81613C"/>
</linearGradient>
<linearGradient id="paint5_linear_138_4357" x1="47.8241" y1="65.7937" x2="20.1375" y2="44.4728" gradientUnits="userSpaceOnUse">
<stop stop-color="#5B9716"/>
<stop offset="1" stop-color="#ADD053"/>
</linearGradient>
<linearGradient id="paint6_linear_138_4357" x1="60.5162" y1="87.1134" x2="63.1087" y2="77.5589" gradientUnits="userSpaceOnUse">
<stop stop-color="#7EB230"/>
<stop offset="1" stop-color="#A8CD4D"/>
</linearGradient>
<linearGradient id="paint7_linear_138_4357" x1="55.9495" y1="85.0016" x2="55.8651" y2="85.8309" gradientUnits="userSpaceOnUse">
<stop stop-color="#576626"/>
<stop offset="1" stop-color="#6B5B2C"/>
</linearGradient>
<linearGradient id="paint8_linear_138_4357" x1="46.8223" y1="66.1945" x2="74.4907" y2="49.0774" gradientUnits="userSpaceOnUse">
<stop stop-color="#619919"/>
<stop offset="1" stop-color="#ADD154"/>
</linearGradient>
<linearGradient id="paint9_linear_138_4357" x1="37.0023" y1="71.1985" x2="33.2157" y2="79.3853" gradientUnits="userSpaceOnUse">
<stop stop-color="#57751E"/>
<stop offset="1" stop-color="#6F854C"/>
</linearGradient>
</defs>
</svg>
