<svg width="96" height="96" viewBox="0 0 96 96" fill="none" xmlns="http://www.w3.org/2000/svg">
<path d="M45.4729 8.20478C46.2256 5.79678 50.021 3.70039 52.3699 3.0432C52.877 2.9013 53.117 3.13132 53.4977 3.40841C54.073 3.46183 54.2626 3.1266 54.4486 3.214C57.1981 4.5053 59.7502 7.03794 60.3673 10.0183C62.3377 8.99425 64.9503 8.34469 67.1855 8.91031C69.175 9.4136 69.6788 11.6381 69.7927 13.3824C70.2243 16.6249 70.0556 19.401 68.9357 22.4651C68.0694 24.8051 66.8223 26.9857 65.2452 28.9185C64.7836 29.4863 63.0389 31.0807 62.947 31.3841C62.813 32.3002 58.6898 36.0869 57.7126 36.7892C55.3608 38.4791 53.8088 39.2481 50.9376 39.5469C50.5075 39.9932 49.8979 40.5928 49.5407 41.0695C49.0389 45.9842 49.0222 53.0396 49.5726 57.9879C50.8973 55.4074 50.416 54.6461 51.2323 52.0675C53.1919 45.9268 58.0055 41.118 64.1452 39.1679C69.1352 37.5759 73.6035 38.1962 78.4224 39.8645C75.4123 48.5141 68.8795 55.7179 59.3826 57.3904C56.2546 57.9412 52.0426 57.0034 50.7202 61.0652C49.6249 64.6933 51.0168 71.7156 51.4223 75.633C55.2874 70.3856 60.8585 69.1328 66.8227 70.3756C68.2999 70.6836 68.0216 69.9933 69.8706 71.0056C69.6565 70.4069 69.2353 68.8988 68.6355 68.792C65.9835 68.3199 65.5324 67.1929 65.3275 64.5109L65.3206 64.4113C67.5949 64.6353 70.6044 65.1219 70.4524 68.0908C70.2367 68.3912 70.2396 68.3797 69.9359 68.5974C70.2182 69.254 70.4697 69.6296 70.5131 70.3367L70.6853 70.4005L70.9504 70.1409C70.9195 69.0925 71.1055 67.9302 72.3184 67.6769C72.8353 67.8092 73.0761 67.9665 73.1382 68.5505C73.1729 68.8779 72.716 70.6167 72.5979 70.844L73.2172 70.4757C73.9674 67.5127 77.7824 68.1079 79.7 69.6376C77.7305 72.4531 76.3063 71.6348 73.3906 71.1734C73.3164 71.1616 72.7198 71.5058 72.5959 71.5777C73.476 71.8346 74.6831 72.1342 75.4421 72.6034C79.2683 74.3929 82.0667 77.5288 81.8528 81.9089C82.9577 82.5012 82.9931 82.6159 83.9412 83.3922C84.8048 84.0994 86.4932 84.3777 87.5884 84.7075C88.7547 85.0987 90.1961 85.6836 90.9316 86.7212C90.9752 86.9429 91.0787 87.2509 90.8935 87.3997C88.7558 89.1136 82.3173 90.7411 79.8578 91.2129C72.418 92.6401 65.2828 92.9897 57.773 93.1961C55.0036 93.2721 52.7876 93.376 50.0432 93.2557C49.2726 93.457 48.4586 93.4051 47.685 93.2484C47.0534 93.0985 43.353 93.1229 42.4649 93.0822C40.8212 92.8689 38.0701 93.0546 36.2202 92.8685C28.5677 92.1096 20.9039 91.7338 13.4128 89.824C11.5773 89.3562 4.77037 88.0389 4 86.3344C4.21756 84.3394 10.6052 82.8419 12.4518 82.4621L13.5467 82.3121C15.4746 80.2217 18.0216 80.3065 20.4212 79.7887C20.5986 79.7505 20.6173 79.5025 20.68 79.2848C21.4852 78.1198 22.1955 78.0833 23.4949 77.8718C23.8957 75.6795 29.5471 73.9577 30.8162 74.5855C30.7508 75.4155 30.6625 76.2358 30.5986 77.0662L30.8601 77.3029C33.0499 76.446 32.6369 76.2778 35.2446 76.5672C35.1549 76.3585 35.0578 76.153 34.9533 75.9513C33.5996 73.3632 31.3063 72.2885 28.6963 71.4631C25.8654 73.0304 22.3025 72.4459 19.6134 70.8081C19.1158 70.5048 18.6424 70.1525 18.5165 69.56C18.7326 69.1112 18.6424 69.2589 19.1854 68.9862C21.7126 67.9295 25.3207 67.3468 27.6426 69.1855C28.1168 69.4833 28.6727 70.2888 29.0275 70.7623L29.102 70.7783C32.1248 71.4533 34.4782 73.3631 36.0573 76.0283C36.2918 76.4239 36.441 76.4499 36.8293 76.5502C38.0829 75.5823 36.2267 71.1062 35.5695 69.9597C33.813 69.9032 32.6765 69.5502 31.2765 68.4099C29.6012 67.0452 29.8696 64.6642 32.3389 64.7524C34.1768 64.8179 35.4627 65.5842 36.7096 66.884C37.6022 66.9403 38.7217 67.1342 39.1007 68.0703C39.1452 69.4495 37.6487 69.8741 36.6012 70.11C37.0472 71.0028 37.3592 71.6687 37.5683 72.6464C41.8876 71.4594 44.0518 71.8959 46.7931 75.3888C45.258 76.2531 45.0274 76.3178 43.2809 76.4335C44.0511 76.6797 46.5253 77.7477 47.0209 77.2475C47.1553 76.4181 46.8759 73.3669 46.7679 72.3361C46.34 68.2523 46.6404 63.4587 45.5199 59.5272C43.6572 52.9925 38.1903 53.8421 33.1467 51.2257C25.1904 47.098 21.3979 39.9536 18.7172 31.6905C19.7947 31.6092 20.8705 31.4919 21.9501 31.4237C33.2466 30.7119 43.1607 39.3376 44.9379 50.353C45.2762 52.4489 45.0149 53.367 46.1016 55.3606C46.0224 52.3003 46.1815 49.301 46.2236 46.2453C46.2616 43.5052 46.7855 41.3543 45.4146 38.8756C40.6367 37.2812 38.6169 32.7732 36.1363 28.6567C36.078 28.3478 36.129 28.1659 36.1632 27.8463C35.9863 27.4939 35.0877 26.2294 34.7641 25.6564C32.536 21.6667 32.0097 16.5996 33.0105 12.1668C33.2549 11.0841 33.7611 10.0619 34.6933 9.45121L34.9107 9.30894C35.0952 7.73674 36.6637 4.94773 38.6997 5.16485C38.8791 5.21881 39.2659 5.50317 39.4423 5.49027C42.3269 5.28059 43.5963 6.10239 45.4729 8.20478Z" fill="#698237"/>
<path d="M45.475 8.20478C46.2277 5.79678 50.0231 3.70039 52.372 3.0432C52.8791 2.9013 53.1192 3.13132 53.4998 3.40841C54.0751 3.46183 54.2647 3.1266 54.4507 3.214C57.2002 4.5053 59.7523 7.03794 60.3694 10.0183C62.3398 8.99425 64.9524 8.34469 67.1876 8.91031C69.1771 9.4136 69.6809 11.6381 69.7948 13.3824C70.2265 16.6249 70.0577 19.401 68.9378 22.4651C68.0715 24.8051 66.8244 26.9857 65.2474 28.9185C64.7857 29.4863 63.041 31.0807 62.9491 31.3841L61.9356 31.3222C59.6799 32.4365 58.1611 33.0806 55.6616 33.5227C54.0168 33.6319 51.7422 34.4233 50.4243 35.395C50.2628 34.0267 50.0008 34.1884 49.1147 33.2421L48.5913 33.4783C47.712 33.9322 47.2324 34.3923 46.5588 35.1145C46.8583 35.4612 46.7815 35.4808 47.1507 35.6002C47.5044 36.1358 47.8765 36.6669 48.164 37.24L47.9555 37.4396C47.669 37.3811 47.6682 37.3975 47.4282 37.2381C45.2209 33.1051 41.0583 32.4234 37.9263 29.8681C37.8003 29.0372 36.8534 28.715 36.1384 28.6567C36.0801 28.3478 36.1312 28.166 36.1653 27.8464C35.9884 27.4939 35.0898 26.2294 34.7662 25.6564C32.5381 21.6667 32.0118 16.5996 33.0126 12.1668C33.2571 11.0841 33.7632 10.0619 34.6954 9.45121L34.9128 9.30894C35.0973 7.73674 36.6658 4.94773 38.7018 5.16485C38.8812 5.21881 39.268 5.50317 39.4444 5.49027C42.329 5.28059 43.5984 6.10239 45.475 8.20478Z" fill="url(#paint0_linear_138_4216)"/>
<path d="M53.4978 3.40825C54.0731 3.46167 54.2627 3.12644 54.4487 3.21384C57.1982 4.50514 59.7503 7.03778 60.3674 10.0181C62.3379 8.99409 64.9504 8.34453 67.1857 8.91015C69.1751 9.41344 69.6789 11.6379 69.7928 13.3822C70.2245 16.6247 70.0558 19.4008 68.9358 22.4649C68.0695 24.805 66.8224 26.9855 65.2454 28.9184C64.7837 29.4862 63.039 31.0805 62.9471 31.384L61.9336 31.322C59.6779 32.4363 58.1591 33.0805 55.6596 33.5225C54.0148 33.6317 51.7402 34.4232 50.4223 35.3949C50.2609 34.0265 49.9988 34.1882 49.1127 33.242L48.5894 33.4782C48.8109 31.9309 48.779 30.8062 48.7494 29.2581C49.0141 29.3813 49.0666 29.5058 49.2342 29.7456L49.2969 29.8367L49.4484 29.786L49.5018 29.4518C49.632 29.0423 49.8012 28.6168 49.9534 28.2125L50.4873 28.1169L50.7005 27.7348C50.6175 27.4459 50.5269 27.159 50.4292 26.8749C50.9036 25.8354 51.4081 24.8984 51.8383 23.8269C51.8817 23.7686 52.0633 23.3611 52.1067 23.2673C52.2796 22.7237 52.3695 22.615 52.6868 22.1575L52.451 22.0943C53.2303 20.5829 53.2457 19.9018 53.6656 18.3041C54.0047 17.0532 54.517 15.8558 55.188 14.7469C56.0392 13.3386 56.9752 12.4699 58.2548 11.4364C58.6694 11.1016 59.4674 10.6048 59.7365 10.2169L59.6148 9.60041C58.9691 7.90411 58.5198 7.21003 57.3653 5.87258C57.1216 5.65018 55.1626 4.44682 54.8056 4.09142C54.6023 3.88901 54.1089 4.12231 53.818 4.22351C53.3956 4.07707 53.5223 4.11341 53.1994 3.69497L53.4978 3.40825Z" fill="#FEA5A3"/>
<path d="M53.498 3.40825C54.0733 3.46167 54.2629 3.12644 54.4489 3.21384C57.1984 4.50514 59.7505 7.03778 60.3676 10.0181C62.338 8.99409 64.9506 8.34453 67.1858 8.91015C69.1753 9.41344 69.6791 11.6379 69.793 13.3822C70.2246 16.6247 70.0559 19.4008 68.936 22.4649C68.0697 24.805 66.8226 26.9855 65.2455 28.9184C64.7839 29.4862 63.0392 31.0805 62.9473 31.384L61.9338 31.322C65.3636 28.2376 67.9696 24.4819 68.9754 19.9263C69.2939 18.4838 69.7069 15.451 68.1957 14.5152C67.6433 14.4286 66.7205 14.4747 66.226 14.7504C66.1774 15.5106 64.8429 16.6264 64.1746 16.8397C63.9416 16.7012 63.8855 16.6391 63.6249 16.5748C63.0603 17.0156 62.5026 17.5792 61.9706 18.0714C61.4356 18.5667 61.1211 18.5423 60.9237 18.714L60.7873 18.6392L60.739 18.4515C60.4706 18.2431 60.2408 18.3307 59.8259 18.3432C58.2381 18.9584 54.4845 21.4046 53.7602 22.8648C52.3755 24.2784 51.3432 25.859 50.7007 27.7348C50.6177 27.4459 50.5271 27.159 50.4294 26.8749C50.9037 25.8354 51.4082 24.8984 51.8385 23.8269C51.8819 23.7686 52.0635 23.3611 52.1069 23.2673C52.2798 22.7237 52.3697 22.615 52.6869 22.1575L52.4512 22.0943C53.2305 20.5829 53.2459 19.9018 53.6658 18.3041C54.0048 17.0532 54.5172 15.8558 55.1882 14.7469C56.0394 13.3386 56.9754 12.4699 58.255 11.4364C58.6696 11.1016 59.4676 10.6048 59.7367 10.2169L59.615 9.60041C58.9692 7.9041 58.5199 7.21003 57.3655 5.87258C57.1218 5.65018 55.1628 4.44682 54.8057 4.09142C54.6025 3.88901 54.1091 4.12231 53.8181 4.22351C53.3957 4.07707 53.5225 4.11341 53.1996 3.69497L53.498 3.40825Z" fill="#AB4E4B"/>
<path d="M59.8267 18.3428C60.6918 17.7209 61.3674 17.5923 62.268 17.0661C63.7099 16.2237 64.6563 15.4195 66.2268 14.75C66.1782 15.5102 64.8437 16.626 64.1754 16.8393C63.9424 16.7009 63.8863 16.6387 63.6257 16.5744C63.0611 17.0152 62.5034 17.5788 61.9714 18.071C61.4364 18.5663 61.1219 18.542 60.9245 18.7137L60.7881 18.6388L60.7398 18.4511C60.4714 18.2427 60.2416 18.3303 59.8267 18.3428Z" fill="#FDBDC4"/>
<path d="M52.6866 22.1572C53.5752 21.8336 53.435 20.0294 54.6005 19.5879L54.8893 19.7223C54.7456 20.3833 52.9225 22.9883 52.3408 23.3773L52.1065 23.267C52.2794 22.7234 52.3693 22.6147 52.6866 22.1572Z" fill="#F0B113"/>
<path d="M60.0029 10.9031C61.5623 10.0003 64.758 9.3331 66.6517 9.27841C67.0229 9.26769 67.6062 10.1724 67.8275 10.5319C67.8671 11.9459 67.8183 12.6014 67.474 13.9889C64.8225 14.1211 63.9804 15.3725 61.8207 16.6165C61.3495 16.888 60.2775 17.2735 59.7052 17.5437C58.0697 18.436 57.0681 19.2538 55.5602 20.1528L55.3454 19.4381C54.6985 19.0765 54.593 19.5374 54.0578 19.2729C53.8542 18.1244 55.6271 15.1911 56.3193 14.2976C56.5382 13.878 57.1251 13.1936 57.5103 12.8936C58.055 12.2657 59.3133 11.3565 60.0029 10.9031Z" fill="#FEA5A3"/>
<path d="M59.7052 17.5435C58.0697 18.4358 57.0681 19.2536 55.5602 20.1527L55.3454 19.4379C54.6985 19.0763 54.593 19.5373 54.0578 19.2727C53.8542 18.1242 55.6271 15.1909 56.3193 14.2974C56.2193 15.4144 54.9177 17.3947 55.2426 18.079C55.9647 17.6683 56.3867 17.4067 57.1673 17.1425C58.2135 17.8475 58.4892 17.8133 59.7052 17.5435Z" fill="#FE9191"/>
<path d="M57.5113 12.8938C58.0559 12.2658 59.3143 11.3566 60.0038 10.9033C59.9548 11.5581 60.0607 11.6763 59.5475 12.1329C59.037 12.5867 58.1896 12.8765 57.5113 12.8938Z" fill="#FDBDC4"/>
<path d="M68.3989 10.8682C68.9559 11.3624 69.3218 13.7289 68.9577 14.1997C68.5482 14.0707 68.4576 14.074 68.1721 13.7773C68.0175 12.7923 68.2542 11.8678 68.3989 10.8682Z" fill="#FE9191"/>
<path d="M59.8267 18.3433C60.2416 18.3308 60.4714 18.2432 60.7398 18.4516L60.7881 18.6393C60.3706 19.4341 58.822 20.0409 57.9877 20.628C55.8671 22.1201 54.2363 23.6726 52.5003 25.5971C52.8797 24.247 53.6126 23.5545 53.761 22.865C54.4853 21.4047 58.2389 18.9586 59.8267 18.3433Z" fill="#FED2D8"/>
<path d="M49.9534 28.2128L50.4873 28.1172C49.865 29.9618 49.5288 31.3377 49.1127 33.2423L48.5894 33.4785C48.8109 31.9311 48.779 30.8065 48.7494 29.2584C49.0141 29.3816 49.0666 29.5061 49.2342 29.7459L49.2969 29.8369L49.4484 29.7862L49.5018 29.4521C49.632 29.0426 49.8012 28.617 49.9534 28.2128Z" fill="#903E3A"/>
<path d="M34.9128 9.30762L35.3875 9.33487C36.6911 9.35558 36.9475 9.35867 37.9561 10.2493C38.9882 11.1611 39.5054 13.0018 40.3174 13.8556C42.0172 15.6431 43.9519 17.9254 45.7085 19.5979L45.8814 19.8268C46.506 20.9777 47.2117 22.5428 47.8008 23.5627C47.888 23.9626 47.7687 24.1748 47.633 24.5734C48.4052 26.6398 48.2893 27.6753 48.7513 29.257C48.7809 30.805 48.8129 31.9297 48.5913 33.477C47.712 33.9309 47.2324 34.3909 46.5588 35.1132C46.8583 35.4598 46.7815 35.4795 47.1507 35.5988C47.5044 36.1345 47.8765 36.6656 48.164 37.2386L47.9555 37.4383C47.669 37.3798 47.6682 37.3962 47.4282 37.2368C45.2209 33.1038 41.0583 32.4221 37.9263 29.8667C37.8003 29.0358 36.8534 28.7137 36.1384 28.6554C36.0801 28.3465 36.1312 28.1646 36.1653 27.845C35.9884 27.4925 35.0898 26.2281 34.7662 25.6551C32.5381 21.6654 32.0118 16.5983 33.0126 12.1655C33.2571 11.0828 33.7632 10.0606 34.6954 9.44988L34.9128 9.30762Z" fill="url(#paint1_linear_138_4216)"/>
<path d="M46.2441 23.7052C46.381 22.7646 44.424 20.0372 43.9161 19.0806C44.7818 19.7132 45.0555 20.7609 45.9348 21.6503L46.0919 21.6325C46.5951 22.1047 47.3366 23.8797 47.6326 24.5745C48.4048 26.6409 48.289 27.6764 48.751 29.258C48.7806 30.8061 48.8125 31.9307 48.591 33.4781C47.7116 33.9319 47.232 34.392 46.5584 35.1142C46.8579 35.4609 46.7811 35.4805 47.1503 35.5999C47.5041 36.1355 47.8762 36.6666 48.1637 37.2397L47.9552 37.4394C47.6686 37.3809 47.6679 37.3972 47.4278 37.2379C45.2205 33.1049 41.058 32.4231 37.926 29.8678C37.7999 29.0369 36.853 28.7147 36.1381 28.6564C36.0798 28.3475 36.1308 28.1657 36.1649 27.8461L36.8767 27.9086C36.5725 27.4531 36.3024 27.0074 36.0189 26.5395C36.8189 26.8918 37.9686 28.6199 39.2225 29.2891C40.5656 30.0411 43.4081 31.4909 45.0013 30.9683C47.7487 30.0675 46.8185 25.5602 46.2441 23.7052Z" fill="#FEA5A3"/>
<path d="M36.8769 27.9092C39.4864 31.6105 44.6576 31.9446 46.5587 35.1148C46.8581 35.4615 46.7813 35.4811 47.1505 35.6005C47.5043 36.1361 47.8764 36.6672 48.1639 37.2403L47.9554 37.44C47.6688 37.3815 47.6681 37.3978 47.428 37.2385C45.2208 33.1055 41.0582 32.4237 37.9262 29.8684C37.8002 29.0375 36.8533 28.7154 36.1383 28.657C36.08 28.3482 36.131 28.1663 36.1652 27.8467L36.8769 27.9092Z" fill="#647133"/>
<path d="M34.9128 9.30762L35.3875 9.33487C36.6911 9.35558 36.9475 9.35867 37.9561 10.2493C38.9882 11.1611 39.5054 13.0018 40.3174 13.8556C42.0172 15.6431 43.9519 17.9254 45.7085 19.5979L45.8814 19.8268C46.506 20.9777 47.2117 22.5428 47.8008 23.5627C47.888 23.9626 47.7687 24.1748 47.633 24.5734C47.337 23.8786 46.5955 22.1036 46.0923 21.6314C44.8377 18.6038 41.2447 16.5374 39.513 13.8018C38.6074 12.3708 37.4064 9.15372 35.0591 10.0202C34.4419 10.2479 34.0205 11.0751 33.83 11.6707C32.9567 14.5819 33.0177 19.5085 34.0801 22.329C34.4475 23.714 35.1801 25.3663 36.0193 26.5385C36.3028 27.0063 36.5728 27.452 36.877 27.9075L36.1653 27.845C35.9884 27.4925 35.0898 26.2281 34.7662 25.6551C32.5381 21.6654 32.0118 16.5983 33.0126 12.1655C33.2571 11.0828 33.7632 10.0606 34.6954 9.44988L34.9128 9.30762Z" fill="#AB4E4B"/>
<path d="M34.0771 22.3296C33.0147 19.5091 32.9537 14.5825 33.8271 11.6714C34.0176 11.0758 34.4389 10.2485 35.0562 10.0209C37.4034 9.15436 38.6044 12.3714 39.5101 13.8025C41.2417 16.5381 44.8347 18.6045 46.0893 21.6321L45.9322 21.6499C45.0529 20.7605 44.7792 19.7128 43.9135 19.0802C44.4214 20.0368 46.3784 22.7642 46.2415 23.7048C45.7099 23.1298 45.7508 22.6221 45.308 22.0478C44.5751 20.3791 43.2054 18.4702 41.7071 17.4207L41.5815 17.4191C40.9526 17.0428 40.4304 16.328 39.8758 15.9085C38.2421 14.6724 37.9067 13.0802 36.902 11.5491C36.3772 10.8359 36.0917 10.4471 35.1806 10.6562C34.7095 12.1036 34.5046 11.4008 34.1332 12.0602C33.1749 13.7612 33.3743 17.6984 33.804 19.2113L33.8247 19.1781C34.0969 20.1456 34.606 21.4496 34.0771 22.3296Z" fill="#FDBDC4"/>
<path d="M41.7088 17.4219C43.2071 18.4713 44.5768 20.3802 45.3097 22.0489L45.0785 22.1194C44.513 21.5207 43.9569 20.4669 43.169 19.7636C42.8688 19.4957 41.9593 18.4514 41.6731 18.1003C41.5132 17.9043 41.6396 17.6595 41.7088 17.4219Z" fill="#FED2D8"/>
<path d="M35.1815 10.6565C36.0926 10.4474 36.3781 10.8362 36.903 11.5494L36.6839 11.732C36.2092 11.5775 35.5525 10.9979 35.1815 10.6565Z" fill="#FED2D8"/>
<path d="M34.9122 9.30841C35.0967 7.7362 36.6652 4.94719 38.7012 5.16431C38.8806 5.21828 39.2674 5.50263 39.4438 5.48973C42.3284 5.28005 43.5978 6.10185 45.4744 8.20424L45.2832 8.6821C44.2716 10.3953 44.1541 11.4126 44.0302 13.3471C44.1539 14.5001 44.4926 17.0397 45.1104 17.9781L45.3309 17.9593C45.688 17.0357 42.9492 14.2545 45.6124 9.13416C47.3317 11.5333 47.3101 14.6515 47.2895 17.589C46.5538 17.9578 46.1249 18.1437 45.7014 18.8841C45.6994 19.1308 45.6996 19.3509 45.7079 19.5987C43.9513 17.9262 42.0166 15.6439 40.3168 13.8564C39.5048 13.0026 38.9876 11.1619 37.9555 10.2501C36.9469 9.35946 36.6904 9.35637 35.3869 9.33566L34.9122 9.30841Z" fill="#FEA5A3"/>
<path d="M34.9122 9.3084C35.0967 7.7362 36.6652 4.94719 38.7012 5.16431C38.8806 5.21828 39.2674 5.50263 39.4438 5.48973C42.3284 5.28005 43.5978 6.10185 45.4744 8.20424L45.2832 8.6821C44.2716 10.3953 44.1541 11.4126 44.0302 13.3471C43.8828 13.3564 43.5025 13.2902 43.4251 13.1596C42.6544 11.8569 41.9216 10.4863 40.9186 9.34474C40.4457 8.80638 39.6238 8.57109 39.2409 7.95587C38.8516 7.33229 39.2965 6.79248 38.9284 6.15909C38.6473 5.7332 38.8085 5.86438 38.3035 5.68178C36.9476 5.83822 35.7508 8.16754 35.3869 9.33566L34.9122 9.3084Z" fill="#FE9191"/>
<path d="M34.9122 9.30841C35.0967 7.7362 36.6652 4.94719 38.7012 5.16431C38.8806 5.21828 39.2674 5.50263 39.4438 5.48973C42.3284 5.28005 43.5978 6.10185 45.4744 8.20424L45.2832 8.6821C43.7233 7.14624 41.8214 5.46502 39.4708 6.29009C39.2378 6.37186 39.163 6.26484 38.9284 6.15909C38.6473 5.7332 38.8085 5.86438 38.3035 5.68178C36.9476 5.83822 35.7508 8.16754 35.3869 9.33566L34.9122 9.30841Z" fill="#AB4E4B"/>
<path d="M45.4751 8.20478C46.2279 5.79678 50.0233 3.70039 52.3722 3.0432C52.8792 2.9013 53.1193 3.13132 53.5 3.40841L53.2016 3.69512C52.0526 3.09026 51.7916 3.94968 50.7739 4.33142C48.0629 5.348 47.3835 6.25593 45.8887 8.60124C47.9809 11.4978 47.3751 13.1707 47.7285 16.3812C47.9083 18.0143 48.0799 20.179 48.2853 21.7834C48.6013 21.2434 48.9622 20.5669 49.3653 20.1031C49.8384 19.5583 50.0217 20.12 50.1686 19.4235C50.0106 19.0821 49.7073 18.6124 49.8677 18.2632C50.2688 17.3895 50.5719 17.126 51.4643 17.2383C52.5374 18.1749 51.116 20.0184 50.8957 21.2988C50.9911 21.8662 51.0781 22.4351 51.1565 23.0051C51.2729 23.4691 51.2477 23.6345 51.1525 24.1027C51.4627 24.0618 51.5711 23.9766 51.8404 23.8271C51.4102 24.8985 50.9057 25.8355 50.4314 26.875C50.5291 27.1592 50.6197 27.4461 50.7027 27.735L50.4895 28.1171L49.9556 28.2126C49.8034 28.6169 49.6341 29.0424 49.5039 29.452L49.4505 29.7861L49.299 29.8368L49.2364 29.7458C49.0688 29.5059 49.0163 29.3815 48.7515 29.2583C48.2895 27.6766 48.4054 26.6412 47.6332 24.5748C47.7688 24.1761 47.8881 23.9639 47.801 23.564C47.2118 22.5441 46.5061 20.979 45.8816 19.8282L45.7087 19.5992C45.7003 19.3514 45.7002 19.1314 45.7022 18.8846C46.1257 18.1442 46.5546 17.9583 47.2903 17.5895C47.3108 14.652 47.3324 11.5338 45.6132 9.1347C42.9499 14.255 45.6887 17.0362 45.3317 17.9598L45.1112 17.9787C44.4934 17.0402 44.1547 14.5007 44.031 13.3477C44.1549 11.4131 44.2724 10.3958 45.2839 8.68264L45.4751 8.20478Z" fill="#AB4E4B"/>
<path d="M49.5009 29.4512C49.3093 29.0646 49.275 28.3587 49.1573 28.0049C48.3294 25.5146 50.0128 23.2671 50.386 20.81C50.4563 20.3471 50.2386 18.8971 50.1848 18.2563C50.3499 17.8373 50.3746 17.7875 50.7609 17.5617C51.2474 17.546 51.0649 17.4839 51.4379 17.7659C51.9455 18.9676 50.8154 19.3108 50.8194 21.1049L50.8208 21.2759L50.8927 21.298C50.9881 21.8655 51.0751 22.4344 51.1535 23.0043C51.2699 23.4684 51.2447 23.6337 51.1495 24.102C51.4597 24.0611 51.5681 23.9759 51.8374 23.8263C51.4072 24.8978 50.9027 25.8348 50.4284 26.8743C50.5261 27.1584 50.6167 27.4453 50.6997 27.7342L50.4865 28.1163L49.9526 28.2119C49.8004 28.6162 49.6311 29.0417 49.5009 29.4512Z" fill="#F0B113"/>
<path d="M50.8228 21.2764L50.8947 21.2985C50.99 21.866 51.077 22.4349 51.1555 23.0048C51.2719 23.4689 51.2466 23.6342 51.1515 24.1024C51.4617 24.0616 51.5701 23.9764 51.8394 23.8268C51.4092 24.8983 50.9047 25.8353 50.4303 26.8747C50.528 27.1589 50.6186 27.4458 50.7016 27.7347L50.4884 28.1168L49.9545 28.2124C49.0516 27.3524 50.7153 22.836 50.8228 21.2764Z" fill="#87653D"/>
<path d="M50.4304 26.8743C50.3185 27.0715 50.3697 26.9977 50.1514 27.1272C50.1096 26.1791 50.5618 23.8513 51.1555 23.0044C51.2719 23.4684 51.2467 23.6338 51.1515 24.102C51.4617 24.0611 51.5701 23.9759 51.8394 23.8264C51.4092 24.8978 50.9047 25.8348 50.4304 26.8743Z" fill="#F0B113"/>
<path d="M45.8801 19.8279C46.324 19.1028 46.4153 18.7147 47.1167 18.271L47.457 18.2354C47.9228 18.7864 47.8714 21.0983 48.0118 22.1218L47.9357 21.9657C47.451 20.9548 47.3873 19.5808 46.8684 19.212C46.6596 20.1262 47.9742 21.9457 47.7995 23.5637C47.2104 22.5439 46.5047 20.9788 45.8801 19.8279Z" fill="#F0B113"/>
<path d="M49.9427 20.1436L50.0954 20.3803C50.1742 20.8909 49.4006 23.157 49.1539 23.4335C48.4916 21.8537 48.7332 21.3169 49.9427 20.1436Z" fill="#D8A766"/>
<path d="M59.6165 9.60036C59.2249 9.89725 59.1071 10.0575 58.647 9.98265C58.031 9.3102 57.7305 8.45405 57.2539 7.67512C56.884 7.07044 55.7484 6.15252 55.8864 5.48389C56.4423 5.6823 56.7765 5.80004 57.3669 5.87253C58.5214 7.20999 58.9707 7.90406 59.6165 9.60036Z" fill="#FDBDC4"/>
<path d="M23.4949 77.8716C23.8957 75.6793 29.5471 73.9575 30.8162 74.5853C30.7508 75.4152 30.6625 76.2356 30.5986 77.0659L30.8601 77.3027C33.0499 76.4458 32.6369 76.2776 35.2446 76.567C35.2354 76.8408 35.2007 77.0147 35.2744 77.2698L34.8545 77.2335L34.9571 77.8714L35.5377 79.5016L36.424 79.2167C36.4966 79.5314 36.5901 79.8769 36.6276 80.194L37.3024 80.1633V80.2462C38.4832 80.2965 39.3429 80.3594 40.28 81.1672C41.2654 81.6036 42.2699 82.28 43.5714 82.8631C44.0848 83.0072 44.4622 83.1386 45.0025 83.138C45.7534 83.0317 46.5369 83.0806 47.2671 82.872C47.9371 84.4113 48.4065 84.6424 50.0521 84.663L50.4968 84.4696C50.8951 84.8112 50.9717 84.8699 51.4454 85.0918L51.3578 85.1843C51.0264 85.5284 50.9614 85.5989 50.5468 85.8227C50.8782 85.9394 50.9423 85.9459 51.2939 85.9873C52.2829 86.1541 53.3193 86.1229 54.0271 86.9956C54.6567 87.7721 55.2017 88.3539 56.0211 88.9403C57.5751 89.094 63.97 89.1159 64.6917 89.6788C65.1408 89.6888 65.1691 89.7713 65.4394 89.56L65.1786 89.0133C65.5051 88.3228 69.1988 88.7903 70.8325 87.601C73.4302 87.7732 74.8918 87.1586 77.3853 86.5673C78.3278 86.344 77.9885 86.1369 79.1612 86.116C80.1526 86.1818 79.9263 85.3116 81.3319 84.877C82.2223 85.2071 82.9653 85.3627 83.772 85.8405C84.9023 85.2873 85.4587 85.1412 86.7465 85.163C87.0907 85.3491 87.1486 85.3859 87.5221 85.4848C87.7354 85.1863 87.6471 85.2019 87.5884 84.7073C88.7547 85.0985 90.1961 85.6834 90.9316 86.721C90.9752 86.9427 91.0787 87.2507 90.8935 87.3995C88.7558 89.1134 82.3173 90.7408 79.8578 91.2127C72.418 92.6399 65.2828 92.9895 57.773 93.1959C55.0036 93.2719 52.7876 93.3758 50.0432 93.2555C49.2726 93.4568 48.4586 93.4048 47.685 93.2482C47.0534 93.0983 43.353 93.1227 42.4649 93.082C40.8212 92.8687 38.0701 93.0544 36.2202 92.8683C28.5677 92.1094 20.9039 91.7336 13.4128 89.8238C11.5773 89.356 4.77037 88.0387 4 86.3342C4.21756 84.3392 10.6052 82.8417 12.4518 82.4619L13.5467 82.3118C15.4746 80.2214 18.0216 80.3063 20.4212 79.7885C20.5986 79.7503 20.6173 79.5023 20.68 79.2846C21.4852 78.1196 22.1955 78.0831 23.4949 77.8716Z" fill="#F0D8B6"/>
<path d="M23.4958 77.8716C23.8966 75.6793 29.5481 73.9575 30.8171 74.5853C30.7517 75.4152 30.6635 76.2356 30.5996 77.0659L30.8611 77.3027C33.0509 76.4458 32.6379 76.2776 35.2456 76.567C35.2363 76.8408 35.2016 77.0147 35.2754 77.2698L34.8555 77.2335L34.9581 77.8714L35.5387 79.5016L36.4249 79.2167C36.4976 79.5314 36.5911 79.8769 36.6285 80.194L37.3034 80.1633V80.2462C38.4842 80.2965 39.3439 80.3594 40.281 81.1672C41.2664 81.6036 42.2708 82.28 43.5724 82.8631L43.7934 83.3072C43.4765 83.6342 43.2221 83.531 42.682 83.7594C42.7575 84.0839 42.7534 83.9902 43.1177 84.2445C43.5237 84.5941 43.7453 84.6957 44.2207 84.9026C44.4556 85.2606 44.4626 85.272 44.435 85.6861C43.8948 86.7303 42.1177 86.6447 41.0779 86.9425L40.9602 87.1947C41.1133 87.4881 41.0988 87.4694 41.3924 87.6241L40.7924 87.9091C39.7438 87.9189 39.4596 87.6991 38.5347 87.1831C37.2883 87.6684 36.3427 88.0072 34.9904 88.0676C34.3895 88.0943 33.8461 88.0514 33.3756 88.4715L33.2891 88.4896C33.1188 87.9271 33.3462 87.4643 33.7782 87.0826L33.8287 86.9173C33.0393 87.2034 31.4553 87.4987 31.2399 87.583C30.7777 87.5932 29.7809 87.495 29.5228 87.6666L29.556 87.9055C28.9578 88.1982 28.4043 88.1092 27.7369 88.0736C27.2985 88.1299 26.9959 88.1065 26.5592 88.0908L26.4709 87.9384C26.5192 88.1995 26.5768 88.4377 26.6385 88.6948L26.4785 88.8178C26.2672 88.7827 25.7728 88.6737 25.6018 88.6586C24.9734 88.6032 24.7689 87.8023 24.2455 87.5619C23.2341 87.0975 21.3226 86.9207 20.6049 86.013C19.5864 84.7251 20.931 84.6919 21.0242 83.8414C20.0936 82.7846 13.3023 84.1851 12.4522 83.9493C12.3096 83.5232 12.4157 83.6733 11.9691 83.4096C12.2077 83.1051 12.3035 82.8162 12.4527 82.4619L13.5476 82.3118C15.4756 80.2214 18.0226 80.3063 20.4222 79.7885C20.5996 79.7503 20.6183 79.5023 20.6809 79.2846C21.4862 78.1196 22.1965 78.0831 23.4958 77.8716Z" fill="#E3BD7D"/>
<path d="M23.4947 77.8716C23.8955 75.6793 29.547 73.9575 30.816 74.5853C30.7506 75.4152 30.6624 76.2356 30.5985 77.0659L30.86 77.3027C30.7817 77.8349 30.7579 78.2682 30.4112 78.7021L30.107 79.1216C30.1679 79.6224 30.1602 80.3617 30.4544 80.6372L30.67 80.6573L31.02 80.9793C30.676 81.3033 30.3872 81.4831 30.3222 81.9281C30.6241 82.6681 31.2869 82.7297 32.0222 82.9867C34.3793 83.6233 37.1276 82.7955 39.4683 82.3662C38.7925 83.1956 37.0328 83.3869 35.992 83.4707C35.5986 83.8372 32.8723 84.0741 32.2158 84.214C32.1924 84.2176 32.1688 84.2213 32.1452 84.2249C30.1829 84.0512 29.9332 83.9442 29.7335 82.3451L29.2586 81.7573C28.8089 81.5295 25.1031 81.9933 23.6813 81.862L22.6581 81.6665C21.7117 81.5767 20.5133 81.5478 19.5424 81.4909C19.452 81.2933 19.1796 80.9566 19.0363 80.7654C16.7582 79.8195 13.9579 83.5412 12.8973 83.5165C12.8662 83.1213 13.1279 82.8031 13.3978 82.4828C13.4463 82.425 13.4959 82.368 13.5465 82.3118C15.4745 80.2214 18.0215 80.3063 20.4211 79.7885C20.5985 79.7503 20.6172 79.5023 20.6798 79.2846C21.4851 78.1196 22.1953 78.0831 23.4947 77.8716Z" fill="#87653D"/>
<path d="M23.4952 77.8716C23.896 75.6793 29.5474 73.9575 30.8165 74.5853C30.7511 75.4152 30.6628 76.2356 30.5989 77.0659L30.3214 76.9895L30.3379 77.1399L30.4625 77.2286C30.0392 77.5889 29.5721 78.1389 29.1428 78.3754C28.0677 78.9672 25.5846 78.5449 24.95 79.442L24.8529 78.9507C24.2016 78.8564 23.8905 78.8317 23.4373 78.3638L23.4952 77.8716Z" fill="#698237"/>
<path d="M24.1479 77.6566C24.2258 77.5497 24.3055 77.4444 24.3873 77.3402C25.507 75.9152 27.9017 75.4132 29.6373 75.0387C29.7795 75.008 29.7637 75.0558 29.9311 75.1926C29.887 75.6728 29.8659 75.5509 29.4666 75.9993C30.1164 76.296 29.937 76.1064 30.1992 76.6769C29.7826 78.5185 24.708 78.7017 24.0596 77.8724L24.1479 77.6566Z" fill="#84AA38"/>
<path d="M24.1479 77.6566C24.2259 77.5497 24.3056 77.4444 24.3873 77.3402C25.5071 75.9152 27.9017 75.4132 29.6374 75.0387C29.7796 75.008 29.7638 75.0558 29.9312 75.1926C29.8871 75.6728 29.866 75.5509 29.4666 75.9993C28.0091 76.6569 27.3397 76.723 26.0501 77.7216C25.5369 77.7347 24.5894 77.8063 24.1479 77.6566Z" fill="#90B43C"/>
<path d="M30.4633 77.2289L30.3388 77.1402L30.3222 76.9897L30.5997 77.0662L30.8612 77.303C30.783 77.8352 30.7592 78.2685 30.4125 78.7024L30.1083 79.1219C30.0442 79.1775 29.5717 79.5836 29.5448 79.6194C27.7443 80.4988 26.097 80.938 24.1456 80.1994C24.2853 79.7788 24.6082 79.3336 24.8537 78.9509L24.9509 79.4423C25.5854 78.5452 28.0685 78.9675 29.1436 78.3757C29.5729 78.1391 30.04 77.5892 30.4633 77.2289Z" fill="#84AA38"/>
<path d="M30.4633 77.2289L30.3388 77.1402L30.3222 76.9897L30.5997 77.0662L30.8612 77.303C30.783 77.8352 30.7592 78.2685 30.4125 78.7024L30.1083 79.1219C30.0442 79.1775 29.5717 79.5836 29.5448 79.6194C27.7443 80.4988 26.097 80.938 24.1456 80.1994C24.2853 79.7788 24.6082 79.3336 24.8537 78.9509L24.9509 79.4423C25.0413 79.6274 24.9946 79.5682 25.1279 79.7095C25.2912 79.8825 25.6326 79.8741 25.8656 79.8783C27.2756 79.9045 29.1756 79.5342 30.1799 78.454C30.5654 78.0392 30.496 77.7405 30.4633 77.2289Z" fill="#647133"/>
<path d="M23.4954 77.8711L23.4375 78.3633C23.8908 78.8312 24.2019 78.8559 24.8531 78.9502C24.6076 79.3328 24.2847 79.778 24.145 80.1986C23.6385 81.0751 22.6272 80.911 21.75 80.8289C21.3995 80.3545 21.2136 80.2542 21.1473 79.6326L20.6805 79.2841C21.4858 78.1191 22.196 78.0826 23.4954 77.8711Z" fill="#D8A766"/>
<path d="M23.4954 77.8711L23.4375 78.3633C22.3533 78.5459 21.9965 78.9291 21.1473 79.6326L20.6805 79.2841C21.4858 78.1191 22.196 78.0826 23.4954 77.8711Z" fill="#825446"/>
<path d="M29.543 79.6187C29.7475 80.0197 29.7782 80.0749 29.7346 80.5195C28.8177 81.9513 22.9858 81.7281 21.7488 80.8289C22.626 80.911 23.6374 81.0751 24.1439 80.1986C26.0952 80.9372 27.7426 80.4981 29.543 79.6187Z" fill="#C18F51"/>
<path d="M29.7338 82.3447C30.5895 82.8602 31.0626 83.0205 31.9839 83.3622C33.6232 83.6104 34.283 83.624 35.9923 83.4703C35.5989 83.8368 32.8726 84.0737 32.2161 84.2136C32.1927 84.2173 32.1691 84.2209 32.1455 84.2245C30.1832 84.0508 29.9335 83.9438 29.7338 82.3447Z" fill="#D2A360"/>
<path d="M19.0374 80.7653C21.2117 80.3972 20.2674 81.0469 22.6591 81.6663C21.7128 81.5766 20.5144 81.5477 19.5435 81.4908C19.453 81.2931 19.1806 80.9565 19.0374 80.7653Z" fill="#C18F51"/>
<path d="M30.8601 77.3025C33.0499 76.4456 32.637 76.2773 35.2446 76.5668C35.2354 76.8406 35.2007 77.0145 35.2744 77.2696L34.8545 77.2332L34.9572 77.8711L35.5377 79.5013L36.424 79.2164C36.4966 79.5311 36.5902 79.8767 36.6276 80.1938C35.703 80.2148 34.732 80.2125 33.8196 80.3377C33.5174 80.3729 32.7991 80.437 32.538 80.5037C31.8508 80.6469 31.665 80.7032 31.0201 80.979L30.6702 80.6571L30.4546 80.6369C30.1604 80.3615 30.168 79.6221 30.1072 79.1214L30.4114 78.7019C30.7581 78.268 30.7818 77.8346 30.8601 77.3025Z" fill="#87653D"/>
<path d="M31.644 77.7263C32.5974 77.019 33.7432 76.7417 34.8564 77.2341L34.959 77.872C33.9922 78.9291 31.8637 79.4046 31.644 77.7263Z" fill="#D2A360"/>
<path d="M31.644 77.7251C31.8637 79.4034 33.9922 78.9279 34.959 77.8708L35.5396 79.501C34.4791 79.4221 31.6046 79.3456 31.0329 78.4155C31.1526 77.9562 31.1477 78.0849 31.644 77.7251Z" fill="#D8A766"/>
<path d="M30.4114 78.7017C31.0177 79.1137 31.0688 79.2475 31.4245 79.8929C31.7264 79.7386 32.1428 79.4655 32.4535 79.5049L32.5863 79.7301C32.3553 80.2368 31.2001 80.4256 30.6702 80.6569L30.4546 80.6367C30.1604 80.3613 30.168 79.6219 30.1072 79.1212L30.4114 78.7017Z" fill="#A97948"/>
<path d="M27.6622 87.0257C28.6697 86.1519 31.4953 84.8515 32.7853 84.8604L32.975 85.0256C32.8107 85.5296 32.5975 85.8257 32.7034 86.2482C33.1734 86.4244 33.5978 86.5053 33.8279 86.9175C33.0384 87.2037 31.4545 87.499 31.2391 87.5833C30.7769 87.5934 29.78 87.4953 29.522 87.6669L29.5552 87.9058C28.957 88.1985 28.4035 88.1095 27.7361 88.0738C27.2977 88.1302 26.9951 88.1067 26.5583 88.0911C26.7884 87.5611 27.1893 87.3509 27.6622 87.0257Z" fill="#C18F51"/>
<path d="M27.6622 87.0261C28.6472 86.7885 31.0849 85.8751 31.9017 86.3678C31.435 86.8112 28.9924 87.382 27.7361 88.0743C27.2977 88.1306 26.9951 88.1072 26.5583 88.0916C26.7884 87.5616 27.1892 87.3513 27.6622 87.0261Z" fill="#A97948"/>
<path d="M36.629 80.1933L37.3039 80.1626V80.2454C38.4847 80.2958 39.3444 80.3587 40.2815 81.1665C39.915 81.485 39.7134 81.7423 39.2462 81.7882L38.8706 81.652C38.6746 81.2311 38.8005 81.3434 38.4267 81.1712C37.7962 81.4483 37.7268 81.5945 37.2897 81.1145C36.5455 81.4019 34.8248 81.1352 34.009 81.2537C33.5966 81.7364 31.7171 81.7284 31.2321 81.385L31.3566 81.0985C31.8766 80.9335 32.1085 80.8716 32.5394 80.5033C32.8006 80.4366 33.5188 80.3725 33.821 80.3372C34.7334 80.212 35.7045 80.2144 36.629 80.1933Z" fill="#F0D8B6"/>
<path d="M33.8281 80.6513C34.8218 80.5569 36.3344 80.706 37.0572 80.5938L37.2895 81.1148C36.5453 81.4023 34.8245 81.1356 34.0088 81.254L33.8281 80.6513Z" fill="#87653D"/>
<path d="M39.4691 82.3662L39.9387 82.8999L39.9799 83.2363C39.1511 83.9055 34.7417 84.4448 33.5011 84.3774C33.2639 84.3645 32.5006 84.2493 32.2166 84.214C32.8731 84.0741 35.5994 83.8372 35.9927 83.4707C37.0335 83.387 38.7933 83.1956 39.4691 82.3662Z" fill="#D8A766"/>
<path d="M23.6817 81.8625C25.1035 81.9939 28.8094 81.53 29.259 81.7579C28.4848 82.1748 24.5106 82.9414 23.8046 82.5973L23.6817 81.8625Z" fill="#D8A766"/>
<path d="M19.5444 81.4902C20.5152 81.5471 21.7137 81.576 22.66 81.6658L23.6832 81.8613L23.8061 82.596C22.3451 82.1449 21.8201 82.1727 20.2964 82.1616C19.9415 82.1591 19.7303 81.7522 19.5444 81.4902Z" fill="#D2A360"/>
<path d="M33.7787 87.083C34.4465 87.2549 35.0129 87.1866 35.6443 87.3863C34.9835 87.548 33.8989 87.6661 33.4959 88.0338L33.3761 88.4719L33.2896 88.49C33.1193 87.9275 33.3467 87.4647 33.7787 87.083Z" fill="#D8A766"/>
<path d="M24.0788 84.6869C23.6836 84.6133 23.6133 84.5743 23.2414 84.4082L23.1951 84.2478C23.7036 84.0148 26.3565 83.9002 26.9892 84.1066C26.9688 85.3872 24.9381 85.4673 24.2658 85.0398L24.0788 84.6869Z" fill="#A97948"/>
<path d="M26.9882 84.1064C26.9678 85.387 24.9371 85.4672 24.2648 85.0396L24.0778 84.6868C25.0757 84.6346 26.1379 84.6695 26.9882 84.1064Z" fill="#C18F51"/>
<path d="M43.5711 82.8628C44.0845 83.0069 44.4619 83.1382 45.0022 83.1377C45.7531 83.0314 46.5366 83.0803 47.2668 82.8717C47.9368 84.411 48.4062 84.6421 50.0518 84.6627L50.4965 84.4693C50.8948 84.8109 50.9714 84.8696 51.4451 85.0915L51.3575 85.1839C51.0261 85.5281 50.9611 85.5986 50.5465 85.8224C50.8779 85.9391 50.942 85.9456 51.2936 85.987C52.2826 86.1538 53.3191 86.1226 54.0268 86.9953C54.6564 87.7718 55.2014 88.3536 56.0208 88.9399C57.5748 89.0937 63.9697 89.1156 64.6914 89.6785C63.6216 89.811 62.6491 89.8059 61.4579 90.0056C58.252 90.5432 54.0518 91.4666 50.9505 90.1831C50.7562 90.1026 49.3871 88.7457 49.0595 88.4666C46.3879 88.2966 45.0227 90.0138 42.7278 88.1054C42.4439 87.8694 42.0106 88.0358 41.7019 88.1239C40.7001 88.3233 38.1669 89.273 37.1332 89.6983C36.9253 89.7839 36.9799 90.1059 36.9785 90.3374L36.7927 90.4624C36.0824 90.498 35.5761 90.2794 34.8996 90.0577C33.9754 89.7547 32.8689 89.7523 31.8955 89.6331C29.7398 89.3693 27.2068 89.2904 25.1078 88.828C24.7377 88.4634 24.405 88.0727 23.917 87.9017C24.0498 88.102 24.0828 88.1786 24.1831 88.3985C22.124 87.8314 18.1824 87.2493 16.0486 87.3817C15.5909 87.5798 14.4495 87.5069 14.0206 87.2186L14.0413 86.9933L14.3691 86.7534C15.2488 86.4822 18.7608 86.1527 17.9209 84.5536C16.7597 83.7569 13.2513 84.1833 11.7202 84.2715L12.4509 83.949C13.301 84.1848 20.0924 82.7843 21.0229 83.841C20.9298 84.6916 19.5851 84.7248 20.6036 86.0127C21.3213 86.9204 23.2329 87.0972 24.2443 87.5616C24.7676 87.802 24.9721 88.6029 25.6005 88.6583C25.7716 88.6734 26.2659 88.7824 26.4773 88.8175L26.6373 88.6945C26.5755 88.4374 26.518 88.1992 26.4697 87.9381L26.5579 88.0905C26.9947 88.1061 27.2972 88.1296 27.7356 88.0733C28.403 88.1089 28.9566 88.1979 29.5548 87.9052L29.5216 87.6663C29.7796 87.4947 30.7765 87.5929 31.2386 87.5827C31.454 87.4984 33.038 87.2031 33.8274 86.9169L33.777 87.0823C33.3449 87.464 33.1175 87.9268 33.2879 88.4893L33.3743 88.4712C33.8449 88.0511 34.3882 88.094 34.9892 88.0673C36.3414 88.0069 37.287 87.6681 38.5334 87.1828C39.4583 87.6988 39.7425 87.9186 40.7911 87.9088L41.3912 87.6237C41.0975 87.4691 41.112 87.4878 40.9589 87.1944L41.0766 86.9422C42.1165 86.6444 43.8935 86.73 44.4338 85.6858C44.4614 85.2717 44.4543 85.2603 44.2195 84.9023C43.744 84.6954 43.5225 84.5938 43.1164 84.2442C42.7521 83.9899 42.7563 84.0836 42.6807 83.7591C43.2208 83.5307 43.4753 83.6339 43.7922 83.3069L43.5711 82.8628Z" fill="#EACA90"/>
<path d="M43.5719 82.8628C44.0853 83.0069 44.4627 83.1382 45.003 83.1377C45.7539 83.0314 46.5374 83.0803 47.2676 82.8717C47.9376 84.411 48.407 84.6421 50.0526 84.6627L50.4973 84.4693C50.8956 84.8109 50.9722 84.8696 51.4458 85.0915L51.3583 85.1839C51.0269 85.5281 50.9619 85.5986 50.5473 85.8224C50.8787 85.9391 50.9428 85.9456 51.2944 85.987C49.9986 86.2158 48.6934 86.6195 47.649 85.63C45.6798 85.8475 45.3606 84.0233 44.1287 86.3968C43.8189 86.9936 42.1325 87.5469 41.3919 87.6237C41.0983 87.4691 41.1128 87.4878 40.9597 87.1944L41.0774 86.9422C42.1173 86.6444 43.8943 86.73 44.4346 85.6858C44.4622 85.2717 44.4551 85.2603 44.2203 84.9023C43.7448 84.6954 43.5233 84.5938 43.1172 84.2442C42.7529 83.9899 42.7571 84.0836 42.6815 83.7591C43.2216 83.5307 43.4761 83.6339 43.793 83.3069L43.5719 82.8628Z" fill="#D8A766"/>
<path d="M50.4988 84.4697C50.8971 84.8113 50.9737 84.87 51.4473 85.0919L51.3598 85.1843C51.0284 85.5285 50.9633 85.599 50.5487 85.8228C50.8802 85.9395 50.9443 85.946 51.2959 85.9874C50.0001 86.2162 48.6949 86.6199 47.6505 85.6304L47.6378 85.5515C47.0948 85.2189 46.4392 85.5872 46.1019 84.8495C46.5102 84.6394 48.8204 85.3956 50.054 84.6631L50.4988 84.4697Z" fill="url(#paint2_linear_138_4216)"/>
<path d="M43.5725 82.8628C44.0859 83.0069 44.4633 83.1382 45.0036 83.1377C44.7668 83.6997 44.8694 84.2628 44.9157 84.8778C44.5093 84.7268 43.4875 84.3216 43.1178 84.2442C42.7535 83.9899 42.7577 84.0836 42.6821 83.7591C43.2222 83.5307 43.4767 83.6339 43.7936 83.3069L43.5725 82.8628Z" fill="#A97948"/>
<path d="M31.2411 87.5822C31.4565 87.4979 33.0404 87.2027 33.8299 86.9165L33.7794 87.0819C33.3474 87.4636 33.12 87.9264 33.2903 88.4889C32.8002 88.6106 32.0627 88.8472 31.6007 88.6459C31.5211 88.1978 31.5197 87.9387 31.2411 87.5822Z" fill="#D2A360"/>
<path d="M16.8713 86.6924L17.1018 86.845C16.7854 87.066 16.8061 87.062 16.4226 87.0747L16.0499 87.3828C15.5923 87.5809 14.4509 87.508 14.0219 87.2197L14.0426 86.9944L14.3704 86.7545C15.3398 86.7845 15.907 86.7776 16.8713 86.6924Z" fill="#C18F51"/>
<path d="M29.5565 87.9053L29.5233 87.6664C29.7813 87.4949 30.7782 87.593 31.2403 87.5828C31.5189 87.9393 31.5204 88.1984 31.5999 88.6464C30.9612 88.3483 30.2155 87.8777 29.5565 87.9053Z" fill="#D8A766"/>
<path d="M42.4648 93.082L42.3856 92.911L42.5135 92.6585C43.3391 92.3852 46.6439 92.8007 47.7232 92.9029L47.6849 93.2483C47.0533 93.0984 43.3529 93.1227 42.4648 93.082Z" fill="#D8A766"/>
<path d="M47.7246 92.9023C48.576 92.7254 49.3478 92.5927 50.0444 93.255C49.2739 93.4563 48.4599 93.4043 47.6863 93.2477L47.7246 92.9023Z" fill="#D2A360"/>
<path d="M11.969 83.4097C12.4156 83.6733 12.3095 83.5232 12.4521 83.9493L11.7213 84.2718C11.236 84.2031 11.2598 84.29 10.9936 84.0138C11.2266 83.665 11.5671 83.5821 11.969 83.4097Z" fill="#D8A766"/>
<path d="M70.7705 88.707C71.1395 88.6682 70.9943 88.6135 71.2416 88.801L71.186 89.265C71.4123 89.6844 71.8598 89.3612 72.5819 89.6381C71.8932 89.8325 69.4753 89.8356 68.7607 89.5903C67.9511 89.5914 66.9214 89.6508 66.1594 89.458C66.7222 88.8953 69.7824 89.4037 70.7705 88.707Z" fill="#EACA90"/>
<path d="M79.6858 86.4526C80.1814 86.5066 80.798 86.4861 80.9135 87.0486C80.4665 87.3368 80.3963 87.2492 79.8169 87.2735C79.2238 87.2812 78.7978 87.3573 78.3359 87.0319L78.343 86.7962C78.7505 86.4752 79.1524 86.5026 79.6858 86.4526Z" fill="#C18F51"/>
<path d="M45.7516 91.0867C46.1228 91.0235 46.107 91.0188 46.4737 91.0911L46.5985 91.3013C46.2946 91.6698 46.3705 91.5539 45.7727 91.6745C45.2671 91.6365 45.0512 91.6765 44.7508 91.3467C45.1271 91.05 45.2143 91.1325 45.7516 91.0867Z" fill="#EACA90"/>
<path d="M52.4549 50.9481C56.8525 41.0701 67.2843 36.3106 77.4721 40.3075C75.0712 48.1953 67.5417 55.1215 59.2953 56.494C55.9496 57.0509 51.1247 56.4171 49.8946 60.7651C48.7941 65.3089 50.367 73.5904 51.2924 78.2445C51.5031 79.3034 52.7012 81.9353 52.6937 82.6935C50.9866 83.1086 50.2054 82.2269 48.4073 82.4126C48.1312 80.7323 47.9658 78.9057 47.7807 77.2034C47.8826 76.6483 47.4133 73.3923 47.4593 72.2446C47.5305 71.6631 47.5862 71.0799 47.626 70.4956C47.5951 71.3561 47.6494 72.8661 48.0942 73.6135C47.806 66.7516 46.8909 59.4344 47.2955 52.561L47.0795 52.7751L46.8307 52.7471L46.9036 46.3362L47.0478 46.122L47.1177 46.1543C47.3807 45.5707 46.9526 44.387 47.5644 42.8365C47.5861 42.4159 47.5519 41.929 47.7749 41.6041C47.9996 41.9911 48.068 43.3865 47.9707 43.7746C47.9865 45.1844 47.995 47.976 48.3586 49.2715C48.3975 50.9685 48.5268 58.2546 49.2027 59.5514L49.4005 59.64C50.0503 59.1878 51.0544 57.1227 51.4706 56.3454C51.3773 55.5207 51.3567 55.1785 51.5098 54.3509C51.7183 53.9922 51.5781 54.0929 51.8779 53.9363L52.1253 54.4198L52.3855 54.3155C52.5145 54.5277 51.4548 56.292 51.6085 56.8868C52.0281 56.7936 57.1976 50.2321 58.9595 49.0078C61.8685 46.9866 70.0264 41.6068 73.4689 41.5382L73.5191 41.3915C72.5611 41.7665 71.1614 42.0218 70.0605 42.4246C64.7277 44.376 60.133 47.3244 55.7038 50.8264C54.7061 51.6151 53.7801 52.7362 52.7311 53.4359C51.5064 52.897 52.3648 52.079 52.4549 50.9481Z" fill="url(#paint3_linear_138_4216)"/>
<path d="M47.5644 42.8364C47.5861 42.4158 47.5519 41.9289 47.7749 41.604C47.9996 41.991 48.068 43.3864 47.9707 43.7745C46.9325 45.223 49.9564 76.1164 50.5925 80.5908C50.4974 80.6353 50.4022 80.68 50.3071 80.7247C48.9018 80.2468 48.0379 75.0253 48.0942 73.6133C47.806 66.7515 46.8909 59.4342 47.2955 52.5609L47.0795 52.775L46.8307 52.747L46.9036 46.3361L47.0478 46.1218L47.1177 46.1542C47.3807 45.5706 46.9526 44.3868 47.5644 42.8364Z" fill="#99BD3D"/>
<path d="M46.9036 46.3361L47.0478 46.1218L47.1177 46.1542C47.3807 45.5706 46.9526 44.3868 47.5644 42.8364C47.5214 44.564 47.6327 51.4473 47.2955 52.5609L47.0795 52.7749L46.8307 52.747L46.9036 46.3361Z" fill="#90B43C"/>
<path d="M19.4719 32.1797C21.0759 32.1773 22.8734 32.0278 24.4132 32.1252C29.4528 32.4419 34.2025 34.5919 37.768 38.17C41.5238 41.9171 44.1885 47.349 44.2686 52.7196C44.2835 53.7105 44.4711 53.8622 43.888 54.52C44.0065 54.6394 44.2063 54.7607 44.3512 54.8597C44.5289 54.7762 44.5301 54.7547 44.6389 54.6007C45.0813 55.4068 46.2087 57.7652 47.0038 58.0003C47.136 58.3394 46.9602 58.5378 46.7938 58.9644C46.952 59.2124 46.9802 59.683 46.7835 59.9125C45.4414 57.9994 45.8351 56.4103 43.564 54.5287C41.3896 52.5226 38.1968 52.271 35.5448 51.1116C34.8647 50.8141 32.2152 49.3909 31.7567 49.4116C25.936 46.4135 21.5123 38.5706 19.588 32.5538C19.548 32.4295 19.5093 32.3047 19.4719 32.1797Z" fill="#99BD3D"/>
<path d="M29.1928 37.3276C29.8286 37.5079 32.4247 39.3993 32.9081 39.998C32.1274 39.8795 29.7894 37.9383 29.1928 37.3276Z" fill="#647133"/>
<path d="M68.8898 82.4136C70.2117 82.7123 72.6554 83.535 73.8495 82.4827C74.2292 82.148 74.0961 81.2097 74.0632 80.7206L74.2078 80.5654L74.7473 80.6316C75.9153 80.7012 76.3231 80.7922 77.3131 81.4201L77.468 81.6852C77.0087 82.3413 76.4788 81.9806 76.0072 82.5599C76.8796 83.0908 78.5752 81.9605 80.6833 82.45C81.3791 82.5406 81.7276 82.6509 82.4026 82.8553C83.502 84.2497 84.9763 84.4686 86.7468 85.1619C85.459 85.1401 84.9026 85.2862 83.7723 85.8395C82.9656 85.3616 82.2226 85.2061 81.3322 84.876C79.9266 85.3106 80.1529 86.1807 79.1615 86.1149C77.9888 86.1358 78.3281 86.343 77.3855 86.5663C74.8921 87.1575 73.4305 87.7722 70.8328 87.5999C69.1991 88.7893 65.5054 88.3218 65.1789 89.0122L65.4397 89.559C65.1694 89.7703 65.1411 89.6878 64.692 89.6778C63.9703 89.1149 57.5754 89.0929 56.0214 88.9392C55.202 88.3529 54.657 87.7711 54.0274 86.9945C53.3196 86.1218 52.2832 86.1531 51.2942 85.9863C50.9426 85.9449 50.8785 85.9383 50.5471 85.8217C50.9617 85.5978 51.0267 85.5273 51.3581 85.1832L51.4456 85.0907C51.8857 85.2065 52.3135 85.3838 52.722 85.2515L52.6991 85.0222C52.181 84.806 51.3243 84.6714 51.2929 84.0625C51.6325 83.6119 52.5344 83.1698 53.0634 82.8715L53.4155 82.7383C55.1842 81.9923 56.033 81.8622 57.9346 82.0317L58.8762 82.2721L59.0299 82.1333L58.9934 81.7366C59.631 81.4223 60.1331 81.1999 60.7935 80.9357C62.2042 80.6988 63.6476 80.7382 65.0434 81.052C65.3908 81.1434 68.813 82.3112 68.8898 82.4136Z" fill="#E3BD7D"/>
<path d="M80.6838 82.4507C81.3795 82.5414 81.728 82.6517 82.4031 82.8561C83.5025 84.2504 84.9768 84.4693 86.7473 85.1627C85.4595 85.1409 84.9031 85.287 83.7727 85.8402C82.9661 85.3624 82.2231 85.2068 81.3327 84.8767C81.9033 84.7019 81.7453 84.7408 82.1891 84.25L82.3455 84.1414L82.3782 83.5856C81.4308 82.9587 80.1272 84.1014 79.1707 83.3982C78.9754 82.9616 78.99 83.1537 79.0971 82.6973C79.6014 82.3181 79.9708 82.4427 80.6838 82.4507Z" fill="#EACA90"/>
<path d="M60.7938 80.9367C62.2045 80.6998 63.6479 80.7392 65.0437 81.053C64.3048 81.1538 62.2078 81.2932 61.9514 82.0659C62.1025 82.3813 61.9953 82.2518 62.3008 82.4535C62.7384 82.9684 62.8674 83.1844 63.2099 83.7684C61.4803 83.2308 60.5933 82.561 58.9937 81.7376C59.6313 81.4233 60.1335 81.2009 60.7938 80.9367Z" fill="#C18F51"/>
<path d="M68.8889 82.4136C70.2108 82.7123 72.6545 83.535 73.8486 82.4827C74.2283 82.148 74.0952 81.2097 74.0623 80.7206L74.2069 80.5654L74.7464 80.6316L74.4769 80.7784L74.6366 81.4058C75.0305 82.9171 73.7814 83.3346 72.6908 83.7791C71.5849 83.641 69.4408 83.5214 68.8889 82.4136Z" fill="#D8A766"/>
<path d="M70.8331 87.6007C71.6189 86.9082 78.2204 85.8348 79.1617 86.1157C77.9891 86.1366 78.3283 86.3437 77.3858 86.567C74.8923 87.1582 73.4308 87.7729 70.8331 87.6007Z" fill="#EACA90"/>
<path d="M82.1885 84.2504C81.5921 84.2511 80.1127 85.001 79.0565 84.8296C78.5127 84.7415 77.3606 84.8193 76.8919 84.3501L76.9596 84.1775C77.8646 83.7587 79.9049 84.1917 80.907 84.1612C81.3856 84.1466 81.6316 83.6141 82.3775 83.5859L82.3448 84.1417L82.1885 84.2504Z" fill="#C18F51"/>
<path d="M58.876 82.2723L59.0297 82.1335L58.9932 81.7368C60.5928 82.5603 61.4797 83.23 63.2093 83.7676L63.3521 84.1097C62.6478 83.8872 62.1048 83.6003 61.4501 83.994C60.6231 83.6199 60.6725 82.9941 58.876 82.2723Z" fill="#87653D"/>
<path d="M62.3004 82.4531C63.0069 82.7978 63.6545 82.9477 64.1989 83.3818C64.273 83.697 64.3033 83.5593 64.1913 83.814C63.9174 83.9419 63.6438 84.1091 63.3523 84.1102L63.2095 83.768C62.867 83.1841 62.7381 82.968 62.3004 82.4531Z" fill="#D2A360"/>
<path d="M68.4716 86.6283L68.6042 86.561C69.2892 86.7809 70.1557 86.5365 70.5792 86.8265C70.3162 87.1332 69.9675 87.2097 69.5764 87.3563C68.4613 87.4292 68.1446 87.4499 67.106 87.0623L67.033 86.8648C67.4641 86.5843 67.9352 86.6412 68.4716 86.6283Z" fill="#A97948"/>
<path d="M59.8788 84.9898C60.1917 84.9242 60.2614 84.986 60.4378 85.1672L60.2961 85.3585C59.3737 85.5667 57.8835 85.6112 56.8443 85.7208L56.4422 85.7568L56.2835 85.619L55.9677 85.699L56.0207 85.5649C56.6217 85.198 59.1004 85.0798 59.8788 84.9898Z" fill="#A97948"/>
<path d="M72.5374 84.7863C73.2994 84.6776 73.8393 84.5977 74.2559 85.2839C73.6448 85.3583 73.0931 85.5049 72.5922 85.1769L72.5374 84.7863Z" fill="#A97948"/>
<path d="M53.1771 85.2304C54.009 85.1014 54.8426 85.1881 55.6088 85.542C54.635 85.6799 54.0419 85.7021 53.1771 85.2304Z" fill="#A97948"/>
<path d="M73.5944 72.5433L73.743 72.3195C73.4776 72.0526 72.8244 72.0446 72.3197 71.8845C72.2865 71.5208 72.2425 71.6858 72.4848 71.3823L72.5965 71.5773C73.4766 71.8342 74.6837 72.1338 75.4426 72.6029C79.2689 74.3925 82.0673 77.5283 81.8533 81.9084C82.9582 82.5008 82.9936 82.6154 83.9418 83.3918C84.8053 84.099 86.4937 84.3773 87.589 84.7071C87.6477 85.2017 87.7359 85.186 87.5227 85.4846C87.1491 85.3857 87.0912 85.3488 86.7471 85.1628C84.9766 84.4694 83.5023 84.2505 82.4029 82.8562C81.7278 82.6518 81.3793 82.5415 80.6836 82.4508C78.5755 81.9613 76.8799 83.0916 76.0074 82.5607C76.4791 81.9815 77.009 82.3421 77.4683 81.686L77.3133 81.421C76.3234 80.793 75.9155 80.702 74.7476 80.6324L74.2081 80.5663L74.0635 80.7214C74.0964 81.2105 74.2295 82.1488 73.8498 82.4835C72.6557 83.5359 70.212 82.7132 68.8901 82.4145C68.8133 82.312 65.3911 81.1442 65.0437 81.0528C63.6479 80.7391 62.2044 80.6996 60.7937 80.9366C60.1334 81.2007 59.6313 81.4231 58.9936 81.7375L59.0301 82.1341L58.8765 82.2729L57.9349 82.0325C56.0333 81.863 55.1845 81.9931 53.4158 82.7392L53.574 82.1381L52.7388 80.1147L51.9775 78.3785L51.9838 78.1735C52.2848 77.8459 52.4162 77.9295 52.9511 77.8599C53.5611 78.1539 54.4203 78.3031 55.0998 78.4512C57.1474 77.6279 59.225 77.2736 61.2973 78.3629L61.4323 78.2902L61.8178 78.6087C61.8385 79.1432 61.7535 79.3983 62.017 79.7768C63.0609 79.963 62.8615 79.658 63.7615 80.227L63.9252 80.0733L63.7902 79.5987C63.8892 79.4941 63.9252 79.431 64.0436 79.3682L64.653 79.2294L64.8463 78.8621C66.2014 78.4584 66.0262 78.0674 67.764 78.0934L67.8466 77.9976C68.1395 77.9459 68.3672 77.9028 68.6553 77.829C69.6824 78.1234 72.668 78.8194 73.7388 78.9214L74.151 79.0371C74.2043 79.3435 74.1917 79.4964 74.1852 79.8006C74.5103 80.0012 74.3655 79.9563 74.8244 79.8756C74.8653 79.5222 74.7671 79.5969 74.5553 79.2092C74.4028 78.2286 74.2758 77.3615 74.0381 76.3949L74.363 76.1832C73.8666 74.5327 72.7507 73.4258 71.5337 72.2804C72.2224 72.3535 72.9094 72.4412 73.5944 72.5433Z" fill="#87653D"/>
<path d="M73.5931 72.5433L73.7416 72.3195C73.4763 72.0526 72.8231 72.0446 72.3184 71.8845C72.2852 71.5208 72.2412 71.6858 72.4835 71.3823L72.5952 71.5773C73.4752 71.8342 74.6824 72.1338 75.4413 72.6029C79.2676 74.3925 82.0659 77.5283 81.852 81.9084C81.4777 82.0238 81.439 82.0563 81.0669 81.9884C81.0742 81.0627 81.0664 80.432 80.985 79.4999C79.4717 79.8835 78.8063 80.4858 77.2661 80.5875C75.9505 79.9703 75.2613 80.0212 73.8317 79.9867C73.9518 79.4806 73.9225 79.4123 73.7375 78.9214L74.1497 79.0371C74.2029 79.3435 74.1904 79.4964 74.1839 79.8006C74.5089 80.0012 74.3642 79.9563 74.8231 79.8756C74.864 79.5222 74.7657 79.5969 74.554 79.2092C74.4014 78.2286 74.2745 77.3615 74.0368 76.3949L74.3616 76.1832C73.8653 74.5327 72.7494 73.4258 71.5324 72.2804C72.2211 72.3535 72.9081 72.4412 73.5931 72.5433Z" fill="#99BD3D"/>
<path d="M75.4434 72.6035C79.2697 74.393 82.068 77.5289 81.8541 81.909C81.4798 82.0244 81.4411 82.0569 81.069 81.989C81.0763 81.0632 81.0685 80.4326 80.9871 79.5005C80.1548 76.6762 78.4937 75.2826 76.1402 73.6841L76.2051 73.4111C75.852 73.1246 75.7017 72.9776 75.4434 72.6035Z" fill="#698237"/>
<path d="M73.5939 72.5433L73.7424 72.3195C73.4771 72.0526 72.8238 72.0446 72.3192 71.8845C72.2859 71.5208 72.242 71.6858 72.4842 71.3823L72.5959 71.5773C73.476 71.8342 74.6831 72.1338 75.4421 72.6029C75.7003 72.9771 75.8507 73.124 76.2037 73.4106L76.1389 73.6835L73.5939 72.5433Z" fill="#647133"/>
<path d="M74.0379 76.3958L74.3628 76.1841C74.6586 77.126 74.9499 77.9816 74.88 78.9755C74.6857 79.1866 74.8032 79.1306 74.5551 79.21C74.4026 78.2294 74.2756 77.3624 74.0379 76.3958Z" fill="#647133"/>
<path d="M73.7075 73.641C74.8739 73.5133 77.0804 74.2346 77.3385 75.5088C77.0158 75.4509 76.4265 75.1589 76.119 74.9937C75.3731 74.5935 74.0178 74.4612 73.7075 73.641Z" fill="#A3C442"/>
<path d="M67.8454 77.9977C68.1383 77.9459 68.3661 77.9029 68.6541 77.8291C69.6813 78.1234 72.6669 78.8195 73.7376 78.9215C73.9227 79.4124 73.9519 79.4807 73.8319 79.9867C73.4234 80.6056 74.0213 81.2352 73.9132 82.1147L73.7605 82.1812C73.7142 81.8171 73.6866 81.1854 73.4832 80.9217L73.3857 81.0409C73.4948 81.5646 73.6078 81.8122 73.3969 82.2962C71.7921 82.5237 71.331 82.4928 69.9177 81.6707L69.2356 81.7822C68.4274 80.9579 68.2595 80.6981 67.9471 79.5905C68.167 79.1137 68.2714 79.1106 68.1603 78.6856L67.7346 78.5383C68.0626 78.4768 68.0753 78.4612 68.3641 78.3259L67.7628 78.0935L67.8454 77.9977Z" fill="#647133"/>
<path d="M69.9192 81.6708C69.2722 81.146 67.8778 79.5716 68.9415 78.8623C69.4009 78.9788 69.3724 79.0938 69.7218 79.5182L69.9752 79.7388L70.2298 79.5213C70.3729 79.6089 70.5472 79.7081 70.6811 79.8042C70.8663 80.4067 72.7982 82.0841 73.3984 82.2963C71.7936 82.5238 71.3325 82.4929 69.9192 81.6708Z" fill="#84AA38"/>
<path d="M70.7989 79.1445C72.1867 79.5352 72.6184 79.7796 73.3875 81.0414C73.4967 81.5651 73.6096 81.8127 73.3988 82.2968C72.7986 82.0845 70.8666 80.4071 70.6814 79.8046C70.7826 79.7915 70.9451 79.733 71.0495 79.7007C70.9925 79.4678 70.9129 79.3508 70.7989 79.1445Z" fill="#99BD3D"/>
<path d="M69.7213 79.5188C69.7818 79.3798 69.7358 79.2441 69.7173 79.0675L69.9454 78.9258L70.798 79.1447C70.9121 79.3509 70.9916 79.468 71.0486 79.7009C70.9442 79.7332 70.7817 79.7917 70.6805 79.8048C70.5467 79.7087 70.3723 79.6095 70.2292 79.5219L69.9746 79.7394L69.7213 79.5188Z" fill="url(#paint4_linear_138_4216)"/>
<path d="M51.9775 78.379C53.9041 78.2682 54.2784 79.6392 56.2803 78.5542C56.8193 78.8807 57.4198 79.2271 57.9416 79.5696L58.1515 79.4746C59.0065 79.4841 59.4032 79.3558 59.9503 79.9136C59.4322 80.5555 59.3411 80.4296 58.9025 80.8328C58.7285 81.1013 58.4846 81.4515 58.3417 81.7267C58.0475 81.8641 58.0295 81.8079 57.9349 82.0331C56.0333 81.8635 55.1845 81.9936 53.4158 82.7397L53.574 82.1386L52.7388 80.1153L51.9775 78.379Z" fill="#C18F51"/>
<path d="M58.1507 79.4732C59.0057 79.4827 59.4024 79.3544 59.9496 79.9122C59.4314 80.5541 59.3403 80.4282 58.9017 80.8314C58.7277 81.1 58.4838 81.4501 58.3409 81.7254C58.0467 81.8627 58.0287 81.8066 57.9341 82.0317C56.0325 81.8622 55.1837 81.9923 53.415 82.7383L53.5732 82.1372L52.738 80.1139C53.8122 80.4758 54.1692 80.6913 55.1401 81.2996C56.182 81.3293 57.4481 81.5756 58.1237 80.6999C58.2161 80.0292 58.2 80.2409 57.9408 79.5683L58.1507 79.4732Z" fill="#A97948"/>
<path d="M53.5751 82.1384C53.7235 82.0752 53.8733 82.0152 54.0244 81.9585C55.0793 81.5653 57.3166 81.2641 58.3428 81.7265C58.0486 81.8639 58.0306 81.8077 57.936 82.0328C56.0344 81.8633 55.1856 81.9934 53.4169 82.7395L53.5751 82.1384Z" fill="#87653D"/>
<path d="M58.1518 79.4732C59.0068 79.4827 59.4034 79.3544 59.9506 79.9122C59.4793 80.047 59.3371 80.0694 58.8479 80.109C58.3543 79.8986 58.5275 79.9994 58.1518 79.4732Z" fill="#C18F51"/>
<path d="M77.2676 80.5871C78.8078 80.4854 79.4733 79.8831 80.9866 79.4995C81.0679 80.4316 81.0757 81.0623 81.0685 81.988C80.1476 81.7236 79.2769 81.7683 78.3271 81.7681C77.9496 81.1865 77.775 81.051 77.2676 80.5871Z" fill="#84AA38"/>
<path d="M67.7352 78.5391L68.1609 78.6864C68.272 79.1114 68.1676 79.1145 67.9477 79.5913L67.6803 79.8525C67.3852 80.1372 67.2794 80.215 66.935 80.439C66.2037 80.5426 65.3634 80.2392 64.5954 80.062C65.7226 79.1616 66.3408 78.8211 67.7352 78.5391Z" fill="#D2A360"/>
<path d="M61.4327 78.29L61.8183 78.6085C61.839 79.1431 61.754 79.3982 62.0175 79.7767C63.0614 79.9629 62.862 79.6578 63.762 80.2269L63.9256 80.0732L63.7907 79.5986C63.8897 79.494 63.9256 79.4309 64.044 79.368L64.6535 79.2292C64.441 79.5581 64.2427 80.1991 63.9683 80.3455C62.9488 80.8897 62.115 81.2113 61.4936 80.0517C61.5017 79.3678 61.5008 79.1794 61.3357 78.5126L61.2978 78.3627L61.4327 78.29Z" fill="#647133"/>
<path d="M67.9477 79.5913C68.2601 80.6989 68.4281 80.9587 69.2362 81.7831C68.6997 81.8174 67.6646 81.4896 67.1054 81.3305C67.4005 80.7963 67.6379 80.4613 67.6804 79.8526L67.9477 79.5913Z" fill="#A97948"/>
<path d="M58.9021 80.8322C59.7339 80.5931 59.9309 80.6163 60.7934 80.9365C60.133 81.2007 59.6309 81.4231 58.9933 81.7374L59.0298 82.134L58.8761 82.2728L57.9345 82.0325C58.0291 81.8073 58.0471 81.8635 58.3413 81.7261C58.4842 81.4509 58.7281 81.1007 58.9021 80.8322Z" fill="#7D5C36"/>
<path d="M59.5754 78.4448C60.1454 78.4734 60.6797 78.61 61.096 79.0092C61.2828 79.4928 61.2723 79.2744 61.0366 79.8704L60.6805 80.0492C60.2337 79.7734 59.869 78.9548 59.5754 78.4448Z" fill="#C18F51"/>
<path d="M52.9506 77.8609C52.1246 77.7221 51.4378 77.3302 51.945 76.363C54.4581 71.5715 62.5728 68.8859 67.2057 71.6635C64.5625 71.6902 61.4234 71.92 59.2959 73.7924L59.2503 73.9199C60.0741 73.7437 60.6934 73.107 61.3039 72.8761C62.6137 72.381 65.6501 71.6495 66.9235 72.0521C66.4821 72.4097 65.8648 72.6799 65.3398 73.0485C63.7609 74.1576 61.8921 76.3881 61.4318 78.2912L61.2968 78.3638C59.2245 77.2746 57.147 77.6289 55.0993 78.4521C54.4198 78.304 53.5606 78.1549 52.9506 77.8609Z" fill="#99BD3D"/>
<path d="M65.4334 73.7369C66.5074 72.7281 67.562 71.9744 69.1046 72.0022C71.146 72.0391 73.5051 74.6004 74.0381 76.395C74.2758 77.3617 74.4027 78.2287 74.5553 79.2093C74.767 79.5971 74.8653 79.5224 74.8244 79.8758C74.3655 79.9564 74.5103 80.0013 74.1852 79.8007C74.1917 79.4966 74.2042 79.3436 74.151 79.0373L73.7388 78.9215C72.668 78.8196 69.6824 78.1235 68.6553 77.8292C68.3672 77.9029 68.1395 77.946 67.8466 77.9978L67.764 78.0935C66.0262 78.0675 66.2014 78.4586 64.8463 78.8623C64.2322 78.9072 63.789 78.9706 63.2096 78.76C62.5085 78.0757 63.5271 77.0484 63.4103 75.7795C63.897 75.1639 64.7718 74.1409 65.4334 73.7369Z" fill="#A3C442"/>
<path d="M65.4334 73.7373C65.3085 74.137 64.9701 74.2793 64.7211 74.7248C64.276 75.5212 63.9976 76.2538 63.6903 77.1005C65.6548 78.7435 66.6089 77.3416 67.8466 77.9982L67.764 78.094C66.0262 78.068 66.2014 78.459 64.8463 78.8627C64.2322 78.9076 63.789 78.971 63.2096 78.7604C62.5085 78.0762 63.5271 77.0489 63.4103 75.7799C63.897 75.1643 64.7718 74.1414 65.4334 73.7373Z" fill="#90B43C"/>
<path d="M41.1549 77.7174C41.7282 77.6241 46.8624 77.9066 47.2198 78.0986C47.3602 78.1742 47.4955 78.4451 47.6719 78.5556C47.6733 78.0525 47.7212 77.696 47.7825 77.2036C47.9675 78.9059 48.133 80.7325 48.409 82.4128C50.2071 82.2271 50.9883 83.1089 52.6954 82.6937L53.0652 82.8725C52.5362 83.1708 51.6343 83.6129 51.2947 84.0635C51.3261 84.6724 52.1828 84.807 52.7009 85.0232L52.7238 85.2525C52.3153 85.3848 51.8875 85.2074 51.4475 85.0917C50.9738 84.8699 50.8972 84.8112 50.4989 84.4696L50.0542 84.6629C48.4086 84.6424 47.9392 84.4113 47.2692 82.8719C46.539 83.0805 45.7555 83.0317 45.0046 83.1379C44.4643 83.1385 44.0869 83.0071 43.5735 82.863C42.272 82.28 41.2675 81.6035 40.2821 81.1671C39.345 80.3593 38.4853 80.2964 37.3045 80.2461V80.1632L38.0418 80.0261L38.6248 79.6668C38.9184 79.2141 39.1698 78.6999 39.6233 78.46C40.0776 78.4837 39.9182 78.454 40.333 78.8836L40.7948 78.7586L40.6664 77.9286L41.1549 77.7174Z" fill="#87653D"/>
<path d="M41.154 77.7174C41.7274 77.6241 46.8616 77.9066 47.219 78.0986C47.3593 78.1742 47.4946 78.4451 47.671 78.5556C47.6724 78.0525 47.7204 77.696 47.7816 77.2036C47.9666 78.9059 48.1321 80.7325 48.4081 82.4128C47.9588 82.5487 48.1068 82.5781 47.778 82.4039C47.7019 82.0814 47.6523 81.8256 47.598 81.4987L47.5032 81.8634C47.1701 81.9126 45.6265 81.0034 45.0762 80.8286C43.9317 80.465 41.2505 81.2616 40.7335 80.0253C40.791 79.5324 40.9594 79.4099 41.2981 79.0493L40.7939 78.7586L40.6655 77.9286L41.154 77.7174Z" fill="#C18F51"/>
<path d="M41.1544 77.7174C41.7277 77.6241 46.8619 77.9066 47.2193 78.0986C47.3597 78.1742 47.495 78.4451 47.6713 78.5556C47.6728 78.0525 47.7207 77.696 47.7819 77.2036C47.967 78.9059 48.1324 80.7325 48.4084 82.4128C47.9591 82.5487 48.1072 82.5781 47.7783 82.4039C47.7022 82.0814 47.6526 81.8256 47.5983 81.4987C47.4109 80.0828 47.9771 79.2677 46.5958 78.5325C46.0283 78.2329 45.0344 78.6085 44.5842 79.0097L44.4645 79.1777C43.431 78.196 42.5963 77.8841 41.1544 77.7174Z" fill="#647133"/>
<path d="M41.154 77.7173C42.596 77.8839 43.4307 78.1959 44.4642 79.1776L44.5839 79.0095C44.7368 79.4914 44.798 79.6952 45.0346 80.1516L42.6278 80.1587C42.2522 79.7455 41.8107 79.2497 41.2981 79.0491L40.7939 78.7584L40.6655 77.9284L41.154 77.7173Z" fill="#D8A766"/>
<path d="M44.5833 79.0087C45.0335 78.6076 46.0274 78.232 46.5949 78.5316C47.046 79.2906 47.4016 79.8491 46.5767 80.4672C46.0583 80.5566 45.4797 80.4187 45.034 80.1509C44.7974 79.6945 44.7362 79.4906 44.5833 79.0087Z" fill="#D2A360"/>
<path d="M47.2676 82.872C48.8165 82.7294 49.4801 83.3395 50.4973 84.4697L50.0525 84.663C48.407 84.6425 47.9375 84.4114 47.2676 82.872Z" fill="#EACA90"/>
<path d="M38.624 79.6663C38.9177 79.2135 39.169 78.6993 39.6225 78.4595C40.0769 78.4831 39.9174 78.4535 40.3322 78.883C40.2378 79.4588 40.3262 79.4991 39.973 79.888C39.467 79.9243 39.1145 79.7947 38.624 79.6663Z" fill="#C18F51"/>
<path d="M41.8718 81.3003C43.3804 81.1021 45.7814 81.0914 46.6566 82.6274C45.839 82.6125 42.0712 82.2106 41.8718 81.3003Z" fill="#F0D8B6"/>
<path d="M57.0213 33.7487C58.1596 33.6561 60.5577 32.5181 61.7247 32.021C59.2474 34.8 55.2781 38.5871 51.4405 38.6301C50.7446 38.638 49.2836 38.8278 48.748 38.5157C48.6729 38.0889 48.7782 37.8198 49.0464 37.426L48.7747 37.4124L48.7588 36.9822C48.5561 37.0859 48.3794 37.2037 48.1644 37.2396C47.8769 36.6666 47.5048 36.1355 47.151 35.5998C46.7818 35.4805 46.8586 35.4608 46.5591 35.1142C47.2327 34.3919 47.7123 33.9319 48.5917 33.478L49.1151 33.2418C50.0011 34.1881 50.2632 34.0264 50.4246 35.3947C51.7425 34.423 54.0172 33.6315 55.662 33.5223C56.2286 33.466 56.5498 33.357 57.0213 33.7487Z" fill="#84AA38"/>
<path d="M48.5917 33.4784L49.1151 33.2422C50.0011 34.1885 50.2632 34.0267 50.4246 35.3951L50.2477 35.3428L49.7827 34.3823C49.7787 35.8733 49.7373 35.8019 48.7588 36.9826C48.5561 37.0863 48.3794 37.204 48.1644 37.24C47.8769 36.6669 47.5048 36.1359 47.151 35.6002C46.7818 35.4808 46.8586 35.4612 46.5591 35.1146C47.2327 34.3923 47.7123 33.9323 48.5917 33.4784Z" fill="#A3C442"/>
<path d="M48.5917 33.4784L49.1151 33.2422C50.0011 34.1885 50.2632 34.0267 50.4246 35.3951L50.2477 35.3428L49.7827 34.3823C48.5392 33.6426 47.8106 34.6051 47.151 35.6002C46.7818 35.4808 46.8586 35.4612 46.5591 35.1146C47.2327 34.3923 47.7123 33.9323 48.5917 33.4784Z" fill="#825446"/>
<path d="M55.66 33.5218C56.2267 33.4654 56.5479 33.3564 57.0194 33.7481C53.5351 34.4162 51.7622 34.9279 49.0445 37.4255L48.7728 37.4118L48.7568 36.9816C49.7353 35.8009 49.7767 35.8723 49.7807 34.3813L50.2458 35.3418L50.4227 35.3941C51.7406 34.4224 54.0152 33.631 55.66 33.5218Z" fill="#647133"/>
<path d="M37.9254 29.8677C41.0574 32.423 45.22 33.1047 47.4272 37.2378C47.627 37.6389 47.7416 37.7661 47.4105 38.0986C46.2208 38.1115 45.3838 36.4111 43.7219 37.3301C43.1092 36.9858 42.9737 36.8875 42.4499 36.418C40.9573 35.0594 40.129 34.1284 39.1563 32.2933C38.6008 31.552 37.8981 30.7958 37.9254 29.8677Z" fill="url(#paint5_linear_138_4216)"/>
<path d="M39.1559 32.2934C40.3125 32.18 44.933 35.477 45.2836 36.8412C44.3386 36.8348 43.513 36.4902 42.4495 36.418C40.9569 35.0595 40.1286 34.1285 39.1559 32.2934Z" fill="#90B43C"/>
<path d="M19.1868 68.986C21.714 67.9292 25.3221 67.3465 27.644 69.1853C27.2412 69.3357 27.1863 69.333 26.7574 69.2854C27.2125 69.656 27.7155 69.9885 27.981 70.492L27.8815 70.6405L27.4124 70.7202L27.9175 71.0522C27.7192 71.3275 26.3633 71.6271 25.9839 71.6979C24.1472 72.0408 20.5328 71.1187 19.3021 69.6726L19.3613 69.4309L19.1868 68.986Z" fill="#90B43C"/>
<path d="M19.1868 68.986C21.714 67.9292 25.3221 67.3465 27.644 69.1853C27.2412 69.3357 27.1863 69.333 26.7574 69.2854C24.3409 68.2824 21.7723 68.5949 19.3613 69.4309L19.1868 68.986Z" fill="#698237"/>
<path d="M31.7571 49.4114C32.2157 49.3906 34.8652 50.8139 35.5453 51.1113C38.1973 52.2707 41.3901 52.5223 43.5644 54.5284C45.8356 56.4101 45.4419 57.9992 46.784 59.9122C46.9806 59.6827 46.9525 59.2122 46.7943 58.9641C46.9607 58.5375 47.1365 58.3391 47.0043 58.0001C46.2092 57.765 45.0818 55.4066 44.6394 54.6004C44.5306 54.7545 44.5293 54.7759 44.3517 54.8595C44.2068 54.7604 44.007 54.6391 43.8884 54.5197L44.3917 54.6384L44.4728 54.2657L44.5867 54.2108C45.445 55.4376 46.1422 56.8072 46.8493 58.1291C46.9601 56.3254 46.6777 54.5468 46.831 52.7469L47.0798 52.7749L47.2957 52.5609C46.8911 59.4342 47.8062 66.7514 48.0944 73.6133C47.6497 72.866 47.5954 71.3559 47.6263 70.4954C47.5865 71.0797 47.5307 71.663 47.4595 72.2444C46.9547 67.1697 47.6019 62.392 45.5164 57.6303C43.2374 52.4269 38.6635 52.9947 34.2412 50.824C33.5654 50.4924 32.2967 49.8887 31.7571 49.4114Z" fill="#84AA38"/>
<path d="M46.3668 39.1631C47.5289 39.4749 48.2887 39.6633 49.5198 39.7378C49.2837 40.2106 48.971 40.6635 48.6811 41.1074L48.3575 49.2722C47.9939 47.9767 47.9854 45.1852 47.9696 43.7754C48.067 43.3873 47.9985 41.9919 47.7738 41.6049C47.5508 41.9298 47.585 42.4167 47.5634 42.8373C46.9515 44.3877 47.3796 45.5715 47.1166 46.1551L47.0467 46.1227L46.9025 46.3369C47.0125 44.0567 47.4417 41.1036 46.3668 39.1631Z" fill="#84AA38"/>
<path d="M70.9515 70.1402C70.9207 69.0918 71.1066 67.9296 72.3196 67.6763C72.8364 67.8085 73.0772 67.9659 73.1393 68.5499C73.174 68.8773 72.7171 70.6161 72.5991 70.8434C72.5433 70.8815 72.3661 70.9377 72.2934 70.964L72.1739 70.5394C71.6378 70.2856 72.0957 70.7315 71.4704 70.8385C71.3215 70.5632 71.22 70.3206 70.9515 70.1402Z" fill="#84AA38"/>
<path d="M48.1621 37.2399C48.3772 37.2039 48.5539 37.0862 48.7565 36.9824L48.7725 37.4127L48.616 37.8911C47.3879 39.0554 45.0038 37.9732 43.7209 37.3304C45.3828 36.4114 46.2199 38.1118 47.4096 38.0989C47.7406 37.7664 47.626 37.6392 47.4263 37.2381C47.6663 37.3974 47.6671 37.3811 47.9536 37.4396L48.1621 37.2399Z" fill="#84AA38"/>
<path d="M61.936 78.5811C62.3334 77.3743 62.6507 76.7914 63.4103 75.7788C63.5271 77.0478 62.5085 78.0751 63.2096 78.7593C63.789 78.9699 64.2323 78.9065 64.8463 78.8616L64.653 79.2288L64.0436 79.3676C63.421 79.1763 62.2602 78.9786 61.936 78.5811Z" fill="#84AA38"/>
<path d="M38.0401 80.0265C38.2034 78.9076 38.4385 78.8367 39.0104 77.9339C38.9805 77.5084 38.9332 77.6017 38.5255 77.2018L38.6361 77.0712C39.1248 77.0736 38.9312 77.0234 39.3691 77.2883C39.4417 77.6417 39.4316 77.7425 39.6923 77.9947C40.0158 77.9651 40.3401 77.9431 40.6647 77.929L40.7931 78.759L40.3312 78.884C39.9164 78.4544 40.0759 78.4841 39.6215 78.4604C39.1681 78.7003 38.9167 79.2145 38.623 79.6672L38.0401 80.0265Z" fill="#647133"/>
<path d="M34.8556 77.2329L35.2755 77.2693C35.9354 77.7324 36.1448 78.471 36.425 79.2161L35.5388 79.501L34.9582 77.8708L34.8556 77.2329Z" fill="#C18F51"/>
<path d="M40.1993 72.6941C41.5576 72.5193 45.7992 73.454 45.3297 75.2684C44.7386 75.8581 43.8516 75.7404 42.9995 75.754C41.8383 75.5849 37.7371 74.3841 37.5739 73.1222C38.3224 72.9236 39.4093 72.8046 40.1993 72.6941Z" fill="#84AA38"/>
<path d="M31.5058 65.439C34.8016 65.603 36.2713 65.8727 36.0843 69.5409C35.7374 69.1951 35.5289 68.9048 35.0671 68.7885C35.2002 69.0436 35.1828 69.0385 35.1991 69.3303C33.7574 69.8156 29.0332 66.6859 31.5058 65.439Z" fill="#99BD3D"/>
<path d="M66.9972 67.4022C66.456 66.7572 65.7955 66.1022 66.2499 65.2051C67.3056 64.6461 69.0557 65.9168 69.6312 66.8213C69.8045 67.0935 69.7896 67.8341 69.7326 68.1562L69.6131 68.1644C68.3836 68.433 67.9527 68.1461 66.9972 67.4022Z" fill="#90B43C"/>
<path d="M66.9968 67.4003C68.0661 67.4054 67.6093 67.4164 68.5135 66.9766C68.9044 67.1199 69.3286 67.7891 69.6126 68.1625C68.3831 68.431 67.9522 68.1441 66.9968 67.4003Z" fill="#84AA38"/>
<path d="M75.4634 68.9819C76.6289 68.9023 77.4293 68.9025 78.4283 69.5383C78.6462 69.9302 78.6253 69.7318 78.5106 70.151C78.1622 70.5765 77.6481 70.73 77.1369 70.9392C76.0527 71.0418 75.0061 71.0809 74.1103 70.3737C73.828 69.5328 74.8109 69.2665 75.4634 68.9819Z" fill="#90B43C"/>
<path d="M38.0016 74.4707C38.6027 74.7943 39.2727 75.3765 39.9782 75.665C40.6688 75.9473 41.2769 76.0293 41.9328 76.3612L41.5002 76.6025C41.3036 76.7045 41.0756 76.8227 40.8159 76.9574C39.1552 76.4744 39.8189 76.1317 38.1461 76.6532C38.0849 75.9381 38.0479 75.1897 38.0016 74.4707Z" fill="#FEFDFE"/>
<path d="M36.6942 67.27C37.7744 67.4951 38.7589 68.0271 37.9358 69.1556C37.3551 69.3419 37.1126 69.5063 36.6174 69.1571C36.3677 68.6156 36.5614 67.8514 36.6942 67.27Z" fill="#90B43C"/>
<defs>
<linearGradient id="paint0_linear_138_4216" x1="46.3315" y1="19.5237" x2="55.7931" y2="4.97402" gradientUnits="userSpaceOnUse">
<stop stop-color="#FA6B69"/>
<stop offset="1" stop-color="#FF9695"/>
</linearGradient>
<linearGradient id="paint1_linear_138_4216" x1="39.9371" y1="30.8373" x2="40.4741" y2="11.3129" gradientUnits="userSpaceOnUse">
<stop stop-color="#FCB7B9"/>
<stop offset="1" stop-color="#FDD8E6"/>
</linearGradient>
<linearGradient id="paint2_linear_138_4216" x1="47.975" y1="83.9656" x2="49.172" y2="86.4034" gradientUnits="userSpaceOnUse">
<stop stop-color="#D7A360"/>
<stop offset="1" stop-color="#E6C281"/>
</linearGradient>
<linearGradient id="paint3_linear_138_4216" x1="55.5688" y1="83.5411" x2="65.8432" y2="37.6699" gradientUnits="userSpaceOnUse">
<stop stop-color="#699837"/>
<stop offset="1" stop-color="#A7C73F"/>
</linearGradient>
<linearGradient id="paint4_linear_138_4216" x1="69.8711" y1="79.7006" x2="70.4489" y2="79.0842" gradientUnits="userSpaceOnUse">
<stop stop-color="#6E9133"/>
<stop offset="1" stop-color="#94B836"/>
</linearGradient>
<linearGradient id="paint5_linear_138_4216" x1="42.344" y1="36.491" x2="43.6116" y2="32.1321" gradientUnits="userSpaceOnUse">
<stop stop-color="#89A83A"/>
<stop offset="1" stop-color="#ACCE41"/>
</linearGradient>
</defs>
</svg>
