<svg width="96" height="96" viewBox="0 0 96 96" fill="none" xmlns="http://www.w3.org/2000/svg">
<path d="M34.0112 49.0971C34.2301 49.0286 34.4971 48.9449 34.8121 48.8462C35.8154 47.3833 36.5436 45.5768 37.5818 44.1301C41.6632 38.4422 49.2462 32.3792 56.478 32.0146C60.1543 31.8456 63.7467 33.1464 66.4638 35.6302C68.3064 37.314 68.9248 39.0072 69.0478 41.4438L68.9412 42.7499C68.4102 44.6858 68.0169 45.4263 66.8505 47.0898C70.6272 45.9248 72.4515 46.2822 75.4646 48.8821C76.4777 48.7868 77.1464 48.7003 78.1371 48.3673C79.6183 48.8033 80.1551 48.7874 80.8018 50.314C80.8431 50.4808 80.8747 50.8486 81.0797 50.8833C83.0122 51.2108 85.6938 50.6951 86.6047 52.9716L86.8212 53.1745C87.9834 52.9928 96.1003 55.0791 93.4833 57.3673C91.4401 59.1539 86.6063 60.3917 83.8882 61.2031C80.2039 62.3028 75.9581 62.5316 72.1671 62.9594C66.7595 63.5964 61.4841 64.0716 56.0285 64.2515C49.9425 64.4774 43.849 64.4154 37.7688 64.0654C33.8087 63.8226 29.9357 63.2805 25.9748 63.1498C20.0942 62.956 14.2266 61.6945 8.52972 60.291C6.42742 59.7632 1.93419 58.9471 1 56.7897C1.03207 55.1417 4.56797 54.3359 5.90453 53.9152C7.45815 53.3221 8.70627 53.2137 10.2739 52.7344C14.0241 51.0034 12.6665 49.9016 17.5522 51.0965C17.9017 50.5732 19.2358 49.7977 19.814 49.4375L19.3444 48.9509C18.7091 48.8085 17.5747 48.2494 17.3393 47.6004C17.4092 47.1563 17.3809 47.3001 17.7501 46.9135C18.9346 46.4771 19.5209 46.8929 20.5495 47.4719C20.7294 47.5612 21.086 47.7504 21.2569 47.8182C24.2651 45.0002 28.0817 46.1342 30.6538 48.9022L31.0929 49.3797C31.5093 49.4841 32.1585 49.6649 32.5592 49.7272L32.5181 49.3448L32.9889 49.09L33.3678 49.0393L33.8723 49.2262L34.0112 49.0971Z" fill="#F3DCBD"/>
<path d="M34.0116 49.0971C34.2304 49.0286 34.4974 48.9449 34.8125 48.8462C35.8158 47.3832 36.544 45.5768 37.5822 44.1301C41.6636 38.4422 49.2465 32.3792 56.4784 32.0146C60.1546 31.8456 63.747 33.1464 66.4641 35.6302C68.3067 37.314 68.9252 39.0072 69.0482 41.4438L68.9415 42.7499C68.4106 44.6858 68.0173 45.4263 66.8508 47.0898C66.5228 47.3892 66.4187 47.4529 66.2859 47.8695C66.0702 48.7779 65.363 48.9158 65.4106 49.7968C65.2555 50.4065 65.3853 50.2295 64.9748 50.5684L65.3301 50.9214L65.2898 50.9832L64.399 52.5098L64.4501 52.6825L63.9777 52.7442C63.8317 53.4565 63.4138 53.3925 63.2247 53.8551L63.2956 54.1568L62.6928 54.1049L62.6272 54.0353L61.2442 53.6694C60.4444 53.5826 59.8747 53.7028 59.0842 53.855L58.8822 53.8227L58.3588 53.3365C55.5357 51.4533 51.4024 51.5209 48.8805 53.8718L48.8144 53.8834C48.5663 53.8694 48.6551 53.8861 48.4258 53.7845C48.5294 53.4031 49.0958 52.9933 49.4282 52.7022C47.7296 52.7766 45.8535 52.7142 44.1836 52.3906C42.4826 52.3099 39.418 51.7386 37.8257 51.1958C36.9012 51.1407 36.1864 50.8631 35.365 50.6958L35.199 50.663L35.0882 50.4161C35.072 50.8638 35.0124 50.6984 35.2916 51.0138C35.6186 51.1 35.7802 51.1351 36.1152 51.181C35.2117 51.8992 34.5706 50.9884 34.075 51.3056L34.1081 51.1448C34.0891 51.2679 34.0616 51.3934 34.0616 51.5148L33.576 51.5221L33.1883 51.1799C33.098 50.821 32.734 50.0985 32.5596 49.7272L32.5184 49.3448L32.9893 49.09L33.3681 49.0393L33.8727 49.2262L34.0116 49.0971Z" fill="url(#paint0_linear_138_3734)"/>
<path d="M38.9722 43.1856C40.5196 41.31 41.7126 40.1463 43.5046 38.5132C49.7069 32.861 60.281 29.4646 66.6474 36.8602C65.5428 36.8811 64.2738 36.5981 62.9607 36.6338C55.9457 36.505 47.1417 41.0148 41.5995 45.1447C41.2023 44.8175 40.3425 45.4846 39.0711 45.1417C38.4113 44.5769 38.6089 43.8989 38.9722 43.1856Z" fill="url(#paint1_linear_138_3734)"/>
<path d="M34.0116 49.0971C34.2304 49.0286 34.4974 48.9449 34.8125 48.8462C35.8158 47.3832 36.544 45.5768 37.5822 44.1301C41.6636 38.4422 49.2465 32.3792 56.4784 32.0146C60.1546 31.8456 63.747 33.1464 66.4641 35.6302C68.3067 37.314 68.9252 39.0072 69.0482 41.4438L68.9415 42.7499C68.4106 44.6858 68.0173 45.4263 66.8508 47.0898C66.5228 47.3892 66.4187 47.4529 66.2859 47.8695C66.0702 48.7779 65.363 48.9158 65.4106 49.7968C65.2555 50.4065 65.3853 50.2295 64.9748 50.5684L65.3301 50.9214L65.2898 50.9832L64.399 52.5098L64.4501 52.6825L63.9777 52.7442C63.8317 53.4565 63.4138 53.3925 63.2247 53.8551L63.2956 54.1568L62.6928 54.1049L62.6272 54.0353L61.2442 53.6694C60.4444 53.5826 59.8747 53.7028 59.0842 53.855L58.8822 53.8227L58.3588 53.3365C55.5357 51.4533 51.4024 51.5209 48.8805 53.8718L48.8144 53.8834C48.5663 53.8694 48.6551 53.8861 48.4258 53.7845C48.5294 53.4031 49.0958 52.9933 49.4282 52.7022C52.447 50.7573 55.0739 51.1878 58.2891 52.2366C60.4254 51.3878 62.1971 50.6023 63.9638 49.1009C66.8252 47.2476 69.0731 42.9752 68.2076 39.5746C67.9892 38.7167 67.4352 37.6676 66.6681 37.1976L66.6475 36.8604C60.2811 29.4647 49.7069 32.8611 43.5047 38.5133C41.7127 40.1464 40.5196 41.3101 38.9723 43.1857C38.6089 43.899 38.4114 44.577 39.0711 45.1418C40.3426 45.4847 41.2024 44.8177 41.5996 45.1448C40.6925 46.0937 38.3264 47.678 37.1381 48.6778L37.0343 48.7349C36.4936 49.0384 35.6113 49.7651 35.5243 50.3977L35.4638 50.3488C35.4576 50.097 35.54 49.5731 35.5022 49.4224C35.2423 49.8058 35.2169 49.9786 35.0882 50.4161C35.072 50.8638 35.0124 50.6984 35.2916 51.0138C35.6186 51.1 35.7802 51.1351 36.1152 51.181C35.2117 51.8992 34.5706 50.9884 34.075 51.3056L34.1081 51.1448C34.0891 51.2679 34.0616 51.3934 34.0616 51.5148L33.576 51.5221L33.1883 51.1799C33.098 50.821 32.734 50.0985 32.5596 49.7272L32.5184 49.3448L32.9893 49.09L33.3681 49.0393L33.8727 49.2262L34.0116 49.0971Z" fill="#623D23"/>
<path d="M62.3968 50.9814C63.5917 50.4008 63.5972 50.4127 64.9754 50.5685L65.3307 50.9215L65.2903 50.9833L64.3996 52.5099L64.4507 52.6826L63.9782 52.7443C63.8323 53.4566 63.4143 53.3926 63.2252 53.8552L63.2961 54.1569L62.6934 54.105L62.6278 54.0354L61.2448 53.6695C60.445 53.5827 59.8753 53.7029 59.0848 53.8551L58.8828 53.8228L58.3594 53.3366L58.9304 52.7868C59.5911 52.3895 60.2401 51.9698 60.956 51.6854C61.3694 51.42 61.9369 51.1879 62.3968 50.9814Z" fill="#9A643C"/>
<path d="M62.3961 50.9814C63.591 50.4008 63.5964 50.4127 64.9746 50.5685L65.3299 50.9215L65.2896 50.9833L64.3988 52.5099L64.4499 52.6826L63.9775 52.7443L63.4494 52.6391C62.9178 52.6735 62.6103 52.7031 62.2051 52.411C62.1339 51.7157 62.5265 51.7276 62.3961 50.9814Z" fill="#B78052"/>
<path d="M63.4489 52.6387C63.155 52.419 62.9178 52.2516 62.948 51.8802C63.4489 51.4371 64.6263 51.0686 65.289 50.9829L64.3983 52.5095L64.4494 52.6822L63.977 52.7439L63.4489 52.6387Z" fill="#CF9C66"/>
<path d="M58.3594 53.3364L58.9304 52.7866C59.1835 52.8424 60.5635 53.0549 60.5832 53.0637C61.16 53.1998 62.4157 53.3987 62.8433 53.672L62.8615 53.8279L62.6278 54.0352L61.2448 53.6693C60.445 53.5825 59.8753 53.7027 59.0848 53.8549L58.8828 53.8226L58.3594 53.3364Z" fill="#784D2C"/>
<path d="M60.9554 51.6855C61.3774 51.8562 61.2389 51.8704 61.6191 51.7828L61.5001 51.7355L61.776 51.8035C61.6634 52.1359 60.8798 52.7896 60.5826 53.0639C60.5629 53.0552 59.1829 52.8426 58.9298 52.7869C59.5906 52.3896 60.2396 51.9699 60.9554 51.6855Z" fill="#895430"/>
<path d="M35.5023 49.4227C35.954 47.6768 37.6825 44.4579 38.9724 43.186C38.6091 43.8994 38.4115 44.5773 39.0713 45.1422C40.3427 45.485 41.2025 44.818 41.5998 45.1451C40.6927 46.094 38.3265 47.6783 37.1383 48.6781L37.0344 48.7352C36.4937 49.0387 35.6114 49.7654 35.5245 50.3981L35.464 50.3491C35.4577 50.0974 35.5402 49.5734 35.5023 49.4227Z" fill="#9A643C"/>
<path d="M33.3681 49.0391L33.8727 49.226C33.7355 50.2438 34.0621 50.7545 33.5908 51.4599C33.5859 51.4806 33.5809 51.5011 33.576 51.5218L33.1883 51.1796C33.098 50.8207 32.734 50.0982 32.5596 49.7269L32.5184 49.3446L32.9893 49.0897L33.3681 49.0391Z" fill="#5D7D22"/>
<path d="M66.2859 47.8696C66.0702 48.778 65.363 48.9159 65.4106 49.797C64.8558 50.3357 64.8996 50.3345 64.1833 50.1676L64.1373 49.9612C64.4537 49.4508 65.7296 48.3946 66.2859 47.8696Z" fill="#9A643C"/>
<path d="M44.184 52.391C45.5805 52.3432 48.7189 51.4334 50.2781 51.2076C53.4255 50.7521 56.5812 50.3788 59.7279 49.9271C60.8823 49.7614 62.9185 49.0755 63.9641 49.1013C62.1974 50.6027 60.4257 51.3882 58.2894 52.237C55.0742 51.1882 52.4473 50.7577 49.4285 52.7026C47.7299 52.777 45.8538 52.7147 44.184 52.391Z" fill="#895430"/>
<path d="M41.5992 45.1454C47.1413 41.0155 55.9453 36.5057 62.9604 36.6345L62.3803 36.9949C57.0707 37.4607 53.2533 39.0637 48.5106 41.4836C44.1334 43.7169 41.4555 46.0048 37.7998 49.1468C37.3828 49.3876 36.5584 50.4129 35.9337 50.5055L35.854 50.3323C35.9598 49.8509 36.7484 49.1124 37.1377 48.6784C38.3259 47.6786 40.6921 46.0943 41.5992 45.1454Z" fill="#784D2C"/>
<path d="M35.5023 49.4228C35.5402 49.5735 35.4577 50.0975 35.464 50.3492L35.5245 50.3982C35.6114 49.7655 36.4937 49.0388 37.0344 48.7353L37.1383 48.6782C36.749 49.1122 35.9604 49.8507 35.8546 50.3322L35.9343 50.5053C36.559 50.4127 37.3834 49.3874 37.8003 49.1466C39.8611 50.2209 41.1382 50.2581 43.425 50.5315C40.9044 50.8138 39.8692 50.9656 37.3014 50.8684L37.2692 50.9631L37.8258 51.1962C36.9014 51.1411 36.1866 50.8636 35.3651 50.6962L35.1991 50.6635L35.0884 50.4165C35.217 49.9791 35.2424 49.8062 35.5023 49.4228Z" fill="#895430"/>
<path d="M62.9611 36.6345C64.2742 36.5987 65.5431 36.8817 66.6477 36.8609L66.6684 37.1981C65.246 37.026 63.8131 36.958 62.381 36.9949L62.9611 36.6345Z" fill="#9A643C"/>
<path d="M63.6413 44.4126C64.2616 44.9997 62.7123 45.7963 62.2811 46.0717L62.1418 45.9665L62.1393 45.7362C62.4883 45.2381 63.1432 44.7928 63.6413 44.4126Z" fill="#784D2C"/>
<path d="M21.2573 47.8187C24.2655 45.0007 28.0821 46.1347 30.6543 48.9027L31.0933 49.3802C31.5098 49.4846 32.159 49.6654 32.5597 49.7277C32.7341 50.099 33.0981 50.8215 33.1884 51.1804L33.576 51.5226L34.0617 51.5153C34.0617 51.3939 34.0892 51.2684 34.1082 51.1453L34.0751 51.3061C34.5707 50.9888 35.2118 51.8997 36.1152 51.1815C35.7803 51.1356 35.6186 51.1005 35.2916 51.0143C35.0124 50.6989 35.0721 50.8643 35.0883 50.4166L35.1991 50.6635L35.365 50.6963C36.1865 50.8636 36.9013 51.1412 37.8257 51.1963C39.418 51.7391 42.4826 52.3103 44.1837 52.3911C45.8536 52.7147 47.7297 52.7771 49.4283 52.7027C49.0959 52.9938 48.5295 53.4036 48.4258 53.785C48.6551 53.8866 48.5664 53.8699 48.8145 53.8839L48.8806 53.8723C51.4025 51.5214 55.5358 51.4538 58.3589 53.337L58.8823 53.8232L59.0843 53.8555C59.8748 53.7033 60.4445 53.5831 61.2443 53.6699L62.6273 54.0357L62.6929 54.1054L63.2957 54.1573L63.2247 53.8556C63.4139 53.393 63.8318 53.457 63.9777 52.7447L64.4502 52.683C65.1083 52.9207 65.5315 53.0723 66.149 53.3919C66.1405 54.4353 65.7119 54.6991 65.7815 55.7969L65.9301 56.0713L66.3723 56.7823C66.733 56.7777 66.8426 56.7636 67.1886 56.8455C66.7891 57.9981 66.7253 57.8774 66.03 58.8649C65.7894 59.3575 65.3649 59.49 64.8997 59.7576L64.857 59.9721L65.2151 60.2291C65.1685 60.5271 65.0958 60.4876 64.7769 60.7453C63.0923 60.714 60.9062 61.3587 59.2312 61.6034C57.189 61.9016 50.4038 62.7735 49.0307 61.1786C48.7208 60.4497 48.2633 59.6163 47.4687 59.4448L46.8676 59.23C46.3874 59.6876 45.3698 59.8206 44.5605 60.2428C43.0169 60.8813 41.7566 60.1051 40.4554 59.3434C39.9841 59.4301 39.5584 59.4787 39.138 59.7144C38.0636 59.5836 37.1099 59.5796 36.2513 58.9149C35.2292 57.0244 35.8549 56.3422 33.5056 56.6976C33.2923 58.9266 33.4552 59.6463 30.9846 59.8272C30.4427 59.9799 29.8644 60.1317 29.3296 60.2958C28.9894 60.3737 28.1316 60.1137 27.7277 60.074C26.511 59.9541 25.2791 60.0764 24.0693 59.9516C23.9129 59.9354 23.1584 59.1934 23.0067 59.0472C21.4169 58.7455 19.217 58.2654 17.7193 57.681C17.1156 57.4455 16.719 56.9422 16.2815 56.4573C16.8327 55.8407 17.1858 55.2666 17.5055 54.5121C17.0593 54.3847 16.629 54.2172 16.1933 54.0569C14.3046 54.7025 13.0986 54.8682 11.1052 54.3341C10.995 54.0099 11.0123 54.1816 11.1274 53.8015L11.0752 53.3624C10.7873 53.3857 10.4999 53.4145 10.213 53.4493L10.0295 53.2594L10.2744 52.7349C14.0245 51.0039 12.667 49.902 17.5526 51.097C17.9021 50.5737 19.2362 49.7982 19.8145 49.4379L19.3448 48.9514C18.7095 48.8089 17.5751 48.2499 17.3397 47.6009C17.4096 47.1568 17.3814 47.3006 17.7505 46.914C18.935 46.4776 19.5214 46.8934 20.5499 47.4724C20.7298 47.5617 21.0864 47.7509 21.2573 47.8187Z" fill="#E0B17A"/>
<path d="M21.2573 47.8187C24.2655 45.0007 28.0821 46.1347 30.6543 48.9027L31.0933 49.3802C31.5098 49.4846 32.1589 49.6654 32.5597 49.7277C32.7341 50.099 33.0981 50.8215 33.1884 51.1804C32.4717 51.1863 32.3129 51.1867 31.6261 51.3693L31.4412 51.3177C30.8611 51.3784 30.1396 51.4333 29.5837 51.5638C28.7307 51.4946 28.5864 51.4748 27.7715 51.1991C27.3341 51.3246 27.2103 51.3593 26.7585 51.387C27.5791 51.7452 27.9038 51.9076 28.5997 52.4738L29.2939 52.985C29.0355 53.4469 28.7108 54.1461 28.1985 54.3384C27.7297 55.1644 25.3006 55.569 24.3608 55.6268C23.94 55.8832 24.0797 55.8979 23.8349 56.1594C23.5058 56.5112 22.194 57.1673 21.7574 57.2279L20.9859 56.6111C20.2754 56.3184 19.5711 56.0107 18.8737 55.6882C18.8163 55.5699 18.756 55.4533 18.6925 55.3382C18.348 54.7193 18.1734 54.6988 17.5055 54.5121C17.0593 54.3847 16.629 54.2172 16.1933 54.0569C14.3046 54.7025 13.0986 54.8682 11.1052 54.3341C10.995 54.0099 11.0123 54.1816 11.1274 53.8015L11.0752 53.3624C10.7873 53.3857 10.4999 53.4145 10.213 53.4493L10.0295 53.2594L10.2744 52.7349C14.0245 51.0039 12.667 49.902 17.5526 51.097C17.9021 50.5737 19.2362 49.7982 19.8145 49.4379L19.3448 48.9514C18.7095 48.8089 17.5751 48.2499 17.3397 47.6009C17.4096 47.1568 17.3814 47.3006 17.7505 46.914C18.935 46.4776 19.5214 46.8934 20.5499 47.4724C20.7298 47.5617 21.0864 47.7509 21.2573 47.8187Z" fill="#784D2C"/>
<path d="M22.1514 47.6292C24.6213 46.4546 27.6848 46.4027 29.6475 48.544C30.1769 49.0394 30.4703 49.4828 30.8224 50.1221C31.0266 50.3523 31.0486 50.3597 31.1876 50.648C31.3142 50.907 31.3911 51.0276 31.4402 51.3172C30.8601 51.3779 30.1387 51.4328 29.5827 51.5633C28.7297 51.4942 28.5854 51.4743 27.7706 51.1986C27.0655 50.9437 26.0979 50.4327 25.4815 50.0231C25.093 49.7767 24.6646 49.5328 24.2662 49.2969C23.3992 48.7101 22.8822 48.3932 22.1514 47.6292Z" fill="#9FBB3F"/>
<path d="M27.2819 50.0528C28.0625 49.4291 28.2951 49.4597 29.2998 49.4272C29.7429 49.701 30.3286 50.1393 30.8234 50.1224C31.0275 50.3526 31.0495 50.3601 31.1886 50.6484C31.3152 50.9074 31.3921 51.0279 31.4412 51.3175C30.8611 51.3782 30.1396 51.4331 29.5837 51.5636C28.7307 51.4945 28.5864 51.4747 27.7715 51.199C27.0665 50.9441 26.0989 50.433 25.4824 50.0235C25.9099 50.0263 26.902 50.007 27.2819 50.0528Z" fill="#5D7D22"/>
<path d="M27.2809 50.0528C28.0615 49.4291 28.2941 49.4597 29.2989 49.4272C29.7419 49.701 30.3276 50.1393 30.8224 50.1224C31.0266 50.3526 31.0486 50.3601 31.1876 50.6484C30.4786 50.6766 30.084 50.7408 29.4572 50.354C28.7581 49.9223 28.241 50.1836 27.4209 50.0725L27.2809 50.0528Z" fill="#6F8F28"/>
<path d="M24.2665 49.2967C24.3634 49.2939 24.4604 49.2892 24.5571 49.283C25.3147 49.2338 25.4344 48.9573 25.9621 48.3662C26.4789 48.1551 29.1571 49.1685 29.9896 49.3336C29.7832 49.0522 29.7551 48.8819 29.6478 48.5438C30.1771 49.0392 30.4705 49.4826 30.8227 50.1218C30.3279 50.1387 29.7422 49.7004 29.2991 49.4267C28.2944 49.4591 28.0617 49.4285 27.2811 50.0522C26.9012 50.0064 25.9092 50.0257 25.4817 50.0229C25.0932 49.7765 24.6649 49.5325 24.2665 49.2967Z" fill="#8AA933"/>
<path d="M20.0002 52.2572C22.1485 50.702 24.3019 50.5791 26.758 51.3862C27.5786 51.7444 27.9032 51.9068 28.5992 52.473C27.0041 53.8741 21.4005 54.4417 20.0002 52.2572Z" fill="#ECCA9E"/>
<path d="M10.2744 52.7344C14.0245 51.0034 12.667 49.9015 17.5526 51.0965L17.4566 51.3297L16.9228 51.4791L17.8345 51.7093L17.22 52.1397C15.3586 53.1969 14.5383 53.5152 12.4487 54.0536C11.8445 54.3513 11.6561 54.1242 11.1274 53.801L11.0752 53.3619C10.7873 53.3852 10.4999 53.414 10.213 53.4488L10.0295 53.2589L10.2744 52.7344Z" fill="#CF9C66"/>
<path d="M10.2744 52.7344C14.0245 51.0034 12.667 49.9015 17.5526 51.0965L17.4566 51.3297L16.9228 51.4791C15.735 51.2948 15.1177 51.1996 13.9131 51.2864C11.558 52.0618 12.1618 52.7025 11.0752 53.3619C10.7873 53.3852 10.4999 53.414 10.213 53.4488L10.0295 53.2589L10.2744 52.7344Z" fill="#784D2C"/>
<path d="M13.9123 51.2861L14.3657 51.4054C14.5643 51.9429 14.1751 52.0375 14.2664 52.689C13.4296 53.0008 12.7412 53.1376 12.4479 54.0534C11.8437 54.3511 11.6553 54.124 11.1266 53.8008L11.0743 53.3617C12.1609 52.7022 11.5572 52.0615 13.9123 51.2861Z" fill="#ECCA9E"/>
<path d="M13.913 51.2864C15.1176 51.1995 15.7349 51.2948 16.9227 51.479L17.8344 51.7093L17.2199 52.1396C16.1095 52.2124 15.2727 52.1909 14.2671 52.6892C14.1758 52.0377 14.565 51.9431 14.3664 51.4056L13.913 51.2864Z" fill="#EBC38F"/>
<path d="M17.751 46.9134C18.9355 46.477 19.5219 46.8928 20.5504 47.4718C20.7303 47.5611 21.0869 47.7503 21.2578 47.8182C21.8029 48.0272 22.0146 48.2558 22.3279 48.7564C21.6063 49.3967 20.7045 49.2258 20.3169 49.783C20.1253 49.5695 20.0968 49.504 19.815 49.4374L19.3453 48.9508C18.71 48.8084 17.5756 48.2493 17.3402 47.6003C17.4101 47.1562 17.3819 47.3 17.751 46.9134Z" fill="#9FBB3F"/>
<path d="M20.5494 47.4717C20.7292 47.561 21.0858 47.7502 21.2567 47.818C21.8018 48.0271 22.0136 48.2556 22.3268 48.7563C21.6052 49.3965 20.7035 49.2257 20.3158 49.7829C20.1242 49.5694 20.0958 49.5039 19.8139 49.4372L19.3442 48.9506L19.4502 48.7417C19.6357 48.9124 19.7374 48.9723 19.944 49.1053C20.5309 49.0542 20.6487 48.9538 20.8562 48.451C20.7854 48.0272 20.8345 48.1754 20.3727 47.8377L20.5494 47.4717Z" fill="#5B602D"/>
<path d="M19.3453 48.9509C18.71 48.8085 17.5756 48.2495 17.3402 47.6005C17.4101 47.1564 17.3819 47.3001 17.751 46.9136C17.839 47.0069 18.0489 47.2124 18.1015 47.3105C18.6307 48.0093 18.7718 48.2066 19.4513 48.742L19.3453 48.9509Z" fill="#695D31"/>
<path d="M17.75 46.9134C18.9345 46.477 19.5208 46.8928 20.5494 47.4718L20.3727 47.8378C20.0138 47.6754 19.6498 47.5249 19.281 47.3865C18.8804 47.2394 18.4959 47.1298 18.1005 47.3104C18.0479 47.2123 17.8379 47.0067 17.75 46.9134Z" fill="#695D31"/>
<path d="M20.0009 52.2573C21.4011 54.4419 27.0047 53.8742 28.5998 52.4732L29.294 52.9844C29.0356 53.4463 28.7109 54.1455 28.1986 54.3378L26.8336 54.829C25.4268 54.1977 21.0441 53.6668 19.2001 53.3648C19.4606 52.991 19.7276 52.6219 20.0009 52.2573Z" fill="#E0B17A"/>
<path d="M19.2001 53.3652C21.0441 53.6672 25.4268 54.1982 26.8336 54.8295C25.2668 55.3004 19.2495 55.839 19.2001 53.3652Z" fill="#C08A59"/>
<path d="M16.1932 54.0564C16.771 53.6834 17.0005 53.4352 17.4919 52.9473C18.5053 53.8558 19.3393 54.7891 20.5797 55.3012C20.7078 55.8051 20.8072 56.1222 20.9859 56.6106C20.2753 56.3178 19.5711 56.0102 18.8736 55.6877C18.8163 55.5694 18.7559 55.4528 18.6925 55.3377C18.3479 54.7188 18.1734 54.6983 17.5055 54.5116C17.0593 54.3842 16.629 54.2167 16.1932 54.0564Z" fill="#CF9C66"/>
<path d="M22.3265 48.7568C23.2704 49.4333 23.9573 49.8957 24.9566 50.4831C24.1119 50.5163 21.5093 50.9061 21.1736 50.7378C20.8777 50.3441 20.6565 50.1268 20.3154 49.7834C20.7031 49.2262 21.6049 49.3971 22.3265 48.7568Z" fill="#B78052"/>
<path d="M19.8145 49.4375C20.0964 49.5042 20.1248 49.5696 20.3164 49.7832C20.6575 50.1265 20.8786 50.3439 21.1746 50.7375C20.7927 51.4998 19.2386 51.9373 18.5537 51.1386C18.3898 51.5031 18.3889 51.5833 18.0602 51.7638L17.8346 51.7094L16.9229 51.4791L17.4567 51.3298L17.5527 51.0966C17.9022 50.5733 19.2363 49.7977 19.8145 49.4375Z" fill="url(#paint2_linear_138_3734)"/>
<path d="M19.8145 49.4375C20.0964 49.5042 20.1248 49.5696 20.3164 49.7832C19.8058 50.3402 19.2343 49.8887 18.5537 51.1386C18.3898 51.5031 18.3889 51.5833 18.0602 51.7638L17.8346 51.7094L16.9229 51.4791L17.4567 51.3298L17.5527 51.0966C17.9022 50.5733 19.2363 49.7977 19.8145 49.4375Z" fill="#623D23"/>
<path d="M20.5797 55.3018C21.9875 55.6613 22.9263 55.6261 24.3608 55.6269C23.94 55.8833 24.0797 55.898 23.8349 56.1595C23.5058 56.5113 22.194 57.1674 21.7574 57.2279L20.9859 56.6112C20.8072 56.1228 20.7078 55.8057 20.5797 55.3018Z" fill="#C08A59"/>
<path d="M34.0617 51.5152C34.0617 51.3938 34.0891 51.2683 34.1081 51.1452L34.075 51.306C34.5707 50.9888 35.2117 51.8996 36.1152 51.1815C35.7803 51.1355 35.6186 51.1004 35.2916 51.0142C35.0124 50.6988 35.0721 50.8642 35.0883 50.4165L35.199 50.6634L35.365 50.6962C36.1864 50.8636 36.9012 51.1411 37.8257 51.1962C39.418 51.739 42.4826 52.3103 44.1837 52.391C45.8535 52.7147 47.7296 52.777 49.4282 52.7026C49.0958 52.9937 48.5294 53.4035 48.4258 53.7849C48.6551 53.8865 48.5663 53.8698 48.8144 53.8838L48.647 54.2249L48.2332 55.0211C48.5124 55.8987 48.8462 55.7563 49.6686 56.0103L49.4977 56.305C48.8257 56.1995 48.2372 56.1588 47.5853 56.4208C47.1046 56.2526 47.0256 56.2157 46.522 56.2548C45.996 56.5756 45.915 56.9701 45.4386 57.2192C44.8803 57.5109 43.7446 57.7306 43.2338 58.0114C41.793 57.4694 39.8176 58.4338 38.1844 57.5839C36.8267 56.8773 37.1815 56.3264 36.405 55.2506C36.1167 55.1051 35.872 54.9816 35.6712 54.8802L35.5564 54.8411C35.0018 53.4611 33.7714 53.491 32.4475 53.2209C31.7375 53.0307 31.029 52.8349 30.3219 52.6335L29.2938 52.9849L28.5997 52.4737C27.9037 51.9075 27.579 51.7451 26.7584 51.3869C27.2102 51.3593 27.334 51.3245 27.7715 51.199C28.5863 51.4747 28.7306 51.4945 29.5836 51.5637C30.1396 51.4332 30.861 51.3783 31.4411 51.3176L31.6261 51.3692C32.3128 51.1866 32.4717 51.1862 33.1883 51.1803L33.576 51.5225L34.0617 51.5152Z" fill="#784D2C"/>
<path d="M38.1643 54.5807C38.836 54.218 39.3346 54.1528 40.0856 54.0396C40.4127 54.7092 41.1388 54.7946 41.7683 55.1411C42.9772 55.8065 43.4509 56.3925 44.882 56.3637C45.1819 56.3552 45.653 56.2793 45.9651 56.2396C45.6697 56.7958 45.7393 56.6673 45.0582 56.9308C44.1092 57.2982 40.6171 57.7469 39.6749 57.5056C38.4493 57.4558 37.8568 56.8948 37.0504 56.0727C37.0822 55.6917 37.0932 55.6445 37.2693 55.3057C37.4961 55.0845 37.9038 54.7852 38.1643 54.5807Z" fill="#CF9C66"/>
<path d="M38.1658 54.5807C38.8374 54.218 39.336 54.1528 40.0871 54.0396C40.4142 54.7092 41.1403 54.7946 41.7698 55.1411C42.9787 55.8065 43.4523 56.3925 44.8835 56.3637C43.8392 56.6179 40.4132 56.5674 39.4372 56.1174C38.5233 55.5708 38.4453 55.5759 38.1658 54.5807Z" fill="#EBC38F"/>
<path d="M37.0504 56.0726C38.2308 56.0503 38.4921 56.1378 39.1787 57.193C39.2026 57.2299 39.5582 57.394 39.6749 57.5054C38.4493 57.4557 37.8568 56.8946 37.0504 56.0726Z" fill="#B78052"/>
<path d="M37.2695 55.3055C37.4963 55.0844 37.904 54.785 38.1645 54.5806C38.4441 55.5757 38.5221 55.5706 39.436 56.1172C38.5413 56.105 37.9415 55.895 37.2695 55.3055Z" fill="#E0B17A"/>
<path d="M33.1883 51.1797L33.576 51.5219L34.0617 51.5146L34.185 51.6095L34.0729 51.9953C33.714 52.4036 33.8996 52.2781 33.3225 52.4329C33.8988 52.592 34.4285 52.8925 34.9623 53.1666L35.5615 53.2754C35.765 53.9183 35.6088 54.2089 35.7383 54.6743L35.6712 54.8796L35.5564 54.8405C35.0018 53.4605 33.7714 53.4904 32.4475 53.2203C31.7375 53.0301 31.029 52.8343 30.3219 52.6328L29.2938 52.9843L28.5997 52.4731C27.9037 51.9069 27.579 51.7445 26.7584 51.3863C27.2102 51.3586 27.334 51.3239 27.7715 51.1984C28.5863 51.4741 28.7306 51.4939 29.5836 51.5631C30.1396 51.4326 30.861 51.3777 31.4411 51.317L31.6261 51.3686C32.3128 51.186 32.4717 51.1856 33.1883 51.1797Z" fill="#784D2C"/>
<path d="M33.1884 51.1797L33.5761 51.5219L34.0618 51.5146L34.1851 51.6095L34.073 51.9953C33.7141 52.4036 33.8998 52.2781 33.3226 52.4329C33.8989 52.592 34.4286 52.8925 34.9624 53.1666C34.1727 53.1643 29.7962 52.2819 29.4335 51.7582L29.5837 51.5631C30.1397 51.4326 30.8611 51.3777 31.4412 51.317L31.6262 51.3686C32.3129 51.186 32.4718 51.1856 33.1884 51.1797Z" fill="#9A643C"/>
<path d="M33.1875 51.1797L33.5751 51.5219L34.0608 51.5146L34.1841 51.6095L34.072 51.9953C33.7132 52.4036 33.8988 52.2781 33.3217 52.4329C32.2605 52.5348 32.1205 52.2177 31.6252 51.3686C32.312 51.186 32.4708 51.1856 33.1875 51.1797Z" fill="#CF9C66"/>
<path d="M40.29 53.9168C42.2999 53.7886 43.4377 53.9021 45.0375 55.2133C45.3873 55.5398 45.7491 55.822 45.9654 56.2398C45.6533 56.2795 45.1821 56.3554 44.8822 56.3638C43.4511 56.3926 42.9775 55.8066 41.7685 55.1412C41.139 54.7947 40.413 54.7094 40.0858 54.0397L40.29 53.9168Z" fill="#ECCA9E"/>
<path d="M34.1854 51.6099C36.0459 51.6338 37.2732 51.5664 38.7593 52.8288L39.2989 53.3381C38.5091 53.6012 36.4628 53.3541 35.562 53.2757L34.9627 53.1669C34.4289 52.8928 33.8993 52.5923 33.323 52.4332C33.9001 52.2784 33.7145 52.4039 34.0734 51.9956L34.1854 51.6099Z" fill="#ECCA9E"/>
<path d="M34.0734 51.9956C35.5914 52.7832 37.0376 53.1775 38.7593 52.8289L39.2989 53.3381C38.5091 53.6013 36.4628 53.3542 35.562 53.2758L34.9627 53.1669C34.4289 52.8929 33.8993 52.5923 33.323 52.4332C33.9001 52.2784 33.7145 52.404 34.0734 51.9956Z" fill="#CF9C66"/>
<path d="M40.2903 53.9166L39.9552 53.6807C41.748 53.016 44.1079 53.8896 45.9935 54.0831C46.904 54.1766 47.7362 54.2004 48.6466 54.2249L48.2328 55.0211C46.532 54.1678 46.3887 55.0328 45.0378 55.2131C43.438 53.9019 42.3002 53.7884 40.2903 53.9166Z" fill="#623D23"/>
<path d="M35.5613 53.2754C36.4621 53.3538 38.5083 53.6009 39.2982 53.3377L39.4306 53.5544C38.5773 54.2474 36.8802 54.7393 35.738 54.6743C35.6086 54.2089 35.7648 53.9183 35.5613 53.2754Z" fill="#B78052"/>
<path d="M48.8799 53.8728C51.4018 51.5219 55.5351 51.4543 58.3582 53.3374L58.8816 53.8237L59.0836 53.856C59.0884 54.4472 58.8922 54.569 58.6609 55.0713C57.6146 57.3431 53.9081 55.9369 52.4228 56.9009L52.4532 56.691C51.3495 56.7712 50.5737 56.5347 49.497 56.3056L49.668 56.0109C48.8455 55.7568 48.5118 55.8992 48.2325 55.0216L48.6463 54.2254L48.8138 53.8844L48.8799 53.8728Z" fill="url(#paint3_linear_138_3734)"/>
<path d="M58.8816 53.8232L59.0836 53.8555C59.0884 54.4468 58.8922 54.5685 58.6609 55.0708C57.6146 57.3427 53.9081 55.9365 52.4228 56.9004L52.4532 56.6905C51.3495 56.7707 50.5737 56.5342 49.497 56.3051L49.668 56.0104C48.8455 55.7564 48.5118 55.8988 48.2325 55.0212L48.6463 54.225L48.8138 53.8839L48.8799 53.8724C49.2843 54.5192 50.5451 55.0657 51.2371 55.4937C51.8779 55.2522 51.9777 55.2096 52.6567 55.2188C53.4332 55.096 54.1995 55.4416 55.0655 55.2349L55.1356 55.0814C54.8299 54.7136 54.1468 54.6299 53.6502 54.5143C54.3649 54.5212 54.4369 54.7227 55.0336 54.9254C55.812 55.1901 57.6126 54.9651 58.3431 54.6216C58.7335 54.438 58.7574 54.1782 58.8816 53.8232Z" fill="#B78052"/>
<path d="M48.8138 53.8836L48.8799 53.8721C49.2843 54.5189 50.5451 55.0654 51.2371 55.4934C51.8779 55.252 51.9777 55.2093 52.6567 55.2185C53.3685 55.4584 55.1959 55.3188 55.6365 55.7635C54.0194 56.3416 52.033 55.9681 50.739 56.0592C50.4053 56.0837 50.0069 56.0371 49.668 56.0101C48.8455 55.7561 48.5118 55.8985 48.2325 55.0209L48.6463 54.2247L48.8138 53.8836Z" fill="#C08A59"/>
<path d="M48.4855 58.7695C49.0957 58.8241 49.2155 58.7035 49.6133 59.0019L49.6759 59.3203C50.2932 59.7263 50.5281 59.1673 50.7632 59.4693L50.7467 59.577C50.7029 59.8798 50.6536 59.9938 50.8016 60.2587C51.0414 60.3773 51.2525 60.4867 51.504 60.5826C53.9153 60.1264 54.6774 60.2068 57.0914 60.3067C59.3519 60.4002 62.6561 59.4099 64.7767 60.745C63.0922 60.7137 60.906 61.3584 59.2311 61.6031C57.1888 61.9013 50.4037 62.7732 49.0306 61.1783C48.7206 60.4494 48.2632 59.616 47.4685 59.4445C48.0698 59.3218 48.1432 59.3021 48.4855 58.7695Z" fill="#EBC38F"/>
<path d="M29.2945 52.9853L30.3226 52.6338C31.0297 52.8352 31.7382 53.0311 32.4482 53.2213C28.8646 53.4838 30.6106 54.839 29.7738 55.3901C28.5478 56.1975 23.6854 57.2205 22.0763 57.393C21.9749 57.3479 21.809 57.2968 21.7581 57.2281C22.1947 57.1676 23.5064 56.5115 23.8356 56.1597C24.0804 55.8982 23.9407 55.8835 24.3614 55.6271C25.3012 55.5692 27.7304 55.1647 28.1992 54.3387C28.7115 54.1463 29.0362 53.4472 29.2945 52.9853Z" fill="#CF9C66"/>
<path d="M35.5568 54.8408L35.6715 54.8798C35.8724 54.9812 36.117 55.1048 36.4053 55.2503C37.1818 56.3261 36.827 56.877 38.1848 57.5835C39.8179 58.4335 41.7934 57.4691 43.2341 58.0111C41.4699 59.2722 38.3769 59.2721 36.3628 58.5347C36.0793 57.3067 35.8107 56.0753 35.5568 54.8408Z" fill="#C08A59"/>
<path d="M63.9781 52.7448L64.4505 52.6831C65.1086 52.9208 65.5318 53.0724 66.1493 53.392C66.1409 54.4355 65.7122 54.6993 65.7818 55.797L65.9304 56.0714L66.3726 56.7824L66.0093 57.0933C64.6264 57.0995 64.0394 56.5694 63.7035 55.2586C63.3218 55.0076 63.0077 54.8317 62.7116 54.4773L62.6932 54.1055L63.296 54.1574L63.225 53.8557C63.4142 53.3931 63.8321 53.4571 63.9781 52.7448Z" fill="#CF9C66"/>
<path d="M63.9777 52.7448L64.4502 52.6831C65.1083 52.9208 65.5315 53.0724 66.149 53.392C66.1405 54.4355 65.7119 54.6993 65.7815 55.797C65.6929 55.4698 65.5186 55.269 65.3241 54.991C64.9987 54.951 64.8339 54.736 64.5411 54.5011C63.9252 54.4826 63.8364 54.4264 63.2957 54.1574L63.2247 53.8557C63.4139 53.3931 63.8318 53.4571 63.9777 52.7448Z" fill="#C08A59"/>
<path d="M63.2247 53.8555C63.5111 53.9861 64.3351 54.3419 64.5411 54.5008C63.9252 54.4823 63.8364 54.4261 63.2957 54.1572L63.2247 53.8555Z" fill="#9A643C"/>
<path d="M62.6932 54.1055L63.296 54.1574C63.8367 54.4263 63.9255 54.4826 64.5414 54.5011C64.8342 54.736 64.999 54.951 65.3244 54.991L65.1141 55.3079L65.2335 55.7214C64.7121 55.6422 64.205 55.4354 63.7035 55.2586C63.3218 55.0075 63.0077 54.8317 62.7116 54.4773L62.6932 54.1055Z" fill="#B78052"/>
<path d="M65.3234 54.9902C65.518 55.2683 65.6923 55.469 65.7809 55.7962L65.9295 56.0706L66.3717 56.7816L66.0083 57.0926C65.8176 56.8116 65.4195 56.0493 65.2325 55.7206L65.1132 55.3071L65.3234 54.9902Z" fill="#623D23"/>
<path d="M47.5856 56.4208C48.2374 56.1588 48.8259 56.1995 49.4979 56.305C50.5746 56.5341 51.3504 56.7706 52.4541 56.6904L52.4236 56.9003C51.6569 57.1598 51.829 56.9779 51.4423 57.5738C50.6806 57.9765 49.4442 57.4778 48.3189 57.417C48.1086 57.0346 47.8603 56.7577 47.5856 56.4208Z" fill="#CF9C66"/>
<path d="M61.2435 53.6694L62.6265 54.0353L62.6921 54.1049L62.7105 54.4767C62.1893 54.7387 60.8772 54.5105 60.545 53.9838L60.6409 53.7784L61.2435 53.6694Z" fill="#ECCA9E"/>
<path d="M46.8668 59.2295L46.7148 59.0415L46.8263 58.8104C47.373 58.4623 47.6373 58.4097 48.2799 58.4826L48.4849 58.7694C48.1425 59.302 48.0691 59.3217 47.4678 59.4444L46.8668 59.2295Z" fill="#E0B17A"/>
<path d="M29.3291 60.295C29.0841 60.2462 29.1023 60.2358 28.9291 60.0494C28.9732 59.7009 28.9013 59.8524 29.1884 59.5992C30.0079 59.3827 30.2185 59.4403 30.9841 59.8265C30.4422 59.9791 29.8639 60.131 29.3291 60.295Z" fill="#CF9C66"/>
<path d="M66.8503 47.09C70.6271 45.925 72.4513 46.2824 75.4645 48.8822C76.4776 48.787 77.1463 48.7004 78.137 48.3675C79.6182 48.8035 80.155 48.7876 80.8017 50.3142C80.843 50.4809 80.8746 50.8488 81.0796 50.8835C83.0121 51.211 85.6936 50.6953 86.6045 52.9718L86.8211 53.1747C86.5103 53.2246 85.3676 53.3014 85.261 53.5349L84.7275 54.0867C83.7456 55.0891 84.4898 55.1083 83.2933 56.0588L83.5836 56.4125C82.9012 56.4356 81.8311 56.3858 81.2755 56.7307L81.061 57.1028C80.3755 56.2871 77.398 57.3842 76.303 57.5449L75.1866 57.6592C75.1094 57.5256 75.0666 57.3398 75.02 57.1862C74.5016 56.8445 72.8392 57.2776 72.1014 57.3954C71.653 57.5694 71.1063 57.8077 70.6453 57.9012L69.4226 58.0639C68.6253 57.5911 68.0318 57.2461 67.1881 56.8451C66.8421 56.7633 66.7325 56.7773 66.3718 56.782L65.9295 56.0709L65.7809 55.7965C65.7113 54.6988 66.14 54.435 66.1484 53.3915C65.531 53.072 65.1078 52.9203 64.4496 52.6827L64.3986 52.51L65.2893 50.9834L65.3296 50.9215L64.9744 50.5686C65.3848 50.2297 65.2551 50.4067 65.4101 49.797C65.3625 48.916 66.0697 48.778 66.2855 47.8697C66.4182 47.453 66.5223 47.3894 66.8503 47.09Z" fill="url(#paint4_linear_138_3734)"/>
<path d="M65.3296 50.9214C66.0643 50.9193 66.7624 51.0134 67.3608 51.4919C67.4311 51.4705 67.5951 51.4305 67.6447 51.3928C68.3415 51.4995 68.7804 51.5706 69.4552 51.7606C70.0824 51.8971 70.9313 52.0549 71.5327 52.2227C72.0113 52.2294 72.5631 52.2196 73.0326 52.2745L73.1554 52.2264L73.368 52.2558C73.4664 52.8598 73.6852 53.146 73.7737 53.5856L73.2713 53.8501C73.2835 54.0307 73.2873 54.2354 73.3257 54.4084C73.5639 54.8528 73.5092 54.6534 73.4798 55.2081C73.2911 55.6443 72.9957 56.4014 72.7297 56.758L72.1014 57.3953C71.653 57.5693 71.1063 57.8076 70.6453 57.9011L69.4226 58.0638C68.6253 57.591 68.0318 57.2459 67.1881 56.845C66.8421 56.7632 66.7325 56.7772 66.3718 56.7818L65.9295 56.0708L65.7809 55.7964C65.7113 54.6987 66.14 54.4349 66.1484 53.3914C65.531 53.0719 65.1078 52.9202 64.4496 52.6825L64.3986 52.5099L65.2893 50.9833L65.3296 50.9214Z" fill="#ECCA9E"/>
<path d="M66.1488 53.3916C66.5578 53.7647 66.634 53.6997 66.6767 54.1494L66.6296 54.2495C66.4818 54.5694 66.4307 54.6278 66.4227 54.9661C67.4502 55.9446 70.6373 54.3494 71.6376 54.6646L71.9806 55.0232C72.4278 54.8155 72.8763 54.6107 73.3261 54.4086C73.5643 54.853 73.5096 54.6536 73.4802 55.2083C73.2915 55.6444 72.9961 56.4016 72.7301 56.7582L72.1018 57.3955C71.6534 57.5695 71.1067 57.8078 70.6457 57.9012L69.423 58.064C68.6257 57.5911 68.0322 57.2461 67.1885 56.8452C66.8425 56.7633 66.7329 56.7774 66.3722 56.782L65.9299 56.071L65.7813 55.7966C65.7117 54.6989 66.1404 54.4351 66.1488 53.3916Z" fill="#B78052"/>
<path d="M66.1488 53.3916C66.5578 53.7647 66.634 53.6997 66.6767 54.1494L66.6296 54.2495C66.4818 54.5694 66.4307 54.6278 66.4227 54.9661C67.4502 55.9446 70.6373 54.3494 71.6376 54.6646L71.9806 55.0232L71.3914 55.1615C69.2126 55.8317 68.2809 56.1874 65.9299 56.071L65.7813 55.7966C65.7117 54.6989 66.1404 54.4351 66.1488 53.3916Z" fill="#CF9C66"/>
<path d="M73.3257 54.4087C73.5639 54.8531 73.5092 54.6536 73.4797 55.2084C72.8899 55.253 71.8668 55.4087 71.391 55.1616L71.9802 55.0233C72.4273 54.8156 72.8758 54.6108 73.3257 54.4087Z" fill="#9A643C"/>
<path d="M70.6464 57.9015C70.5887 57.7512 70.6163 57.8092 70.6566 57.6061C71.1436 57.2732 72.1484 56.7006 72.7308 56.7585L72.1024 57.3957C71.6541 57.5697 71.1074 57.8081 70.6464 57.9015Z" fill="#895430"/>
<path d="M65.3296 50.9214C66.0643 50.9193 66.7624 51.0134 67.3608 51.4919C67.4311 51.4705 67.5951 51.4305 67.6447 51.3928C68.3415 51.4995 68.7804 51.5706 69.4552 51.7606C68.3282 52.1726 67.1233 52.5641 66.0641 53.1121C66.448 53.3906 66.7964 53.5684 66.9568 53.9941C66.9236 54.4313 66.7047 54.616 66.4223 54.966C66.4303 54.6276 66.4814 54.5692 66.6291 54.2493L66.6763 54.1493C66.6336 53.6996 66.5574 53.7646 66.1484 53.3914C65.531 53.0719 65.1078 52.9202 64.4496 52.6825L64.3986 52.5099L65.2893 50.9833L65.3296 50.9214Z" fill="#E0B17A"/>
<path d="M71.5336 52.2231C72.0122 52.2298 72.564 52.22 73.0335 52.2749L73.1563 52.2268L73.3689 52.2562C73.4672 52.8602 73.6861 53.1464 73.7746 53.586L73.2722 53.8505C72.7256 53.0189 72.3744 52.7445 71.5336 52.2231Z" fill="#C08A59"/>
<path d="M80.8026 50.3145C80.8439 50.4812 80.8755 50.849 81.0805 50.8837C83.013 51.2112 85.6946 50.6955 86.6055 52.972L86.822 53.1749C86.5112 53.2249 85.3686 53.3016 85.262 53.5352C84.607 53.2406 81.9115 53.5805 80.9698 53.628C80.2956 53.6328 79.9279 53.6447 79.2672 53.5327C79.2078 53.0694 79.2665 52.9149 79.3604 52.4647C79.09 52.2143 79.0883 52.2009 78.9868 51.8364C79.5186 51.6859 79.78 51.6145 80.0402 51.1631L80.1341 50.5771C80.1948 50.5804 80.709 50.3537 80.8026 50.3145Z" fill="#ECCA9E"/>
<path d="M80.8026 50.3145C80.8439 50.4812 80.8755 50.849 81.0805 50.8837C83.013 51.2112 85.6946 50.6955 86.6055 52.972C85.8996 52.884 85.6797 52.2833 84.9998 52.0466C83.6969 51.5933 82.0481 51.5549 80.6834 51.476C80.2616 51.8364 79.817 52.1517 79.3604 52.4647C79.09 52.2143 79.0883 52.2009 78.9868 51.8364C79.5186 51.6859 79.78 51.6145 80.0402 51.1631L80.1341 50.5771C80.1948 50.5804 80.709 50.3537 80.8026 50.3145Z" fill="#784D2C"/>
<path d="M66.8504 47.09C70.6272 45.925 72.4514 46.2824 75.4646 48.8822C76.4776 48.787 77.1463 48.7004 78.137 48.3675C79.6183 48.8035 80.155 48.7876 80.8017 50.3142C80.7082 50.3534 80.1939 50.5802 80.1332 50.5769L80.0393 51.1628C79.566 51.1963 78.6728 51.0912 78.1645 51.0461C77.6056 50.9295 77.3366 50.8994 76.9703 50.472C76.816 50.3087 76.6403 50.204 76.4546 50.0775C76.0921 50.0898 75.8838 49.925 75.559 49.7454C73.3223 47.766 72.4453 47.1108 69.3853 47.1869C68.0812 47.2498 67.5011 47.3943 66.2855 47.8697C66.4183 47.453 66.5224 47.3894 66.8504 47.09Z" fill="#623D23"/>
<path d="M76.4544 50.0772L76.2922 49.6732C76.9594 48.7941 79.6749 49.0528 80.133 50.5766L80.0391 51.1626C79.5658 51.196 78.6726 51.091 78.1642 51.0458C77.6053 50.9292 77.3364 50.8991 76.97 50.4717C76.8158 50.3085 76.6401 50.2038 76.4544 50.0772Z" fill="#ECCA9E"/>
<path d="M69.3858 47.187C72.4457 47.1109 73.3227 47.7661 75.5594 49.7455C73.9567 50.4421 70.5506 48.5138 69.3479 47.3832L69.3858 47.187Z" fill="#E0B17A"/>
<path d="M76.7025 56.4174C78.4543 56.175 80.1724 56.0619 81.9242 55.8338C82.9735 55.6972 83.1148 55.3376 83.5717 55.2642L83.6404 55.3507L83.2729 55.9214L83.293 56.0587L83.5833 56.4123C82.9009 56.4355 81.8308 56.3857 81.2752 56.7305L81.0608 57.1027C80.3752 56.287 77.3978 57.384 76.3027 57.5448C76.4289 57.2555 76.5922 56.733 76.7025 56.4174Z" fill="#ECCA9E"/>
<path d="M80.9685 53.6281C81.9103 53.5807 84.6057 53.2408 85.2607 53.5354L84.7272 54.0871C83.9759 54.2826 81.6112 54.3302 80.8318 54.1845C80.8715 54.0815 80.9389 53.7538 80.9685 53.6281Z" fill="#CF9C66"/>
<path d="M67.6456 51.3928L67.6473 51.1768C68.2566 51.0556 71.9602 51.4858 72.7515 51.737C72.9178 51.7898 72.9732 52.0913 73.0335 52.2746C72.564 52.2197 72.0122 52.2294 71.5336 52.2228C70.9322 52.0549 70.0833 51.8971 69.4561 51.7607C68.7813 51.5706 68.3424 51.4995 67.6456 51.3928Z" fill="#784D2C"/>
<path d="M78.1648 51.0459C78.6732 51.0911 79.5664 51.1961 80.0396 51.1627C79.7794 51.614 79.5181 51.6855 78.9863 51.836C78.5174 51.6679 78.3501 51.8625 77.7965 51.5763L77.8134 51.3458L78.1648 51.0459Z" fill="#E0B17A"/>
<path d="M73.1554 52.2266C73.1002 51.9019 73.0831 52.0565 73.2184 51.7479C73.7789 51.462 74.4084 51.4028 75.0323 51.3057C74.937 51.5319 74.7111 52.0271 74.6533 52.2391L73.368 52.256L73.1554 52.2266Z" fill="#9A643C"/>
<path d="M73.368 52.2561L74.6534 52.2393C74.4637 52.8104 74.3756 53.3472 73.7737 53.5859C73.6853 53.1463 73.4664 52.8601 73.368 52.2561Z" fill="#CF9C66"/>
<path d="M79.2665 53.5322C79.9273 53.6442 80.2949 53.6323 80.9691 53.6275C80.9395 53.7532 80.8721 54.0808 80.8324 54.1839C80.1164 54.1455 79.5472 54.1167 78.9028 53.7601L78.9099 53.5527L79.2665 53.5322Z" fill="#B78052"/>
<path d="M81.3992 55.0074C81.8915 54.9934 82.5984 54.9669 83.0441 55.1396L83.0491 55.2727L82.7047 55.4456C82.2994 55.5719 81.6713 55.7856 81.2881 55.6505C81.1704 55.3338 81.2119 55.4302 81.3992 55.0074Z" fill="#E0B17A"/>
<path d="M75.7949 54.3723C76.247 54.3744 77.1799 54.344 77.5203 54.5924L77.2918 54.7651C76.7787 54.9113 76.0913 55.2543 75.6979 54.8718L75.7949 54.3723Z" fill="#B78052"/>
<path d="M16.1923 54.0566C16.6281 54.2169 17.0584 54.3844 17.5046 54.5118C17.1849 55.2663 16.8318 55.8404 16.2806 56.457C16.718 56.9419 17.1146 57.4452 17.7183 57.6808C19.2161 58.2651 21.4159 58.7452 23.0057 59.0469C23.1575 59.1931 23.912 59.9351 24.0684 59.9513C25.2781 60.0762 26.5101 59.9538 27.7268 60.0737C28.1306 60.1134 28.9884 60.3734 29.3287 60.2955C29.8634 60.1314 30.4417 59.9796 30.9836 59.8269C33.4542 59.646 33.2914 58.9264 33.5046 56.6973C35.8539 56.3419 35.2282 57.0241 36.2503 58.9146C34.8784 58.3873 33.1882 59.7452 31.8456 60.0863C31.326 60.2182 29.5956 60.4926 29.3816 60.8998C28.4624 61.7311 24.5615 61.1512 23.4157 60.6602C22.564 60.295 21.5366 59.6418 20.6806 59.3498C19.6778 59.0076 18.4259 58.9503 17.387 58.6753C16.2713 58.4133 14.0584 58.609 13.0669 58.3188C12.8282 58.456 12.4668 58.6797 12.2301 58.7917C12.3336 58.241 12.5663 58.0794 12.954 57.6502L12.4192 57.2405C13.203 57.1586 14.0938 56.9133 14.2383 56.0391C13.829 54.6777 11.6533 54.9751 10.5622 55.0204L9.95288 54.5674C10.3412 54.4779 10.7136 54.4076 11.1043 54.3338C13.0976 54.8679 14.3036 54.7022 16.1923 54.0566Z" fill="#EBC38F"/>
<path d="M12.9541 57.6499L13.8496 57.9893L13.8563 58.0986L13.067 58.3186C12.8283 58.4557 12.467 58.6795 12.2302 58.7915C12.3337 58.2407 12.5665 58.0791 12.9541 57.6499Z" fill="#CF9C66"/>
<path d="M29.3824 60.8999C29.5965 60.4927 31.3269 60.2183 31.8464 60.0863C33.1891 59.7452 34.8793 58.3874 36.2512 58.9146C37.1099 59.5794 38.0636 59.5833 39.1379 59.7141L39.0125 59.7504C38.5364 59.8933 37.2752 60.5557 36.8095 60.8666C34.7654 62.2313 31.6897 61.7616 29.3824 60.8999Z" fill="#ECCA9E"/>
<path d="M67.1891 56.8452C68.0328 57.2461 68.6263 57.5911 69.4236 58.064L70.6463 57.9013C71.1073 57.8078 71.654 57.5695 72.1024 57.3955C72.8402 57.2777 74.5026 56.8446 75.021 57.1863C75.0676 57.3399 75.1104 57.5256 75.1876 57.6593C72.3601 58.102 69.6379 59.1164 66.7399 58.8159C66.488 58.7898 66.2782 58.8266 66.0304 58.8647C66.7257 57.8771 66.7895 57.9978 67.1891 56.8452Z" fill="#EBC38F"/>
<path d="M5.9043 53.9156C7.45792 53.3225 8.70603 53.2142 10.2737 52.7349L10.0289 53.2593L10.2124 53.4492C10.4992 53.4145 10.7867 53.3857 11.0745 53.3624L11.1267 53.8015C11.0117 54.1816 10.9943 54.0099 11.1046 54.3341C10.7139 54.4078 10.3415 54.4781 9.95317 54.5676L10.5625 55.0206C7.92873 55.0977 7.94146 55.9682 5.9043 53.9156Z" fill="#ECCA9E"/>
<path d="M9.95446 54.568L9.70235 54.4958C9.56597 54.0447 9.79791 53.7093 10.0302 53.2598L10.2137 53.4496C10.5005 53.4149 10.788 53.3861 11.0758 53.3628L11.128 53.8019C11.013 54.182 10.9956 54.0103 11.1059 54.3345C10.7152 54.4083 10.3428 54.4786 9.95446 54.568Z" fill="#E0B17A"/>
<path d="M81.2759 56.7308C81.8316 56.386 82.9016 56.4358 83.584 56.4126L83.992 56.8817C84.0006 57.5024 84.0897 57.401 83.8024 57.8631C82.8271 58.507 81.5715 58.1433 81.0615 57.103L81.2759 56.7308Z" fill="#E0B17A"/>
<path d="M81.2761 56.7308C81.8317 56.386 82.9018 56.4358 83.5842 56.4126L83.9922 56.8817C82.9665 57.092 82.2254 57.2707 81.2761 56.7308Z" fill="#B78052"/>
<path d="M46.8678 59.2295L47.4689 59.4443C48.2635 59.6159 48.721 60.4493 49.0309 61.1782C47.3984 60.3234 46.3515 60.3666 44.5607 60.2424C45.37 59.8201 46.3876 59.6871 46.8678 59.2295Z" fill="#ECCA9E"/>
<path d="M12.4195 57.2407L12.9543 57.6504C12.5666 58.0796 12.3338 58.2412 12.2304 58.792L11.8019 58.9013C11.0976 58.7509 10.8612 58.7066 10.2172 58.4044C10.6817 57.8424 11.7266 57.5073 12.4195 57.2407Z" fill="#CF9C66"/>
<path d="M10.2183 58.4038C10.8624 58.706 11.0988 58.7503 11.803 58.9006C11.7121 59.4054 11.8024 59.2897 11.5102 59.6431C10.9232 59.8236 10.2879 59.9064 9.91992 59.3305C10.012 58.9911 10.0986 58.7348 10.2183 58.4038Z" fill="#ECCA9E"/>
<path d="M73.9878 59.665C74.5415 59.7983 75.3183 59.9742 75.6631 60.4263C75.1635 60.4546 74.6051 60.5428 74.1685 60.3245C73.9148 59.9867 73.9797 60.1429 73.9878 59.665Z" fill="#ECCA9E"/>
<path d="M73.723 58.3087C74.1647 58.3001 74.6529 58.3835 74.9662 58.7096L74.9308 58.9759C74.3669 58.9433 74.047 58.9885 73.6638 58.6476L73.723 58.3087Z" fill="#ECCA9E"/>
<path d="M69.9135 59.9912C70.372 59.938 70.9225 59.8867 71.3119 60.1223L71.1109 60.3072C70.4994 60.3493 70.2407 60.37 69.6335 60.3072L69.5656 60.1815L69.9135 59.9912Z" fill="#ECCA9E"/>
<path d="M69.0478 41.4443C69.7081 40.8912 70.8416 40.295 71.4946 39.7365C73.6941 37.8558 74.6701 36.6849 77.8304 36.7716C78.577 36.995 79.3169 37.6311 78.9174 38.4222C77.5223 41.1843 74.2861 41.3436 71.7543 41.0173C70.6573 41.4736 69.8796 42.0359 68.9412 42.7504L69.0478 41.4443Z" fill="#9FBB3F"/>
<path d="M69.0478 41.4443C69.7081 40.8912 70.8416 40.295 71.4946 39.7365C73.6941 37.8558 74.6701 36.6849 77.8304 36.7716C78.1518 37.0782 78.5322 37.3452 78.5948 37.7511C77.1247 36.6141 74.7348 37.6761 73.4779 38.6908C72.9675 39.1452 72.4549 39.5677 72.6384 40.3256L72.4118 40.5444L71.7543 41.0173C70.6573 41.4736 69.8796 42.0359 68.9412 42.7504L69.0478 41.4443Z" fill="#5B602D"/>
<path d="M77.8304 36.771C78.5769 36.9944 79.3169 37.6305 78.9173 38.4216C77.5222 41.1837 74.2861 41.343 71.7543 41.0167L72.4117 40.5438C73.2059 40.6555 73.9597 40.7975 74.7565 40.6366C76.4758 40.2081 77.9096 39.46 78.5948 37.7505C78.5321 37.3446 78.1518 37.0776 77.8304 36.771Z" fill="#695D31"/>
<path d="M72.4117 40.5445L72.6384 40.3257C72.4549 39.5678 72.9675 39.1453 73.4778 38.6909C73.8358 39.0966 73.9247 39.1677 74.4451 39.348L74.5521 39.5285C74.3105 39.7521 73.768 40.1843 73.6977 40.4616C73.9634 40.6666 74.3567 40.6133 74.7565 40.6373C73.9597 40.7982 73.2059 40.6561 72.4117 40.5445Z" fill="#8AA933"/>
<path d="M32.5186 49.3451C31.7116 48.5202 30.5534 46.6681 30.6818 45.4826C31.1756 40.9238 34.8727 44.492 34.4179 47.2885C34.328 47.8424 34.0392 48.5004 34.0117 49.0973L33.8729 49.2265L33.3683 49.0396L32.9894 49.0902L32.5186 49.3451Z" fill="#9FBB3F"/>
<path d="M32.5186 49.3451C31.7116 48.5202 30.5534 46.6681 30.6818 45.4826C31.1756 40.9238 34.8727 44.492 34.4179 47.2885C34.328 47.8424 34.0392 48.5004 34.0117 49.0973L33.8729 49.2265L33.3683 49.0396L33.6728 48.2948C33.962 47.14 34.0706 46.0471 33.5236 44.9457C32.9192 43.7289 31.3459 43.7592 31.1533 45.1923C31.0101 46.2571 31.7455 47.6185 32.418 48.398L32.8387 48.8672L32.9894 49.0902L32.5186 49.3451Z" fill="#895430"/>
<path d="M32.9637 47.0269C33.1021 47.6843 33.1588 47.8105 33.6729 48.2948L33.3684 49.0395L32.9895 49.0902L32.8387 48.8672C32.8311 48.2291 32.8995 47.6613 32.9637 47.0269Z" fill="#8AA933"/>
<path d="M32.4178 48.3979C32.5327 48.2087 32.682 46.9116 32.7288 46.6017L32.8298 46.5425L32.9635 47.0268C32.8994 47.6612 32.831 48.229 32.8386 48.8671L32.4178 48.3979Z" fill="#6F8F28"/>
<defs>
<linearGradient id="paint0_linear_138_3734" x1="53.4669" y1="50.8416" x2="51.502" y2="38.7713" gradientUnits="userSpaceOnUse">
<stop stop-color="#8F5530"/>
<stop offset="1" stop-color="#C78B5C"/>
</linearGradient>
<linearGradient id="paint1_linear_138_3734" x1="43.7897" y1="49.2811" x2="60.5842" y2="31.2817" gradientUnits="userSpaceOnUse">
<stop stop-color="#AF7448"/>
<stop offset="1" stop-color="#CD9566"/>
</linearGradient>
<linearGradient id="paint2_linear_138_3734" x1="20.1583" y1="49.8575" x2="19.6542" y2="51.5308" gradientUnits="userSpaceOnUse">
<stop stop-color="#845935"/>
<stop offset="1" stop-color="#A56E42"/>
</linearGradient>
<linearGradient id="paint3_linear_138_3734" x1="52.8879" y1="55.9294" x2="54.8785" y2="51.7456" gradientUnits="userSpaceOnUse">
<stop stop-color="#DAA66D"/>
<stop offset="1" stop-color="#F1D2A5"/>
</linearGradient>
<linearGradient id="paint4_linear_138_3734" x1="68.6083" y1="45.7662" x2="80.499" y2="58.6166" gradientUnits="userSpaceOnUse">
<stop stop-color="#B06F43"/>
<stop offset="1" stop-color="#F4CF96"/>
</linearGradient>
</defs>
</svg>
