<svg width="96" height="96" viewBox="0 0 96 96" fill="none" xmlns="http://www.w3.org/2000/svg">
<path d="M28.8211 65.2159C32.656 61.7379 35.2143 64.1257 39.4389 64.5576C40.7774 64.6944 41.1918 64.7315 42.3377 65.4396C44.3394 65.1885 45.5696 65.9603 47.1702 64.7125C47.4319 64.5086 48.2379 64.4192 48.6062 64.3747L48.6208 64.6555C48.4176 65.6548 48.1899 66.649 47.9377 67.6372C47.8253 68.2957 47.6699 69.3894 47.4904 69.9927C47.9412 70.2143 48.0987 70.1952 48.6123 70.2423C49.2369 70.2718 51.2534 70.4077 51.7699 70.3523L52.1708 70.336L52.3789 70.0705C52.4579 70.1047 52.537 70.1391 52.616 70.1733C52.7101 69.8434 52.3698 70.2048 52.109 69.5029C52.3188 68.6189 52.4501 67.5104 52.5831 66.5961L52.762 65.6074L52.8695 64.9172C53.2816 65.1022 53.757 65.3014 54.1504 65.5123C56.1152 64.3908 57.9046 63.6034 60.284 64.1251C61.9019 64.4798 63.6044 66.6387 65.0607 65.7465C65.6695 65.4439 66.6825 64.4841 67.2514 64.2548C68.7534 63.6493 70.9876 63.3669 72.5872 63.7614C74.9821 64.3519 75.3407 65.7117 74.1701 67.7048C76.5397 67.7476 77.0891 68.2296 79.2505 68.7657C81.5655 69.3398 83.9554 68.3682 85.4893 70.9564L85.6559 71.0732C87.4416 71.5838 93.9093 72.8079 93.295 75.3332C92.8089 76.0321 92.572 75.9406 91.9949 76.8395C86.643 78.6273 82.2848 80.4657 76.5677 81.2663C74.2947 81.5848 71.9085 81.7924 69.6332 82.0331C56.7698 83.38 43.5676 83.3034 30.7107 81.9036C28.9018 81.6962 26.9117 81.8772 25.1204 81.6268C18.0668 80.6404 10.6714 79.5104 3.99185 76.9908C3.21759 76.6988 1.44095 75.2154 2.17404 74.352C3.16838 73.1807 5.84857 72.5036 7.26287 72.0322C8.6603 71.3881 10.3834 71.2277 12.0585 70.6219C13.0879 68.7363 15.9888 68.7657 17.4426 68.2065L17.8488 68.0545L18.0441 67.9814C18.9127 66.7341 19.5307 66.0369 21.0164 65.4781C22.7027 64.8538 24.5683 64.9288 26.199 65.6865L28.8211 65.2159Z" fill="#E5C289"/>
<path d="M7.26287 72.0323C8.6603 71.3883 10.3834 71.2278 12.0585 70.6221C11.8068 70.9617 11.353 71.5555 11.1871 71.9182C11.491 71.8105 12.017 71.3998 12.3023 71.1955C12.3011 71.6661 12.2887 71.8853 12.3733 72.3438C12.6904 72.6338 12.7334 72.6251 13.1653 72.7302L12.7462 73.2791C14.2428 73.324 14.6636 73.2327 16.033 73.817L16.2158 73.8955L16.2698 73.9732C16.5689 74.2498 16.5613 74.4747 16.6381 74.8805C17.6489 75.8349 18.8147 75.1008 18.8287 77.0097C19.6285 77.2242 21.9282 77.655 22.4946 77.9218C25.1918 79.1918 26.2957 80.1094 29.4171 79.6851C30.1477 79.5858 30.6377 79.8816 31.3915 79.4332C31.4202 79.4367 31.4486 79.4404 31.4772 79.4441C32.953 80.0879 34.7731 80.0721 36.5263 80.4171C37.4039 80.0183 39.105 79.7512 39.4315 78.8935C40.5495 78.508 41.4022 78.1574 42.4835 77.6919C45.9564 79.9934 47.0698 78.2865 50.5078 77.1883C50.7517 77.1103 52.1761 77.115 52.5296 77.1156C53.0725 77.3173 55.9657 78.4991 56.3628 78.5679C58.8238 78.9942 62.5563 78.785 65.085 78.4799C65.6863 78.4072 67.4008 77.6952 68.0719 77.528C68.9026 77.3212 69.6024 77.2763 70.4201 77.1533C70.8448 76.9502 71.2547 76.748 71.6283 76.4547C72.7608 75.5655 74.7182 75.2211 76.118 74.9433C78.5705 74.4232 81.3504 74.4218 82.8227 72.5351C83.1875 72.2984 83.4513 72.227 83.8626 72.0787C84.4371 71.7675 85.2633 71.4505 85.6559 71.0734C87.4416 71.5839 93.9093 72.808 93.295 75.3334C92.8089 76.0322 92.572 75.9408 91.9949 76.8396C86.643 78.6274 82.2848 80.4659 76.5677 81.2665C74.2947 81.5849 71.9085 81.7925 69.6332 82.0333C56.7698 83.3801 43.5676 83.3035 30.7107 81.9038C28.9018 81.6963 26.9117 81.8774 25.1204 81.6269C18.0668 80.6406 10.6714 79.5106 3.99185 76.991C3.21759 76.6989 1.44095 75.2156 2.17404 74.3522C3.16838 73.1808 5.84857 72.5038 7.26287 72.0323Z" fill="#F4E0C2"/>
<path d="M7.26404 72.0323C8.66147 71.3883 10.3846 71.2278 12.0597 70.6221C11.8079 70.9617 11.3542 71.5555 11.1883 71.9182C11.4921 71.8105 12.0181 71.3998 12.3035 71.1955C12.3022 71.6661 12.2899 71.8853 12.3745 72.3438C12.6915 72.6338 12.7346 72.6251 13.1665 72.7302L12.7473 73.2791L12.4498 73.2179C11.0664 73.138 10.5346 73.3769 9.22101 73.545C8.29564 73.6634 7.92343 72.7244 7.33198 72.1026L7.26404 72.0323Z" fill="#ECD2A8"/>
<path d="M11.1868 71.9181C11.4907 71.8103 12.0167 71.3996 12.302 71.1953C12.3008 71.6659 12.2884 71.8851 12.373 72.3436C12.6901 72.6336 12.7331 72.6249 13.165 72.73L12.7459 73.2789L12.4484 73.2177C12.0144 73.1221 11.5827 73.0169 11.1535 72.9022L10.9896 72.6161L11.1868 71.9181Z" fill="#E5C289"/>
<path d="M16.2705 73.9736C16.5696 74.2502 16.562 74.4752 16.6388 74.8809C17.6496 75.8354 18.8154 75.1013 18.8294 77.0102C17.6337 76.9513 15.1619 76.9066 14.0385 77.0798C14.3672 76.6568 14.6653 76.5863 15.1917 76.4951L15.0684 76.5532L15.3313 76.6333L15.3758 76.4947C14.7841 76.2385 14.8028 76.271 14.4811 75.6965L14.417 75.5804C15.4381 75.4898 15.7041 74.7697 16.2705 73.9736Z" fill="#ECD2A8"/>
<path d="M70.4198 77.1534C70.8445 76.9503 71.2544 76.7481 71.628 76.4548C72.7605 75.5656 74.7179 75.2212 76.1178 74.9434L76.996 75.365L76.8824 75.5757C75.359 75.877 71.5259 77.1188 70.4198 77.1534Z" fill="#ECD2A8"/>
<path d="M14.416 75.5801L14.48 75.6962C14.8018 76.2707 14.7831 76.2381 15.3747 76.4944L15.3303 76.633L15.0674 76.5529L15.1907 76.4948C14.6643 76.586 14.3662 76.6565 14.0374 77.0795C13.7533 77.2159 13.7541 77.2383 13.4451 77.2589C12.6289 77.2412 12.2109 77.2457 11.5826 76.7296C12.7161 75.9947 13.0851 75.8993 14.416 75.5801Z" fill="#E2BE8A"/>
<path d="M13.4466 77.2583L13.201 77.4427C13.0563 77.9875 13.0637 78.055 12.7174 78.4779L12.3572 78.4762C11.9098 78.1559 11.7301 78.0678 11.1981 77.929L11.2006 77.6031C11.5102 77.2594 11.5279 77.1887 11.5841 76.729C12.2124 77.2452 12.6303 77.2406 13.4466 77.2583Z" fill="#ECD2A8"/>
<path d="M80.0557 74.8031C80.7948 74.7361 81.7971 74.6152 82.4454 75.0059L82.4794 75.2706L82.1348 75.5804C81.5011 75.657 80.0425 75.8671 79.7389 75.2453L80.0557 74.8031Z" fill="#B0875D"/>
<path d="M72.8457 77.1694C73.0353 77.1985 73.215 77.2592 73.4005 77.3128C73.2438 77.8508 72.4938 78.4487 71.9819 78.6402C71.6323 78.5655 71.5419 78.5669 71.2401 78.3579C71.4616 78.2837 71.6823 78.2073 71.902 78.1282C72.6413 77.8586 72.5344 77.8318 72.8457 77.1694Z" fill="#ECD2A8"/>
<path d="M28.8218 65.2159C32.6567 61.7379 35.215 64.1257 39.4396 64.5576C40.7782 64.6944 41.1926 64.7315 42.3385 65.4396C44.3401 65.1885 45.5704 65.9603 47.171 64.7125C47.4326 64.5086 48.2386 64.4192 48.6069 64.3747L48.6215 64.6555C48.4183 65.6548 48.1906 66.649 47.9385 67.6372C47.8261 68.2957 47.6706 69.3894 47.4911 69.9927C47.942 70.2143 48.0994 70.1952 48.6131 70.2423C49.2377 70.2718 51.2542 70.4077 51.7707 70.3523L52.1715 70.336L52.3796 70.0705C52.4587 70.1047 52.5377 70.1391 52.6168 70.1733C52.7109 69.8434 52.3706 70.2048 52.1097 69.5029C52.3195 68.6189 52.4509 67.5104 52.5839 66.5961L52.7628 65.6074L52.8702 64.9172C53.2824 65.1022 53.7577 65.3014 54.1511 65.5123C56.1159 64.3908 57.9053 63.6034 60.2847 64.1251C61.9026 64.4798 63.6052 66.6387 65.0615 65.7465C65.6702 65.4439 66.6833 64.4841 67.2521 64.2548C68.7541 63.6493 70.9884 63.3669 72.588 63.7614C74.9828 64.3519 75.3414 65.7117 74.1709 67.7048C76.5404 67.7476 77.0899 68.2296 79.2513 68.7657C81.5663 69.3398 83.9562 68.3682 85.4901 70.9564L85.191 71.095C84.0548 70.0907 83.058 69.818 81.6027 69.6331C80.0994 69.3997 78.5727 69.4226 77.0672 69.1548C76.9468 69.1334 76.4523 69.4741 76.3432 69.5579C75.9889 68.8924 76.6798 69.1441 76.0241 68.541C75.3941 68.3688 75.2665 68.3281 74.5923 68.3369L74.4871 68.5295L74.8225 69.1573C73.8462 69.332 70.7195 69.2345 70.2263 69.6205L70.1316 69.5898C69.143 69.2751 66.7607 69.2551 65.6021 69.2022L65.5498 69.0718L65.7025 68.769C65.3106 68.283 64.2281 67.8731 63.6507 68.1336L63.7913 68.2304C64.1752 68.4968 64.3623 68.5771 64.5406 69.0045L64.4992 69.3398C63.3528 67.8566 61.8125 68.3841 61.8001 70.1999L61.9197 70.4071C62.2528 70.9183 62.5204 70.9729 63.1438 71.109C63.2399 71.1296 63.3365 71.149 63.4331 71.1669L63.5591 71.4081C63.4143 71.8089 63.3534 71.935 63.3071 72.3533C63.1103 72.31 62.4723 72.1576 62.2934 72.1615C61.2175 72.2322 60.4282 70.2703 59.6189 70.0934C56.581 69.4292 52.6911 69.6073 51.0388 72.7201C50.6279 73.4946 52.2899 73.3874 52.6536 74.075L52.4451 74.3541C51.993 74.4068 50.731 73.7905 50.5038 73.3529C49.6809 71.7688 48.251 71.4678 46.6331 71.0676C46.3197 70.6773 46.1476 70.4726 45.7332 70.1927C45.0345 69.788 44.2108 69.6386 43.4219 69.4506C41.4394 69.2504 41.2074 69.6147 39.5722 69.5931C39.3859 69.8918 39.2461 70.037 39.1819 70.3663L37.9654 71.1195L38.8282 71.2384C38.2938 71.936 33.9133 72.3539 33.123 72.7152C31.8339 73.3599 31.4882 72.9065 31.0158 73.3308C30.8474 73.4567 30.6777 73.6155 30.4896 73.6702C29.6474 73.5743 28.9322 73.683 28.1482 73.463C27.3165 73.2558 28.1528 72.8299 27.7666 72.3228C26.8651 71.1391 25.6838 71.8761 24.3891 71.875C22.6524 71.8736 21.3694 71.4691 19.7503 71.1972C19.5208 71.1694 19.2918 71.1379 19.0631 71.1029C17.1168 70.7997 17.5072 70.1414 16.3183 69.3241C15.4357 69.0197 14.2162 69.6934 13.5055 70.2007C13.1844 70.4578 12.5696 70.9208 12.303 71.1953C12.0177 71.3997 11.4917 71.8104 11.1879 71.9181C11.3538 71.5554 11.8075 70.9616 12.0593 70.6219C13.0886 68.7363 15.9895 68.7657 17.4433 68.2065L17.8495 68.0545L18.0449 67.9814C18.9134 66.7341 19.5315 66.0369 21.0172 65.4781C22.7035 64.8538 24.569 64.9288 26.1997 65.6865L28.8218 65.2159Z" fill="#7D6248"/>
<path d="M54.9259 65.7299C57.1958 64.283 59.9803 64.2109 62.2097 65.7767C62.6784 66.8271 63.4552 66.6726 64.4172 66.6199L64.5549 66.7979C64.2416 67.6119 63.6444 67.1719 62.8026 67.2139C62.0495 67.2516 61.0512 67.8345 60.5038 67.7342C60.8616 67.4306 61.0792 67.2755 61.472 67.0176L61.4782 66.7175C60.3527 66.9482 60.4719 67.6255 60.0946 67.8961C59.0496 68.6456 54.7319 69.7096 53.4716 69.6858C53.2818 69.3661 53.2892 69.3502 53.1976 69.0073L52.8388 68.708C52.4293 68.9078 52.3952 69.0938 52.1096 69.5031C52.3194 68.619 52.4507 67.5105 52.5837 66.5962L52.7626 65.6076C53.5558 65.8148 54.0958 65.9011 54.9259 65.7299Z" fill="#B0875D"/>
<path d="M54.9262 65.7299C57.1961 64.283 59.9807 64.2109 62.21 65.7767L61.9409 66.0401C61.3948 66.0024 60.2149 66.6788 59.9197 67.0986C59.221 67.5192 56.6378 68.1282 55.8345 67.7188C55.578 67.588 55.8888 67.0702 54.9657 66.6599C54.7384 66.2516 54.8288 66.3215 54.9262 65.7299Z" fill="#E2BE8A"/>
<path d="M52.7619 65.6079C53.5551 65.8151 54.0951 65.9014 54.9252 65.7303C54.8278 66.3218 54.7374 66.252 54.9647 66.6602C55.8878 67.0705 55.5769 67.5883 55.8334 67.7191C56.6367 68.1285 59.22 67.5195 59.9187 67.0989L59.84 67.5403C59.1821 68.0293 56.8696 68.406 55.9506 68.332C54.2874 67.5903 55.9961 66.9694 52.583 66.5966L52.7619 65.6079Z" fill="#C49A68"/>
<path d="M29.6166 69.4992C31.3051 67.9519 35.8375 67.9412 37.8842 68.7186C38.2935 68.8741 39.1248 69.369 39.5726 69.5935C39.3862 69.8922 39.2465 70.0374 39.1822 70.3667L37.9657 71.1199C37.4585 71.3465 37.0105 71.5413 36.4899 71.7405C34.7791 70.631 31.2121 72.2241 29.3955 70.0987L29.6166 69.4992Z" fill="#ECD2A8"/>
<path d="M38.2036 64.9668C39.0011 65.0049 39.8961 65.1861 40.6932 65.325C41.3991 65.6428 42.1981 65.9643 42.814 66.4189C43.0915 66.7867 43.0083 66.8096 43.3449 66.8757C43.994 65.1695 45.6066 65.9089 46.7016 66.6634C46.8924 67.2081 46.9167 67.8238 46.6588 68.3352C45.5667 69.0077 44.8694 68.1084 43.8827 67.8549C42.8422 67.5875 41.261 67.5671 40.3551 66.9408C40.0465 66.7391 39.6494 66.4086 39.3486 66.1744C39.067 65.8405 38.5209 65.3003 38.2036 64.9668Z" fill="#C49A68"/>
<path d="M40.6932 65.3252C41.3991 65.643 42.1981 65.9645 42.8141 66.4191C42.7601 66.8382 42.8577 66.684 42.5532 66.9202C41.6785 66.8786 40.8635 66.8092 40.0818 66.3727C40.2788 66.0197 40.4826 65.6706 40.6932 65.3252Z" fill="#E2BE8A"/>
<path d="M46.701 66.6641C46.9198 66.8185 47.2352 67.0037 47.3797 67.2043L47.938 67.6377C47.8256 68.2961 47.6702 69.3898 47.4907 69.9931C46.7712 69.9361 46.576 69.6765 45.8794 69.3767C43.7089 68.9171 43.1961 68.7042 40.9838 68.9031C40.645 67.7544 40.3932 68 40.0801 67.2918L40.3545 66.9415C41.2603 67.5678 42.8416 67.5882 43.882 67.8556C44.8687 68.1091 45.566 69.0084 46.6582 68.3359C46.9161 67.8245 46.8918 67.2088 46.701 66.6641Z" fill="#B0875D"/>
<path d="M47.3807 67.2041L47.939 67.6375C47.8266 68.2959 47.6712 69.3896 47.4917 69.9929C46.7722 69.9358 46.577 69.6763 45.8804 69.3764C47.4721 68.8846 46.4383 68.1647 47.3807 67.2041Z" fill="#987048"/>
<path d="M36.4885 71.7404C34.6344 72.0172 29.2086 72.8347 28.2727 70.8539C28.4648 70.5301 29.2917 69.8012 29.6152 69.499L29.3941 70.0986C31.2106 72.224 34.7777 70.6308 36.4885 71.7404Z" fill="#E2BE8A"/>
<path d="M30.4892 73.6704C28.9324 73.2331 29.0242 73.5839 28.1433 72.1499C27.6439 71.3374 27.143 71.3166 26.2545 71.1708L26.0902 70.916C26.5773 70.67 26.8916 70.3662 27.3781 70.4217C28.8029 72.4546 30.8297 72.5858 33.1226 72.7153C31.8335 73.36 31.4878 72.9067 31.0154 73.3309C30.847 73.4568 30.6773 73.6156 30.4892 73.6704Z" fill="#C49A68"/>
<path d="M16.3182 69.3245C16.8984 69.2215 17.925 68.741 18.3022 68.797C19.3988 71.1541 19.319 69.5119 20.5844 70.6184L20.7209 70.9873L19.7503 71.1976C19.5207 71.1698 19.2918 71.1382 19.0631 71.1032C17.1168 70.8 17.5071 70.1418 16.3182 69.3245Z" fill="#C49A68"/>
<path d="M48.6119 70.2427C49.2365 70.2721 51.2529 70.4081 51.7695 70.3527C51.4679 71.0202 51.3946 71.4146 50.7801 71.7452C49.957 71.8978 48.6248 71.0369 48.3259 70.3881L48.6119 70.2427Z" fill="#987048"/>
<path d="M39.3469 66.1753C39.6477 66.4095 40.0448 66.7401 40.3534 66.9417L40.079 67.292C40.3921 68.0002 40.6439 67.7547 40.9827 68.9033C40.577 69.017 39.9491 68.9901 39.5952 68.7437C39.274 67.965 39.813 67.4313 39.4035 66.325L39.3469 66.1753Z" fill="#987048"/>
<path d="M21.7039 70.169C16.3084 69.9565 19.1059 63.7459 26.829 66.4938C27.588 66.0588 28.0343 65.7564 28.6688 66.4406C28.5925 67.007 28.6705 67.0694 28.9451 67.6074L28.1643 67.6657L28.0459 67.8037L27.7747 68.2066L27.5961 68.6033C27.7832 69.2922 27.8571 69.1301 27.6201 69.63C26.3491 70.6133 23.1279 70.699 21.7039 70.169Z" fill="#ECD2A8"/>
<path d="M21.705 70.1688C23.5913 69.0238 25.3369 69.2438 27.5971 68.603C27.7842 69.292 27.8581 69.1299 27.6212 69.6298C26.3501 70.6131 23.1289 70.6987 21.705 70.1688Z" fill="#E2BE8A"/>
<path d="M26.8302 66.4931C27.5892 66.0581 28.0356 65.7557 28.67 66.44C28.5937 67.0064 28.6717 67.0688 28.9463 67.6068L28.1655 67.6651L28.0471 67.803L27.776 68.2059C27.6957 67.2745 27.4857 67.0809 26.8302 66.4931Z" fill="#987048"/>
<path d="M29.3536 65.6001C31.949 62.9417 37.3005 63.4513 38.924 66.8806C39.1126 67.3307 39.108 67.3457 39.0131 67.8151C38.2504 68.3706 35.5263 67.7782 34.0824 67.8433L33.6165 67.8295C32.1349 68.1278 31.485 68.0089 30.1398 67.4497C29.5305 67.2079 29.4699 67.1616 29.0811 66.6337L29.1434 66.2994L29.3536 65.6001Z" fill="#ECD2A8"/>
<path d="M29.3536 65.6001L30.0482 66.258C30.5627 66.3859 30.8311 66.4728 31.3713 66.4122C32.8857 66.2425 37.9677 67.5148 38.924 66.8806C39.1126 67.3306 39.108 67.3457 39.0131 67.8151C38.2504 68.3706 35.5263 67.7782 34.0824 67.8433L33.6165 67.8295C32.1349 68.1277 31.485 68.0089 30.1398 67.4497C29.5305 67.2079 29.4699 67.1615 29.0811 66.6336L29.1434 66.2994L29.3536 65.6001Z" fill="#E5C289"/>
<path d="M29.3536 65.6001L30.0482 66.258C31.724 67.7043 33.0386 66.0975 34.0824 67.8433L33.6165 67.8295C32.1349 68.1277 31.485 68.0089 30.1398 67.4497C29.5305 67.2079 29.4699 67.1615 29.0811 66.6336L29.1434 66.2994L29.3536 65.6001Z" fill="#E2BE8A"/>
<path d="M29.1434 66.2993C30.9674 67.6865 31.611 66.8729 32.8429 67.8154L33.6165 67.8294C32.1349 68.1277 31.485 68.0088 30.1398 67.4496C29.5305 67.2078 29.4699 67.1615 29.0811 66.6336L29.1434 66.2993Z" fill="#C49A68"/>
<path d="M69.1718 64.3052C70.9375 64.149 75.32 63.8749 73.9724 66.9558C73.8147 67.1455 73.501 67.5446 73.3433 67.7055C71.9432 68.3003 69.0215 68.6029 67.5434 68.1578C66.5626 67.8626 65.971 67.5982 64.8947 67.4241L64.7032 67.3943L65.5706 66.1789C66.6514 65.0977 67.7406 64.7095 69.1718 64.3052Z" fill="#E5C289"/>
<path d="M69.1724 64.3052C70.9381 64.149 75.3206 63.8749 73.973 66.9558C72.1881 66.9078 70.2408 67.0507 68.6816 67.0038L68.3485 66.8425C68.9461 66.2635 69.1882 66.5558 68.9783 65.7389C68.8403 65.2026 68.941 64.8007 69.1724 64.3052Z" fill="#ECD2A8"/>
<path d="M65.5706 66.1777C66.5682 66.9845 68.787 67.8813 70.0846 67.7406C70.8434 67.6125 72.5758 67.5946 73.3433 67.7044C71.9432 68.2992 69.0215 68.6018 67.5434 68.1567C66.5626 67.8615 65.971 67.597 64.8947 67.423L64.7032 67.3931L65.5706 66.1777Z" fill="#E2BE8A"/>
<path d="M28.6696 66.4409C28.8098 66.498 28.9743 66.5464 29.0813 66.6339C29.4702 67.1618 29.5307 67.2081 30.1401 67.45C29.8932 67.922 29.535 68.8155 29.1087 68.9605L28.9399 68.7873L28.9458 67.6077C28.6712 67.0697 28.5932 67.0073 28.6696 66.4409Z" fill="#75553E"/>
<path d="M28.047 67.8037L28.1654 67.6657L28.9462 67.6074L28.9403 68.787C28.8493 69.2669 28.9326 69.1909 28.6582 69.5231L28.4736 69.4397C28.1065 68.8782 28.1129 68.4614 28.047 67.8037Z" fill="#B0875D"/>
<path d="M14.2297 72.3423C14.4762 72.3499 17.0155 72.6201 17.4553 72.6762C18.0722 72.5693 18.1756 72.5351 18.7259 72.8152C19.2751 73.5486 18.3664 74.1509 17.8209 74.6464C19.8579 77.5496 21.6294 76.2851 24.5772 77.2981C25.038 77.4565 25.299 78.2124 25.7324 78.3699C27.0452 78.6894 28.6592 77.9528 29.8829 78.4056C30.1908 78.5195 30.6065 78.6962 30.8389 78.5775L30.9836 78.0649L31.2883 78.599C32.8169 79.0123 36.9567 76.7508 38.5857 77.2054C38.6293 77.2175 38.9517 77.6668 39.0147 77.7592C40.1126 77.9642 41.0631 77.3877 42.1318 77.4488C45.137 77.621 43.4662 79.9824 48.8292 77.5695L48.8587 77.412C48.1223 77.2204 47.3315 76.9945 46.5847 76.8839C47.4983 76.8874 48.378 76.97 49.2756 77.13C50.3014 77.3129 51.7367 76.4147 52.5299 77.116C52.1764 77.1154 50.752 77.1106 50.5081 77.1887C47.0701 78.2869 45.9568 79.9938 42.4838 77.6923C41.4026 78.1578 40.5499 78.5083 39.4318 78.8939C39.1053 79.7515 37.4042 80.0187 36.5266 80.4174C34.7734 80.0725 32.9534 80.0883 31.4775 79.4445C31.4489 79.4408 31.4205 79.437 31.3919 79.4335C30.638 79.8819 30.148 79.5862 29.4174 79.6854C26.296 80.1097 25.1922 79.1922 22.4949 77.9222C21.9285 77.6554 19.6288 77.2245 18.829 77.0101C18.815 75.1012 17.6492 75.8353 16.6384 74.8808C16.5616 74.4751 16.5692 74.2502 16.2701 73.9735L16.2161 73.8959L16.0333 73.8174C14.6639 73.2331 14.2431 73.3243 12.7465 73.2794L13.1656 72.7305L14.2297 72.3423Z" fill="#E2BE8A"/>
<path d="M31.3916 79.4336C31.497 79.3417 32.8808 79.131 33.2312 79.0523L32.6604 78.8019L32.6914 78.6334C33.8723 78.0464 36.087 79.228 37.4622 79.2189C38.1529 79.2144 38.7612 79.0486 39.4315 78.8939C39.105 79.7516 37.4039 80.0187 36.5263 80.4175C34.7732 80.0725 32.9531 80.0883 31.4772 79.4445C31.4486 79.4408 31.4202 79.4371 31.3916 79.4336Z" fill="#ECD2A8"/>
<path d="M39.1818 70.3667C39.0148 71.2466 39.437 71.4472 38.3441 72.0505C37.6324 72.4433 37.4346 72.6583 36.8898 73.2581C34.7149 73.2494 32.8209 74.4669 31.0156 73.3312C31.4881 72.9069 31.8337 73.3602 33.1229 72.7156C33.9132 72.3543 38.2937 71.9364 38.8281 71.2388L37.9653 71.1199L39.1818 70.3667Z" fill="#E2BE8A"/>
<path d="M81.6014 69.6333C83.0567 69.8183 84.0535 70.091 85.1897 71.0953L85.4888 70.9566L85.6553 71.0734C85.2628 71.4506 84.4366 71.7675 83.862 72.0788L84.0185 71.6026C82.85 71.1204 82.7701 71.2302 81.5734 71.3776C81.6387 71.3696 79.9934 70.1136 79.785 69.9666C80.0168 69.8007 81.2467 69.6768 81.6014 69.6333Z" fill="#E2BE8A"/>
<path d="M13.5042 70.2007C13.9971 70.4641 14.0613 70.501 14.3981 70.9444C14.572 71.7405 14.3547 71.6414 14.2289 72.3417L13.1647 72.73C12.7328 72.6249 12.6898 72.6336 12.3728 72.3436C12.2881 71.8851 12.3005 71.6659 12.3017 71.1953C12.5683 70.9207 13.1831 70.4577 13.5042 70.2007Z" fill="#E2BE8A"/>
<path d="M61.9193 70.4077C63.0911 70.6553 64.9933 70.8256 65.7149 71.6794L65.7332 71.8884C65.0979 72.5708 64.5268 72.4715 63.718 72.3209L63.4925 72.4435L63.3067 72.3539C63.353 71.9356 63.4139 71.8095 63.5586 71.4087L63.4326 71.1675C63.3361 71.1496 63.2395 71.1303 63.1434 71.1097C62.52 70.9735 62.2524 70.9189 61.9193 70.4077Z" fill="#E2BE8A"/>
<path d="M84.0193 71.603L83.8628 72.0792C83.4515 72.2275 83.1878 72.299 82.823 72.5357C82.1119 72.705 79.317 72.9352 78.8757 72.4296L78.8649 72.581L78.7118 72.5087C80.143 71.8724 82.9776 72.1575 84.0193 71.603Z" fill="#B0875D"/>
<path d="M43.4221 69.4507C44.211 69.6387 45.0347 69.7881 45.7334 70.1928C44.9458 70.5942 42.6285 70.6492 42.23 69.7504C42.6588 69.4243 42.8233 69.5081 43.4221 69.4507Z" fill="#ECD2A8"/>
<path d="M20.965 73.5856C22.3297 73.6846 24.2333 73.2426 25.1651 73.7952C25.3831 74.2381 25.2719 74.25 25.1319 74.8251C23.6746 75.4504 21.604 75.0603 20.965 73.5856Z" fill="#E2BE8A"/>
<path d="M54.0681 76.6302C54.1844 76.6197 56.4683 76.885 56.526 76.9035C56.2818 77.1599 56.36 77.004 56.3512 77.4141C56.1486 77.6246 56.1694 77.5877 55.9164 77.7459C54.9863 77.7515 54.3458 77.5745 54.0681 76.6302Z" fill="#E2BE8A"/>
<path d="M60.9904 72.739C61.4623 72.7359 62.0095 72.7639 62.3625 73.0586C61.9846 73.4743 61.7099 73.4588 61.115 73.6601C60.9202 74.0782 60.7218 74.2427 60.3033 74.3601C60.2098 73.6887 60.5896 73.306 60.9904 72.739Z" fill="#E2BE8A"/>
<path d="M15.675 69.9171C16.0849 69.8981 16.3445 69.9202 16.6006 70.2229C16.4267 70.7035 16.0306 70.9133 15.6032 71.2326C15.1653 71.245 14.9469 71.1696 14.7853 70.7739C14.9856 70.251 15.1746 70.1972 15.675 69.9171Z" fill="#E2BE8A"/>
<path d="M69.4687 75.4023C70.0083 75.2995 69.8543 75.2496 70.2932 75.4319L70.2862 75.6498C69.9457 76.1514 69.7293 76.1886 69.177 76.3967C68.7089 76.2669 68.406 76.2191 68.2032 75.8638C68.5009 75.5267 68.9946 75.5001 69.4687 75.4023Z" fill="#E2BE8A"/>
<path d="M65.809 71.6765C66.8045 71.5202 67.6476 71.6992 68.153 72.6021C67.3344 72.7366 66.3586 72.274 65.809 71.6765Z" fill="#E2BE8A"/>
<path d="M66.0704 75.4583C66.8787 75.2939 67.1735 75.2593 67.9134 75.6037C67.1702 75.7293 66.7206 75.8329 66.0704 75.4583Z" fill="#E2BE8A"/>
<path d="M47.5991 37.7813C47.3103 29.7144 47.7574 22.7341 54.3874 17.1446C58.6717 13.5327 67.6236 11.0356 72.255 15.0724C73.8552 16.4672 70.9893 21.4256 69.8496 22.4429C66.7411 26.3464 62.4493 29.0475 57.814 30.8806C56.1628 31.5617 54.0666 32.5318 52.5986 33.5252C48.5453 37.3525 51.091 42.4632 52.2628 47.0218C52.7273 48.8286 52.9889 50.8308 53.161 52.6862C53.4966 56.7623 53.399 60.8625 52.8697 64.9178L52.7623 65.608L52.5834 66.5966C52.4504 67.5109 52.319 68.6194 52.1093 69.5034C52.3701 70.2054 52.7104 69.8439 52.6163 70.1738C52.5372 70.1396 52.4582 70.1052 52.3791 70.0711L52.171 70.3366L51.7702 70.3528C51.2537 70.4082 49.2372 70.2723 48.6126 70.2428C48.099 70.1957 47.9415 70.2148 47.4906 69.9932C47.6701 69.3899 47.8256 68.2962 47.938 67.6378C48.1902 66.6495 48.4178 65.6553 48.621 64.656L48.6064 64.3752C48.6369 64.2753 48.6672 64.1754 48.6974 64.0756C49.6203 58.5247 51.3864 42.3727 43.7185 40.5621L43.8466 40.2414L44.6206 40.056C45.6802 40.3602 45.9907 40.5786 46.7639 41.3789C46.9451 41.6605 46.8895 41.573 47.1695 41.788C47.4733 41.2712 47.1756 40.2014 46.9838 39.6628C47.1423 39.5086 47.3809 39.33 47.5583 39.187L47.5991 37.7813Z" fill="url(#paint0_linear_138_3847)"/>
<path d="M47.5998 37.7813C47.3109 29.7144 47.7581 22.7341 54.388 17.1446C58.6723 13.5327 67.6243 11.0356 72.2556 15.0724C73.8559 16.4672 70.99 21.4256 69.8503 22.4429C66.7417 26.3464 62.45 29.0475 57.8147 30.8806C56.1634 31.5617 54.0673 32.5318 52.5992 33.5252L52.1756 33.0319C53.7628 31.6443 57.2934 30.4303 59.2726 29.5488C64.8045 27.0842 71.3087 22.3018 72.2021 15.908C67.9044 11.1546 57.9567 14.4044 53.8565 18.389C47.4686 24.5969 48.3481 31.2705 48.0385 39.3905C48.0185 39.1092 47.7021 38.1366 47.5998 37.7813Z" fill="#497228"/>
<path d="M47.5991 37.7812C47.7014 38.1365 48.0178 39.1091 48.0378 39.3905C47.5917 41.1014 49.5765 46.5217 49.8173 48.9875C50.3991 54.9423 49.9569 59.0882 49.2366 64.8314C49.0214 64.6722 48.8915 64.6887 48.621 64.6559L48.6064 64.3752C48.6369 64.2753 48.6672 64.1754 48.6974 64.0755C49.6203 58.5247 51.3864 42.3727 43.7185 40.562L43.8466 40.2413L44.6206 40.056C45.6802 40.3602 45.9907 40.5785 46.7639 41.3789C46.9451 41.6604 46.8895 41.5729 47.1695 41.7879C47.4733 41.2712 47.1756 40.2014 46.9838 39.6628C47.1423 39.5085 47.3809 39.3299 47.5583 39.187L47.5991 37.7812Z" fill="#497228"/>
<path d="M52.6416 52.3562L52.8759 52.3325L53.1606 52.6864C53.4962 56.7625 53.3986 60.8627 52.8693 64.918L52.7619 65.6082L52.583 66.5968C52.45 67.5111 52.3186 68.6196 52.1089 69.5036C52.3697 70.2056 52.71 69.8441 52.6159 70.174C52.5369 70.1399 52.4578 70.1055 52.3788 70.0713L52.1706 70.3368L51.7698 70.353C51.2533 70.4084 49.2368 70.2725 48.6122 70.2431C48.0986 70.1959 47.9411 70.215 47.4902 69.9934C47.6698 69.3901 47.8252 68.2965 47.9376 67.638C48.1898 66.6497 48.4175 65.6555 48.6206 64.6562C48.8912 64.6889 49.0211 64.6725 49.2362 64.8317C48.9673 66.4763 48.5369 68.2281 48.1655 69.8641C49.0546 69.9372 50.3524 69.9248 51.2811 69.9572C52.8133 62.3609 52.9698 59.9597 52.6416 52.3562Z" fill="#497228"/>
<path d="M52.175 33.0317L52.5987 33.525C48.5454 37.3523 51.0911 42.463 52.2629 47.0217C52.7273 48.8284 52.989 50.8306 53.1611 52.686L52.8764 52.3321L52.6421 52.3558C52.4723 51.8625 52.0105 48.3543 51.7731 47.4163C50.8889 43.9245 49.6157 41.1493 49.8298 37.4592C49.957 35.2685 50.6261 34.4278 52.175 33.0317Z" fill="#497228"/>
<path d="M62.5418 18.6448C63.18 18.4063 65.7 17.402 66.2316 17.5833C65.1565 18.0473 63.5703 18.5585 62.6289 19.0407C56.991 22.1926 53.1473 25.947 50.6561 32.036C50.5085 32.3971 50.7022 33.2469 50.7777 33.6459L50.6167 33.7254L50.1412 33.1155C49.8507 33.3278 49.6827 33.6811 49.495 33.9983C49.3511 34.3721 49.228 34.5931 49.0371 34.947L48.835 35.0069C48.4319 34.0693 49.1876 32.3726 49.671 31.5421C53.2173 25.4714 55.6873 21.6724 62.5418 18.6448Z" fill="#5A8929"/>
<path d="M49.671 31.5415C49.9656 32.138 49.6543 33.3458 49.495 33.9977C49.3511 34.3715 49.228 34.5925 49.0371 34.9464L48.835 35.0063C48.4319 34.0687 49.1876 32.372 49.671 31.5415Z" fill="#497228"/>
<path d="M43.7191 40.5619C37.6528 40.3905 31.6987 42.8189 25.696 41.119C23.6964 40.6123 22.755 38.7854 23.5239 36.8532C25.8364 31.0417 32.8211 27.7381 38.7476 29.7556C43.2954 31.3039 45.6079 35.1732 47.5589 39.1868C47.3814 39.3298 47.1428 39.5084 46.9843 39.6626C47.1762 40.2012 47.4739 41.271 47.17 41.7878C46.89 41.5728 46.9456 41.6603 46.7645 41.3788C45.9912 40.5784 45.6808 40.36 44.6212 40.0558L43.8471 40.2412L43.7191 40.5619Z" fill="url(#paint1_linear_138_3847)"/>
<path d="M43.7191 40.5619C37.6528 40.3905 31.6987 42.8189 25.696 41.119C23.6964 40.6123 22.755 38.7854 23.5239 36.8532C25.8364 31.0417 32.8211 27.7381 38.7476 29.7556C43.2954 31.3039 45.6079 35.1732 47.5589 39.1868C47.3814 39.3298 47.1428 39.5084 46.9843 39.6626L46.7797 39.4791C45.2565 35.6512 43.1593 32.1912 39.1642 30.529C33.6087 28.2178 26.6045 31.2765 24.1878 36.7121C23.478 38.309 23.8811 39.7938 25.6098 40.3843C31.7932 42.4965 38.3393 39.3417 44.6212 40.0558L43.8471 40.2412L43.7191 40.5619Z" fill="#497228"/>
<path d="M34.6489 34.3135C38.5816 34.151 41.8288 34.9275 44.9616 37.5497C46.2878 38.6596 46.229 39.4829 46.8435 40.3117C46.8503 39.9745 46.8735 39.8093 46.7784 39.4792L46.983 39.6627C47.1749 40.2013 47.4726 41.2711 47.1687 41.7879C46.8888 41.5728 46.9443 41.6604 46.7632 41.3788L47.0143 41.0402C42.7782 37.107 43.0079 35.4651 35.9183 34.7322C35.4203 34.5957 35.128 34.5193 34.6489 34.3135Z" fill="#5A8929"/>
<path d="M35.9185 34.7322C34.0425 34.7166 32.3626 34.6677 30.531 35.1417L30.4192 35.1715C31.283 34.6366 33.6194 34.3314 34.6492 34.3135C35.1282 34.5192 35.4205 34.5957 35.9185 34.7322Z" fill="#6C9637"/>
<defs>
<linearGradient id="paint0_linear_138_3847" x1="40.0083" y1="48.473" x2="78.5964" y2="32.8654" gradientUnits="userSpaceOnUse">
<stop stop-color="#6A9F28"/>
<stop offset="1" stop-color="#AFD85C"/>
</linearGradient>
<linearGradient id="paint1_linear_138_3847" x1="41.8842" y1="45.4966" x2="29.092" y2="31.279" gradientUnits="userSpaceOnUse">
<stop stop-color="#72A92C"/>
<stop offset="1" stop-color="#AED45D"/>
</linearGradient>
</defs>
</svg>
