<svg width="96" height="96" viewBox="0 0 96 96" fill="none" xmlns="http://www.w3.org/2000/svg">
<path d="M48.6926 20.1324C47.6779 16.6911 47.103 13.7183 48.9746 10.4035C52.3342 4.45386 58.7725 3.76108 64.7906 4.05619C65.939 14.0144 60.1907 16.6648 52.3352 19.7044C47.8164 21.453 49.166 40.4815 49.6009 44.4971L49.9585 47.6129C51.6854 44.9672 51.4187 44.1971 52.5995 41.6325C54.9918 36.4219 59.7301 32.6707 65.3477 31.5399C69.8835 30.5934 75.8498 31.5627 79.9389 33.6893C79.1803 35.8896 78.4026 37.5987 76.8668 39.3848C72.1965 44.8164 65.0342 47.1032 58.0141 46.9111C54.5448 46.8162 51.311 47.1039 51.0599 51.4072C50.956 54.1722 51.5705 57.2408 51.7256 60.0228C52.2689 65.1082 52.738 70.0304 52.9562 75.1473C53.4581 73.8354 53.6859 73.1428 55.2005 73.9156C56.5944 74.6269 58.9491 76.445 57.3484 78.0797L56.9778 78.4651C57.0014 78.7373 56.9549 78.6103 57.1686 78.8366C57.5228 78.9081 57.6212 78.866 57.8508 79.0688C57.715 79.2233 57.5786 79.3506 57.5046 79.5399L57.2129 79.9648C57.3771 80.2894 57.6349 80.7643 57.7719 81.0849C58.2287 81.3646 58.0515 81.3354 58.5038 81.3251L58.7884 81.1387L58.8524 81.6928C58.202 81.9614 57.4935 82.2293 56.929 82.6494L56.283 82.9474C55.3807 82.8744 54.2091 82.7078 53.414 83.1625L53.3712 82.8787C53.1677 83.0011 53.0461 83.1126 52.8178 83.0853C52.3711 83.1675 51.8632 83.2794 51.523 83.6066L51.3046 83.5985C50.5995 83.6789 49.8478 83.5072 49.096 83.46L48.8064 83.4281C48.5157 83.0524 48.5985 82.9731 48.5481 82.4336C48.5519 82.1512 48.6141 81.7295 48.6474 81.437L48.6851 80.5651C48.8324 80.3038 48.8982 79.7472 48.7546 79.4631C47.9389 78.6026 46.9097 79.1822 46.1418 79.7038L46.0764 79.5118C46.0927 79.1366 46.144 79.2986 45.9355 79.0041C46.156 78.9706 46.1728 78.9528 46.3791 78.8611C46.0551 78.7238 45.9789 78.6878 45.6965 78.4749L45.6331 78.4261C45.7729 78.4645 45.9137 78.4987 46.0553 78.5288C46.3038 78.5809 48.7143 78.5852 48.8921 78.4715C49.0408 77.8415 48.8943 77.3007 48.5241 76.8032L48.6176 76.2737L48.9175 76.0884C49.0605 75.2447 48.9607 73.2646 48.958 72.3485C48.9453 68.7194 48.6451 65.0731 48.3181 61.4654C48.0611 58.6316 47.8635 55.7226 47.2636 52.9563C46.5052 49.4587 44.4428 46.7419 40.7423 46.3088C38.9253 46.096 37.1041 46.059 35.2969 45.7922C28.8086 44.7557 22.8548 41.597 18.8816 36.2798C18.3067 35.5103 17.6685 34.5063 17.3354 33.6147C27.1225 28.6144 38.7948 30.7779 43.7925 41.1728C44.9779 43.6382 45.1319 45.1771 46.9811 47.3861C46.5362 40.9316 46.3298 34.2731 46.6785 27.7626C46.7209 26.9746 46.6536 25.562 46.1476 25.0488C45.015 23.824 43.0952 23.8448 41.5391 23.8168C34.7483 23.6945 29.7719 20.974 27.6683 14.1616C29.4144 13.4106 30.8025 12.8607 32.6616 12.4366C38.1792 11.1776 44.3447 12.9948 46.7827 18.4879C47.4321 19.9514 47.6191 21.491 47.7089 23.0861C48.0822 22.0595 48.3841 21.1791 48.6926 20.1324Z" fill="#49572B"/>
<path d="M77.7441 33.375L79.3372 33.9475C76.078 41.9205 69.0406 45.4817 60.7545 46.1615C55.4905 46.5933 49.7932 45.1071 50.401 52.818C51.1324 62.0943 52.2454 71.3297 52.7121 80.6344C52.7597 81.4509 52.7946 82.2679 52.8169 83.0854C52.3702 83.1676 51.8623 83.2795 51.5221 83.6067L51.3037 83.5986L51.2986 83.4335C51.384 83.0927 51.4399 81.8033 51.4659 81.3802C52.0778 71.3829 51.0124 60.3822 49.4246 50.4953C49.7642 49.5494 50.0746 49.9803 49.7155 48.7692C50.2923 48.3283 50.5481 47.7487 51.0272 47.1389C51.4179 46.5347 51.7587 46.2074 52.0095 45.5208C52.0282 45.4317 52.1156 45.1938 52.1489 45.0943L52.2428 45.2106C52.5109 45.1432 53.1726 44.6147 53.4381 44.4186C53.7675 44.146 54.1628 43.7185 54.4764 43.4029C59.3201 38.5287 65.3585 36.0883 72.0081 34.8041L73.8404 34.5183C74.4672 33.9496 77.2382 34.1877 77.8969 33.6499L77.7441 33.375Z" fill="url(#paint0_linear_138_3911)"/>
<path d="M53.4394 44.4178C53.7687 44.1451 54.1641 43.7176 54.4777 43.402C59.3214 38.5278 65.3598 36.0875 72.0094 34.8032L71.7021 35.0795C66.9543 36.2253 61.7445 38.1753 57.9148 41.3025C56.3436 41.8131 54.5223 43.8903 53.4397 45.1451L53.4394 44.4178Z" fill="#576D2B"/>
<path d="M53.4401 45.1453C54.5227 43.8906 56.344 41.8133 57.9152 41.3027C57.2077 42.1208 54.0675 46.2341 53.2238 46.1982C53.0773 46.0269 53.1109 46.1028 53.0492 45.8947C52.8803 46.1844 52.8167 46.3365 52.5728 46.5598C52.256 46.4928 52.3925 46.5694 52.1748 46.2827L52.1658 45.8344C51.6301 46.4792 51.7351 46.9142 51.0289 47.1382C51.4196 46.5341 51.7604 46.2067 52.0112 45.5202C52.0299 45.4311 52.1173 45.1932 52.1506 45.0937L52.2445 45.21C52.5126 45.1426 53.1743 44.6141 53.4398 44.418L53.4401 45.1453Z" fill="#8DB031"/>
<path d="M52.1504 45.0941L52.2444 45.2104C52.5124 45.143 53.1742 44.6145 53.4397 44.4185L53.44 45.1458C53.2286 45.4325 52.8739 46.0123 52.5758 46.1106L52.5569 46.0368C52.4931 45.7988 52.4952 45.7421 52.318 45.5656L52.0111 45.5207C52.0297 45.4316 52.1171 45.1936 52.1504 45.0941Z" fill="#516629"/>
<path d="M52.7131 80.6343C52.7608 81.4507 52.7956 82.2677 52.8179 83.0852C52.3712 83.1674 51.8633 83.2793 51.5231 83.6065C51.5396 83.2412 51.5192 83.0166 51.6773 82.6865C52.1082 82.5139 52.3601 82.3755 52.5532 81.9515C52.5238 81.3955 52.5917 81.1745 52.7131 80.6343Z" fill="#6E912A"/>
<path d="M73.8416 34.5179C74.1523 34.4859 74.6783 34.388 74.9389 34.5019C74.0763 34.7434 72.6319 34.9333 71.7019 35.0801L72.0093 34.8037L73.8416 34.5179Z" fill="#6E912A"/>
<path d="M49.3232 19.895C48.3233 16.4268 47.6241 13.969 49.5703 10.5161C52.5549 5.22099 58.8107 4.21705 64.3267 4.57682C64.6336 8.09053 64.4487 10.3833 62.0662 13.3508C60.6363 15.1317 58.831 16.1549 56.8207 17.181C54.8059 18.2094 51.6959 18.6404 50.3525 20.4607C49.7879 21.2255 49.561 22.7402 49.2105 23.6731C48.9531 22.3159 50.5762 20.4701 50.015 19.4906L49.8971 19.5202C49.8507 20.2283 49.3094 21.3115 48.838 21.8324C48.9245 21.5197 49.0029 21.2049 49.0728 20.888C49.1374 20.5764 49.2427 20.2087 49.3232 19.895Z" fill="url(#paint1_linear_138_3911)"/>
<path d="M61.4705 6.34033C60.6557 7.07453 58.6696 8.0045 57.5741 8.81771C55.0456 10.7186 52.9823 13.1701 51.5406 15.9871C50.9389 17.1784 49.9382 20.0366 49.0748 20.8874C49.1394 20.5758 49.2447 20.2081 49.3252 19.8944C49.3336 19.8843 49.805 18.5192 49.8521 18.3784C50.3022 17.0319 50.9088 15.8176 51.6397 14.6003C53.6734 11.2144 57.739 7.73307 61.4705 6.34033Z" fill="#516629"/>
<path d="M61.4691 6.34068C61.6412 6.06115 63.2896 4.91447 63.529 4.88818L63.4503 5.00907L63.6573 5.23144C63.4416 5.39099 61.6527 6.30629 61.4691 6.34068Z" fill="#B0CC39"/>
<path d="M18.192 34.2178C18.6825 33.5718 20.0724 33.9568 20.9735 33.9808C21.0672 34.2093 20.9856 34.1373 21.1877 34.2348C22.3143 34.3543 23.3715 34.5287 24.4779 34.6588C28.3796 35.3615 33.7138 37.25 36.9272 39.6308C38.6055 40.5861 40.6822 42.3959 42.1783 43.675C42.8704 44.2667 43.8418 45.6086 44.661 46.2552L44.7186 46.1855L45.0706 45.9917C45.926 46.8497 46.985 48.0945 47.7131 49.063C47.69 45.7747 47.2252 42.3871 47.1984 39.0384C47.2734 39.1381 47.2869 39.2852 47.3168 39.4185L47.2455 39.2614L47.3703 39.4475C47.3364 38.9391 47.3611 38.8425 47.5105 38.3655L47.5501 38.2416C47.6407 38.7898 48.258 48.698 48.2201 48.9085C47.9969 49.4417 48.0288 49.7018 48.031 50.2787C47.9103 50.1608 47.7916 50.0406 47.6752 49.9184C47.5406 50.5948 48.3814 50.6307 47.7137 51.7662C45.4974 45.3862 41.5068 45.687 35.8391 45.0862C33.124 44.7983 27.167 43.1339 25.1366 41.2387C24.0306 40.7276 21.9996 39.0217 21.1975 38.1026C20.2136 37.3923 18.8133 35.3019 18.192 34.2178Z" fill="url(#paint2_linear_138_3911)"/>
<path d="M21.1869 34.2349C22.3135 34.3544 23.3707 34.5288 24.4771 34.6588C28.3788 35.3615 33.713 37.25 36.9263 39.6308L36.8536 39.6756C34.9388 39.4028 32.3499 39.3093 30.3543 39.0927C28.2576 38.8651 22.2562 35.8448 21.1869 34.2349Z" fill="#B0CC39"/>
<path d="M21.1973 38.103C21.7599 38.1513 24.4354 40.5721 25.0846 41.0701L25.1364 41.2391C24.0305 40.728 21.9994 39.0221 21.1973 38.103Z" fill="#B0CC39"/>
<path d="M18.1897 34.2183L18.0349 33.9476C18.2978 33.6079 20.1084 33.0669 20.6489 32.863C29.8618 29.387 40.0845 33.1236 43.7148 42.551C44.1633 43.7158 44.3987 44.9581 45.0682 45.9922L44.7162 46.186L44.6587 46.2556C43.8394 45.609 42.8681 44.2672 42.1759 43.6754C40.6798 42.3964 38.6031 40.5866 36.9248 39.6312C33.7114 37.2505 28.3772 35.3619 24.4755 34.6592C23.3691 34.5292 22.3119 34.3548 21.1853 34.2353C20.9832 34.1378 21.0648 34.2097 20.9712 33.9813C20.0701 33.9573 18.6802 33.5723 18.1897 34.2183Z" fill="url(#paint3_linear_138_3911)"/>
<path d="M24.4624 34.5015C28.5769 34.9586 32.9519 36.5674 36.5145 38.6641C37.5422 39.269 38.5197 39.9925 39.5261 40.6287C41.3659 42.1511 41.8102 42.8573 43.2692 44.2254L43.3723 44.3293C43.9662 44.9211 44.4616 45.1409 44.7182 46.1858L44.6606 46.2555C43.8414 45.6088 42.87 44.267 42.1779 43.6752C40.6818 42.3962 38.6051 40.5864 36.9268 39.6311C33.7134 37.2503 28.3792 35.3617 24.4775 34.659L24.4624 34.5015Z" fill="#576D2B"/>
<path d="M39.5247 40.6284C40.982 40.666 42.7372 42.8069 43.271 44.1605C43.27 44.182 43.2689 44.2036 43.2678 44.2251C41.8089 42.857 41.3645 42.1508 39.5247 40.6284Z" fill="#8DB031"/>
<path d="M20.9733 33.9814C21.56 34.0777 24.1842 34.3487 24.4625 34.5018L24.4776 34.6594C23.3712 34.5293 22.314 34.355 21.1874 34.2355C20.9853 34.1379 21.0669 34.2099 20.9733 33.9814Z" fill="#8DB031"/>
<path d="M52.1493 45.0934C52.3279 44.4009 52.5376 43.4913 52.7722 42.8384C54.1745 38.9371 57.6437 35.1665 61.4087 33.4391C66.8774 30.9302 72.2556 31.4304 77.7445 33.3741L77.8973 33.649C77.2386 34.1869 74.4676 33.9487 73.8409 34.5174L72.0086 34.8032C65.359 36.0874 59.3205 38.5278 54.4768 43.402C54.1632 43.7176 53.7679 44.1451 53.4385 44.4177C53.1731 44.6138 52.5113 45.1423 52.2432 45.2097L52.1493 45.0934Z" fill="url(#paint4_linear_138_3911)"/>
<path d="M48.8377 21.8325C49.3091 21.3117 49.8504 20.2284 49.8968 19.5204L50.0147 19.4907C50.5759 20.4702 48.9528 22.3161 49.2102 23.6732C48.425 29.5747 48.2295 34.3354 48.6034 40.3031C48.7349 42.4021 49.15 45.0859 49.2453 46.9815C49.3539 47.507 49.4845 48.316 49.7155 48.7691C50.0746 49.9801 49.7642 49.5493 49.4246 50.4952C51.0124 60.382 52.0778 71.3827 51.4659 81.3801C51.4399 81.8031 51.384 83.0926 51.2986 83.4334C50.8889 83.4412 50.8239 83.505 50.489 83.327L50.3929 82.9412C50.3157 82.3073 50.3616 82.055 49.8762 81.7331C49.4182 81.4295 49.4795 80.3332 49.4599 79.7625C49.6794 76.755 49.5844 73.5459 49.5713 70.5284C49.5668 69.5058 49.4656 68.362 49.4909 67.3743C49.3455 64.493 48.9247 61.5284 48.7831 58.7287C48.6744 58.3491 48.5325 57.0121 48.4717 56.5558C48.2524 54.9095 48.09 53.3953 47.7113 51.7666C48.379 50.631 47.5383 50.5951 47.6728 49.9187C47.7892 50.041 47.9079 50.1611 48.0286 50.2791C48.0265 49.7021 47.9945 49.442 48.2177 48.9088C48.2556 48.6983 47.6383 38.7901 47.5477 38.2419C47.4674 37.9668 47.5007 37.1482 47.4761 36.8218C47.2668 34.0316 47.9738 30.3653 47.8499 27.7061C47.8761 27.3327 47.779 24.9017 47.7888 24.88L47.859 24.8602C48.0616 24.6474 48.5008 22.5531 48.8377 21.8325Z" fill="#B0CC39"/>
<path d="M49.4912 67.3746L49.5131 67.25C49.7031 66.1308 49.3867 65.3817 49.5172 64.3794C49.5882 65.1788 49.6434 66.7156 49.8665 67.3981C50.2538 69.5785 50.1299 72.9418 50.2373 75.2445C50.3746 78.187 50.6412 79.9746 50.3932 82.9415C50.3159 82.3076 50.3619 82.0552 49.8765 81.7334C49.4185 81.4297 49.4798 80.3335 49.4602 79.7628C49.6797 76.7552 49.5847 73.5461 49.5716 70.5287C49.5671 69.5061 49.4659 68.3623 49.4912 67.3746Z" fill="#8DB031"/>
<path d="M48.2188 48.9087C48.3374 50.5788 48.3891 52.0364 48.5747 53.7288C48.6615 54.5203 48.876 56.5989 48.8789 57.3382C48.8219 57.8393 48.8326 58.2788 48.7842 58.7286C48.6755 58.349 48.5336 57.012 48.4728 56.5557C48.2535 54.9094 48.0911 53.3952 47.7124 51.7665C48.3801 50.6309 47.5394 50.595 47.6739 49.9186C47.7903 50.0409 47.909 50.161 48.0297 50.279C48.0276 49.702 47.9956 49.4419 48.2188 48.9087Z" fill="#8DB031"/>
<path d="M49.2467 46.9805C49.3554 47.5061 49.486 48.315 49.7169 48.7681C50.0761 49.9791 49.7657 49.5483 49.4261 50.4942C49.127 48.6827 49.2845 48.576 49.2467 46.9805Z" fill="#8DB031"/>
<path d="M28.3411 14.5688C28.7466 14.6566 29.0915 14.7474 29.4898 14.8574C29.5526 15.0021 29.5912 15.0846 29.6888 15.212C31.5993 15.0915 33.7356 15.4539 35.5655 16.0201L35.7735 15.9093C37.8648 16.6272 39.504 17.3166 41.3546 18.5615C43.9913 20.0753 45.069 22.5284 47.0108 24.2191C46.9141 23.9604 46.8284 23.7634 46.7803 23.4888L47.1789 23.5815C47.4728 24.0596 47.6758 24.3287 47.7909 24.8794C47.7812 24.9011 47.8783 27.3321 47.8521 27.7055C47.9759 30.3647 47.269 34.031 47.4783 36.8212C47.5029 37.1476 47.4695 37.9662 47.5499 38.2413L47.5103 38.3652C47.3609 38.8422 47.3362 38.9388 47.3701 39.4473L47.2453 39.2611L47.3166 39.4182C47.2867 39.285 47.2733 39.1378 47.1983 39.0381C46.9664 36.946 47.1457 34.4063 47.1506 32.2812C47.154 30.778 47.5769 26.6316 47.2009 25.4514C46.2553 22.4839 41.0763 23.3965 38.5798 22.8895C36.49 22.4651 35.525 22.3427 33.5922 21.2532C31.0094 19.8288 29.1145 17.4168 28.3411 14.5688Z" fill="url(#paint5_linear_138_3911)"/>
<path d="M35.7724 15.9092C37.8637 16.627 39.5029 17.3164 41.3535 18.5614C41.2237 18.7911 41.185 18.7945 40.9733 18.9445C39.9442 19.0018 39.4578 18.4052 38.6047 18.0607C37.7187 17.7031 36.7328 17.6554 35.8337 17.2532L35.8653 17.1858C36.3201 17.3135 36.9013 17.4526 37.3707 17.4036C37.2526 16.8876 36.0674 16.1413 35.5644 16.02L35.7724 15.9092Z" fill="#B0CC39"/>
<path d="M47.01 24.2191C46.9133 23.9604 46.8276 23.7634 46.7795 23.4888L47.178 23.5815C47.4719 24.0596 47.6749 24.3287 47.7901 24.8794C47.7803 24.9011 47.8775 27.3321 47.8512 27.7055C47.6768 27.058 47.7835 26.0837 47.6346 25.4141C47.53 24.9437 47.116 24.712 47.01 24.2191Z" fill="#8DB031"/>
<path d="M28.3411 14.569L28.4191 14.3914C31.0491 13.3823 33.3878 12.629 36.2455 12.6403C39.7194 12.6539 43.3533 14.0756 45.2858 17.1081C46.9183 19.296 46.8271 21.1495 47.1789 23.5817L46.7803 23.4889C46.8284 23.7635 46.9141 23.9605 47.0108 24.2193C45.069 22.5285 43.9913 20.0754 41.3546 18.5617C39.504 17.3167 37.8648 16.6273 35.7735 15.9094L35.5655 16.0203C33.7356 15.454 31.5993 15.0917 29.6888 15.2121C29.5912 15.0848 29.5526 15.0022 29.4898 14.8575C29.0915 14.7475 28.7466 14.6567 28.3411 14.569Z" fill="#B0CC39"/>
<path d="M35.7719 15.91C35.0758 15.7249 34.237 15.5443 33.6167 15.2036C36.9674 15.8307 39.5528 16.6859 42.4689 18.4378L43.4606 18.3143C43.3008 18.2063 43.328 18.2209 43.1496 18.252C42.2605 18.4068 40.7009 17.2589 39.7005 16.8213C40.959 16.0005 40.8659 16.089 42.3088 15.936C42.3346 15.81 42.3632 15.6887 42.4066 15.5675C42.7458 15.4232 43.0642 15.196 43.3406 15.3282C44.0135 15.6502 44.6899 16.8261 45.2842 17.1086C46.9167 19.2965 46.8255 21.1501 47.1773 23.5822L46.7787 23.4894C46.8268 23.7641 46.9125 23.9611 47.0092 24.2198C45.0674 22.5291 43.9897 20.076 41.353 18.5622C39.5024 17.3173 37.8631 16.6278 35.7719 15.91Z" fill="url(#paint6_linear_138_3911)"/>
<path d="M45.9878 21.9307L46.0208 21.9366C46.366 22.1619 46.5182 22.5099 46.734 22.875C46.384 22.6557 46.1204 22.3221 45.9878 21.9307Z" fill="#516629"/>
<path d="M53.3212 79.3572C53.9575 78.9918 53.8443 78.8499 54.7248 78.5757C55.6275 79.2356 55.324 78.7572 56.2111 79.112C56.7848 79.2854 56.7998 79.4185 57.214 79.9646C57.3783 80.2892 57.6361 80.7641 57.7731 81.0847C58.2299 81.3644 58.0527 81.3352 58.505 81.3249L58.7896 81.1385L58.8536 81.6926C58.2031 81.9612 57.4947 82.2291 56.9302 82.6492L56.2842 82.9472C55.3819 82.8742 54.2103 82.7076 53.4152 83.1623L53.3724 82.8785C53.3034 82.5606 53.2516 81.7481 53.3965 81.4399C53.3574 80.9413 53.2821 80.2923 53.3417 79.8069L53.5374 79.7499C53.3069 79.6521 53.3211 79.6467 53.1462 79.4624L53.3212 79.3572Z" fill="#CD995F"/>
<path d="M53.3212 79.3572C53.9575 78.9918 53.8443 78.8499 54.7248 78.5757C55.6275 79.2356 55.324 78.7572 56.2111 79.112C56.7848 79.2854 56.7998 79.4185 57.214 79.9646C57.3783 80.2892 57.6361 80.7641 57.7731 81.0847C56.0297 81.6723 56.995 82.7982 54.9223 82.2736C55.5453 81.871 55.5232 82.3397 55.9902 81.4567C55.9234 80.8756 54.7368 80.2026 53.9935 79.4557C53.8314 79.5737 53.7211 79.6632 53.5374 79.7499C53.3069 79.6521 53.3211 79.6467 53.1462 79.4624L53.3212 79.3572Z" fill="#B2824F"/>
<path d="M53.3212 79.3572C53.9575 78.9918 53.8443 78.8499 54.7248 78.5757C55.6275 79.2356 55.324 78.7572 56.2111 79.112C56.1816 79.5926 56.3482 79.6496 56.6904 79.9998L56.6172 80.1387C55.249 80.4148 55.0167 79.3028 54.2976 79.2894L53.9935 79.4557C53.8314 79.5737 53.7211 79.6632 53.5374 79.7499C53.3069 79.6521 53.3211 79.6467 53.1462 79.4624L53.3212 79.3572Z" fill="#534D32"/>
<path d="M57.7725 81.0845C58.2293 81.3642 58.0521 81.335 58.5044 81.3247L58.789 81.1383L58.853 81.6924C58.2025 81.9609 57.4941 82.2289 56.9296 82.649L56.2836 82.947C55.3813 82.874 54.2097 82.7074 53.4146 83.162L53.3718 82.8782C53.3028 82.5604 53.251 81.7479 53.3959 81.4396C53.5122 81.8448 53.5194 82.0721 53.556 82.4856C54.0141 82.446 54.5017 82.4387 54.9217 82.2733C56.9944 82.798 56.0291 81.6721 57.7725 81.0845Z" fill="#5B4930"/>
<path d="M49.0958 83.4606C49.3316 82.184 49.2533 81.0095 49.4605 79.7632C49.4801 80.3339 49.4188 81.4301 49.8768 81.7338C50.3623 82.0556 50.3163 82.308 50.3936 82.9419L50.4897 83.3276C50.8245 83.5057 50.8896 83.4418 51.2993 83.434L51.3043 83.5991C50.5992 83.6794 49.8475 83.5078 49.0958 83.4606Z" fill="#6E912A"/>
<path d="M53.0499 77.0874C53.6177 77.8046 53.9734 78.0499 54.7222 78.5758C53.8417 78.85 53.9549 78.992 53.3187 79.3574C53.1317 78.903 53.0995 77.6541 53.0499 77.0874Z" fill="#FEFDFE"/>
<path d="M54.0205 73.9355C55.1976 74.9092 57.5035 75.2502 57.1049 77.0993C56.9546 77.7963 56.6702 77.9667 56.1429 78.343L55.9861 78.3129C55.8531 78.0538 55.7242 77.8263 55.5784 77.5741L55.5109 77.6337L55.6449 78.3841C53.7202 77.3171 52.7149 76.1328 54.0205 73.9355Z" fill="#8DB031"/>
<path d="M69.2244 76.8047C69.3827 77.0971 69.4307 77.5444 69.1354 77.7758C68.247 77.519 66.9899 77.7664 66.0587 77.8959C66.3164 78.2443 66.3891 78.3982 66.7727 78.6055C67.5001 78.5497 68.2922 78.5818 68.9956 78.7855C69.1407 78.8628 69.3783 78.9701 69.4849 79.0768C70.2867 78.9853 71.1622 79.1969 70.8276 80.2087C72.3773 80.6387 74.0193 79.8119 75.029 81.862C76.7556 81.8459 78.4625 81.7061 79.7016 83.1519C80.3455 83.903 80.4964 83.5315 80.9672 83.9635C81.4145 83.9988 81.5019 84.0031 81.9175 84.1642C82.1286 84.2383 83.1172 84.6018 83.273 84.6305C84.3255 85.0002 84.9824 85.2462 85.8852 85.9502C86.1357 86.2302 86.1968 86.3405 86.3938 86.6648C86.2991 87.3726 84.8739 87.9168 84.2247 88.206C76.0777 91.834 66.8201 92.0264 58.0626 92.6461C55.6095 92.8121 52.2822 92.9545 49.9438 92.8498C48.9947 93.0802 48.4633 93.0146 47.4988 92.8585C45.4659 92.9669 43.4375 92.6492 41.3962 92.5948C37.3668 92.4875 33.066 91.8577 29.0776 91.7012C26.1007 91.5844 11.1545 89.047 9.99902 86.7324C10.1073 85.1958 13.0541 84.6507 14.205 84.2266C14.7989 83.9596 16.7855 83.4779 17.4329 83.4587C18.227 83.0447 18.6424 82.3243 19.988 81.8333C21.2319 81.3792 21.8111 81.6497 22.9362 81.3234C23.1287 81.0335 23.7029 80.1064 23.9485 79.9252C25.1343 79.0501 27.6933 79.1522 28.8164 78.2752C29.6845 77.5974 30.4195 76.6337 31.2478 77.6312C31.3794 78.0417 31.289 78.3339 31.2134 78.7536L31.2801 78.9608L31.5751 79.0617C32.5337 78.2978 33.1957 78.0293 34.4364 77.9663L34.4104 77.7292L34.904 77.9676L35.0256 77.882L34.9512 77.3206C35.1464 77.5783 35.3983 77.9541 35.6505 78.1331C36.053 78.1377 36.1738 78.1264 36.5531 78.2506C36.8999 78.305 37.3051 78.2352 37.5434 78.3079L37.9172 78.4745L37.8914 78.532C38.4033 78.7363 38.6964 78.8333 39.1487 79.1529C39.2783 79.1063 39.2807 79.0854 39.3948 78.9993L39.2865 78.534L40.0567 78.4731C40.8229 78.3969 41.2364 76.9132 42.23 77.6703C43.4393 77.9917 44.4017 78.1956 45.6338 78.4254L45.6972 78.4742C45.9796 78.6871 46.0559 78.7232 46.3799 78.8604C46.1735 78.9521 46.1567 78.97 45.9363 79.0035C46.1448 79.298 46.0935 79.136 46.0771 79.5111L46.1425 79.7031C46.9104 79.1815 47.9397 78.602 48.7554 79.4624C48.899 79.7465 48.8331 80.3031 48.6859 80.5645L48.6481 81.4364C48.6148 81.7289 48.5527 82.1505 48.5488 82.433C48.5993 82.9724 48.5165 83.0518 48.8072 83.4274L49.0968 83.4594C49.8485 83.5066 50.6002 83.6782 51.3053 83.5978L51.5238 83.6059C51.8639 83.2787 52.3719 83.1668 52.8185 83.0846C53.0469 83.112 53.1685 83.0004 53.3719 82.878L53.4147 83.1618C54.2098 82.7071 55.3814 82.8737 56.2838 82.9468L56.9298 82.6488C57.4942 82.2286 58.2027 81.9607 58.8531 81.6922L59.4366 81.6312C60.016 81.5595 60.3735 81.5365 60.9575 81.5264L60.8652 81.4043C60.6648 81.2757 60.5487 81.1938 60.36 81.0483L60.3851 80.757C60.6996 80.3983 61.0119 80.0156 61.2088 79.5773C62.9037 78.1297 64.8866 77.1403 67.1485 76.9405C67.7957 76.8834 68.6586 77.0188 69.2244 76.8047Z" fill="#E6BA78"/>
<path d="M14.205 84.2263C14.7989 83.9593 16.7855 83.4776 17.4329 83.4585L17.3068 83.5144C16.9384 83.6066 15.6774 84.7082 15.4356 84.9856L15.4588 85.1737C15.5934 85.2371 15.6226 85.2698 15.7625 85.2882C16.4728 85.244 17.1837 85.2119 17.8951 85.1917C18.3714 85.0759 18.7053 84.9272 19.1564 84.7409L19.9934 84.7525C21.092 84.8158 21.6902 84.9446 22.7737 84.8054L22.8783 84.7918C23.2943 84.9866 23.3399 85.0177 23.6181 85.382L23.6262 85.6122C23.2431 85.883 22.8589 86.0263 22.7456 86.3762C23.2419 86.9183 23.687 87.2785 24.1608 87.7649C25.1724 88.0301 28.6912 89.0794 29.2942 89.8324C29.7795 89.964 29.9445 89.9344 30.4305 89.901C30.9027 89.6536 31.3559 89.4416 31.7679 89.1028C33.0341 89.0761 33.3983 90.012 34.8479 89.5378C35.3734 89.1479 35.6236 89.1499 36.2543 89.1179C37.4996 89.0547 38.4399 88.6675 39.5697 88.1872L40.57 88.8228C41.3237 88.7246 41.9958 88.5985 42.7422 88.7316C44.413 89.461 44.2766 89.7805 46.1775 89.6035C47.0496 89.1646 47.7733 89.051 48.7164 88.8448C49.0111 89.0632 50.0579 90.2157 50.3885 90.3459C53.6571 91.634 58.5661 90.3522 61.8919 89.9529C63.2526 89.7893 67.3983 89.7508 67.6688 89.2457C66.6475 88.806 64.6736 89.8572 63.2714 89.3033C63.5681 88.856 66.4292 88.5549 67.3245 88.3669C68.552 87.9077 69.7753 87.6729 71.0645 87.455C72.1874 87.2652 74.2038 86.2619 75.1141 87.0818L75.3341 87.0307L75.2595 86.904L75.3235 86.7205C75.7066 86.478 76.2564 86.4477 76.7166 86.3843L76.2345 86.2855L76.3459 85.9519C76.6316 85.4898 77.1497 85.4237 77.5762 84.7475C77.8464 84.6379 78.2337 84.563 78.5269 84.493C79.1881 84.5132 81.1149 84.8112 81.5491 84.6776C81.2779 84.4875 81.2816 84.4878 81.0729 84.2285C81.31 84.0582 81.561 84.1429 81.9175 84.164C82.1286 84.2381 83.1172 84.6015 83.273 84.6302C84.3255 84.9999 84.9824 85.246 85.8852 85.9499C86.1357 86.2299 86.1968 86.3403 86.3938 86.6646C86.2991 87.3723 84.8739 87.9165 84.2247 88.2057C76.0777 91.8337 66.8201 92.0261 58.0626 92.6459C55.6095 92.8118 52.2822 92.9543 49.9438 92.8496C48.9947 93.0799 48.4633 93.0143 47.4988 92.8583C45.4659 92.9667 43.4375 92.6489 41.3962 92.5945C37.3668 92.4872 33.066 91.8574 29.0776 91.7009C26.1007 91.5842 11.1545 89.0467 9.99902 86.7321C10.1073 85.1956 13.0541 84.6504 14.205 84.2263Z" fill="#F0D6B3"/>
<path d="M81.5485 84.6788C81.2774 84.4887 81.281 84.489 81.0724 84.2297C81.3094 84.0594 81.5604 84.1441 81.9169 84.1652C82.1281 84.2393 83.1167 84.6027 83.2725 84.6315C84.325 85.0012 84.9818 85.2472 85.8846 85.9512C84.9727 86.739 82.127 86.8082 80.902 86.9965C79.2862 87.2449 77.5837 87.6888 75.9801 87.904C75.6845 87.6743 75.2516 87.402 75.1135 87.083L75.3335 87.032L75.259 86.9053L75.323 86.7217C75.7061 86.4792 76.2558 86.4489 76.7161 86.3855L76.234 86.2868L76.3453 85.9531C76.631 85.491 77.1491 85.425 77.5756 84.7487C77.8459 84.6391 78.2331 84.5642 78.5264 84.4942C79.1875 84.5144 81.1144 84.8124 81.5485 84.6788Z" fill="#EECA90"/>
<path d="M81.548 84.6788C81.2768 84.4887 81.2805 84.489 81.0718 84.2297C81.3089 84.0594 81.5599 84.1441 81.9164 84.1652C82.1275 84.2393 83.1162 84.6027 83.272 84.6315C83.4812 84.9827 83.5714 84.9935 83.5347 85.3415C83.1742 85.4216 82.1889 84.7501 81.548 84.6788Z" fill="#77553C"/>
<path d="M76.7173 86.3853C77.0995 86.558 77.2452 86.545 77.4418 86.8567C77.0704 87.1519 75.8235 87.0487 75.3347 87.0317L75.2601 86.905L75.3241 86.7215C75.7072 86.4789 76.257 86.4487 76.7173 86.3853Z" fill="#B2824F"/>
<path d="M34.8465 89.539C35.372 89.1492 35.6222 89.1512 36.2529 89.1192C37.4982 89.0559 38.4386 88.6688 39.5683 88.1885L40.5686 88.8241C41.3223 88.7258 41.9944 88.5997 42.7408 88.7329C42.3144 88.8849 40.7268 89.523 40.4578 89.5967C40.1639 90.1838 40.0017 90.2963 39.3838 90.521C39.0172 90.6544 38.5053 90.8836 38.1482 90.7494C37.0308 90.4954 35.6602 90.4037 34.5158 90.2978C33.2747 90.1829 31.5624 90.37 30.4291 89.9023C30.9013 89.6549 31.3545 89.4429 31.7665 89.1041C33.0327 89.0773 33.3969 90.0133 34.8465 89.539Z" fill="#EECA90"/>
<path d="M38.1489 90.7485L38.2705 90.6518L38.0126 90.4256C38.272 90.0961 39.9503 89.7281 40.4586 89.5957C40.1647 90.1829 40.0024 90.2954 39.3845 90.52C39.0179 90.6534 38.506 90.8827 38.1489 90.7485Z" fill="#E6BA78"/>
<path d="M19.1559 84.7422L19.9928 84.7538C21.0915 84.8171 21.6896 84.9459 22.7731 84.8067L22.8778 84.7931C23.2937 84.9879 23.3394 85.019 23.6176 85.3833L23.6257 85.6135C23.2426 85.8843 22.8584 86.0276 22.745 86.3775C23.2413 86.9196 23.6865 87.2798 24.1603 87.7662C25.1719 88.0314 28.6907 89.0807 29.2937 89.8337C28.0684 89.5568 27.5926 89.0291 26.1212 88.6267C24.0323 88.0552 22.0639 88.2247 20.2136 87.8038L19.8691 88.0915C19.3048 88.2065 18.8269 88.1521 18.294 87.9512L18.2586 87.782L18.4995 87.627C19.4447 87.1187 21.8511 86.9935 21.1605 85.6827C20.4044 85.1201 18.8806 85.2193 17.8946 85.193C18.3709 85.0772 18.7048 84.9285 19.1559 84.7422Z" fill="#EECA90"/>
<path d="M18.4999 87.626C19.1581 87.6725 19.3242 87.6777 19.9734 87.5819C20.1207 87.4466 20.1407 87.4357 20.2505 87.271C20.408 87.4633 20.4211 87.5068 20.6219 87.656L20.5336 87.6352C20.4266 87.707 20.3357 87.7562 20.214 87.8028L19.8695 88.0905C19.3053 88.2056 18.8273 88.1511 18.2945 87.9502L18.259 87.781L18.4999 87.626Z" fill="#B2824F"/>
<path d="M14.2031 84.2263C14.797 83.9593 16.7836 83.4776 17.431 83.4585L17.305 83.5144C16.9365 83.6066 15.6755 84.7082 15.4337 84.9856L15.4569 85.1737C15.5915 85.2371 15.6207 85.2698 15.7606 85.2882C15.3184 85.5099 14.2687 85.6119 13.7227 85.5448C14.0841 85.3728 14.648 85.148 14.8053 84.7996C14.6741 84.4572 14.5522 84.4627 14.2031 84.2263Z" fill="#EECA90"/>
<path d="M47.4978 92.8579C48.1493 92.4761 49.3388 92.3323 49.9428 92.8492C48.9937 93.0795 48.4623 93.0139 47.4978 92.8579Z" fill="#DDAA6D"/>
<path d="M17.4331 83.4594C18.2273 83.0454 18.6426 82.3249 19.9883 81.8339C21.2322 81.3798 21.8114 81.6504 22.9364 81.3241C23.1289 81.0341 23.7031 80.1071 23.9488 79.9258C25.1346 79.0507 27.6936 79.1528 28.8166 78.2759C29.6847 77.5981 30.4198 76.6343 31.248 77.6318C31.3797 78.0423 31.2893 78.3346 31.2137 78.7542L31.2804 78.9615L31.5754 79.0623C31.3669 79.4566 31.3307 79.3648 31.4229 79.6764L31.6252 79.7352C33.1514 80.7201 33.0835 80.4619 34.7243 80.9279L34.6852 81.0132L35.0877 81.0876C35.0909 81.6513 34.709 81.4289 35 81.8006L34.8259 81.8643L34.4079 82.2094L34.685 82.3168C35.4714 82.09 37.0599 82.1495 37.8396 82.446C38.2346 82.4037 38.3533 82.4747 38.732 82.6048C39.2581 82.8189 39.5532 83.2011 40.0347 83.2736L40.5473 83.0532L40.6086 83.3049L40.461 83.3735C40.1969 83.9177 40.3906 84.4513 40.3156 84.5433C39.2208 85.8857 34.8611 85.0711 34.4951 87.0313L34.6112 87.214C34.3523 87.3048 34.2804 87.3151 34.0184 87.3625L33.7772 87.3659L33.8461 87.5899C33.2337 88.377 31.2642 88.2009 31.135 88.8402L31.5601 89.0733L31.7682 89.1037C31.3562 89.4425 30.903 89.6545 30.4308 89.9019C29.9447 89.9353 29.7797 89.9649 29.2944 89.8333C28.6915 89.0803 25.1726 88.031 24.1611 87.7658C23.6872 87.2794 23.2421 86.9192 22.7458 86.3771C22.8592 86.0272 23.2433 85.8839 23.6264 85.6131L23.6183 85.3829C23.3402 85.0186 23.2945 84.9875 22.8786 84.7927L22.7739 84.8063C21.6904 84.9455 21.0922 84.8167 19.9936 84.7534L19.1567 84.7418C18.7056 84.9281 18.3717 85.0768 17.8954 85.1926C17.184 85.2128 16.4731 85.2449 15.7628 85.2891C15.6228 85.2707 15.5936 85.238 15.4591 85.1746L15.4359 84.9865C15.6777 84.7091 16.9387 83.6075 17.3071 83.5153L17.4331 83.4594Z" fill="url(#paint7_linear_138_3911)"/>
<path d="M21.5873 82.252C22.087 82.1944 22.6108 82.0926 23.1088 82.0049C23.7958 84.0235 28.8195 83.6316 30.4534 83.1529C31.7147 84.3343 31.9895 84.4599 33.8133 84.875C34.1754 84.9576 34.5133 84.9655 34.8198 85.1701L34.5622 85.2579C34.4373 85.8187 34.396 85.7199 33.9471 86.2017L34.2598 86.3191C34.3887 86.6466 34.3789 86.5021 34.2559 86.8687L34.4951 87.0316L34.6112 87.2142C34.3523 87.305 34.2804 87.3154 34.0184 87.3628L33.7772 87.3661L33.8461 87.5902C33.2337 88.3773 31.2642 88.2012 31.135 88.8405L31.5601 89.0736L31.7682 89.104C31.3562 89.4428 30.903 89.6548 30.4308 89.9022C29.9447 89.9355 29.7797 89.9652 29.2944 89.8336C28.6915 89.0806 25.1726 88.0313 24.1611 87.7661C23.6872 87.2796 23.2421 86.9194 22.7458 86.3773C22.8592 86.0275 23.2433 85.8842 23.6264 85.6133L23.6183 85.3832C23.3402 85.0188 23.2945 84.9878 22.8786 84.793L22.7739 84.8066C21.6904 84.9458 21.0922 84.8169 19.9936 84.7537L19.1567 84.7421C18.7056 84.9284 18.3717 85.0771 17.8954 85.1929C17.184 85.2131 16.4731 85.2452 15.7628 85.2893C15.6228 85.271 15.5936 85.2383 15.4591 85.1749L15.4359 84.9867C15.6777 84.7094 16.9387 83.6078 17.3071 83.5156C16.9721 84.1975 16.818 84.5227 16.5937 85.2417C17.6325 84.4803 20.0761 81.5177 21.5873 82.252Z" fill="#E6BA78"/>
<path d="M23.1091 82.0049C23.7962 84.0235 28.8198 83.6316 30.4537 83.1529C31.715 84.3343 31.9898 84.4599 33.8136 84.875C34.1758 84.9576 34.5136 84.9655 34.8201 85.1701L34.5625 85.2579C34.4367 85.2875 33.3865 85.5531 33.3758 85.554C32.46 85.6604 32.1979 85.5518 31.3501 85.2129L31.2216 85.1273C31.2736 84.9872 31.3278 84.8538 31.3843 84.7153C31.3287 84.2388 30.9767 83.9995 30.6115 83.6429C28.9353 83.59 26.314 84.7612 24.8878 83.8514C24.2659 83.2133 24.0105 83.5254 23.3321 83.0994C23.0639 82.7605 23.1118 82.4356 23.1091 82.0049Z" fill="#CD995F"/>
<path d="M31.3485 85.212L31.4806 85.1692C32.1966 84.9309 32.8767 84.4448 33.3742 85.5531C32.4584 85.6595 32.1963 85.5508 31.3485 85.212Z" fill="#DDAA6D"/>
<path d="M33.9453 86.2021L34.258 86.3195C34.3869 86.647 34.3771 86.5025 34.2542 86.8691L34.4934 87.032L34.6095 87.2146C34.3506 87.3054 34.2786 87.3158 34.0166 87.3632L33.7754 87.3666C32.5303 87.5425 31.5388 88.0078 30.2804 88.1697C30.4984 87.6861 31.6477 87.229 32.1455 87.0488C32.7822 86.6859 33.5326 86.6808 33.9453 86.2021Z" fill="url(#paint8_linear_138_3911)"/>
<path d="M33.9462 86.2021L34.2589 86.3195C34.3879 86.647 34.3781 86.5025 34.2551 86.8691C33.382 86.8547 32.6849 87.2246 32.1465 87.0488C32.7832 86.6859 33.5335 86.6808 33.9462 86.2021Z" fill="#B2824F"/>
<path d="M33.7761 87.3667L33.845 87.5907C33.2326 88.3778 31.2631 88.2018 31.1339 88.8411L31.559 89.0741C30.5268 89.1599 30.0612 89.168 29.0385 89.1036C29.4804 88.7903 29.8666 88.5206 30.281 88.1698C31.5394 88.008 32.531 87.5426 33.7761 87.3667Z" fill="#77553C"/>
<path d="M21.5869 82.252C22.0866 82.1944 22.6104 82.0926 23.1084 82.0049C23.1111 82.4356 23.0631 82.7605 23.3314 83.0994C24.0098 83.5254 24.2652 83.2133 24.887 83.8514C23.1265 82.9413 23.3532 84.9407 21.5869 82.252Z" fill="#DDAA6D"/>
<path d="M19.1558 84.7416C18.6865 84.737 18.599 84.8223 18.303 84.5706C18.5827 84.0172 19.5953 83.6286 20.1532 83.9373C20.2549 84.3053 20.1861 84.3123 19.9928 84.7532L19.1558 84.7416Z" fill="#DDAA6D"/>
<path d="M27.7997 85.468C28.2219 85.4018 28.5523 85.4119 28.8978 85.6433L28.8529 85.7932C28.4055 85.9754 28.2335 86.0041 27.7741 86.0916C28.0317 86.1638 28.2747 86.1959 28.4567 86.379C28.1686 86.5529 27.9138 86.5441 27.5742 86.5786C26.7951 86.0891 25.7477 85.9202 25.5954 85.7812C26.3832 85.4212 27.0951 85.8116 27.7997 85.468Z" fill="#77553C"/>
<path d="M31.7958 83.6919L31.7192 83.4767C31.9719 82.3712 33.8829 82.0265 34.824 81.8638L34.4061 82.2089L34.6832 82.3163C35.4695 82.0895 37.058 82.149 37.8377 82.4454C38.2327 82.4031 38.3514 82.4742 38.7301 82.6042C39.2562 82.8183 39.5513 83.2006 40.0328 83.273L40.5454 83.0526L40.6067 83.3043L40.4591 83.373C40.195 83.9172 40.3887 84.4507 40.3137 84.5427C39.2189 85.8852 34.8593 85.0706 34.4933 87.0308L34.2541 86.8679C34.377 86.5012 34.3868 86.6458 34.2579 86.3183L33.9452 86.2009C34.3941 85.7191 34.4354 85.8179 34.5603 85.2571L34.8179 85.1693C36.2547 84.7163 38.6279 84.8102 39.9444 83.868C39.1826 83.2744 35.0786 85.7446 31.7958 83.6919Z" fill="#DDAA6D"/>
<path d="M31.7958 83.6919L31.7192 83.4767C31.9719 82.3712 33.8829 82.0265 34.824 81.8638L34.4061 82.2089L34.6832 82.3163C35.4695 82.0895 37.058 82.149 37.8377 82.4454C38.2327 82.4031 38.3514 82.4742 38.7301 82.6042C37.4124 84.3644 33.6739 83.3838 31.7958 83.6919Z" fill="#EECA90"/>
<path d="M34.6827 82.3167C35.4691 82.0899 37.0576 82.1494 37.8372 82.4459C37.3066 82.8088 35.5473 82.8356 34.922 82.6673C34.7487 82.6207 34.7479 82.4781 34.6827 82.3167Z" fill="#5B4930"/>
<path d="M23.8105 82.0126C22.9492 80.3792 26.0231 79.58 27.1602 79.6635L27.7846 79.6143C27.1839 80.5465 26.9797 80.7512 27.0319 81.8705C27.6695 81.7465 28.7035 81.4815 29.2822 81.2142C29.9502 81.1331 30.3545 81.0261 31.0101 80.854L31.0503 81.0091L30.7639 81.2841C30.9218 81.6672 30.9341 81.7173 30.9275 82.1314C30.106 83.5906 24.7539 83.1813 23.8105 82.0126Z" fill="#DDAA6D"/>
<path d="M23.8105 82.0123C22.9492 80.3788 26.0231 79.5797 27.1602 79.6631C26.936 80.0379 26.705 80.4128 26.4971 80.7965C25.7499 81.5034 26.1435 82.3011 25.611 82.3239C25.1013 82.3456 24.3427 82.0594 23.8105 82.0123Z" fill="#E6BA78"/>
<path d="M27.1597 79.6635L27.7841 79.6143C27.1834 80.5465 26.9792 80.7512 27.0314 81.8705C27.669 81.7465 28.703 81.4815 29.2817 81.2142C29.9497 81.1331 30.354 81.0261 31.0096 80.854L31.0498 81.0091L30.7634 81.2841C30.3322 81.5897 29.8572 81.9808 29.3542 82.0967C28.4959 82.3763 27.0188 82.8756 26.4039 82.0166C26.255 81.6007 26.3949 81.2453 26.4966 80.7969C26.7045 80.4131 26.9355 80.0382 27.1597 79.6635Z" fill="#49572B"/>
<path d="M27.7842 79.6144C28.2359 79.1374 30.1395 77.6115 30.7503 77.8978C30.9102 78.3332 30.6641 78.8511 30.4808 79.272C30.1004 79.6049 30.1495 79.4602 30.0978 79.8597L30.1536 79.8734C29.9071 80.5706 29.8001 80.6735 29.2818 81.2143C28.7032 81.4816 27.6692 81.7466 27.0316 81.8706C26.9793 80.7513 27.1836 80.5466 27.7842 79.6144Z" fill="#8DB031"/>
<path d="M31.2126 78.7534L31.2793 78.9607C31.038 79.6395 31.4238 79.8067 31.0094 80.8533C30.3538 81.0254 29.9494 81.1324 29.2814 81.2135C29.7997 80.6727 29.9067 80.5698 30.1532 79.8726L30.0974 79.8588C30.1491 79.4593 30.1 79.6041 30.4804 79.2712C30.8496 79.0864 30.937 79.0557 31.2126 78.7534Z" fill="#8DB031"/>
<path d="M32.2953 81.9454C32.0453 82.1823 31.9888 82.2882 31.6689 82.3157L31.4317 82.1033C31.1969 81.5446 31.089 80.9209 31.6574 80.562C32.1667 80.6406 32.3189 80.9303 32.5061 81.379L32.2953 81.9454Z" fill="#AB7853"/>
<path d="M32.506 81.3796C33.3451 81.1851 34.0875 81.2804 34.9447 81.3541C34.14 81.5265 33.0661 81.8077 32.2952 81.946L32.506 81.3796Z" fill="#B2824F"/>
<path d="M34.95 77.3213C35.1452 77.579 35.3971 77.9548 35.6493 78.1337C36.0518 78.1383 36.1726 78.127 36.5519 78.2513C36.8987 78.3057 37.3039 78.2358 37.5422 78.3086L37.916 78.4752L37.8902 78.5326C38.4021 78.737 38.6952 78.834 39.1476 79.1536C39.2771 79.107 39.2795 79.086 39.3936 79L39.2853 78.5346L40.0555 78.4738C40.8217 78.3975 41.2353 76.9138 42.2288 77.671C43.4381 77.9924 44.4005 78.1962 45.6326 78.4261L45.696 78.4749C45.9785 78.6877 46.0547 78.7238 46.3787 78.8611C46.1723 78.9527 46.1555 78.9706 45.9351 79.0041C46.1436 79.2986 46.0923 79.1366 46.0759 79.5118L46.1413 79.7038C46.9092 79.1822 47.9385 78.6026 48.7542 79.4631C48.8978 79.7472 48.8319 80.3038 48.6847 80.5651L48.6469 81.437C48.6136 81.7295 48.5515 82.1512 48.5477 82.4336C48.5981 82.9731 48.5153 83.0524 48.806 83.4281L49.0956 83.46C49.8473 83.5072 50.599 83.6789 51.3041 83.5985L51.5226 83.6066C51.8628 83.2794 52.3707 83.1675 52.8173 83.0853C53.0457 83.1126 53.1673 83.0011 53.3708 82.8786L53.4135 83.1625C52.2903 83.5132 50.8285 84.4068 50.024 85.2744L49.5959 85.3342C48.873 84.434 47.8254 83.7253 46.6387 84.0376C46.1897 84.2255 45.1249 84.2983 44.6293 84.2882C44.3874 84.0415 44.2653 84.1886 44.137 83.8211L44.3993 83.6501C43.5503 83.4139 42.4579 83.2175 41.7207 82.7408L41.298 83.0047C41.1462 82.877 40.9397 82.8119 40.7521 82.7356C40.7145 82.7914 40.5627 83.0075 40.5459 83.0532L40.0332 83.2736C39.5517 83.2011 39.2566 82.8189 38.7305 82.6048C38.3518 82.4747 38.2332 82.4037 37.8381 82.446C37.0585 82.1495 35.47 82.09 34.6836 82.3168L34.4065 82.2094L34.8244 81.8643L34.9986 81.8006C34.7076 81.4289 35.0894 81.6513 35.0862 81.0876L34.6837 81.0132L34.7228 80.9279C33.0821 80.4619 33.1499 80.7201 31.6237 79.7352L31.4215 79.6764C31.3292 79.3648 31.3654 79.4566 31.5739 79.0623C32.5325 78.2985 33.1945 78.03 34.4352 77.967L34.4092 77.7298L34.9028 77.9682L35.0244 77.8826L34.95 77.3213Z" fill="#5B4930"/>
<path d="M40.0556 78.4735C40.8218 78.3972 41.2353 76.9135 42.2289 77.6706C43.4382 77.992 44.4006 78.1959 45.6327 78.4258L45.6961 78.4745C45.9786 78.6874 46.0548 78.7235 46.3788 78.8607C46.1724 78.9524 46.1556 78.9703 45.9352 79.0038C46.1437 79.2983 46.0924 79.1363 46.076 79.5115L46.1414 79.7034C46.9093 79.1818 47.9386 78.6023 48.7543 79.4627C48.8979 79.7468 48.832 80.3034 48.6848 80.5648L48.647 81.4367C47.2886 82.8727 47.2229 81.9303 46.2222 82.633C45.5563 82.2198 44.4122 82.0598 43.6167 81.8984C42.6661 81.4463 42.3398 82.0802 41.6625 80.6109L41.2534 80.4748C40.93 80.1937 40.7273 79.8598 40.4872 79.5072L40.4186 79.3411C40.194 79.5853 40.1975 79.6062 40.1155 79.9377L39.7558 79.6687L39.7965 79.603L39.7497 79.5051L39.0367 79.4792L39.1476 79.1532C39.2772 79.1066 39.2796 79.0857 39.3937 78.9996L39.2854 78.5343L40.0556 78.4735Z" fill="#CD995F"/>
<path d="M40.0556 78.4735C40.8218 78.3972 41.2353 76.9135 42.2289 77.6706C43.4382 77.992 44.4006 78.1959 45.6327 78.4258L45.6961 78.4745C45.9786 78.6874 46.0548 78.7235 46.3788 78.8607C46.1724 78.9524 46.1556 78.9703 45.9352 79.0038C46.1437 79.2983 46.0924 79.1363 46.076 79.5115C44.9801 79.1121 44.8075 79.1859 43.6413 79.4421L43.022 79.5894C42.8436 79.5735 41.9544 79.2387 41.7148 79.1548C41.1842 79.1811 40.8807 79.1332 40.4872 79.5072L40.4186 79.3411C40.194 79.5853 40.1975 79.6062 40.1155 79.9377L39.7558 79.6687L39.7965 79.603L39.7497 79.5051L39.0367 79.4792L39.1476 79.1532C39.2772 79.1066 39.2796 79.0857 39.3937 78.9996L39.2854 78.5343L40.0556 78.4735Z" fill="#516629"/>
<path d="M40.0556 78.4735C40.8218 78.3972 41.2353 76.9135 42.2289 77.6706L41.5202 78.4414L41.557 78.5924C41.7898 78.6701 42.131 78.7602 42.324 78.8885L42.321 78.9922C42.154 79.0327 41.8618 79.0918 41.7148 79.1548C41.1842 79.1811 40.8807 79.1332 40.4872 79.5072L40.4186 79.3411C40.194 79.5853 40.1975 79.6062 40.1155 79.9377L39.7558 79.6687L39.7965 79.603L39.7497 79.5051L39.0367 79.4792L39.1476 79.1532C39.2772 79.1066 39.2796 79.0857 39.3937 78.9996L39.2854 78.5343L40.0556 78.4735Z" fill="#576D2B"/>
<path d="M42.3246 78.8887C43.3609 79.1173 44.8406 79.0274 45.9357 79.0039C46.1442 79.2984 46.0929 79.1364 46.0766 79.5116C44.9807 79.1123 44.8081 79.1861 43.6418 79.4422L43.0225 79.5895C42.8441 79.5737 41.9549 79.2388 41.7154 79.1549C41.8623 79.0919 42.1546 79.0328 42.3215 78.9923L42.3246 78.8887Z" fill="#FEFDFE"/>
<path d="M42.3215 78.9922C42.8777 79.2706 43.0297 79.3649 43.6418 79.4421L43.0225 79.5894C42.8441 79.5736 41.9549 79.2387 41.7154 79.1548C41.8623 79.0918 42.1546 79.0327 42.3215 78.9922Z" fill="#534D32"/>
<path d="M41.663 80.611L42.1346 80.541C42.7942 81.8416 43.9556 81.265 44.6066 81.1708C44.7517 81.1497 45.4894 82.4894 46.4049 82.1092C46.5514 81.8685 46.6583 81.6819 46.7872 81.4313L46.9913 81.4653C47.0921 81.6515 47.1582 81.7887 47.2915 81.9568C47.7888 81.852 47.6106 81.948 47.9709 81.6024C48.0565 81.2763 48.1093 81.0813 48.2308 80.7681C48.3968 80.6877 48.5101 80.6287 48.6853 80.5649L48.6476 81.4368C47.2892 82.8727 47.2235 81.9304 46.2228 82.6331C45.5569 82.2199 44.4128 82.0598 43.6172 81.8985C42.6666 81.4464 42.3403 82.0803 41.663 80.611Z" fill="#C89059"/>
<path d="M40.4882 79.5072C40.8817 79.1332 41.1852 79.1811 41.7159 79.1548C41.9554 79.2387 42.8446 79.5735 43.023 79.5894L43.4059 79.9978C43.1339 80.6464 42.8192 80.5084 42.135 80.541L41.6635 80.611L41.2544 80.4748C40.931 80.1937 40.7283 79.8598 40.4882 79.5072Z" fill="#DDAA6D"/>
<path d="M43.6416 79.4421C44.8078 79.1859 44.9804 79.1121 46.0763 79.5115L46.1417 79.7034L46.4296 80.058L46.1027 80.0673C44.5401 78.8758 44.4677 80.8574 43.4052 79.9978L43.0223 79.5894L43.6416 79.4421Z" fill="#5B4930"/>
<path d="M46.4299 80.0586C46.8451 80.1688 47.0159 80.2003 47.3982 80.422L47.4335 80.5623C46.9097 80.6221 46.5541 80.3425 46.103 80.0679L46.4299 80.0586Z" fill="#B2824F"/>
<path d="M31.5739 79.0626C32.5325 78.2988 33.1945 78.0303 34.4352 77.9673L34.9379 78.1712L34.8681 78.4171C35.0384 78.8092 35.1304 79.0015 35.3471 79.3732C35.7023 79.9701 35.8755 80.4314 36.1315 81.0693C35.6812 81.0115 35.1712 80.9277 34.7228 80.9282C33.0821 80.4622 33.1499 80.7204 31.6237 79.7355L31.4215 79.6767C31.3292 79.3651 31.3654 79.4569 31.5739 79.0626Z" fill="#E6BA78"/>
<path d="M35.3484 79.3726C35.7036 79.9695 35.8768 80.4308 36.1328 81.0687C35.6825 81.0109 35.1724 80.9271 34.7241 80.9276C33.0834 80.4616 33.1512 80.7198 31.625 79.7349L31.7121 79.565L32.0539 79.6753L32.1789 79.5447C32.5396 80.2578 32.9838 80.2136 33.7265 80.3623C34.2024 80.13 35.1077 79.7786 35.3484 79.3726Z" fill="#DDAA6D"/>
<path d="M31.5739 79.0626C32.5325 78.2988 33.1945 78.0303 34.4352 77.9673L34.9379 78.1712L34.8681 78.4171C33.6859 78.5016 32.9982 78.64 32.1776 79.5453L32.0527 79.6759L31.7108 79.5656L31.6237 79.7355L31.4215 79.6767C31.3292 79.3651 31.3654 79.4569 31.5739 79.0626Z" fill="url(#paint9_linear_138_3911)"/>
<path d="M36.0996 81.71C38.2061 81.739 39.0642 81.5304 40.7539 82.7354C40.7164 82.7912 40.5645 83.0073 40.5477 83.053L40.0351 83.2734C39.5536 83.201 39.2585 82.8187 38.7324 82.6046C38.3537 82.4746 38.235 82.4035 37.84 82.4458C37.0603 82.1493 35.4718 82.0899 34.6854 82.3167L34.4083 82.2093L34.8263 81.8642L35.0004 81.8004L36.0996 81.71Z" fill="#E6BA78"/>
<path d="M37.8918 78.5327C38.4037 78.737 38.6968 78.8341 39.1491 79.1537L39.0382 79.4796L39.7511 79.5055L39.798 79.6034L39.7572 79.6692C39.4435 80.1532 39.0367 80.7121 38.9223 81.2696C38.6776 81.3778 38.6033 81.3391 38.3171 81.3326C37.892 81.1884 37.9642 81.2829 37.7349 80.9812C37.558 80.1634 37.6535 79.5026 37.7774 78.6774L37.8918 78.5327Z" fill="#DDAA6D"/>
<path d="M39.0375 79.4795L39.7504 79.5053L39.7973 79.6033L39.7565 79.669C39.4428 80.153 39.036 80.7119 38.9216 81.2694C38.6768 81.3776 38.6026 81.339 38.3163 81.3324L38.4683 80.6007L39.0375 79.4795Z" fill="#516629"/>
<path d="M34.9512 77.3213C35.1464 77.579 35.3983 77.9548 35.6505 78.1337L35.5993 78.3335C35.8119 78.775 36.5027 80.2536 36.7609 80.5702L36.953 80.9134L36.8846 81.1035L36.4187 81.1517L36.4987 81.3354C36.6889 81.4032 36.8116 81.4411 37.0071 81.4919L37.0682 81.6054C36.7815 81.647 36.2543 81.6354 36.099 81.7101L34.9997 81.8006C34.7087 81.4289 35.0906 81.6513 35.0874 81.0876L34.6849 81.0132L34.724 80.9279C35.1724 80.9275 35.6824 81.0112 36.1327 81.069C35.8767 80.4311 35.7035 79.9698 35.3483 79.3729C35.1316 79.0012 35.0396 78.8089 34.8693 78.4168L34.9391 78.1709L34.4364 77.967L34.4104 77.7298L34.904 77.9682L35.0256 77.8826L34.9512 77.3213Z" fill="#49572B"/>
<path d="M41.7217 82.7406C42.9987 82.2584 44.8162 82.4002 45.8844 83.3069L45.9448 83.5528C45.5022 83.8794 44.9887 83.7194 44.4003 83.6499C43.5512 83.4136 42.4589 83.2172 41.7217 82.7406Z" fill="#E6BA78"/>
<path d="M41.2548 80.4751L41.6638 80.6113C42.3411 82.0806 42.6674 81.4466 43.618 81.8987C42.4134 82.199 40.0327 82.4759 41.2548 80.4751Z" fill="#B2824F"/>
<path d="M39.7565 79.6689L40.1163 79.9379C40.321 80.3437 40.392 80.4346 40.3526 80.8801C40.1042 81.3255 39.9449 81.3664 39.4443 81.3183L38.9216 81.2694C39.036 80.7119 39.4428 80.153 39.7565 79.6689Z" fill="#CD995F"/>
<path d="M46.2224 82.6329C47.2231 81.9302 47.2888 82.8725 48.6472 81.4365C48.6139 81.729 48.5518 82.1507 48.548 82.4331L48.4013 83.0548C47.7046 83.0175 47.8491 82.5587 46.3267 82.7159L46.2224 82.6329Z" fill="#B2824F"/>
<path d="M46.3271 82.7163C47.8494 82.5591 47.7049 83.0179 48.4017 83.0552C48.2845 83.4515 48.3739 83.3769 48.1007 83.5345C47.3762 83.6201 46.8953 83.1488 46.3271 82.7163Z" fill="#AB7853"/>
<path d="M35.6 78.3335L36.646 78.7143C36.6916 79.3316 36.7432 79.9518 36.7615 80.5702C36.5034 80.2537 35.8126 78.775 35.6 78.3335Z" fill="#DDAA6D"/>
<path d="M69.2234 76.8047C69.3817 77.0971 69.4296 77.5444 69.1344 77.7758C68.2459 77.519 66.9889 77.7664 66.0577 77.8959C66.3154 78.2443 66.3881 78.3982 66.7717 78.6055C67.4991 78.5497 68.2911 78.5818 68.9946 78.7855C69.1397 78.8628 69.3772 78.9701 69.4839 79.0768C70.2857 78.9853 71.1611 79.1969 70.8266 80.2087L70.59 80.3768L70.4349 80.5901L70.1833 80.3273C70.0277 80.4853 70.0802 80.6601 70.0643 80.9554C70.2884 81.5329 70.5082 81.9428 70.4206 82.5612L69.8016 82.6732C68.6409 82.8476 68.1807 82.613 67.213 82.0148L66.7705 82.2298C66.85 82.4449 66.947 82.734 67.0384 82.9381C66.6603 82.9434 66.4032 82.8671 66.0369 82.7861C65.2047 82.2311 64.7952 82.8231 64.1457 82.1817C63.538 81.6147 61.7601 81.5404 60.9564 81.5264L60.8642 81.4043C60.6638 81.2757 60.5477 81.1938 60.359 81.0483L60.3841 80.757C60.6986 80.3983 61.0108 80.0156 61.2077 79.5773C62.9027 78.1297 64.8856 77.1403 67.1475 76.9405C67.7947 76.8834 68.6576 77.0188 69.2234 76.8047Z" fill="#576D2B"/>
<path d="M66.7719 78.6064C67.4993 78.5506 68.2913 78.5827 68.9947 78.7864C69.1399 78.8637 69.3774 78.971 69.484 79.0777C70.2858 78.9862 71.1613 79.1978 70.8267 80.2096L70.5901 80.3777L70.4351 80.591L70.1835 80.3282C70.0278 80.4862 70.0804 80.661 70.0645 80.9563C70.2886 81.5338 70.5084 81.9437 70.4207 82.5621C70.2533 82.5124 70.0865 82.4608 69.9204 82.4068C69.2874 82.1994 69.1444 82.121 68.8698 81.5866C68.4401 81.1382 66.9072 79.5953 66.7961 79.0487L66.7719 78.6064Z" fill="#B0CC39"/>
<path d="M66.7719 78.6064C67.4993 78.5506 68.2913 78.5827 68.9947 78.7864C69.1399 78.8637 69.3774 78.971 69.484 79.0777C70.2858 78.9862 71.1613 79.1978 70.8267 80.2096L70.5901 80.3777L70.4351 80.591L70.1835 80.3282C70.0278 80.4862 70.0804 80.661 70.0645 80.9563C69.5132 79.8536 68.8681 79.6886 67.7822 79.2877L66.7961 79.0487L66.7719 78.6064Z" fill="#4C4B29"/>
<path d="M69.484 79.0774C70.2858 78.9858 71.1613 79.1975 70.8267 80.2092L70.5901 80.3773C69.8981 80.0547 69.8158 79.7544 69.484 79.0774Z" fill="#534D32"/>
<path d="M66.7719 78.6064C67.4993 78.5506 68.2913 78.5827 68.9947 78.7864C68.4716 78.8443 68.1913 78.9117 67.7822 79.2877L66.7961 79.0487L66.7719 78.6064Z" fill="#49572B"/>
<path d="M65.1747 79.7705C65.5894 81.1249 65.6827 81.2513 66.6863 82.2561L66.7701 82.2306C66.8496 82.4456 66.9466 82.7348 67.038 82.9388C66.6599 82.9442 66.4028 82.8679 66.0365 82.7869C65.2043 82.2318 64.7948 82.8239 64.1453 82.1825C63.5376 81.6155 61.7597 81.5412 60.956 81.5271L60.8638 81.405C60.9452 80.9977 60.9565 80.9056 61.1534 80.5435L61.3685 80.4815C61.7876 80.676 61.7785 80.7634 62.144 80.6572L62.1963 80.5972L62.6461 80.7685C63.1744 80.8574 63.9044 81.0621 64.3745 80.9666L64.7169 80.6832C64.7589 80.3966 65.0163 80.0331 65.1747 79.7705Z" fill="#77553C"/>
<path d="M65.1754 79.7705C65.5901 81.1249 65.6834 81.2513 66.687 82.2561C66.1926 82.2786 65.126 81.9274 64.598 81.7788C64.6924 81.3784 64.8053 81.0778 64.7176 80.6832C64.7596 80.3966 65.017 80.0331 65.1754 79.7705Z" fill="#B2824F"/>
<path d="M60.8638 81.405C60.9452 80.9977 60.9565 80.9055 61.1534 80.5435L61.3685 80.4814C61.7876 80.676 61.7785 80.7634 62.144 80.6572L62.1963 80.5971L62.6461 80.7685C61.4293 81.157 62.1115 81.3669 60.8638 81.405Z" fill="#5B4930"/>
<path d="M69.2234 76.8047C69.3817 77.0971 69.4296 77.5444 69.1344 77.7758C68.2459 77.519 66.9889 77.7664 66.0577 77.8959C64.9519 77.9454 62.61 78.8095 61.8656 79.6971C61.659 79.9438 61.587 80.225 61.3689 80.4807L61.1538 80.5428C60.9569 80.9048 60.9456 80.997 60.8642 81.4043C60.6638 81.2757 60.5477 81.1938 60.359 81.0483L60.3841 80.757C60.6986 80.3983 61.0108 80.0156 61.2077 79.5773C62.9027 78.1297 64.8856 77.1403 67.1475 76.9405C67.7947 76.8834 68.6576 77.0188 69.2234 76.8047Z" fill="#49572B"/>
<path d="M67.2129 82.0156C66.4268 81.4723 65.3462 80.2318 65.9687 79.2431C66.8652 79.1771 67.6892 81.387 68.8695 81.5865C69.1442 82.1209 69.2871 82.1993 69.9202 82.4067C70.0862 82.4607 70.253 82.5123 70.4204 82.562L69.8015 82.674C68.6408 82.8484 68.1806 82.6138 67.2129 82.0156Z" fill="#8DB031"/>
<path d="M62.1979 80.5972C62.7651 79.8791 64.2805 78.6039 65.2426 78.9395C65.3918 79.3034 65.3014 79.3249 65.1763 79.7706C65.0179 80.0331 64.7605 80.3967 64.7185 80.6833L64.3762 80.9666C63.906 81.0621 63.176 80.8575 62.6477 80.7685L62.1979 80.5972Z" fill="#DDAA6D"/>
<path d="M46.1784 89.6041L46.413 89.2804C47.2436 88.1499 48.6344 88.0732 49.8436 88.6275L49.3913 88.7591L49.323 88.9216C50.8877 91.1692 52.2084 90.4734 54.4449 90.5977C57.2301 90.7523 59.3426 89.8997 62.0055 89.7256L62.0257 89.6613C61.0293 89.2891 58.78 89.8263 57.7539 89.6718C56.0591 89.4167 53.7653 89.6784 52.2054 89.4255C51.9555 89.2124 51.9707 89.2926 51.9173 89.0347C52.5761 89.661 52.4481 89.4076 53.2756 89.3556C54.7095 89.2656 62.4035 89.8509 63.2723 89.304C64.6745 89.8578 66.6484 88.8066 67.6697 89.2463C67.3992 89.7514 63.2536 89.79 61.8928 89.9535C58.567 90.3528 53.6581 91.6346 50.3894 90.3466C50.0588 90.2163 49.012 89.0639 48.7173 88.8455C47.7742 89.0516 47.0505 89.1652 46.1784 89.6041Z" fill="#EECA90"/>
<path d="M70.0662 80.9558C70.0821 80.6605 70.0296 80.4857 70.1852 80.3276L70.4368 80.5905L70.5428 80.7608L70.973 81.1512C72.6197 82.9947 70.6782 83.2447 69.5973 83.9664C68.2943 83.8247 67.5033 83.8239 66.3147 83.2711C66.1511 83.055 66.1354 83.052 66.0388 82.7865C66.4051 82.8675 66.6622 82.9438 67.0403 82.9384C66.9489 82.7344 66.8519 82.4452 66.7724 82.2302L67.2149 82.0152C68.1826 82.6134 68.6428 82.848 69.8035 82.6736L70.4224 82.5616C70.5101 81.9432 70.2903 81.5333 70.0662 80.9558Z" fill="#CD995F"/>
<path d="M70.0638 80.9558C70.0797 80.6605 70.0272 80.4857 70.1828 80.3276L70.4344 80.5905L70.5404 80.7608L70.9706 81.1512C71.0577 82.1599 71.2046 83.0278 69.9054 83.1269L69.3981 82.9559L69.8011 82.6736L70.4201 82.5616C70.5077 81.9432 70.2879 81.5333 70.0638 80.9558Z" fill="#5B4930"/>
<path d="M66.7719 82.2297L67.2144 82.0146C68.1821 82.6128 68.6423 82.8474 69.803 82.673L69.4 82.9553L69.9073 83.1263C68.5927 83.4451 68.3449 83.2631 67.0398 82.9379C66.9484 82.7339 66.8514 82.4447 66.7719 82.2297Z" fill="#534D32"/>
<path d="M70.5899 80.3771L70.8265 80.209C72.3762 80.639 74.0181 79.8122 75.0279 81.8623C76.7545 81.8462 78.4613 81.7064 79.7005 83.1522C80.3444 83.9033 80.4953 83.5318 80.9661 83.9639C80.2982 84.4933 79.1503 83.406 78.559 83.0833C77.1432 82.3102 75.8563 82.2383 74.3247 82.6532L74.2309 82.2175C74.7085 80.826 71.2366 80.7408 70.5408 80.7607L70.4348 80.5904L70.5899 80.3771Z" fill="#5B4930"/>
<path d="M49.598 85.3342L50.0262 85.2744C50.614 85.6204 51.114 85.6675 51.7792 85.7838C52.0587 85.8177 52.1538 85.8086 52.4371 85.7904C52.3803 85.9204 52.2437 86.2094 52.2065 86.3294C51.9055 86.3222 51.4309 86.6551 50.9105 86.6545C50.5587 86.654 49.5898 86.3736 49.4607 86.4031C48.718 86.5732 48.4656 87.1113 47.5893 86.8535C47.0403 86.6918 45.8769 86.5301 45.5187 86.0014L45.6093 85.6595C46.0408 85.5301 46.3663 85.9253 46.9373 85.8828C47.8048 85.8183 48.5943 85.618 49.468 85.5682L49.5888 85.4271L49.598 85.3342Z" fill="#DDAA6D"/>
<path d="M49.5971 85.3342L50.0253 85.2744C50.6131 85.6204 51.1131 85.6675 51.7783 85.7838C51.2229 86.4813 50.1729 85.8326 49.588 85.4271L49.5971 85.3342Z" fill="#77553C"/>
<path d="M33.7771 87.3657L34.0183 87.3623C34.7709 87.8974 34.8091 87.5996 35.3903 87.8922C35.7623 88.5272 36.3402 88.0384 36.9543 88.4223L36.9251 88.5872C35.8863 88.8617 35.529 88.3532 34.8675 89.0949L34.8481 89.5385C33.3984 90.0127 33.0343 89.0768 31.7681 89.1035L31.56 89.0731L31.1349 88.84C31.2641 88.2007 33.2336 88.3768 33.846 87.5897L33.7771 87.3657Z" fill="#DDAA6D"/>
<path d="M33.7771 87.3657L34.0183 87.3623C34.7709 87.8974 34.8091 87.5996 35.3903 87.8922C34.4106 88.8493 31.8869 88.0956 31.7681 89.1035L31.56 89.0731L31.1349 88.84C31.2641 88.2007 33.2336 88.3768 33.846 87.5897L33.7771 87.3657Z" fill="#B2824F"/>
<path d="M67.3248 88.3674C67.5276 88.1434 67.7236 87.952 67.9847 87.7954C68.8345 87.2854 74.8866 85.6594 75.5873 85.8697C75.8183 85.939 76.0004 85.9501 76.2422 85.9523L76.3462 85.9524L76.2348 86.286L76.7169 86.3848C76.2567 86.4482 75.7069 86.4785 75.3238 86.721L75.2598 86.9045L75.3343 87.0312L75.1144 87.0823C74.2041 86.2624 72.1877 87.2657 71.0648 87.4555C69.7756 87.6734 68.5523 87.9082 67.3248 88.3674Z" fill="#EECA90"/>
<path d="M59.4354 81.6312C60.0148 81.5595 60.3722 81.5365 60.9562 81.5264C60.6238 82.3008 59.443 82.4099 59.5413 83.1098C59.8738 83.469 60.2114 83.4167 60.712 83.5908C60.8835 83.8553 61.0606 84.1396 61.2433 84.3944C60.7593 84.1877 60.115 84.124 59.7765 83.9504C58.7524 83.4254 58.0108 83.0588 56.9285 82.6487C57.493 82.2286 58.2014 81.9607 58.8519 81.6922L59.4354 81.6312Z" fill="#C89059"/>
<path d="M60.9567 81.5264C61.7604 81.5404 63.5383 81.6147 64.1459 82.1817C62.5756 82.4109 61.8764 82.1313 60.6266 83.1266L59.7308 83.0586C59.918 83.0606 60.6568 83.41 60.8365 83.5608L60.7125 83.5908C60.2119 83.4167 59.8743 83.469 59.5417 83.1098C59.4435 82.4099 60.6243 82.3008 60.9567 81.5264Z" fill="#DDAA6D"/>
<path d="M41.2986 83.0052L41.7213 82.7412C42.4585 83.2179 43.5509 83.4143 44.3999 83.6506L44.1376 83.8216C44.2659 84.189 44.388 84.0419 44.6299 84.2886C44.3655 84.6193 44.7112 85.251 44.4778 85.6123C44.0916 85.6574 43.1221 85.2606 42.7714 85.0633L42.8031 84.94C43.251 84.8608 43.4458 84.8153 43.8807 84.684L43.9566 84.5266C42.8725 83.5176 41.9146 83.6067 41.2986 83.0052Z" fill="#77553C"/>
<path d="M56.2835 82.9469L56.9295 82.6489C58.0118 83.059 58.7534 83.4256 59.7775 83.9506C60.116 84.1242 60.7603 84.1879 61.2442 84.3945L61.2219 84.6375C60.0306 84.3614 59.62 84.9139 58.7002 84.13C57.9459 83.4872 57.2283 83.2297 56.2835 82.9469Z" fill="#77553C"/>
<path d="M75.2622 84.433C76.128 84.0393 77.4944 83.6856 78.4433 83.6094L78.6254 83.6855C78.6946 83.9994 78.5778 84.1699 78.5261 84.4932C78.2328 84.5632 77.8456 84.6381 77.5754 84.7477L77.4509 84.7085C77.1442 84.4346 75.8766 84.4985 75.2622 84.433Z" fill="#CD995F"/>
<path d="M77.4498 84.7092C76.6148 84.9355 74.5047 84.9829 73.8109 84.3911C74.3098 84.1379 74.7045 84.3065 75.2611 84.4336C75.8755 84.4992 77.1431 84.4353 77.4498 84.7092Z" fill="#77553C"/>
<path d="M60.8371 83.5608C61.2603 83.5605 61.5535 83.5032 61.8796 83.7451C61.8721 84.1552 61.5107 84.3269 61.222 84.6373L61.2443 84.3944C61.0616 84.1396 60.8846 83.8553 60.713 83.5908L60.8371 83.5608Z" fill="#CD995F"/>
<path d="M52.4365 85.7896C52.858 85.8767 53.5973 86.0069 53.9847 86.1232L54.0596 86.3159L54.0918 86.1597L54.2284 86.2592C53.7365 86.4317 52.7454 86.3562 52.2059 86.3286C52.2431 86.2086 52.3797 85.9196 52.4365 85.7896Z" fill="#B2824F"/>
<path d="M74.2331 82.2178L74.3269 82.6535C73.8235 82.8276 73.462 82.9792 72.9573 82.8153L72.9501 82.6619C73.3084 82.3685 73.7762 82.3147 74.2331 82.2178Z" fill="#77553C"/>
<path d="M64.7844 87.3431C64.5734 87.2984 63.9578 87.3279 63.4679 87.2288L63.4167 87.1055C64.1906 86.7211 66.2635 86.8834 67.0959 86.9484C67.4617 86.977 68.751 86.1358 69.2019 86.2481C69.1463 86.402 68.5027 86.6829 68.2634 86.9702C67.2958 87.7793 65.9125 87.8379 64.7844 87.3431Z" fill="#CD995F"/>
<path d="M64.7844 87.3436C65.2936 86.9884 67.4033 87.052 68.2634 86.9707C67.2958 87.7798 65.9125 87.8383 64.7844 87.3436Z" fill="#77553C"/>
<path d="M56.4339 85.8106C56.6311 85.7713 56.8373 85.774 57.0408 85.7656L57.1182 85.9105L57.2255 85.9174C56.6256 86.1813 55.9817 86.2816 55.3388 86.4104L54.9375 86.5197L54.7322 86.3748L54.6604 86.3852L54.7501 86.1994C55.2621 85.8883 55.8369 85.8747 56.4339 85.8106Z" fill="#AB7853"/>
<path d="M42.7469 87.9064L42.857 87.9313C42.4868 88.1737 42.1454 88.2479 41.7247 88.3687C41.5268 88.1606 41.5646 88.2767 41.5614 88.0284C41.8281 87.86 42.4005 87.9083 42.7469 87.9064Z" fill="#AB7853"/>
<path d="M28.1893 73.8337C26.382 75.1096 24.2323 75.1173 22.1542 74.4834C21.6072 74.3165 18.5982 73.1002 19.2322 72.1321C20.362 70.4071 24.3582 70.3812 26.1188 71.0661C27.0946 71.4456 27.7778 72.0783 28.1942 73.0619C31.2071 73.5431 33.052 75.0229 34.9522 77.3207L35.0266 77.882L34.905 77.9676L34.4115 77.7292C32.6769 75.5896 30.8298 74.4585 28.1893 73.8337Z" fill="#516629"/>
<path d="M19.5617 72.2483C21.7837 71.1222 25.1092 70.652 27.1416 72.4006C27.4333 72.8257 27.5384 72.7806 27.2552 73.2232L27.5577 73.4249C26.9589 74.7796 22.2629 74.2775 21.2703 73.4316C20.8146 73.2106 20.0016 72.5724 19.5617 72.2483Z" fill="#B0CC39"/>
<path d="M27.1434 72.4004C27.4351 72.8254 27.5402 72.7803 27.257 73.2229L27.5595 73.4247C26.9607 74.7793 22.2647 74.2773 21.2721 73.4314L21.3206 73.2952L21.0151 73.0129C21.3055 72.903 21.7855 73.1383 22.2515 73.0385C23.0879 72.8593 24.1776 72.417 25.0127 72.4348C25.6487 72.4484 26.3501 72.7864 27.0681 72.725L27.1434 72.4004Z" fill="#8DB031"/>
<path d="M34.6211 71.9052C32.9715 71.9193 31.4013 71.3304 30.2882 70.1642C28.4157 68.2023 29.2123 66.4053 31.9871 66.7345C33.6853 66.9358 34.2566 67.3056 35.3485 68.5471C38.2316 68.6123 39.0134 71.6394 35.5456 71.9468L35.3924 71.7476L35.2334 71.7974C34.9874 71.5789 34.6966 71.3646 34.4343 71.1618L34.2831 71.2308L33.9902 71.436L34.5186 71.5225C34.5628 71.6663 34.5993 71.7588 34.6211 71.9052Z" fill="#49572B"/>
<path d="M30.9252 69.9795C27.5479 67.2182 32.9806 65.8625 34.8777 69.0753C34.8057 69.4518 34.8041 69.7004 34.545 69.9711C33.8542 69.9888 33.7959 69.3141 33.1728 69.2936C33.1057 69.5234 33.1429 69.7655 33.1577 70.0091C32.4128 69.9816 31.604 70.0643 30.9252 69.9795Z" fill="#B0CC39"/>
<path d="M34.878 69.0767L35.0256 69.5978L35.0734 70.6698C35.1082 70.9268 35.1762 71.591 35.2332 71.7983C34.9872 71.5797 34.6964 71.3654 34.4341 71.1626L34.2829 71.2316L33.9901 71.4368C32.8487 71.1226 31.8762 70.7049 30.9255 69.9808C31.6043 70.0656 32.4132 69.9829 33.158 70.0104C33.1432 69.7668 33.1061 69.5248 33.1731 69.2949C33.7962 69.3154 33.8546 69.9901 34.5453 69.9724C34.8044 69.7017 34.8061 69.4531 34.878 69.0767Z" fill="#8DB031"/>
<path d="M34.283 71.2311C34.034 70.9609 33.9738 70.9115 33.8052 70.5919C34.2158 70.3103 34.5266 70.4969 34.8667 70.7212L35.0735 70.6693C35.1083 70.9263 35.1763 71.5905 35.2333 71.7978C34.9873 71.5792 34.6965 71.3649 34.4342 71.1621L34.283 71.2311Z" fill="#6E912A"/>
<path d="M35.2753 69.4599C35.5718 69.1117 35.4211 69.2047 35.8351 69.083C36.473 69.1834 37.3512 69.6274 37.1635 70.4102C36.9999 71.093 36.1981 71.3038 35.6121 71.5153C35.5641 71.5639 35.4239 71.6975 35.3927 71.7479L35.2337 71.7977C35.1767 71.5905 35.1088 70.9263 35.0739 70.6692L35.0261 69.5973L35.2753 69.4599Z" fill="#8DB031"/>
<path d="M35.0261 69.5974L35.2753 69.46C35.3451 69.9681 35.5081 70.8865 35.4551 71.3593L35.6121 71.5154C35.5641 71.564 35.4239 71.6975 35.3927 71.748L35.2337 71.7978C35.1767 71.5906 35.1088 70.9264 35.0739 70.6693L35.0261 69.5974Z" fill="#576D2B"/>
<path d="M69.2233 76.8057C69.8393 75.3002 73.2511 74.9464 74.574 75.295C84.6558 77.9506 70.617 81.2667 69.1342 77.7768C69.4295 77.5454 69.3815 77.0981 69.2233 76.8057Z" fill="#516629"/>
<path d="M70.6669 76.2805C72.7842 74.9434 75.8202 76.087 77.7453 77.2481C77.5322 77.3913 77.1069 77.6963 76.9007 77.807C76.5541 77.9899 76.326 78.127 75.9469 78.2424C74.395 79.0675 70.9082 78.9382 69.6034 77.5867C69.7995 77.3754 69.8593 77.4246 70.2033 77.3427C70.0096 77.2179 69.8151 77.1175 69.6773 76.9372C69.8516 76.6141 70.2792 76.4839 70.6669 76.2805Z" fill="#B0CC39"/>
<path d="M75.9469 78.2422C74.395 79.0673 70.9082 78.938 69.6034 77.5865C69.7995 77.3751 69.8593 77.4244 70.2033 77.3424C70.0096 77.2177 69.8151 77.1173 69.6773 76.937C69.8516 76.6139 70.2792 76.4837 70.6669 76.2803C70.4555 76.5314 70.3362 76.6679 70.0977 76.8919C70.2801 76.9455 70.3081 76.9323 70.5005 76.9272C71.8101 77.0602 75.019 77.5219 76.2554 77.9145C76.1245 77.9804 76.0158 78.0554 75.9046 78.1508L75.9469 78.2422Z" fill="#8DB031"/>
<path d="M48.525 76.8036C46.0604 78.584 42.3899 77.6753 40.2663 75.7784C39.9583 75.5033 39.9413 75.2974 39.9438 74.9378C40.0891 74.6702 40.2571 74.4851 40.5562 74.3815C43.0626 73.5139 47.3595 73.3762 48.6185 76.274L48.525 76.8036Z" fill="#49572B"/>
<path d="M43.5961 74.3486C44.8139 74.2433 47.4048 74.7602 47.7121 76.204C47.4292 77.3511 46.0012 77.1836 45.0502 77.1726C42.8473 76.8936 42.1301 76.4176 40.3059 75.0455C41.4571 74.6609 42.4031 74.4825 43.5961 74.3486Z" fill="url(#paint10_linear_138_3911)"/>
<path d="M66.028 72.3418C64.5168 67.3844 74.9523 66.5708 72.1854 70.6562C71.3774 71.8318 70.1393 72.6415 68.7391 72.9103C68.2211 73.0061 67.5363 73.033 67.022 72.9031L66.9546 72.7187L67.0843 72.6296C67.4667 72.6426 67.6767 72.6423 68.0472 72.5477C67.5779 72.5096 67.2235 72.5101 66.7823 72.3416C66.664 72.2545 66.6475 72.18 66.5627 72.0367L66.4657 72.0383L66.028 72.3418Z" fill="#B0CC39"/>
<path d="M66.028 72.3418C64.5168 67.3844 74.9523 66.5708 72.1854 70.6562C71.3774 71.8318 70.1393 72.6415 68.7391 72.9103C68.2211 73.0061 67.5363 73.033 67.022 72.9031L66.9546 72.7187L67.0843 72.6296C67.4667 72.6426 67.6767 72.6423 68.0472 72.5477C68.7533 72.3095 70.0796 71.9097 70.5898 71.4372C71.6331 70.5656 71.7878 70.1653 72.1291 68.8382C69.7084 68.4248 66.2231 68.7975 66.4657 72.0383L66.028 72.3418Z" fill="#49572B"/>
<path d="M66.7823 72.341C67.3315 71.7214 68.0383 70.8312 68.808 70.5503C68.5613 70.8706 68.3803 71.121 68.0824 71.4016C68.7323 71.345 69.9867 71.0718 70.4932 71.2101L70.5898 71.4366C70.0796 71.9091 68.7534 72.3089 68.0472 72.547C67.5779 72.509 67.2235 72.5094 66.7823 72.341Z" fill="#8DB031"/>
<path d="M66.5624 72.0368C67.1353 71.5795 68.4485 70.4876 69.095 70.2886L68.8078 70.551C68.0381 70.8319 67.3313 71.7221 66.7821 72.3417C66.6637 72.2546 66.6472 72.18 66.5624 72.0368Z" fill="#516629"/>
<path d="M59.2994 75.7801C54.8183 74.1082 59.5339 68.7535 61.8875 70.3103C63.1523 72.3864 62.5621 75.1826 60.0241 75.7165C59.895 75.445 59.8548 75.4346 59.613 75.2706C59.3701 75.5377 59.2976 75.5163 59.2994 75.7801Z" fill="#B0CC39"/>
<path d="M59.2994 75.7801C54.8183 74.1082 59.5339 68.7535 61.8875 70.3103L61.2069 70.3909C58.9022 71.0575 56.3318 73.8757 59.4132 75.2877L59.613 75.2706C59.3701 75.5377 59.2976 75.5163 59.2994 75.7801Z" fill="#49572B"/>
<path d="M61.2081 70.3911L61.8888 70.3105C63.1536 72.3866 62.5634 75.1828 60.0254 75.7168C59.8963 75.4452 59.8561 75.4348 59.6143 75.2708L59.4145 75.2879C59.4667 74.7987 59.5187 74.6367 59.6589 74.1828L59.7814 74.1923C59.8998 74.3842 59.916 74.9662 59.9409 75.2329C60.0985 75.1404 60.2546 75.0455 60.4092 74.9483C62.2567 73.7813 62.341 72.1531 61.2081 70.3911Z" fill="url(#paint11_linear_138_3911)"/>
<path d="M66.4657 72.0377L66.5627 72.0361C66.6475 72.1793 66.664 72.2539 66.7824 72.341C67.2236 72.5094 67.578 72.509 68.0472 72.547C67.6768 72.6416 67.4667 72.6419 67.0844 72.629L66.9547 72.7181L67.0221 72.9025C66.3801 72.8576 64.968 74.744 64.3791 75.2187C63.2223 76.1515 61.6546 78.1229 61.2087 79.5777C61.0118 80.016 60.6995 80.3987 60.385 80.7574L60.36 81.0487C60.5486 81.1942 60.6647 81.2761 60.8651 81.4046L60.9574 81.5267C60.3734 81.5368 60.016 81.5599 59.4366 81.6316L58.853 81.6925L58.789 81.1384L58.493 80.7551L58.6063 80.6576C59.7169 80.68 58.9182 80.0724 60.2394 79.8943C60.3346 79.6171 60.3138 79.7666 60.2165 79.4262C60.9482 78.5019 61.5681 77.1255 62.3377 76.1726C63.1702 75.1419 64.1733 74.3624 65.1021 73.4377C65.3607 73.1802 65.7353 72.6673 66.0281 72.3412L66.4657 72.0377Z" fill="#576D2B"/>
<path d="M58.6063 80.6583C59.7169 80.6807 58.9182 80.0731 60.2394 79.895C59.6163 80.7464 59.8311 80.7278 59.4366 81.6322L58.853 81.6932L58.789 81.1391L58.493 80.7558L58.6063 80.6583Z" fill="#5B4930"/>
<path d="M59.6144 75.272C59.8562 75.436 59.8964 75.4464 60.0254 75.7179C59.8777 76.1943 59.5837 78.7449 59.8299 79.2226L60.2167 79.4273C60.314 79.7676 60.3348 79.6182 60.2396 79.8954C58.9184 80.0734 59.717 80.6811 58.6065 80.6586L58.4932 80.7561L58.7892 81.1394L58.5046 81.3259C58.0523 81.3361 58.2295 81.3653 57.7728 81.0856C57.6357 80.765 57.3779 80.2901 57.2137 79.9655L57.5054 79.5407C57.5794 79.3513 57.7158 79.224 57.8516 79.0695C57.622 78.8667 57.5236 78.9089 57.1694 78.8373C58.3282 78.6439 58.0783 78.9368 58.9094 78.9448C59.1092 78.1731 59.2117 76.6392 59.3008 75.7815C59.2989 75.5177 59.3715 75.5391 59.6144 75.272Z" fill="#516629"/>
<path d="M57.8513 79.0679C58.7079 79.4735 58.7066 79.7501 58.6062 80.657L58.4929 80.7545L58.7889 81.1378L58.5043 81.3242C58.052 81.3345 58.2292 81.3637 57.7725 81.084C57.6354 80.7634 57.3776 80.2885 57.2134 79.9639L57.5051 79.539C57.5791 79.3497 57.7155 79.2224 57.8513 79.0679Z" fill="#C89059"/>
<path d="M57.5051 79.54C57.7616 79.971 57.9515 80.3189 58.1764 80.7673C58.4006 80.8009 58.3054 80.8256 58.4929 80.7555L58.7889 81.1388L58.5043 81.3252C58.052 81.3355 58.2292 81.3647 57.7725 81.085C57.6354 80.7644 57.3776 80.2895 57.2134 79.9649L57.5051 79.54Z" fill="#516629"/>
<path d="M34.2823 71.2315L34.4335 71.1626C34.6958 71.3654 34.9866 71.5797 35.2326 71.7982L35.3916 71.7484L35.5448 71.9475C36.7128 74.1379 37.1441 75.7142 37.5546 78.1552L37.5416 78.3089C37.3033 78.2362 36.8981 78.306 36.5513 78.2516C36.6242 75.9295 35.7432 73.8652 34.6203 71.906C34.5985 71.7596 34.562 71.6671 34.5178 71.5233L33.9894 71.4368L34.2823 71.2315Z" fill="#576D2B"/>
<path d="M37.5565 78.1545C38.5761 77.0616 39.3141 77.0691 40.0568 78.4735L39.2866 78.5343L39.3949 78.9997C39.2808 79.0857 39.2784 79.1067 39.1488 79.1533C38.6965 78.8337 38.4034 78.7367 37.8915 78.5323L37.9173 78.4749L37.5435 78.3083L37.5565 78.1545Z" fill="#4C4B29"/>
<path d="M37.917 78.4753C38.2132 78.0718 38.0652 78.1737 38.4729 77.9995C38.8098 78.0431 39.1568 78.1802 39.2863 78.5347L39.3946 79.0001C39.2805 79.0861 39.278 79.1071 39.1485 79.1537C38.6962 78.8341 38.4031 78.7371 37.8912 78.5327L37.917 78.4753Z" fill="#5B4930"/>
<defs>
<linearGradient id="paint0_linear_138_3911" x1="43.366" y1="76.6318" x2="75.1644" y2="31.3161" gradientUnits="userSpaceOnUse">
<stop stop-color="#6F9828"/>
<stop offset="1" stop-color="#B8D93B"/>
</linearGradient>
<linearGradient id="paint1_linear_138_3911" x1="56.7656" y1="19.5688" x2="56.119" y2="4.87185" gradientUnits="userSpaceOnUse">
<stop stop-color="#92BD33"/>
<stop offset="1" stop-color="#C6DF40"/>
</linearGradient>
<linearGradient id="paint2_linear_138_3911" x1="37.2863" y1="53.7747" x2="31.1741" y2="30.4624" gradientUnits="userSpaceOnUse">
<stop stop-color="#7FA92F"/>
<stop offset="1" stop-color="#BBDC3A"/>
</linearGradient>
<linearGradient id="paint3_linear_138_3911" x1="31.5413" y1="44.9649" x2="32.5366" y2="32.0531" gradientUnits="userSpaceOnUse">
<stop stop-color="#93B72A"/>
<stop offset="1" stop-color="#C2DD41"/>
</linearGradient>
<linearGradient id="paint4_linear_138_3911" x1="64.7995" y1="45.5221" x2="65.5767" y2="31.6171" gradientUnits="userSpaceOnUse">
<stop stop-color="#96BA2F"/>
<stop offset="1" stop-color="#C3DE40"/>
</linearGradient>
<linearGradient id="paint5_linear_138_3911" x1="46.6313" y1="39.8519" x2="34.6322" y2="12.2355" gradientUnits="userSpaceOnUse">
<stop stop-color="#6A9328"/>
<stop offset="1" stop-color="#BFDF3D"/>
</linearGradient>
<linearGradient id="paint6_linear_138_3911" x1="40.0351" y1="19.7525" x2="43.258" y2="15.226" gradientUnits="userSpaceOnUse">
<stop stop-color="#556D1F"/>
<stop offset="1" stop-color="#C6E93E"/>
</linearGradient>
<linearGradient id="paint7_linear_138_3911" x1="28.2706" y1="77.4007" x2="28.2757" y2="84.8563" gradientUnits="userSpaceOnUse">
<stop stop-color="#4C5626"/>
<stop offset="1" stop-color="#764C42"/>
</linearGradient>
<linearGradient id="paint8_linear_138_3911" x1="32.584" y1="86.8704" x2="32.7692" y2="87.4833" gradientUnits="userSpaceOnUse">
<stop stop-color="#B07B43"/>
<stop offset="1" stop-color="#D8A66E"/>
</linearGradient>
<linearGradient id="paint9_linear_138_3911" x1="33.0259" y1="78.3644" x2="33.2107" y2="78.8321" gradientUnits="userSpaceOnUse">
<stop stop-color="#61442C"/>
<stop offset="1" stop-color="#5C5532"/>
</linearGradient>
<linearGradient id="paint10_linear_138_3911" x1="45.4452" y1="77.6971" x2="43.0581" y2="73.6906" gradientUnits="userSpaceOnUse">
<stop stop-color="#85AF30"/>
<stop offset="1" stop-color="#ADCA38"/>
</linearGradient>
<linearGradient id="paint11_linear_138_3911" x1="62.5238" y1="71.938" x2="59.1662" y2="73.8617" gradientUnits="userSpaceOnUse">
<stop stop-color="#425020"/>
<stop offset="1" stop-color="#5E6F38"/>
</linearGradient>
</defs>
</svg>
